<?xml version="1.0" encoding="UTF-8" ?>
<svg
	width="608"
	height="991"
	version="1.1"
	xmlns="http://www.w3.org/2000/svg">
<path fill="#ffffff" d=" M 273.58 96.60 C 278.57 96.35 283.59 95.49 288.59 96.30 C 300.34 97.52 311.85 101.85 321.27 109.03 C 328.22 113.92 334.10 120.12 339.71 126.45 C 350.23 139.86 359.14 154.62 365.40 170.49 C 372.39 187.11 376.34 204.79 379.83 222.41 C 381.85 234.10 383.98 245.79 385.35 257.58 C 386.39 267.25 387.16 276.95 388.37 286.60 C 388.46 287.86 388.54 289.13 388.65 290.40 C 389.18 294.71 389.52 299.04 389.63 303.38 C 390.22 306.43 389.78 309.57 390.37 312.63 C 390.61 317.63 390.85 322.64 391.37 327.63 C 392.29 342.19 392.57 356.76 392.61 371.36 C 393.33 374.56 392.96 377.84 392.60 381.06 C 392.30 387.16 392.70 393.27 392.39 399.37 C 391.52 405.57 392.22 411.89 391.99 418.14 C 384.57 416.88 377.14 415.61 369.59 415.35 C 361.27 414.60 352.94 413.96 344.61 413.35 C 337.88 412.84 331.16 411.96 324.40 411.97 C 321.50 397.76 306.00 385.53 291.39 390.15 C 281.95 392.75 273.22 400.16 271.79 410.26 C 265.73 410.04 259.69 409.55 253.64 409.38 C 247.66 408.82 241.64 408.59 235.63 408.38 C 232.25 407.67 228.76 408.32 225.37 407.62 C 217.74 407.43 210.13 406.69 202.49 406.46 C 202.00 403.79 202.05 401.06 201.62 398.39 C 201.12 392.05 201.22 385.68 200.61 379.37 C 200.53 374.03 200.26 368.69 199.64 363.39 C 199.41 357.44 198.58 351.55 198.36 345.61 C 197.95 343.22 198.04 340.78 197.65 338.40 C 197.17 331.66 196.66 324.92 196.31 318.18 C 195.60 313.60 196.47 308.93 195.61 304.37 C 195.25 298.73 195.86 293.05 195.19 287.42 C 194.62 282.76 195.49 278.01 194.61 273.38 C 194.34 266.59 194.60 259.80 194.48 253.01 C 193.84 245.74 193.70 238.39 194.43 231.13 C 194.67 225.30 194.31 219.45 194.61 213.63 C 195.61 194.87 197.30 175.75 204.22 158.09 C 207.09 151.75 209.58 145.17 213.77 139.55 C 217.22 133.31 222.05 128.04 227.15 123.12 C 235.08 114.82 244.24 107.63 254.47 102.38 C 260.49 99.46 267.02 97.82 273.58 96.60 Z" />
<path d="M 286.75 0.00 L 287.15 0.00 C 299.08 1.33 311.05 2.75 322.61 6.14 C 350.15 13.98 375.08 29.01 397.78 46.17 C 413.58 57.71 426.39 72.90 436.76 89.39 C 450.27 110.94 459.49 134.85 466.63 159.17 C 480.71 207.02 486.56 256.83 489.76 306.46 C 490.34 319.30 491.20 332.12 491.02 344.98 C 492.08 356.29 490.92 367.67 492.02 378.98 C 491.14 393.62 491.61 408.31 491.50 422.99 C 504.51 425.94 517.51 428.93 530.56 431.74 C 533.83 424.47 539.66 417.93 547.47 415.55 C 556.48 412.86 566.95 414.55 574.06 420.91 C 580.84 426.62 583.81 435.76 583.04 444.44 C 587.92 445.52 592.87 446.26 597.73 447.46 C 598.44 453.02 597.65 458.65 598.14 464.23 C 599.06 473.42 597.91 482.69 598.90 491.88 C 599.24 498.98 598.73 506.10 599.14 513.20 C 600.06 522.39 598.91 531.65 599.90 540.84 C 600.24 547.95 599.73 555.08 600.14 562.19 C 600.95 570.35 600.15 578.56 600.64 586.73 C 601.47 594.85 600.64 603.04 601.14 611.18 C 601.95 619.33 601.15 627.54 601.63 635.71 C 602.44 643.51 601.69 651.36 602.10 659.18 C 603.08 668.41 601.92 677.72 602.87 686.96 C 603.33 695.25 602.53 703.58 603.40 711.86 C 603.72 718.83 603.27 725.81 603.61 732.78 C 604.56 741.77 603.46 750.84 604.32 759.84 C 604.89 768.19 604.01 776.59 604.87 784.93 C 605.33 793.24 604.53 801.58 605.40 809.88 C 605.80 817.86 605.05 825.89 605.86 833.86 C 606.34 842.21 605.53 850.59 606.40 858.92 C 606.76 867.26 606.08 875.63 606.96 883.94 C 607.58 891.51 605.84 899.38 608.00 906.74 L 608.00 930.92 C 606.43 935.30 605.74 940.12 602.74 943.85 C 597.90 950.84 589.53 955.28 580.99 955.05 C 572.37 955.33 564.29 950.79 558.71 944.45 C 535.63 954.05 512.43 963.34 489.34 972.89 C 486.18 981.25 478.43 986.95 469.96 989.10 C 467.70 989.63 465.45 990.20 463.27 991.00 L 462.78 991.00 L 464.32 990.63 C 457.83 989.51 451.31 987.38 446.40 982.81 C 440.96 978.04 437.35 971.24 436.79 964.00 C 406.44 958.78 376.09 953.57 345.74 948.35 C 341.60 962.07 325.35 971.28 311.58 966.43 C 304.10 963.99 298.31 957.76 295.18 950.68 C 293.69 947.12 293.52 943.25 292.93 939.50 C 266.00 934.70 239.08 929.88 212.20 924.88 C 210.90 929.76 208.79 934.64 204.69 937.82 C 199.01 942.12 192.07 944.65 185.01 945.41 C 170.25 944.91 157.44 930.94 158.43 916.15 C 133.75 911.85 109.01 907.92 84.39 903.35 C 81.17 910.13 75.80 916.24 68.46 918.56 C 55.94 923.21 40.95 916.82 34.88 905.12 C 33.32 901.83 32.81 898.19 32.32 894.63 C 24.87 893.44 17.46 891.98 10.00 890.86 C 10.02 887.17 10.09 883.48 9.69 879.82 C 9.16 872.41 9.82 864.97 9.34 857.56 C 8.47 849.12 9.52 840.62 8.68 832.18 C 8.12 824.15 8.98 816.09 8.13 808.08 C 7.67 800.05 8.45 791.99 7.63 783.99 C 7.24 777.09 7.77 770.17 7.36 763.27 C 6.45 754.58 7.55 745.82 6.64 737.13 C 6.24 730.15 6.75 723.15 6.39 716.17 C 5.43 707.18 6.57 698.12 5.60 689.13 C 5.29 680.42 5.86 671.68 5.01 662.99 C 5.30 649.96 4.19 636.98 4.49 623.96 C 3.64 615.27 4.22 606.55 3.90 597.85 C 2.94 588.64 4.08 579.36 3.07 570.17 C 2.84 561.76 3.31 553.33 2.51 544.95 C 2.80 531.62 1.71 518.34 1.98 505.01 C 1.11 496.42 1.76 487.79 1.39 479.19 C 0.45 470.54 1.53 461.82 0.68 453.16 C 0.03 445.27 1.16 437.30 0.00 429.45 L 0.00 428.99 C 4.63 429.04 9.34 429.28 13.85 428.02 C 13.83 420.68 17.23 413.44 22.99 408.89 C 27.86 405.17 33.90 403.24 39.93 402.51 C 50.37 403.10 60.14 409.36 65.78 418.06 C 78.03 415.86 90.28 413.60 102.51 411.30 C 102.37 404.87 102.87 398.42 102.07 392.02 C 100.23 374.07 99.12 356.04 98.03 338.03 C 97.41 323.34 96.04 308.67 95.97 293.96 C 94.99 279.00 95.74 263.98 95.50 249.00 C 95.23 241.99 96.25 235.02 96.01 228.02 C 97.70 192.88 100.66 157.14 112.77 123.84 C 123.16 98.08 137.58 73.78 155.98 52.93 C 169.91 37.68 186.51 24.60 205.49 16.23 C 222.28 9.28 240.03 4.69 258.07 2.52 C 267.55 0.81 277.22 1.15 286.75 0.00 M 273.58 96.60 C 267.02 97.82 260.49 99.46 254.47 102.38 C 244.24 107.63 235.08 114.82 227.15 123.12 C 222.05 128.04 217.22 133.31 213.77 139.55 C 209.58 145.17 207.09 151.75 204.22 158.09 C 197.30 175.75 195.61 194.87 194.61 213.63 C 194.31 219.45 194.67 225.30 194.43 231.13 C 193.70 238.39 193.84 245.74 194.48 253.01 C 194.60 259.80 194.34 266.59 194.61 273.38 C 195.49 278.01 194.62 282.76 195.19 287.42 C 195.86 293.05 195.25 298.73 195.61 304.37 C 196.47 308.93 195.60 313.60 196.31 318.18 C 196.66 324.92 197.17 331.66 197.65 338.40 C 198.04 340.78 197.95 343.22 198.36 345.61 C 198.58 351.55 199.41 357.44 199.64 363.39 C 200.26 368.69 200.53 374.03 200.61 379.37 C 201.22 385.68 201.12 392.05 201.62 398.39 C 202.05 401.06 202.00 403.79 202.49 406.46 C 210.13 406.69 217.74 407.43 225.37 407.62 C 228.76 408.32 232.25 407.67 235.63 408.38 C 241.64 408.59 247.66 408.82 253.64 409.38 C 259.69 409.55 265.73 410.04 271.79 410.26 C 273.22 400.16 281.95 392.75 291.39 390.15 C 306.00 385.53 321.50 397.76 324.40 411.97 C 331.16 411.96 337.88 412.84 344.61 413.35 C 352.94 413.96 361.27 414.60 369.59 415.35 C 377.14 415.61 384.57 416.88 391.99 418.14 C 392.22 411.89 391.52 405.57 392.39 399.37 C 392.70 393.27 392.30 387.16 392.60 381.06 C 392.96 377.84 393.33 374.56 392.61 371.36 C 392.57 356.76 392.29 342.19 391.37 327.63 C 390.85 322.64 390.61 317.63 390.37 312.63 C 389.78 309.57 390.22 306.43 389.63 303.38 C 389.52 299.04 389.18 294.71 388.65 290.40 C 388.54 289.13 388.46 287.86 388.37 286.60 C 387.16 276.95 386.39 267.25 385.35 257.58 C 383.98 245.79 381.85 234.10 379.83 222.41 C 376.34 204.79 372.39 187.11 365.40 170.49 C 359.14 154.62 350.23 139.86 339.71 126.45 C 334.10 120.12 328.22 113.92 321.27 109.03 C 311.85 101.85 300.34 97.52 288.59 96.30 C 283.59 95.49 278.57 96.35 273.58 96.60 Z" />
</svg>
