<?xml version="1.0" encoding="utf-8"?>
<!-- Generator: Adobe Illustrator 16.0.0, SVG Export Plug-In . SVG Version: 6.00 Build 0)  -->
<!DOCTYPE svg PUBLIC "-//W3C//DTD SVG 1.1//EN" "http://www.w3.org/Graphics/SVG/1.1/DTD/svg11.dtd">
<svg version="1.1" id="Layer_1" xmlns="http://www.w3.org/2000/svg" xmlns:xlink="http://www.w3.org/1999/xlink" x="0px" y="0px"
	 width="100px" height="100px" viewBox="0 0 100 100" enable-background="new 0 0 100 100" xml:space="preserve">
<g>
	<circle fill="#CFC9C2" cx="50" cy="50" r="50"/>
</g>
<path fill="#03060D" d="M23,52.428c0-9.787,2.061-18.813,6.191-27.072C34.309,15.119,41.314,10,50.203,10
	C59,10,65.869,14.359,70.809,23.064C74.936,30.25,77,38.602,77,48.115c0,9.881-2.064,18.814-6.191,26.803
	C65.777,84.977,58.773,90,49.797,90c-8.531,0-15.305-4.307-20.336-12.926C25.153,69.713,23,61.498,23,52.428z M34.309,47.984
	c0,12.926,1.93,22.984,5.795,30.168c2.691,5.025,6.146,7.541,10.367,7.541c10.146,0,15.221-10.506,15.221-31.518
	c0-9.244-0.809-17.059-2.422-23.434c-2.785-10.504-7.498-15.76-14.145-15.76c-9.879,0-14.816,10.15-14.816,30.443V47.984z"/>
</svg>
