<?xml version="1.0" encoding="utf-8"?>
<!-- Generator: Adobe Illustrator 16.0.0, SVG Export Plug-In . SVG Version: 6.00 Build 0)  -->
<!DOCTYPE svg PUBLIC "-//W3C//DTD SVG 1.1//EN" "http://www.w3.org/Graphics/SVG/1.1/DTD/svg11.dtd">
<svg version="1.1" id="Layer_1" xmlns="http://www.w3.org/2000/svg" xmlns:xlink="http://www.w3.org/1999/xlink" x="0px" y="0px"
	 width="100px" height="100px" viewBox="0 0 100 100" enable-background="new 0 0 100 100" xml:space="preserve">
<g>
	<circle fill="#CFC9C2" cx="50" cy="49.998" r="50"/>
</g>
<path fill="#03060D" d="M35.306,18.633v50.439c0,5.998,2.567,8.998,7.693,8.998h1.305v3.42H17.438v-3.42h1.727
	c4.931,0,7.4-3,7.4-8.998v-33.08c0-6.08-2.155-9.123-6.467-9.123h-2.66v-3.424h1.016c5.238,0,9.969-1.604,14.191-4.813H35.306z
	 M45.066,51.961c0-7.857,1.646-15.082,4.94-21.668C54.148,22.1,59.811,18,66.988,18c6.931,0,12.422,3.508,16.476,10.516
	c3.296,5.748,4.945,12.381,4.945,19.898c0,7.859-1.649,15.039-4.945,21.545C79.323,77.988,73.707,82,66.611,82
	c-6.842,0-12.293-3.465-16.352-10.395C46.795,65.777,45.066,59.229,45.066,51.961z M54.188,48.285c0,6.68,0.718,12.676,2.156,17.996
	c2.197,8.195,5.785,12.295,10.772,12.295c8.111,0,12.165-8.447,12.165-25.346c0-20.869-4.394-31.301-13.182-31.301
	c-7.941,0-11.912,8.105-11.912,24.328V48.285z"/>
</svg>
