<?xml version="1.0" encoding="utf-8"?>
<!-- Generator: Adobe Illustrator 16.0.0, SVG Export Plug-In . SVG Version: 6.00 Build 0)  -->
<!DOCTYPE svg PUBLIC "-//W3C//DTD SVG 1.1//EN" "http://www.w3.org/Graphics/SVG/1.1/DTD/svg11.dtd">
<svg version="1.1" id="Layer_1" xmlns="http://www.w3.org/2000/svg" xmlns:xlink="http://www.w3.org/1999/xlink" x="0px" y="0px"
	 width="188px" height="100px" viewBox="0 0 188 100" enable-background="new 0 0 188 100" xml:space="preserve">
<path fill="#CFC9C2" d="M138.998,0h-88l0,0c-27.613,0-50,22.385-50,49.998c0,27.615,22.387,50.002,50,50.002l0,0h88
	c27.613,0,50-22.387,50-50.002C188.998,22.385,166.611,0,138.998,0z"/>
<path fill="#03060D" d="M44.578,13v59.3c0,7.096,2.98,10.64,8.957,10.64h1.559V87H23.542v-4.061h1.979
	c5.779,0,8.666-3.544,8.666-10.64V33.4c0-7.177-2.494-10.77-7.475-10.77h-3.17v-3.928h1.143c6.162,0,11.74-1.903,16.725-5.703
	H44.578z"/>
<path fill="#03060D" d="M64.125,52.245c0-9.052,1.908-17.402,5.729-25.042C74.585,17.734,81.066,13,89.289,13
	c8.137,0,14.491,4.03,19.059,12.083c3.818,6.646,5.729,14.372,5.729,23.172c0,9.142-1.91,17.403-5.729,24.795
	C103.695,82.352,97.217,87,88.912,87c-7.891,0-14.156-3.984-18.809-11.958C66.117,68.233,64.125,60.635,64.125,52.245z
	 M74.585,48.134c0,11.958,1.785,21.262,5.361,27.907c2.488,4.648,5.684,6.975,9.588,6.975c9.385,0,14.081-9.718,14.081-29.152
	c0-8.553-0.748-15.781-2.24-21.677c-2.576-9.718-6.936-14.578-13.084-14.578c-9.139,0-13.705,9.388-13.705,28.158V48.134z"/>
<path fill="#03060D" d="M125.459,52.245c0-9.052,1.908-17.402,5.729-25.042C135.92,17.734,142.4,13,150.623,13
	c8.137,0,14.49,4.03,19.059,12.083c3.818,6.646,5.729,14.372,5.729,23.172c0,9.142-1.91,17.403-5.729,24.795
	C165.029,82.352,158.551,87,150.246,87c-7.891,0-14.156-3.984-18.809-11.958C127.451,68.233,125.459,60.635,125.459,52.245z
	 M135.92,48.134c0,11.958,1.785,21.262,5.361,27.907c2.488,4.648,5.684,6.975,9.588,6.975c9.385,0,14.08-9.718,14.08-29.152
	c0-8.553-0.748-15.781-2.24-21.677c-2.576-9.718-6.936-14.578-13.084-14.578c-9.139,0-13.705,9.388-13.705,28.158V48.134z"/>
</svg>
