<?xml version="1.0" encoding="utf-8"?>
<!-- Generator: Adobe Illustrator 16.0.0, SVG Export Plug-In . SVG Version: 6.00 Build 0)  -->
<!DOCTYPE svg PUBLIC "-//W3C//DTD SVG 1.1//EN" "http://www.w3.org/Graphics/SVG/1.1/DTD/svg11.dtd">
<svg version="1.1" id="Layer_1" xmlns="http://www.w3.org/2000/svg" xmlns:xlink="http://www.w3.org/1999/xlink" x="0px" y="0px"
	 width="508px" height="100px" viewBox="0 0 508 100" enable-background="new 0 0 508 100" xml:space="preserve">
<path fill="#CFC9C2" d="M458,0H50h-0.002C22.385,0,0,22.385,0,49.998C0,77.613,22.385,100,49.998,100H50h408
	c27.613,0,50-22.387,50-50.002C508,22.385,485.613,0,458,0z"/>
<g>
	<path fill="#03060D" d="M84.141,85.529V82.91c6.889-0.75,10.33-3.271,10.33-7.564c0-2.543-0.973-3.889-2.918-4.041L90.58,71.23
		c-2.797-0.197-4.195-1.572-4.195-4.117c0-1.447,0.439-2.584,1.311-3.406c0.875-0.822,2.035-1.236,3.482-1.236
		c2.445,0,4.367,1.225,5.766,3.67c1.197,2.047,1.795,4.393,1.795,7.037c0,4.143-1.447,7.287-4.342,9.432
		C91.85,84.455,88.432,85.43,84.141,85.529z"/>
</g>
<g>
	<path fill="#03060D" d="M286.615,85.529V82.91c6.887-0.75,10.33-3.271,10.33-7.564c0-2.543-0.971-3.889-2.92-4.041l-0.971-0.074
		c-2.795-0.197-4.193-1.572-4.193-4.117c0-1.447,0.438-2.584,1.309-3.406c0.875-0.822,2.035-1.236,3.482-1.236
		c2.447,0,4.369,1.225,5.768,3.67c1.195,2.047,1.793,4.393,1.793,7.037c0,4.143-1.447,7.287-4.34,9.432
		C294.326,84.455,290.908,85.43,286.615,85.529z"/>
</g>
<path fill="#03060D" d="M430.529,50.367c0-9.542,2.025-18.344,6.08-26.396C441.631,13.989,448.51,9,457.234,9
	c8.633,0,15.377,4.247,20.225,12.735c4.051,7.006,6.08,15.149,6.08,24.425c0,9.637-2.029,18.344-6.08,26.136
	C472.521,82.1,465.646,87,456.834,87c-8.373,0-15.023-4.199-19.961-12.604C432.645,67.219,430.529,59.21,430.529,50.367z
	 M441.631,46.033c0,12.604,1.895,22.41,5.689,29.415c2.641,4.9,6.033,7.353,10.176,7.353c9.959,0,14.939-10.244,14.939-30.729
	c0-9.016-0.791-16.635-2.375-22.849c-2.734-10.242-7.361-15.366-13.887-15.366c-9.697,0-14.543,9.896-14.543,29.68V46.033z"/>
<path fill="#03060D" d="M369.529,50.367c0-9.542,2.023-18.344,6.078-26.396C380.631,13.989,387.51,9,396.232,9
	c8.633,0,15.379,4.247,20.227,12.735c4.051,7.006,6.078,15.149,6.078,24.425c0,9.637-2.027,18.344-6.078,26.136
	C411.521,82.1,404.646,87,395.834,87c-8.375,0-15.023-4.199-19.961-12.604C371.643,67.219,369.529,59.21,369.529,50.367z
	 M380.631,46.033c0,12.604,1.895,22.41,5.688,29.415c2.641,4.9,6.035,7.353,10.176,7.353c9.961,0,14.941-10.244,14.941-30.729
	c0-9.016-0.793-16.635-2.375-22.849c-2.734-10.242-7.363-15.366-13.887-15.366c-9.699,0-14.543,9.896-14.543,29.68V46.033z"/>
<path fill="#03060D" d="M308.213,50.367c0-9.542,2.027-18.344,6.082-26.396C319.314,13.989,326.193,9,334.92,9
	c8.633,0,15.375,4.247,20.223,12.735c4.051,7.006,6.082,15.149,6.082,24.425c0,9.637-2.031,18.344-6.082,26.136
	C350.205,82.1,343.33,87,334.518,87c-8.371,0-15.023-4.199-19.961-12.604C310.33,67.219,308.213,59.21,308.213,50.367z
	 M319.314,46.033c0,12.604,1.895,22.41,5.691,29.415c2.641,4.9,6.031,7.353,10.176,7.353c9.957,0,14.938-10.244,14.938-30.729
	c0-9.016-0.789-16.635-2.375-22.849c-2.734-10.242-7.359-15.366-13.887-15.366c-9.695,0-14.543,9.896-14.543,29.68V46.033z"/>
<path fill="#03060D" d="M226.861,50.367c0-9.542,2.027-18.344,6.082-26.396C237.963,13.989,244.842,9,253.568,9
	c8.633,0,15.375,4.247,20.223,12.735c4.051,7.006,6.082,15.149,6.082,24.425c0,9.637-2.031,18.344-6.082,26.136
	C268.854,82.1,261.979,87,253.166,87c-8.371,0-15.023-4.199-19.961-12.604C228.979,67.219,226.861,59.21,226.861,50.367z
	 M237.963,46.033c0,12.604,1.895,22.41,5.691,29.415c2.641,4.9,6.031,7.353,10.176,7.353c9.957,0,14.938-10.244,14.938-30.729
	c0-9.016-0.789-16.635-2.375-22.849c-2.734-10.242-7.359-15.366-13.887-15.366c-9.695,0-14.543,9.896-14.543,29.68V46.033z"/>
<path fill="#03060D" d="M165.861,50.367c0-9.542,2.025-18.344,6.08-26.396C176.963,13.989,183.842,9,192.566,9
	c8.633,0,15.377,4.247,20.225,12.735c4.051,7.006,6.078,15.149,6.078,24.425c0,9.637-2.027,18.344-6.078,26.136
	C207.854,82.1,200.979,87,192.166,87c-8.373,0-15.023-4.199-19.961-12.604C167.977,67.219,165.861,59.21,165.861,50.367z
	 M176.963,46.033c0,12.604,1.895,22.41,5.689,29.415c2.641,4.9,6.033,7.353,10.176,7.353c9.959,0,14.939-10.244,14.939-30.729
	c0-9.016-0.791-16.635-2.375-22.849c-2.734-10.242-7.361-15.366-13.887-15.366c-9.697,0-14.543,9.896-14.543,29.68V46.033z"/>
<path fill="#03060D" d="M104.547,50.367c0-9.542,2.025-18.344,6.08-26.396C115.648,13.989,122.527,9,131.252,9
	c8.633,0,15.377,4.247,20.225,12.735c4.051,7.006,6.08,15.149,6.08,24.425c0,9.637-2.029,18.344-6.08,26.136
	C146.539,82.1,139.664,87,130.852,87c-8.373,0-15.023-4.199-19.961-12.604C106.662,67.219,104.547,59.21,104.547,50.367z
	 M115.648,46.033c0,12.604,1.895,22.41,5.689,29.415c2.641,4.9,6.033,7.353,10.176,7.353c9.959,0,14.939-10.244,14.939-30.729
	c0-9.016-0.791-16.635-2.375-22.849c-2.734-10.242-7.361-15.366-13.887-15.366c-9.697,0-14.543,9.896-14.543,29.68V46.033z"/>
<path fill="#03060D" d="M61.793,9.001v62.506c0,7.479,3.225,11.216,9.686,11.216h1.684v4.278H39.053v-4.278h2.141
	c6.246,0,9.367-3.737,9.367-11.216V30.504c0-7.563-2.695-11.352-8.08-11.352h-3.428v-4.141h1.236c6.66,0,12.691-2.005,18.08-6.011
	H61.793z"/>
</svg>
