<?xml version="1.0" encoding="utf-8"?>
<!-- Generator: Adobe Illustrator 16.0.0, SVG Export Plug-In . SVG Version: 6.00 Build 0)  -->
<!DOCTYPE svg PUBLIC "-//W3C//DTD SVG 1.1//EN" "http://www.w3.org/Graphics/SVG/1.1/DTD/svg11.dtd">
<svg version="1.1" id="Layer_1" xmlns="http://www.w3.org/2000/svg" xmlns:xlink="http://www.w3.org/1999/xlink" x="0px" y="0px"
	 width="100px" height="100px" viewBox="0 0 100 100" enable-background="new 0 0 100 100" xml:space="preserve">
<g>
	<circle fill="#CFC9C2" cx="50" cy="49.998" r="50"/>
</g>
<path fill="#03060D" d="M39.831,18.32v50.84c0,6.049,2.516,9.07,7.536,9.07h1.279v3.449H21.565V78.23h1.788
	c5.109,0,7.667-3.021,7.667-9.07V35.82c0-6.133-2.173-9.195-6.518-9.195H21.82v-3.449h1.024c5.28,0,10.047-1.617,14.304-4.855
	H39.831z M72.28,18.32v50.84c0,6.049,2.511,9.07,7.537,9.07h1.278v3.449H54.01V78.23h1.788c5.115,0,7.667-3.021,7.667-9.07V35.82
	c0-6.133-2.173-9.195-6.513-9.195h-2.682v-3.449h1.019c5.28,0,10.047-1.617,14.31-4.855H72.28z"/>
</svg>
