<?xml version="1.0" encoding="utf-8"?>
<!-- Generator: Adobe Illustrator 16.0.0, SVG Export Plug-In . SVG Version: 6.00 Build 0)  -->
<!DOCTYPE svg PUBLIC "-//W3C//DTD SVG 1.1//EN" "http://www.w3.org/Graphics/SVG/1.1/DTD/svg11.dtd">
<svg version="1.1" id="Layer_1" xmlns="http://www.w3.org/2000/svg" xmlns:xlink="http://www.w3.org/1999/xlink" x="0px" y="0px"
	 width="100px" height="100px" viewBox="0 0 100 100" enable-background="new 0 0 100 100" xml:space="preserve">
<g>
	<circle fill="#CFC9C2" cx="50" cy="49.998" r="50"/>
</g>
<path fill="#03060D" d="M35.63,19.215v49.18c0,5.875,2.428,8.816,7.277,8.816h1.278v3.445H18v-3.445h1.533
	c4.938,0,7.406-2.941,7.406-8.816v-32.32c0-5.955-2.043-8.939-6.128-8.939H18.13v-3.322h1.019c5.109,0,9.709-1.531,13.795-4.598
	H35.63z M86.595,65.582l-4.471,15.203H44.695v-3.32c1.793-2.043,5.749-6.133,11.882-12.266c3.659-3.66,7.324-7.578,10.988-11.748
	c1.788-2.049,3.191-3.748,4.215-5.115c2.126-3.232,3.191-6.465,3.191-9.703s-0.981-6.092-2.937-8.561
	c-1.959-2.471-4.559-3.705-7.791-3.705c-6.731,0-12.012,4.598-15.843,13.799l-3.321-1.279c4.6-12.775,11.752-19.164,21.461-19.164
	c4.767,0,8.857,1.621,12.262,4.855c3.404,3.238,5.109,7.281,5.109,12.137c0,6.215-3.534,12.262-10.598,18.141l-7.282,5.873
	c-4.688,3.92-8.561,7.625-11.628,11.111c-0.254,0.262-0.681,0.729-1.273,1.41h19.544c2.979,0,5.192-0.557,6.643-1.664
	c1.445-1.102,2.766-3.107,3.956-6.004H86.595z"/>
</svg>
