<?xml version="1.0" encoding="utf-8"?>
<!-- Generator: Adobe Illustrator 16.0.0, SVG Export Plug-In . SVG Version: 6.00 Build 0)  -->
<!DOCTYPE svg PUBLIC "-//W3C//DTD SVG 1.1//EN" "http://www.w3.org/Graphics/SVG/1.1/DTD/svg11.dtd">
<svg version="1.1" id="Layer_1" xmlns="http://www.w3.org/2000/svg" xmlns:xlink="http://www.w3.org/1999/xlink" x="0px" y="0px"
	 width="100px" height="100px" viewBox="0 0 100 100" enable-background="new 0 0 100 100" xml:space="preserve">
<g>
	<circle fill="#CFC9C2" cx="50" cy="49.998" r="50"/>
</g>
<path fill="#03060D" d="M36.308,19.471v49.053c0,5.789,2.427,8.684,7.276,8.684h1.154v3.322H18.677v-3.322h1.663
	c4.938,0,7.407-2.895,7.407-8.684V36.332c0-5.879-2.09-8.816-6.259-8.816h-2.557v-3.32h1.023c5.021,0,9.579-1.574,13.665-4.725
	H36.308z M79.355,63.158v5.109c0,5.707,1.996,8.561,6.003,8.561h1.658v3.316H62.618v-3.316h1.918c4.003,0,6.004-2.813,6.004-8.43
	v-5.24H46.012v-5.109l25.932-37.814h7.412v38.578h0.639c2.47,0,4.299-1.953,5.489-5.873h3.066l-1.533,10.219H79.355z M72.582,58.049
	V25.859L50.866,58.049H72.582z"/>
</svg>
