<?xml version="1.0" encoding="utf-8"?>
<!-- Generator: Adobe Illustrator 16.0.0, SVG Export Plug-In . SVG Version: 6.00 Build 0)  -->
<!DOCTYPE svg PUBLIC "-//W3C//DTD SVG 1.1//EN" "http://www.w3.org/Graphics/SVG/1.1/DTD/svg11.dtd">
<svg version="1.1" id="Layer_1" xmlns="http://www.w3.org/2000/svg" xmlns:xlink="http://www.w3.org/1999/xlink" x="0px" y="0px"
	 width="100px" height="100px" viewBox="0 0 100 100" enable-background="new 0 0 100 100" xml:space="preserve">
<g>
	<circle fill="#CFC9C2" cx="50" cy="49.998" r="50"/>
</g>
<path fill="#03060D" d="M34.309,18.322V69.16c0,6.047,2.516,9.07,7.537,9.07h1.279v3.447H16.043V78.23h1.789
	c5.109,0,7.668-3.023,7.668-9.07V35.816c0-6.127-2.174-9.193-6.52-9.193h-2.682v-3.451h1.023c5.281,0,10.049-1.617,14.305-4.85
	H34.309z M54.367,45.781c4.684-4.422,9.408-6.643,14.18-6.643c5.109,0,9.236,2.049,12.391,6.135c2.895,3.746,4.34,8.305,4.34,13.668
	c0,5.791-1.703,10.859-5.109,15.199c-3.746,4.855-8.43,7.281-14.049,7.281c-6.643,0-12.006-2.895-16.098-8.684
	c-3.576-5.109-5.365-11.156-5.365-18.141c0-7.49,2.043-14.371,6.135-20.631c4.084-6.258,9.58-10.707,16.477-13.348
	c3.83-1.451,7.922-2.174,12.262-2.174v3.322c-9.193,0.428-16.051,4.092-20.563,10.988C56.664,36.332,55.131,40.672,54.367,45.781z
	 M53.727,52.045c-0.082,1.273-0.129,2.553-0.129,3.83c0,4.938,0.852,9.496,2.559,13.672c2.213,5.445,5.445,8.17,9.707,8.17
	c3.66,0,6.43-1.871,8.301-5.619c1.363-2.895,2.043-6.43,2.043-10.604c0-4.34-0.633-8.088-1.912-11.236
	c-1.877-4.262-4.729-6.389-8.561-6.389C61.051,43.869,57.049,46.594,53.727,52.045z"/>
</svg>
