<?xml version="1.0" encoding="utf-8"?>
<!-- Generator: Adobe Illustrator 16.0.0, SVG Export Plug-In . SVG Version: 6.00 Build 0)  -->
<!DOCTYPE svg PUBLIC "-//W3C//DTD SVG 1.1//EN" "http://www.w3.org/Graphics/SVG/1.1/DTD/svg11.dtd">
<svg version="1.1" id="Layer_1" xmlns="http://www.w3.org/2000/svg" xmlns:xlink="http://www.w3.org/1999/xlink" x="0px" y="0px"
	 width="100px" height="100px" viewBox="0 0 100 100" enable-background="new 0 0 100 100" xml:space="preserve">
<g>
	<circle fill="#CFC9C2" cx="50" cy="49.998" r="50"/>
</g>
<path fill="#03060D" d="M33.711,19.152v49.307c0,5.879,2.43,8.814,7.285,8.814h1.148v3.322H15.957v-3.322h1.789
	c4.938,0,7.41-2.936,7.41-8.814V36.141c0-5.957-2.129-8.941-6.387-8.941h-2.559v-3.32h1.023c5.109,0,9.711-1.576,13.797-4.727
	H33.711z M66.418,80.977h-8.945v-1.02c0-5.707,1.789-12.902,5.363-21.586c5.453-12.949,10.48-22.912,15.074-29.893l0.516-0.895
	H57.473c-3.066,0-5.387,0.639-6.961,1.912c-1.574,1.279-2.793,3.41-3.645,6.389h-3.445l3.832-16.861h2.301
	c1.273,0.598,3.578,0.895,6.898,0.895h27.59v4.855c-1.02,1.449-2.297,3.746-3.832,6.896c-2.984,5.795-5.707,12.521-8.176,20.182
	C68.371,63.266,66.5,72.977,66.418,80.977z"/>
</svg>
