<?xml version="1.0" encoding="utf-8"?>
<!-- Generator: Adobe Illustrator 16.0.0, SVG Export Plug-In . SVG Version: 6.00 Build 0)  -->
<!DOCTYPE svg PUBLIC "-//W3C//DTD SVG 1.1//EN" "http://www.w3.org/Graphics/SVG/1.1/DTD/svg11.dtd">
<svg version="1.1" id="Layer_1" xmlns="http://www.w3.org/2000/svg" xmlns:xlink="http://www.w3.org/1999/xlink" x="0px" y="0px"
	 width="100px" height="100px" viewBox="0 0 100 100" enable-background="new 0 0 100 100" xml:space="preserve">
<g>
	<circle fill="#CFC9C2" cx="50" cy="49.998" r="50"/>
</g>
<path fill="#03060D" d="M35.975,19.214v49.436c0,5.879,2.428,8.815,7.281,8.815h1.279v3.321H18.219v-3.321h1.664
	c5.021,0,7.537-2.937,7.537-8.815V36.205c0-5.962-2.133-8.939-6.389-8.939h-2.557v-3.322h1.023c5.109,0,9.709-1.574,13.795-4.729
	H35.975z M58.584,49.615l-1.277-1.019c-4.002-2.724-6.643-4.896-7.916-6.513c-1.533-2.131-2.303-4.6-2.303-7.412
	c0-4.683,2-8.514,6.002-11.497c3.576-2.807,7.84-4.216,12.777-4.216c4.6,0,8.686,1.195,12.262,3.576
	c3.918,2.729,5.879,6.347,5.879,10.858c0,5.452-3.748,9.839-11.244,13.16c8.604,4.174,12.902,10.006,12.902,17.501
	c0,5.364-2.086,9.621-6.26,12.771c-3.574,2.812-8.133,4.215-13.67,4.215c-5.279,0-9.791-1.32-13.539-3.961
	c-4.34-2.978-6.514-6.938-6.514-11.876c0-5.026,2.34-9.112,7.027-12.268C53.902,52.09,55.861,50.982,58.584,49.615z M62.16,51.024
	c-6.215,2.895-9.324,7.406-9.324,13.54c0,3.919,1.279,7.09,3.83,9.517c2.559,2.428,5.75,3.639,9.586,3.639
	c3.576,0,6.596-0.956,9.07-2.874c2.469-1.913,3.701-4.574,3.701-7.984c0-5.192-3.322-9.366-9.965-12.516L62.16,51.024z
	 M69.188,44.891c5.537-2.469,8.301-6.128,8.301-10.982c0-3.321-1.168-6.004-3.508-8.052c-2.344-2.043-5.219-3.062-8.623-3.062
	c-2.813,0-5.322,0.806-7.537,2.422c-2.219,1.622-3.32,3.837-3.32,6.644c0,3.409,1.574,6.133,4.725,8.176
	c0.68,0.426,3.492,1.788,8.43,4.091L69.188,44.891z"/>
</svg>
