<?xml version="1.0" encoding="utf-8"?>
<!-- Generator: Adobe Illustrator 16.0.0, SVG Export Plug-In . SVG Version: 6.00 Build 0)  -->
<!DOCTYPE svg PUBLIC "-//W3C//DTD SVG 1.1//EN" "http://www.w3.org/Graphics/SVG/1.1/DTD/svg11.dtd">
<svg version="1.1" id="Layer_1" xmlns="http://www.w3.org/2000/svg" xmlns:xlink="http://www.w3.org/1999/xlink" x="0px" y="0px"
	 width="100px" height="100px" viewBox="0 0 100 100" enable-background="new 0 0 100 100" xml:space="preserve">
<g>
	<circle fill="#CFC9C2" cx="50" cy="49.998" r="50"/>
</g>
<path fill="#03060D" d="M37.162,18.574v50.205c0,5.962,2.51,8.939,7.537,8.939h1.277v3.451H19.152v-3.451h1.787
	c5.027,0,7.537-2.978,7.537-8.939V35.82c0-6.045-2.131-9.07-6.389-9.07h-2.682v-3.446h1.023c5.193,0,9.918-1.575,14.18-4.729H37.162
	z M77.912,54.345c-4.684,4.429-9.365,6.643-14.049,6.643c-5.109,0-9.242-2.089-12.393-6.263c-2.811-3.659-4.215-8.13-4.215-13.41
	c0-5.708,1.658-10.817,4.98-15.329c3.746-4.854,8.389-7.281,13.924-7.281c6.727,0,12.049,2.895,15.967,8.686
	c3.66,5.197,5.494,11.284,5.494,18.265c0,10.053-3.299,18.504-9.9,25.359C71.119,77.87,62.84,81.342,52.875,81.425v-3.321
	c3.066-0.171,5.494-0.515,7.281-1.023C70.293,74.013,76.207,66.435,77.912,54.345z M78.553,48.081
	c0.082-1.356,0.129-2.635,0.129-3.83c0-4.938-0.852-9.45-2.557-13.54c-2.299-5.364-5.535-8.047-9.711-8.047
	c-3.658,0-6.346,1.83-8.045,5.494c-1.451,2.979-2.174,6.472-2.174,10.474c0,4.34,0.682,8.093,2.043,11.237
	c1.789,4.174,4.602,6.264,8.432,6.264C71.27,56.133,75.23,53.451,78.553,48.081z"/>
</svg>
