<?xml version="1.0" encoding="utf-8"?>
<!-- Generator: Adobe Illustrator 16.0.0, SVG Export Plug-In . SVG Version: 6.00 Build 0)  -->
<!DOCTYPE svg PUBLIC "-//W3C//DTD SVG 1.1//EN" "http://www.w3.org/Graphics/SVG/1.1/DTD/svg11.dtd">
<svg version="1.1" id="Layer_1" xmlns="http://www.w3.org/2000/svg" xmlns:xlink="http://www.w3.org/1999/xlink" x="0px" y="0px"
	 width="100px" height="100px" viewBox="0 0 100 100" enable-background="new 0 0 100 100" xml:space="preserve">
<g>
	<path fill="#C1B5AD" d="M85.349,14.637C94.4,23.687,100,36.188,100,49.997C100,77.613,77.613,100,49.999,100
		c-13.806,0-26.305-5.596-35.354-14.646"/>
	<path fill="#CFC9C2" d="M14.646,85.354C5.597,76.307,0,63.805,0,49.997C0,22.384,22.386,0,49.999,0
		c13.804,0,26.302,5.593,35.35,14.637"/>
</g>
<path fill="#03060D" d="M43.646,41.591l-2.866,9.676H16.959v-2.068c1.157-1.29,3.692-3.891,7.607-7.804
	c2.357-2.36,4.692-4.851,7.005-7.476c1.157-1.288,2.048-2.402,2.667-3.336c1.379-1.999,2.07-4.046,2.07-6.138
	c0-2.045-0.633-3.848-1.901-5.402c-1.267-1.56-2.903-2.339-4.905-2.339c-4.313,0-7.694,2.916-10.14,8.743l-2.137-0.803
	c2.891-8.182,7.448-12.274,13.678-12.274c3.069,0,5.682,1.044,7.839,3.134c2.159,2.092,3.236,4.67,3.236,7.741
	c0,3.915-2.245,7.738-6.738,11.475l-4.668,3.869c-2.981,2.492-5.453,4.827-7.406,7.005c-0.136,0.136-0.402,0.446-0.802,0.935h12.41
	c1.912,0,3.359-0.377,4.335-1.133c0.845-0.669,1.67-1.936,2.47-3.805H43.646z"/>
<path fill="#03060D" d="M89.62,65.99c0,2.702-0.982,4.544-2.947,5.526c-0.574,0.287-2.374,0.677-5.403,1.166
	c-1.964,0.329-2.946,1.086-2.946,2.271v4.973c0,0.209,0.062,0.841,0.184,1.905l0.185,1.966c0,0.613-0.143,1.617-0.43,3.008
	c-0.777,0.163-1.679,0.348-2.701,0.554c-0.328-1.23-0.491-2.069-0.491-2.519c0-0.203,0.05-0.512,0.153-0.921
	c0.102-0.408,0.153-0.716,0.153-0.922c0-0.284-0.253-1.083-0.763-2.393h-0.952c-0.126,0.204-0.167,0.471-0.128,0.797
	c0.164,0.696,0.226,1.288,0.186,1.781c-0.697,0.491-1.657,1.146-2.885,1.965c-0.289-0.083-0.39-0.123-0.309-0.123v-4.36
	c-0.081-0.203-0.285-0.285-0.613-0.246h-0.737l-0.737,5.771c-0.572,0.041-1.268,0.041-2.086,0c-0.287-1.35-0.799-3.354-1.535-6.016
	h-0.492c-0.449,1.433-0.695,2.211-0.736,2.334c0,0.163,0.051,0.48,0.154,0.951c0.102,0.471,0.153,0.787,0.153,0.951
	c0,0.122-0.042,0.43-0.124,0.921l-0.184,1.474c-0.083,0.08-0.184,0.121-0.307,0.121c-1.229,0-2.048-0.307-2.455-0.919
	c-0.411-0.615-0.575-1.475-0.492-2.58l0.492-7.366c0-0.122,0.039-0.287,0.121-0.492c0.082-0.203,0.123-0.348,0.123-0.428
	c0-0.328-0.348-0.984-1.043-1.967c-0.123-0.04-0.758-0.184-1.904-0.431c-0.695-0.162-2.066-0.449-4.111-0.857
	c-2.825-0.531-4.238-2.803-4.238-6.815c0-5.977,2.457-10.949,7.367-14.919c0.204,1.106,0.554,2.577,1.045,4.419
	c0.368,0.085,1.168,0.269,2.395,0.554c0.246,0.081,1.494,0.532,3.744,1.351c-1.145-0.695-2.64-1.819-4.48-3.376
	c-0.697-0.818-1.046-2.19-1.046-4.113c0-0.452,0.778-0.982,2.335-1.599c1.391-0.572,2.434-0.897,3.131-0.98
	c2.209-0.286,3.908-0.431,5.096-0.431c5.115,0,9.25,1.311,12.4,3.932c-1.021,1.188-2.783,2.453-5.279,3.806
	c0.982,0.041,2.416-0.347,4.299-1.168c1.883-0.816,2.68-1.227,2.395-1.227c0.326,0,0.982,0.655,1.965,1.964
	c0.735,0.982,1.328,1.864,1.779,2.64c1.311,2.333,2.19,4.852,2.642,7.552c0,0.942,0.02,1.617,0.061,2.025V65.99z M66.104,67.098
	c0-1.761-0.767-3.429-2.301-5.006c-1.536-1.576-3.185-2.363-4.944-2.363c-1.555,0-2.924,0.66-4.113,1.977
	c-1.186,1.32-1.779,2.782-1.779,4.389c0,1.401,0.675,2.309,2.027,2.719c0.859,0.248,2.065,0.392,3.62,0.434h3.377
	C64.732,69.285,66.104,68.569,66.104,67.098z M72.797,74.71v-1.902c-0.285-0.533-0.572-1.087-0.858-1.659
	c-0.245-0.818-0.696-1.964-1.351-3.44l-0.676,7.184c0,0.576-0.122,0.861-0.369,0.861c-0.162,0-0.287-0.04-0.368-0.123
	c-0.287-4.338-0.429-6.222-0.429-5.647v-2.148c-0.084-0.126-0.186-0.187-0.309-0.187c-1.391,1.436-2.086,3.748-2.086,6.938
	c0,1.761,0.162,2.844,0.49,3.257c0.328-0.083,0.695-0.226,1.106-0.431c0.163-0.083,0.634-0.123,1.411-0.123
	c0.775,0,1.72,0.245,2.823,0.735C72.593,78.024,72.797,76.921,72.797,74.71z M86.673,66.154c0-1.646-0.614-3.119-1.843-4.418
	c-1.228-1.296-2.639-1.945-4.234-1.945c-1.719,0-3.328,0.787-4.82,2.362c-1.494,1.576-2.242,3.223-2.242,4.944
	c0,1.432,0.697,2.148,2.088,2.148h7.06C85.343,69.204,86.673,68.176,86.673,66.154z"/>
</svg>
