<?xml version="1.0" encoding="utf-8"?>
<!-- Generator: Adobe Illustrator 16.0.0, SVG Export Plug-In . SVG Version: 6.00 Build 0)  -->
<!DOCTYPE svg PUBLIC "-//W3C//DTD SVG 1.1//EN" "http://www.w3.org/Graphics/SVG/1.1/DTD/svg11.dtd">
<svg version="1.1" id="Layer_1" xmlns="http://www.w3.org/2000/svg" xmlns:xlink="http://www.w3.org/1999/xlink" x="0px" y="0px"
	 width="100px" height="100px" viewBox="0 0 100 100" enable-background="new 0 0 100 100" xml:space="preserve">
<g>
	<path fill="#BBD8E7" d="M85.349,14.637C94.4,23.687,100,36.188,100,49.997C100,77.613,77.613,100,49.999,100
		c-13.806,0-26.305-5.596-35.354-14.646"/>
	<path fill="#CFC9C2" d="M14.646,85.354C5.597,76.307,0,63.805,0,49.997C0,22.384,22.386,0,49.999,0
		c13.804,0,26.302,5.593,35.35,14.637"/>
</g>
<path fill="#03060D" d="M76.723,83.675c-2.692,2.739-6.008,4.109-9.947,4.109c-4.422,0-7.929-1.514-10.523-4.541
	c-2.452-2.883-3.677-6.558-3.677-11.028c0-4.804,2.091-10.281,6.271-16.434c3.41-5.046,7.423-9.467,12.037-13.263
	c-0.673,3.076-1.01,5.262-1.01,6.56c0,2.98,0.937,5.886,2.812,8.721c2.307,3.365,4.061,5.864,5.262,7.496
	c1.874,2.835,2.811,5.599,2.811,8.289C80.758,77.574,79.413,80.938,76.723,83.675z M76.65,68.287
	c-0.722-1.61-1.563-2.679-2.523-3.208c0.145,0.288,0.215,0.698,0.215,1.225c0,1.011-0.287,2.454-0.863,4.325l-0.938,2.884
	c0,1.681,0.84,2.523,2.522,2.523c1.777,0,2.668-1.177,2.668-3.532C77.731,71.303,77.371,69.896,76.65,68.287z"/>
<path fill="#03060D" d="M43.646,41.593l-2.866,9.674H16.959v-2.068c1.157-1.289,3.692-3.889,7.607-7.804
	c2.357-2.358,4.692-4.851,7.005-7.476c1.157-1.287,2.048-2.402,2.667-3.335c1.379-2,2.07-4.045,2.07-6.138
	c0-2.045-0.633-3.847-1.901-5.403c-1.267-1.558-2.903-2.338-4.905-2.338c-4.313,0-7.694,2.915-10.14,8.742l-2.137-0.801
	c2.891-8.184,7.448-12.276,13.678-12.276c3.069,0,5.682,1.044,7.839,3.135c2.159,2.091,3.236,4.67,3.236,7.74
	c0,3.915-2.245,7.74-6.738,11.477l-4.668,3.867c-2.981,2.492-5.453,4.827-7.406,7.006c-0.136,0.135-0.402,0.447-0.802,0.936h12.41
	c1.912,0,3.359-0.377,4.335-1.135c0.845-0.667,1.67-1.936,2.47-3.803H43.646z"/>
</svg>
