<?xml version="1.0" encoding="utf-8"?>
<!-- Generator: Adobe Illustrator 16.0.0, SVG Export Plug-In . SVG Version: 6.00 Build 0)  -->
<!DOCTYPE svg PUBLIC "-//W3C//DTD SVG 1.1//EN" "http://www.w3.org/Graphics/SVG/1.1/DTD/svg11.dtd">
<svg version="1.1" id="Layer_1" xmlns="http://www.w3.org/2000/svg" xmlns:xlink="http://www.w3.org/1999/xlink" x="0px" y="0px"
	 width="100px" height="100px" viewBox="0 0 100 100" enable-background="new 0 0 100 100" xml:space="preserve">
<g>
	<path fill="#9CC395" d="M85.349,14.637C94.4,23.687,100,36.188,100,49.997C100,77.613,77.613,100,50,100
		c-13.807,0-26.305-5.596-35.354-14.646"/>
	<path fill="#CFC9C2" d="M14.646,85.354C5.596,76.307,0,63.805,0,49.997C0,22.384,22.387,0,50,0
		c13.804,0,26.301,5.593,35.349,14.637"/>
</g>
<path fill="#03060D" d="M43.646,41.591l-2.866,9.676H16.959v-2.068c1.157-1.29,3.692-3.891,7.607-7.804
	c2.357-2.36,4.692-4.851,7.005-7.476c1.157-1.288,2.048-2.402,2.667-3.336c1.379-1.999,2.07-4.046,2.07-6.138
	c0-2.045-0.633-3.848-1.901-5.402c-1.267-1.56-2.903-2.339-4.905-2.339c-4.313,0-7.694,2.916-10.14,8.743l-2.137-0.803
	c2.891-8.182,7.448-12.274,13.678-12.274c3.069,0,5.682,1.044,7.839,3.134c2.159,2.092,3.236,4.67,3.236,7.741
	c0,3.915-2.245,7.738-6.738,11.475l-4.668,3.869c-2.981,2.492-5.453,4.827-7.406,7.005c-0.136,0.136-0.402,0.446-0.802,0.935h12.41
	c1.912,0,3.359-0.377,4.335-1.133c0.845-0.669,1.67-1.936,2.47-3.805H43.646z"/>
<path fill="#03060D" d="M89.518,67.618c0,0.758-0.293,1.437-0.879,2.043c-0.586,0.604-1.257,0.906-2.015,0.906
	c-1.208,0-2.099-0.567-2.663-1.702l-2.666-0.112c-0.568,0-1.685,0.246-3.346,0.737c-1.777,0.491-2.799,0.888-3.064,1.19
	c-0.414,0.454-0.755,1.514-1.02,3.177c-0.229,1.361-0.339,2.363-0.339,3.007c0,1.019,0.159,1.767,0.481,2.24
	c0.32,0.472,0.983,0.868,1.983,1.189c1.001,0.319,1.616,0.502,1.844,0.539c0.151,0,0.396-0.018,0.737-0.057h0.68
	c0.492,0,1.002,0.077,1.533,0.227c0.755,0.227,1.078,0.528,0.965,0.907c-0.531-0.074-1.456,0.038-2.779,0.34l1.587,0.795
	c0,0.454-0.642,0.679-1.929,0.679c-0.342,0-0.805-0.073-1.389-0.225c-0.588-0.154-0.975-0.228-1.163-0.228H75.34
	c-0.038,0.379-0.15,0.943-0.34,1.701c-0.645-0.038-1.4-0.417-2.27-1.133c-0.87-0.72-1.418-1.079-1.643-1.079
	c-0.229,0-0.551,0.359-0.965,1.079c-0.417,0.716-0.625,1.207-0.625,1.474c-0.49-0.267-0.904-0.758-1.248-1.474
	c-0.15-0.495-0.321-0.986-0.51-1.478c-0.378,0.039-1.076,0.835-2.098,2.384h-0.283c-0.078-0.113-0.361-0.906-0.854-2.384
	c-1.172-0.375-2.266-0.564-3.287-0.564c-0.491,0-1.249,0.112-2.27,0.34l-1.586-0.112c0.225-0.228,0.887-0.663,1.983-1.305
	c1.284-0.758,2.269-1.137,2.949-1.137c0.112,0,0.263,0.021,0.454,0.058c0.188,0.04,0.34,0.058,0.454,0.058
	c0.263,0,0.69-0.142,1.276-0.426s0.926-0.539,1.018-0.766c0.098-0.229,0.145-0.813,0.145-1.759c0-2.154-0.568-3.762-1.703-4.82
	c-0.984-0.944-2.608-1.625-4.877-2.042c-0.605,2.154-2.307,3.234-5.104,3.234c-0.908,0-1.814-0.548-2.723-1.646
	c-0.905-1.098-1.361-2.099-1.361-3.007c0-1.399,0.586-2.551,1.757-3.459c-0.943-0.982-1.417-1.984-1.417-3.006
	c0-0.945,0.292-1.776,0.879-2.496c0.586-0.716,1.353-1.133,2.296-1.248c-0.073-1.208,0.322-2.042,1.191-2.495
	c-0.416-0.414-0.623-1.151-0.623-2.211c0-1.247,0.415-2.287,1.248-3.119c0.83-0.831,1.871-1.248,3.117-1.248
	c1.363,0,2.479,0.474,3.348,1.417c1.098-3.742,3.459-5.613,7.088-5.613c1.891,0,3.555,0.756,4.991,2.27
	c0.53,0.565,0.794,0.868,0.794,0.905c-0.453,0-0.226-0.086,0.68-0.254c0.908-0.171,1.568-0.257,1.986-0.257
	c1.473,0,2.778,0.55,3.914,1.646c0.983,0.984,1.664,2.23,2.043,3.742c0.264,0.039,0.679,0.151,1.246,0.341
	c0.831,0.417,1.248,1.135,1.248,2.155c0,0.189-0.152,0.549-0.454,1.079c2.419,1.361,3.63,3.251,3.63,5.67
	c0,0.681-0.266,1.627-0.793,2.836C89.027,65.69,89.518,66.521,89.518,67.618z M66.152,70.114v-0.737
	c0-0.869-0.426-1.664-1.275-2.382c-0.852-0.719-1.711-1.077-2.581-1.077c-1.06,0-2.042,0.246-2.949,0.735
	C61.35,66.542,63.619,67.693,66.152,70.114z M65.131,63.083c-0.566-0.646-1.059-1.305-1.474-1.985
	c-1.589,0.414-2.382,0.888-2.382,1.416c0.452-0.037,1.115,0.047,1.984,0.256C64.127,62.979,64.754,63.083,65.131,63.083z
	 M68.594,61.323v-2.496c-0.91-0.15-1.459-0.226-1.646-0.226v0.851L68.594,61.323z M75.965,59.736
	c-0.455-0.189-1.305-0.568-2.555-1.135v4.877C75.189,62.456,76.039,61.21,75.965,59.736z M79.081,66.427l-1.246-1.529
	c-0.755,0.529-1.521,1.067-2.298,1.615c-0.775,0.548-1.445,1.163-2.011,1.844C75.225,67.448,77.08,66.806,79.081,66.427z"/>
</svg>
