<?xml version="1.0" encoding="utf-8"?>
<!-- Generator: Adobe Illustrator 16.0.0, SVG Export Plug-In . SVG Version: 6.00 Build 0)  -->
<!DOCTYPE svg PUBLIC "-//W3C//DTD SVG 1.1//EN" "http://www.w3.org/Graphics/SVG/1.1/DTD/svg11.dtd">
<svg version="1.1" id="Layer_1" xmlns="http://www.w3.org/2000/svg" xmlns:xlink="http://www.w3.org/1999/xlink" x="0px" y="0px"
	 width="100px" height="100px" viewBox="0 0 100 100" enable-background="new 0 0 100 100" xml:space="preserve">
<g>
	<path fill="#F79F75" d="M85.349,14.637C94.4,23.687,100,36.188,100,49.997C100,77.613,77.613,100,50,100
		c-13.807,0-26.305-5.596-35.354-14.646"/>
	<path fill="#CFC9C2" d="M14.646,85.354C5.596,76.307,0,63.805,0,49.997C0,22.384,22.387,0,50,0
		c13.803,0,26.301,5.593,35.349,14.637"/>
</g>
<path fill="#03060D" d="M88.301,74.44c-1.719,4.098-5.131,6.144-10.24,6.144c-0.938,0-1.952,0.117-3.045,0.353
	c-1.639,0.349-2.457,0.839-2.457,1.463c0,0.194,0.137,0.419,0.41,0.674c0.271,0.254,0.508,0.38,0.703,0.38
	c-0.977,0-0.314,0.028,1.986,0.087c2.303,0.059,3.746,0.089,4.332,0.089c-3.394,1.987-9.07,2.903-17.029,2.75
	c-2.613-0.039-4.857-1.19-6.729-3.454c-1.835-2.146-2.751-4.542-2.751-7.197c0-2.808,0.946-5.197,2.839-7.168
	c1.891-1.97,4.242-2.955,7.051-2.955c0.623,0,1.453,0.136,2.486,0.409c1.034,0.274,1.727,0.41,2.077,0.41
	c1.444,0,3.239-0.595,5.385-1.786c2.146-1.188,3.16-1.784,3.044-1.784c-0.391,4.098-1.757,6.847-4.098,8.252
	c-1.678,0.976-2.516,1.93-2.516,2.867c0,0.583,0.35,1.054,1.053,1.404c0.545,0.274,1.15,0.41,1.814,0.41
	c1.014,0,2.008-0.624,2.984-1.873c0.975-1.249,1.403-2.379,1.287-3.395c-0.116-1.17-0.037-2.574,0.234-4.213
	c0.077-0.469,0.361-1.043,0.848-1.727c0.488-0.684,0.928-1.101,1.317-1.258c0,0.35-0.128,0.936-0.38,1.755
	c-0.255,0.82-0.381,1.427-0.381,1.814c0,0.858,0.234,1.521,0.703,1.99c0.701-0.273,1.324-1.152,1.871-2.634
	c0.469-1.131,0.74-2.224,0.82-3.277c-1.64-0.077-3.211-0.817-4.711-2.223c-1.502-1.405-2.252-2.927-2.252-4.563
	c0-0.274,0.037-0.547,0.117-0.821c0.231,0.352,0.582,0.898,1.053,1.639c0.662,0.977,1.17,1.462,1.521,1.462
	c0.467,0,0.701-0.485,0.701-1.462c0-1.248-0.332-2.38-0.994-3.394c-0.743-1.21-1.699-1.813-2.867-1.813
	c-0.549,0-1.366,0.291-2.459,0.877c-1.093,0.583-2.088,0.876-2.982,0.876c-0.273,0-1.484-0.351-3.629-1.053
	c3.783-0.622,5.676-1.188,5.676-1.696c0-1.325-2.594-2.224-7.783-2.692c-0.508-0.037-1.443-0.116-2.809-0.234
	c0.155-0.193,1.268-0.408,3.336-0.644c1.756-0.193,2.984-0.291,3.686-0.291c9.284,0,15.175,4.507,17.672,13.52
	c0.432-0.357,0.646-0.952,0.646-1.78c0-1.07-0.312-2.415-0.937-4.036c-0.235-0.632-0.607-1.581-1.113-2.846
	c3.198,4.075,4.801,7.938,4.801,11.584c0,1.921-0.451,3.664-1.348,5.232c-0.584,1.056-1.679,2.408-3.276,4.057
	c-1.6,1.646-2.691,2.92-3.277,3.82c2.146-0.583,3.551-1.034,4.214-1.347c1.48-0.662,2.828-1.657,4.037-2.982
	C88.943,72.665,88.729,73.427,88.301,74.44z M62.785,51.444c0,0.701-0.391,1.148-1.17,1.345l-1.521,0.233
	c-0.547,0.272-1.346,1.347-2.398,3.219c-0.118-0.585-0.293-1.402-0.527-2.458c-0.352,0.04-0.936,0.351-1.756,0.937
	c-0.35,0.272-0.917,0.684-1.698,1.229c0.235-1.404,1.017-2.826,2.343-4.271c1.404-1.601,2.77-2.399,4.096-2.399
	C61.908,49.278,62.785,50,62.785,51.444z M72.969,56.827c0,0.663-0.361,1.219-1.084,1.667c-0.722,0.449-1.434,0.674-2.135,0.674
	c-0.938,0-1.777-0.527-2.517-1.58c-0.897-1.287-1.813-2.125-2.751-2.518c0.194-0.193,0.43-0.293,0.705-0.293
	c0.349,0,0.943,0.274,1.783,0.818c0.837,0.549,1.374,0.82,1.609,0.82c0.195,0,0.516-0.271,0.965-0.82
	c0.447-0.544,0.945-0.818,1.492-0.818C72.324,54.777,72.969,55.463,72.969,56.827z"/>
<path fill="#03060D" d="M43.646,41.593l-2.866,9.674H16.959v-2.068c1.157-1.289,3.692-3.889,7.607-7.804
	c2.357-2.358,4.692-4.851,7.005-7.476c1.157-1.287,2.048-2.402,2.667-3.335c1.379-2,2.07-4.045,2.07-6.138
	c0-2.045-0.633-3.847-1.901-5.403c-1.267-1.558-2.903-2.338-4.905-2.338c-4.313,0-7.694,2.915-10.14,8.742l-2.137-0.801
	c2.891-8.184,7.448-12.276,13.678-12.276c3.069,0,5.682,1.044,7.839,3.135c2.159,2.091,3.236,4.67,3.236,7.74
	c0,3.915-2.245,7.74-6.738,11.477l-4.668,3.867c-2.981,2.492-5.453,4.827-7.406,7.006c-0.136,0.135-0.402,0.447-0.802,0.936h12.41
	c1.912,0,3.359-0.377,4.335-1.135c0.845-0.667,1.67-1.936,2.47-3.803H43.646z"/>
</svg>
