<?xml version="1.0" encoding="utf-8"?>
<!-- Generator: Adobe Illustrator 16.0.0, SVG Export Plug-In . SVG Version: 6.00 Build 0)  -->
<!DOCTYPE svg PUBLIC "-//W3C//DTD SVG 1.1//EN" "http://www.w3.org/Graphics/SVG/1.1/DTD/svg11.dtd">
<svg version="1.1" id="Layer_1" xmlns="http://www.w3.org/2000/svg" xmlns:xlink="http://www.w3.org/1999/xlink" x="0px" y="0px"
	 width="100px" height="100px" viewBox="0 0 100 100" enable-background="new 0 0 100 100" xml:space="preserve">
<g>
	<path fill="#F7F5D9" d="M85.349,14.637C94.4,23.687,100,36.188,100,49.997C100,77.613,77.613,100,49.999,100
		c-13.806,0-26.305-5.596-35.354-14.646"/>
	<path fill="#CFC9C2" d="M14.646,85.354C5.597,76.307,0,63.805,0,49.997C0,22.384,22.386,0,49.999,0
		c13.804,0,26.302,5.593,35.35,14.637"/>
</g>
<path fill="#03060D" d="M43.646,41.591l-2.866,9.676H16.959v-2.068c1.157-1.29,3.692-3.891,7.607-7.804
	c2.357-2.36,4.692-4.851,7.005-7.476c1.157-1.288,2.048-2.402,2.667-3.336c1.379-1.999,2.07-4.046,2.07-6.138
	c0-2.045-0.633-3.848-1.901-5.402c-1.267-1.56-2.903-2.339-4.905-2.339c-4.313,0-7.694,2.916-10.14,8.743l-2.137-0.803
	c2.891-8.182,7.448-12.274,13.678-12.274c3.069,0,5.682,1.044,7.839,3.134c2.159,2.092,3.236,4.67,3.236,7.741
	c0,3.915-2.245,7.738-6.738,11.475l-4.668,3.869c-2.981,2.492-5.453,4.827-7.406,7.005c-0.136,0.136-0.402,0.446-0.802,0.935h12.41
	c1.912,0,3.359-0.377,4.335-1.133c0.845-0.669,1.67-1.936,2.47-3.805H43.646z"/>
<path fill="#03060D" d="M88,73.112c-2.436-2.265-4.055-3.492-4.848-3.682c-0.576-0.138-1.135,0.198-1.672,1.005
	c-0.537,0.808-1.291,1.093-2.268,0.859c-0.396-0.095-1.176-0.434-2.334-1.017c-0.938,0.885-1.441,1.471-1.51,1.758
	c-0.096,0.398,0.088,0.938,0.55,1.622c0.46,0.684,0.894,1.072,1.3,1.17c0.258,0.061,0.622,0.091,1.092,0.089
	c0.467-0.001,0.776,0.015,0.926,0.051c0.443,0.104,0.469,0.971,0.078,2.597c-0.369,1.552-1.302,3.852-2.793,6.892
	c-0.059-3.909-0.609-5.989-1.656-6.239c-0.145-0.035-0.469,0.003-0.973,0.111c-0.504,0.107-0.863,0.137-1.08,0.085
	c-1.047-0.251-1.758-1.432-2.13-3.546c-1.723-0.144-2.757,0.506-3.103,1.95c-0.174,0.725,0.023,1.382,0.588,1.975
	c0.564,0.592,0.824,0.979,0.783,1.16c-0.234,0.977-2.021,2.133-5.356,3.473c-1.776,0.721-3.007,1.227-3.687,1.522
	c0.658-0.528,1.368-1.256,2.125-2.182c0.863-1.056,1.373-1.906,1.529-2.558c0.086-0.359-0.209-0.966-0.883-1.815
	c-0.677-0.848-0.927-1.633-0.754-2.355c0.146-0.614,0.543-1.319,1.194-2.12c-0.341-0.654-0.835-1.06-1.485-1.215
	c-1.444-0.347-2.279-0.049-2.504,0.891c0.155-0.651,0.039-0.163-0.35,1.462c-0.25,1.2-1.296,1.58-3.138,1.14
	c-1.409-0.338-3.696-1.229-6.864-2.673c3.982-0.04,6.118-0.675,6.411-1.902c-0.032,0.145-0.003-0.307,0.097-1.353
	c0.123-1.154,1.16-1.976,3.108-2.464c0.072-1.738-0.593-2.777-2.003-3.114c-0.217-0.052-0.707,0.232-1.464,0.853
	c-0.761,0.619-1.393,0.87-1.898,0.748c-0.867-0.205-1.763-1.413-2.684-3.62c-0.426-1.095-1.087-2.723-1.983-4.885
	c0.727,0.632,1.453,1.266,2.181,1.897c0.963,0.765,1.77,1.225,2.419,1.382c0.506,0.12,1.108-0.204,1.808-0.973
	c0.699-0.768,1.445-1.058,2.24-0.867c0.111,0.027,0.78,0.415,2.013,1.169c0.937-0.883,1.466-1.577,1.587-2.083
	c0.103-0.434-0.039-0.993-0.43-1.678c-0.389-0.686-0.803-1.079-1.236-1.184c-0.18-0.043-0.471-0.057-0.877-0.039
	c-0.405,0.019-0.698,0.005-0.879-0.038c-0.649-0.155-0.781-1.045-0.393-2.671c0.103-0.434,1.111-2.809,3.023-7.123
	c-0.166,0.531-0.173,1.6-0.021,3.202c0.181,1.953,0.687,3.027,1.519,3.228c0.143,0.033,0.458-0.005,0.945-0.119
	c0.484-0.112,0.852-0.139,1.105-0.078c0.83,0.198,1.404,0.833,1.722,1.901l0.464,1.655c0.757,0.183,1.453,0.064,2.088-0.357
	c0.637-0.421,1.047-1.011,1.227-1.769c0.189-0.794,0-1.479-0.567-2.055c-0.569-0.576-0.829-0.971-0.775-1.188
	c0.181-0.758,1.679-1.755,4.495-2.99c2.26-0.985,3.709-1.537,4.349-1.651c-2.054,1.724-3.198,3.07-3.431,4.047
	c-0.122,0.506,0.055,1.121,0.531,1.847c0.594,0.867,0.91,1.459,0.949,1.772c0.161,0.919-0.146,2.046-0.925,3.389
	c0.812,0.92,1.47,1.439,1.978,1.561c1.044,0.25,1.697-0.167,1.957-1.25c0.026-0.108,0.063-0.462,0.112-1.062
	c0.046-0.599,0.098-0.931,0.151-0.995c0.266-0.471,1.319-0.487,3.162-0.045c1.155,0.277,3.479,1.175,6.972,2.699
	c-0.847,0.026-2.116,0.065-3.809,0.12c-1.55,0.087-2.388,0.402-2.519,0.943c-0.059,0.253-0.074,0.708-0.04,1.364
	c0.034,0.657,0.017,1.132-0.054,1.421c-0.119,0.506-0.557,0.896-1.311,1.175l-2.156,0.859c0.246,0.898,0.421,1.437,0.531,1.616
	c0.26,0.52,0.693,0.854,1.307,1.001c0.434,0.104,0.922-0.18,1.465-0.854c0.542-0.672,1.213-0.913,2.007-0.722
	c0.976,0.232,1.861,1.398,2.657,3.499C86.349,68.917,87.047,70.708,88,73.112z M76.725,67.092c0.553-2.312,0.184-4.52-1.107-6.623
	c-1.292-2.104-3.094-3.433-5.404-3.986c-2.348-0.561-4.573-0.206-6.672,1.069c-2.098,1.271-3.447,3.078-4.045,5.417
	c-0.59,2.303-0.21,4.504,1.141,6.603c1.35,2.098,3.18,3.425,5.492,3.978c2.455,0.587,4.699,0.274,6.726-0.941
	C74.882,71.396,76.172,69.555,76.725,67.092z M75.912,66.897c-0.527,2.203-1.703,3.85-3.531,4.939
	c-1.826,1.09-3.842,1.373-6.044,0.846c-2.131-0.51-3.778-1.687-4.94-3.531c-1.163-1.844-1.488-3.83-0.98-5.962
	c0.504-2.095,1.699-3.708,3.594-4.842c1.895-1.129,3.889-1.445,5.982-0.943c2.094,0.5,3.729,1.694,4.9,3.577
	C76.064,62.867,76.404,64.838,75.912,66.897z"/>
</svg>
