<?xml version="1.0" encoding="utf-8"?>
<!-- Generator: Adobe Illustrator 16.0.0, SVG Export Plug-In . SVG Version: 6.00 Build 0)  -->
<!DOCTYPE svg PUBLIC "-//W3C//DTD SVG 1.1//EN" "http://www.w3.org/Graphics/SVG/1.1/DTD/svg11.dtd">
<svg version="1.1" id="Layer_1" xmlns="http://www.w3.org/2000/svg" xmlns:xlink="http://www.w3.org/1999/xlink" x="0px" y="0px"
	 width="100px" height="100px" viewBox="0 0 100 100" enable-background="new 0 0 100 100" xml:space="preserve">
<g>
	<circle fill="#CFC9C2" cx="50" cy="49.998" r="50"/>
</g>
<path fill="#03060D" d="M53.244,63.266l-4.471,14.945H11.982v-3.068c1.789-2.041,5.75-6.086,11.883-12.131
	c3.576-3.66,7.152-7.496,10.729-11.498c1.871-2.043,3.238-3.789,4.09-5.24C40.893,43.207,42,40.016,42,36.695
	c0-3.066-0.998-5.813-2.998-8.238c-2.002-2.428-4.539-3.639-7.6-3.639c-6.643,0-11.84,4.512-15.588,13.541l-3.447-1.279
	c4.512-12.689,11.582-19.033,21.203-19.033c4.771,0,8.836,1.615,12.199,4.854c3.367,3.238,5.047,7.24,5.047,12.006
	c0,6.051-3.535,11.965-10.604,17.756l-7.152,6.004c-4.6,3.92-8.389,7.537-11.367,10.857c-0.256,0.172-0.682,0.682-1.279,1.535
	h19.164c2.979,0,5.234-0.641,6.768-1.918c1.279-1.02,2.557-2.98,3.83-5.875H53.244z M52.734,49.852c0-7.408,1.533-14.264,4.6-20.563
	c4.002-7.834,9.408-11.754,16.223-11.754c6.555,0,11.793,3.363,15.713,10.09c3.061,5.453,4.594,11.752,4.594,18.904
	c0,7.494-1.533,14.311-4.594,20.443c-4.008,7.66-9.373,11.492-16.098,11.492c-6.471,0-11.67-3.275-15.584-9.836
	C54.35,63.094,52.734,56.836,52.734,49.852z M61.42,46.404c0,6.389,0.68,12.096,2.043,17.115c2.041,7.84,5.451,11.754,10.219,11.754
	c7.748,0,11.627-8.047,11.627-24.145c0-19.928-4.217-29.891-12.646-29.891c-7.496,0-11.242,7.748-11.242,23.248V46.404z"/>
</svg>
