<?xml version="1.0" encoding="utf-8"?>
<!-- Generator: Adobe Illustrator 16.0.0, SVG Export Plug-In . SVG Version: 6.00 Build 0)  -->
<!DOCTYPE svg PUBLIC "-//W3C//DTD SVG 1.1//EN" "http://www.w3.org/Graphics/SVG/1.1/DTD/svg11.dtd">
<svg version="1.1" id="Layer_1" xmlns="http://www.w3.org/2000/svg" xmlns:xlink="http://www.w3.org/1999/xlink" x="0px" y="0px"
	 width="100px" height="100px" viewBox="0 0 100 100" enable-background="new 0 0 100 100" xml:space="preserve">
<g>
	<circle fill="#CFC9C2" cx="50" cy="49.998" r="50"/>
</g>
<path fill="#03060D" d="M34.957,11.352h28.941c3.754,0,5.988-0.45,6.703-1.352h4.156l-2.422,10.925H37.021l-3.408,15.789
	c5.127-2.07,9.668-3.104,13.625-3.104c7.729,0,14.25,2.587,19.559,7.758c5.305,5.171,7.961,11.622,7.961,19.357
	c0,8.996-3.465,16.237-10.393,21.722C57.98,87.486,50.203,90,41.027,90c-5.395,0-10.66-0.808-15.785-2.426l1.617-4.046
	c4.32,1.169,8.141,1.751,11.469,1.751c6.654,0,12.477-2.18,17.473-6.544c4.99-4.358,7.488-9.826,7.488-16.392
	c0-5.665-1.844-10.32-5.533-13.959c-3.689-3.646-8.365-5.468-14.033-5.468c-5.213,0-10.07,1.8-14.568,5.396l-2.701-0.538
	L34.957,11.352z"/>
</svg>
