<?xml version="1.0" encoding="utf-8"?>
<!-- Generator: Adobe Illustrator 16.0.0, SVG Export Plug-In . SVG Version: 6.00 Build 0)  -->
<!DOCTYPE svg PUBLIC "-//W3C//DTD SVG 1.1//EN" "http://www.w3.org/Graphics/SVG/1.1/DTD/svg11.dtd">
<svg version="1.1" id="Layer_1" xmlns="http://www.w3.org/2000/svg" xmlns:xlink="http://www.w3.org/1999/xlink" x="0px" y="0px"
	 width="100px" height="100px" viewBox="0 0 100 100" enable-background="new 0 0 100 100" xml:space="preserve">
<g>
	<circle fill="#CFC9C2" cx="50" cy="49.998" r="50"/>
</g>
<path fill="#03060D" d="M36.58,44.675c5.934-5.577,11.91-8.364,17.939-8.364c6.564,0,11.828,2.606,15.787,7.821
	c3.682,4.77,5.529,10.521,5.529,17.27c0,7.376-2.158,13.849-6.475,19.425C64.594,86.94,58.658,90,51.555,90
	c-8.547,0-15.381-3.69-20.504-11.063c-4.59-6.477-6.883-14.167-6.883-23.071c0-9.44,2.607-18.141,7.824-26.101
	c5.213-7.958,12.184-13.602,20.906-16.928c4.947-1.888,10.168-2.839,15.65-2.839v4.184c-11.691,0.631-20.414,5.308-26.174,14.031
	C39.414,32.715,37.477,38.197,36.58,44.675z M35.768,52.767c-0.086,1.618-0.133,3.238-0.133,4.857c0,6.203,1.078,11.96,3.236,17.269
	c2.785,6.922,6.883,10.385,12.279,10.385c4.674,0,8.18-2.381,10.52-7.151c1.797-3.684,2.697-8.135,2.697-13.355
	c0-5.571-0.857-10.342-2.563-14.299c-2.34-5.396-5.936-8.092-10.793-8.092C45.078,42.38,39.994,45.845,35.768,52.767z"/>
</svg>
