<?xml version="1.0" encoding="utf-8"?>
<!-- Generator: Adobe Illustrator 16.0.0, SVG Export Plug-In . SVG Version: 6.00 Build 0)  -->
<!DOCTYPE svg PUBLIC "-//W3C//DTD SVG 1.1//EN" "http://www.w3.org/Graphics/SVG/1.1/DTD/svg11.dtd">
<svg version="1.1" id="Layer_1" xmlns="http://www.w3.org/2000/svg" xmlns:xlink="http://www.w3.org/1999/xlink" x="0px" y="0px"
	 width="100px" height="100px" viewBox="0 0 100 100" enable-background="new 0 0 100 100" xml:space="preserve">
<g>
	<circle fill="#CFC9C2" cx="50" cy="49.998" r="50"/>
</g>
<path fill="#03060D" d="M53.494,90H41.852v-1.238c0-7.396,2.328-16.659,6.98-27.808c7.035-16.799,13.52-29.673,19.453-38.624
	l0.822-1.232H41.852c-3.93,0-6.92,0.819-8.975,2.463c-2.059,1.645-3.582,4.387-4.586,8.222h-4.52L28.697,10h2.881
	c1.734,0.914,4.742,1.371,9.041,1.371h35.609v6.165c-1.275,1.829-2.918,4.75-4.926,8.768c-3.838,7.485-7.352,16.208-10.553,26.163
	C56.004,67.17,53.584,79.677,53.494,90z"/>
</svg>
