<?xml version="1.0" encoding="utf-8"?>
<!-- Generator: Adobe Illustrator 16.0.0, SVG Export Plug-In . SVG Version: 6.00 Build 0)  -->
<!DOCTYPE svg PUBLIC "-//W3C//DTD SVG 1.1//EN" "http://www.w3.org/Graphics/SVG/1.1/DTD/svg11.dtd">
<svg version="1.1" id="Layer_1" xmlns="http://www.w3.org/2000/svg" xmlns:xlink="http://www.w3.org/1999/xlink" x="0px" y="0px"
	 width="100px" height="100px" viewBox="0 0 100 100" enable-background="new 0 0 100 100" xml:space="preserve">
<g>
	<circle fill="#CFC9C2" cx="50" cy="49.998" r="50"/>
</g>
<path fill="#03060D" d="M63.402,55.524c-5.922,5.567-11.898,8.353-17.91,8.353c-6.555,0-11.809-2.604-15.758-7.814
	c-3.684-4.758-5.523-10.507-5.523-17.241c0-7.272,2.152-13.777,6.461-19.526C35.344,13.097,41.227,10,48.32,10
	c8.621,0,15.488,3.728,20.605,11.181c4.582,6.554,6.867,14.319,6.867,23.302c0,12.746-4.223,23.498-12.656,32.257
	C54.695,85.491,44.145,89.913,31.484,90v-4.175c3.859-0.176,6.953-0.626,9.297-1.344C53.703,80.531,61.25,70.881,63.402,55.524z
	 M64.215,47.442c0.086-1.706,0.129-3.322,0.129-4.846c0-6.285-1.074-12.034-3.23-17.24c-2.875-6.916-7-10.374-12.387-10.374
	c-4.676,0-8.125,2.385-10.375,7.141c-1.797,3.683-2.691,8.126-2.691,13.334c0,5.566,0.852,10.324,2.559,14.275
	c2.332,5.387,5.926,8.083,10.777,8.083C54.918,57.815,59.988,54.357,64.215,47.442z"/>
</svg>
