<?xml version="1.0" encoding="utf-8"?>
<!-- Generator: Adobe Illustrator 16.0.0, SVG Export Plug-In . SVG Version: 6.00 Build 0)  -->
<!DOCTYPE svg PUBLIC "-//W3C//DTD SVG 1.1//EN" "http://www.w3.org/Graphics/SVG/1.1/DTD/svg11.dtd">
<svg version="1.1" id="Layer_1" xmlns="http://www.w3.org/2000/svg" xmlns:xlink="http://www.w3.org/1999/xlink" x="0px" y="0px"
	 width="100px" height="100px" viewBox="0 0 100 100" enable-background="new 0 0 100 100" xml:space="preserve">
<g>
	<path fill="#F79F75" d="M85.349,14.637C94.4,23.687,100,36.188,100,49.997C100,77.613,77.613,100,50,100
		c-13.807,0-26.305-5.596-35.354-14.646"/>
	<path fill="#C1B5AD" d="M14.646,85.354C5.596,76.307,0,63.805,0,49.997C0,22.384,22.387,0,50,0
		c13.803,0,26.301,5.593,35.349,14.637"/>
</g>
<path fill="#03060D" d="M88.301,74.44c-1.719,4.099-5.131,6.146-10.24,6.146c-0.938,0-1.952,0.115-3.045,0.35
	c-1.639,0.352-2.457,0.84-2.457,1.465c0,0.195,0.137,0.417,0.41,0.673c0.271,0.253,0.508,0.381,0.703,0.381
	c-0.977,0-0.314,0.029,1.986,0.085c2.303,0.06,3.746,0.089,4.332,0.089c-3.394,1.989-9.07,2.906-17.029,2.75
	c-2.613-0.037-4.857-1.188-6.729-3.451c-1.835-2.146-2.751-4.545-2.751-7.197c0-2.81,0.946-5.199,2.839-7.17
	c1.891-1.968,4.242-2.953,7.051-2.953c0.623,0,1.453,0.136,2.486,0.408c1.034,0.273,1.727,0.41,2.077,0.41
	c1.444,0,3.239-0.597,5.385-1.786s3.16-1.784,3.044-1.784c-0.391,4.096-1.757,6.848-4.098,8.25
	c-1.678,0.977-2.516,1.933-2.516,2.867c0,0.586,0.35,1.054,1.053,1.406c0.545,0.272,1.15,0.408,1.814,0.408
	c1.014,0,2.008-0.623,2.984-1.872c0.975-1.247,1.403-2.379,1.287-3.394c-0.116-1.171-0.037-2.576,0.234-4.213
	c0.077-0.469,0.361-1.045,0.848-1.726c0.488-0.684,0.928-1.104,1.317-1.261c0,0.353-0.128,0.938-0.38,1.755
	c-0.255,0.82-0.381,1.427-0.381,1.815c0,0.86,0.234,1.523,0.703,1.99c0.701-0.271,1.324-1.15,1.871-2.634
	c0.469-1.13,0.74-2.224,0.82-3.275c-1.64-0.077-3.211-0.82-4.711-2.226c-1.502-1.404-2.252-2.925-2.252-4.563
	c0-0.271,0.037-0.546,0.117-0.819c0.231,0.353,0.582,0.899,1.053,1.64c0.662,0.974,1.17,1.462,1.521,1.462
	c0.467,0,0.701-0.488,0.701-1.462c0-1.249-0.332-2.38-0.994-3.395c-0.743-1.21-1.699-1.814-2.867-1.814
	c-0.549,0-1.366,0.292-2.459,0.878c-1.093,0.584-2.088,0.877-2.982,0.877c-0.273,0-1.484-0.352-3.629-1.053
	c3.783-0.625,5.676-1.19,5.676-1.699c0-1.325-2.594-2.223-7.783-2.689c-0.508-0.039-1.443-0.117-2.809-0.235
	c0.155-0.194,1.268-0.408,3.336-0.644c1.756-0.192,2.984-0.293,3.686-0.293c9.284,0,15.175,4.507,17.672,13.521
	c0.432-0.358,0.646-0.95,0.646-1.78c0-1.069-0.312-2.413-0.937-4.034c-0.235-0.634-0.607-1.584-1.113-2.848
	c3.198,4.075,4.801,7.938,4.801,11.583c0,1.921-0.451,3.667-1.348,5.232c-0.584,1.059-1.679,2.411-3.276,4.059
	c-1.6,1.645-2.691,2.919-3.277,3.821c2.146-0.586,3.551-1.035,4.214-1.347c1.48-0.664,2.828-1.66,4.037-2.985
	C88.943,72.668,88.729,73.429,88.301,74.44z M62.785,51.444c0,0.701-0.391,1.151-1.17,1.347l-1.521,0.233
	c-0.547,0.272-1.346,1.347-2.398,3.218c-0.118-0.584-0.293-1.403-0.527-2.457c-0.352,0.038-0.936,0.352-1.756,0.935
	c-0.35,0.274-0.917,0.684-1.698,1.229c0.235-1.403,1.017-2.826,2.343-4.271c1.404-1.598,2.77-2.396,4.096-2.396
	C61.908,49.281,62.785,50.002,62.785,51.444z M72.969,56.828c0,0.662-0.361,1.22-1.084,1.668c-0.722,0.448-1.434,0.673-2.135,0.673
	c-0.938,0-1.777-0.524-2.517-1.581c-0.897-1.286-1.813-2.125-2.751-2.516c0.194-0.195,0.43-0.293,0.705-0.293
	c0.349,0,0.943,0.272,1.783,0.819c0.837,0.548,1.374,0.82,1.609,0.82c0.195,0,0.516-0.272,0.965-0.82
	c0.447-0.547,0.945-0.819,1.492-0.819C72.324,54.779,72.969,55.463,72.969,56.828z"/>
<path fill="#03060D" d="M53.257,28.111c0,2.702-0.982,4.544-2.948,5.526c-0.574,0.287-2.373,0.677-5.403,1.166
	c-1.964,0.329-2.946,1.087-2.946,2.271v4.973c0,0.209,0.063,0.841,0.184,1.906l0.185,1.965c0,0.613-0.144,1.617-0.431,3.008
	c-0.777,0.163-1.678,0.348-2.7,0.554c-0.329-1.229-0.491-2.069-0.491-2.519c0-0.203,0.05-0.512,0.152-0.921
	c0.102-0.408,0.154-0.716,0.154-0.921c0-0.284-0.253-1.084-0.762-2.393h-0.953c-0.126,0.204-0.167,0.47-0.127,0.796
	c0.165,0.696,0.225,1.288,0.185,1.781c-0.697,0.491-1.657,1.146-2.885,1.965c-0.289-0.083-0.389-0.123-0.308-0.123v-4.36
	c-0.082-0.202-0.286-0.285-0.614-0.245h-0.737l-0.737,5.771c-0.573,0.041-1.268,0.041-2.086,0c-0.287-1.35-0.799-3.354-1.534-6.015
	h-0.493c-0.45,1.432-0.696,2.21-0.737,2.333c0,0.163,0.052,0.48,0.155,0.951c0.101,0.471,0.152,0.787,0.152,0.951
	c0,0.122-0.042,0.43-0.125,0.921l-0.183,1.474c-0.083,0.08-0.184,0.121-0.307,0.121c-1.228,0-2.048-0.306-2.455-0.919
	c-0.411-0.615-0.576-1.475-0.493-2.58l0.493-7.366c0-0.122,0.039-0.286,0.121-0.492c0.082-0.203,0.123-0.348,0.123-0.428
	c0-0.328-0.348-0.984-1.043-1.967c-0.123-0.039-0.758-0.183-1.904-0.43c-0.696-0.163-2.067-0.45-4.112-0.858
	c-2.824-0.531-4.237-2.803-4.237-6.815c0-5.977,2.456-10.949,7.367-14.919c0.204,1.106,0.553,2.577,1.044,4.419
	c0.368,0.085,1.167,0.269,2.394,0.554c0.247,0.081,1.495,0.533,3.745,1.351c-1.146-0.695-2.64-1.819-4.48-3.376
	c-0.697-0.818-1.046-2.19-1.046-4.113c0-0.451,0.778-0.982,2.335-1.599c1.391-0.572,2.434-0.897,3.131-0.98
	c2.209-0.286,3.908-0.431,5.096-0.431c5.115,0,9.249,1.311,12.401,3.932c-1.022,1.188-2.783,2.453-5.279,3.806
	c0.982,0.041,2.415-0.347,4.298-1.168c1.882-0.816,2.68-1.227,2.394-1.227c0.327,0,0.982,0.655,1.965,1.964
	c0.735,0.982,1.329,1.864,1.78,2.64c1.31,2.333,2.189,4.852,2.641,7.552c0,0.942,0.02,1.617,0.062,2.025V28.111z M29.741,29.219
	c0-1.761-0.767-3.429-2.301-5.006c-1.536-1.576-3.184-2.363-4.943-2.363c-1.555,0-2.925,0.66-4.114,1.977
	c-1.187,1.32-1.78,2.782-1.78,4.389c0,1.401,0.675,2.309,2.027,2.719c0.859,0.248,2.065,0.392,3.621,0.434h3.376
	C28.369,31.407,29.741,30.69,29.741,29.219z M36.433,36.831v-1.902c-0.286-0.533-0.573-1.086-0.858-1.659
	c-0.246-0.818-0.697-1.963-1.351-3.44l-0.676,7.185c0,0.575-0.121,0.86-0.368,0.86c-0.163,0-0.287-0.04-0.369-0.122
	c-0.287-4.339-0.429-6.223-0.429-5.648v-2.148c-0.083-0.126-0.185-0.187-0.308-0.187c-1.391,1.436-2.086,3.748-2.086,6.938
	c0,1.761,0.163,2.844,0.49,3.257c0.329-0.083,0.695-0.226,1.107-0.431c0.163-0.083,0.633-0.123,1.412-0.123
	c0.775,0,1.719,0.246,2.823,0.735C36.229,40.146,36.433,39.042,36.433,36.831z M50.309,28.276c0-1.647-0.614-3.119-1.842-4.419
	c-1.229-1.296-2.64-1.945-4.235-1.945c-1.719,0-3.328,0.787-4.821,2.363c-1.494,1.575-2.242,3.223-2.242,4.943
	c0,1.432,0.697,2.148,2.088,2.148h7.06C48.979,31.325,50.309,30.297,50.309,28.276z"/>
</svg>
