<?xml version="1.0" encoding="utf-8"?>
<!-- Generator: Adobe Illustrator 16.0.0, SVG Export Plug-In . SVG Version: 6.00 Build 0)  -->
<!DOCTYPE svg PUBLIC "-//W3C//DTD SVG 1.1//EN" "http://www.w3.org/Graphics/SVG/1.1/DTD/svg11.dtd">
<svg version="1.1" id="Layer_1" xmlns="http://www.w3.org/2000/svg" xmlns:xlink="http://www.w3.org/1999/xlink" x="0px" y="0px"
	 width="100px" height="100px" viewBox="0 0 100 100" enable-background="new 0 0 100 100" xml:space="preserve">
<g>
	<path fill="#9CC395" d="M85.349,14.637C94.401,23.687,100,36.188,100,49.997C100,77.613,77.613,100,50,100
		c-13.807,0-26.305-5.596-35.354-14.646"/>
	<path fill="#C1B5AD" d="M14.646,85.354C5.596,76.307,0,63.805,0,49.997C0,22.384,22.387,0,50,0
		c13.802,0,26.301,5.593,35.349,14.637"/>
</g>
<path fill="#03060D" d="M53.257,28.111c0,2.702-0.982,4.544-2.947,5.526c-0.574,0.287-2.374,0.677-5.404,1.166
	c-1.963,0.329-2.945,1.087-2.945,2.271v4.973c0,0.209,0.062,0.841,0.184,1.906l0.185,1.965c0,0.613-0.144,1.617-0.431,3.008
	c-0.776,0.163-1.678,0.348-2.7,0.554c-0.328-1.229-0.491-2.069-0.491-2.519c0-0.203,0.05-0.512,0.152-0.921
	c0.102-0.408,0.153-0.716,0.153-0.921c0-0.284-0.253-1.084-0.762-2.393h-0.953c-0.125,0.204-0.167,0.47-0.127,0.796
	c0.164,0.696,0.225,1.288,0.186,1.781c-0.697,0.491-1.657,1.146-2.886,1.965c-0.288-0.083-0.39-0.123-0.308-0.123v-4.36
	c-0.082-0.202-0.286-0.285-0.614-0.245h-0.737l-0.736,5.771c-0.572,0.041-1.269,0.041-2.086,0c-0.287-1.35-0.8-3.354-1.535-6.015
	h-0.492c-0.45,1.432-0.695,2.21-0.737,2.333c0,0.163,0.052,0.48,0.155,0.951c0.101,0.471,0.152,0.787,0.152,0.951
	c0,0.122-0.041,0.43-0.124,0.921l-0.184,1.474c-0.083,0.08-0.184,0.121-0.306,0.121c-1.229,0-2.048-0.306-2.455-0.919
	c-0.411-0.615-0.575-1.475-0.493-2.58l0.493-7.366c0-0.122,0.038-0.286,0.121-0.492c0.082-0.203,0.123-0.348,0.123-0.428
	c0-0.328-0.348-0.984-1.043-1.967c-0.123-0.039-0.758-0.183-1.904-0.43c-0.695-0.163-2.067-0.45-4.112-0.858
	c-2.824-0.531-4.237-2.803-4.237-6.815c0-5.977,2.456-10.949,7.367-14.919c0.204,1.106,0.553,2.577,1.044,4.419
	c0.369,0.085,1.168,0.269,2.395,0.554c0.247,0.081,1.494,0.533,3.745,1.351c-1.146-0.695-2.64-1.819-4.48-3.376
	c-0.697-0.818-1.046-2.19-1.046-4.113c0-0.451,0.778-0.982,2.335-1.599c1.391-0.572,2.434-0.897,3.131-0.98
	c2.209-0.286,3.907-0.431,5.096-0.431c5.115,0,9.249,1.311,12.4,3.932c-1.022,1.188-2.783,2.453-5.279,3.806
	c0.982,0.041,2.415-0.347,4.299-1.168c1.882-0.816,2.68-1.227,2.394-1.227c0.327,0,0.982,0.655,1.965,1.964
	c0.735,0.982,1.329,1.864,1.78,2.64c1.31,2.333,2.19,4.852,2.642,7.552c0,0.942,0.019,1.617,0.061,2.025V28.111z M29.741,29.219
	c0-1.761-0.767-3.429-2.302-5.006c-1.535-1.576-3.184-2.363-4.943-2.363c-1.555,0-2.925,0.66-4.113,1.977
	c-1.187,1.32-1.779,2.782-1.779,4.389c0,1.401,0.674,2.309,2.026,2.719c0.86,0.248,2.065,0.392,3.621,0.434h3.376
	C28.369,31.407,29.741,30.69,29.741,29.219z M36.434,36.831v-1.902c-0.286-0.533-0.573-1.086-0.858-1.659
	c-0.246-0.818-0.697-1.963-1.352-3.44l-0.676,7.185c0,0.575-0.121,0.86-0.368,0.86c-0.163,0-0.287-0.04-0.369-0.122
	c-0.286-4.339-0.429-6.223-0.429-5.648v-2.148c-0.083-0.126-0.185-0.187-0.308-0.187c-1.391,1.436-2.086,3.748-2.086,6.938
	c0,1.761,0.162,2.844,0.489,3.257c0.328-0.083,0.695-0.226,1.106-0.431c0.163-0.083,0.634-0.123,1.412-0.123
	c0.775,0,1.719,0.246,2.823,0.735C36.229,40.146,36.434,39.042,36.434,36.831z M50.31,28.276c0-1.647-0.614-3.119-1.843-4.419
	c-1.228-1.296-2.64-1.945-4.234-1.945c-1.72,0-3.328,0.787-4.82,2.363c-1.495,1.575-2.242,3.223-2.242,4.943
	c0,1.432,0.697,2.148,2.088,2.148h7.06C48.979,31.325,50.31,30.297,50.31,28.276z"/>
<path fill="#03060D" d="M89.519,67.618c0,0.758-0.293,1.437-0.879,2.043c-0.586,0.604-1.258,0.906-2.016,0.906
	c-1.207,0-2.098-0.567-2.663-1.702l-2.667-0.112c-0.567,0-1.684,0.246-3.345,0.737c-1.777,0.491-2.798,0.888-3.064,1.19
	c-0.414,0.454-0.755,1.514-1.02,3.177c-0.228,1.361-0.339,2.363-0.339,3.007c0,1.019,0.16,1.767,0.48,2.24
	c0.321,0.472,0.984,0.868,1.984,1.189c1,0.319,1.616,0.502,1.844,0.539c0.151,0,0.396-0.018,0.737-0.057h0.681
	c0.491,0,1.001,0.077,1.532,0.227c0.755,0.227,1.077,0.528,0.965,0.907c-0.531-0.074-1.456,0.038-2.778,0.34l1.586,0.795
	c0,0.454-0.643,0.679-1.928,0.679c-0.342,0-0.806-0.073-1.39-0.225c-0.588-0.154-0.976-0.228-1.163-0.228H75.34
	c-0.038,0.379-0.15,0.943-0.34,1.701c-0.646-0.038-1.399-0.417-2.27-1.133c-0.87-0.72-1.418-1.079-1.643-1.079
	c-0.228,0-0.551,0.359-0.965,1.079c-0.417,0.716-0.624,1.207-0.624,1.474c-0.491-0.267-0.906-0.758-1.249-1.474
	c-0.151-0.495-0.321-0.986-0.509-1.478c-0.379,0.039-1.077,0.835-2.099,2.384h-0.284c-0.077-0.113-0.36-0.906-0.852-2.384
	c-1.172-0.375-2.268-0.564-3.288-0.564c-0.491,0-1.249,0.112-2.27,0.34l-1.587-0.112c0.226-0.228,0.888-0.663,1.984-1.305
	c1.284-0.758,2.269-1.137,2.949-1.137c0.112,0,0.264,0.021,0.454,0.058c0.188,0.04,0.341,0.058,0.454,0.058
	c0.262,0,0.689-0.142,1.275-0.426s0.927-0.539,1.019-0.766c0.098-0.229,0.145-0.813,0.145-1.759c0-2.154-0.568-3.762-1.703-4.82
	c-0.983-0.944-2.608-1.625-4.877-2.042c-0.604,2.154-2.307,3.234-5.103,3.234c-0.909,0-1.816-0.548-2.723-1.646
	s-1.361-2.099-1.361-3.007c0-1.399,0.586-2.551,1.758-3.459c-0.944-0.982-1.418-1.984-1.418-3.006c0-0.945,0.292-1.776,0.879-2.496
	c0.586-0.716,1.353-1.133,2.297-1.248c-0.074-1.208,0.321-2.042,1.19-2.495c-0.415-0.414-0.622-1.151-0.622-2.211
	c0-1.247,0.414-2.287,1.247-3.119c0.83-0.831,1.871-1.248,3.117-1.248c1.363,0,2.479,0.474,3.348,1.417
	c1.098-3.742,3.459-5.613,7.089-5.613c1.889,0,3.554,0.756,4.99,2.27c0.53,0.565,0.793,0.868,0.793,0.905
	c-0.452,0-0.225-0.086,0.681-0.254c0.909-0.171,1.568-0.257,1.986-0.257c1.474,0,2.778,0.55,3.915,1.646
	c0.982,0.984,1.663,2.23,2.042,3.742c0.263,0.039,0.679,0.151,1.245,0.341c0.832,0.417,1.249,1.135,1.249,2.155
	c0,0.189-0.152,0.549-0.454,1.079c2.419,1.361,3.63,3.251,3.63,5.67c0,0.681-0.266,1.627-0.793,2.836
	C89.027,65.69,89.519,66.521,89.519,67.618z M66.151,70.114v-0.737c0-0.869-0.424-1.664-1.275-2.382
	c-0.851-0.719-1.71-1.077-2.58-1.077c-1.06,0-2.042,0.246-2.949,0.735C61.351,66.542,63.618,67.693,66.151,70.114z M65.131,63.083
	c-0.566-0.646-1.058-1.305-1.474-1.985c-1.589,0.414-2.383,0.888-2.383,1.416c0.453-0.037,1.116,0.047,1.984,0.256
	C64.128,62.979,64.754,63.083,65.131,63.083z M68.593,61.323v-2.496c-0.909-0.15-1.459-0.226-1.645-0.226v0.851L68.593,61.323z
	 M75.965,59.736c-0.454-0.189-1.305-0.568-2.554-1.135v4.877C75.189,62.456,76.039,61.21,75.965,59.736z M79.081,66.427
	l-1.246-1.529c-0.755,0.529-1.521,1.067-2.298,1.615c-0.775,0.548-1.445,1.163-2.011,1.844
	C75.225,67.448,77.08,66.806,79.081,66.427z"/>
</svg>
