<?xml version="1.0" encoding="utf-8"?>
<!-- Generator: Adobe Illustrator 16.0.0, SVG Export Plug-In . SVG Version: 6.00 Build 0)  -->
<!DOCTYPE svg PUBLIC "-//W3C//DTD SVG 1.1//EN" "http://www.w3.org/Graphics/SVG/1.1/DTD/svg11.dtd">
<svg version="1.1" id="Layer_1" xmlns="http://www.w3.org/2000/svg" xmlns:xlink="http://www.w3.org/1999/xlink" x="0px" y="0px"
	 width="100px" height="100px" viewBox="0 0 100 100" enable-background="new 0 0 100 100" xml:space="preserve">
<g>
	<path fill="#F79F75" d="M85.349,14.637C94.4,23.687,100,36.188,100,49.997C100,77.613,77.613,100,50,100
		c-13.807,0-26.305-5.596-35.354-14.646"/>
	<path fill="#BBD8E7" d="M14.646,85.354C5.596,76.307,0,63.805,0,49.997C0,22.384,22.387,0,50,0
		c13.803,0,26.301,5.593,35.349,14.637"/>
</g>
<path fill="#03060D" d="M88.301,74.44c-1.719,4.099-5.131,6.146-10.24,6.146c-0.938,0-1.952,0.115-3.045,0.35
	c-1.639,0.352-2.457,0.84-2.457,1.465c0,0.195,0.137,0.417,0.41,0.673c0.271,0.253,0.508,0.381,0.703,0.381
	c-0.977,0-0.314,0.029,1.986,0.085c2.303,0.06,3.746,0.089,4.332,0.089c-3.394,1.989-9.07,2.906-17.029,2.75
	c-2.613-0.037-4.857-1.188-6.729-3.451c-1.835-2.146-2.751-4.545-2.751-7.197c0-2.81,0.946-5.199,2.839-7.17
	c1.891-1.968,4.242-2.953,7.051-2.953c0.623,0,1.453,0.136,2.486,0.408c1.034,0.273,1.727,0.41,2.077,0.41
	c1.444,0,3.239-0.597,5.385-1.786s3.16-1.784,3.044-1.784c-0.391,4.096-1.757,6.848-4.098,8.25
	c-1.678,0.977-2.516,1.933-2.516,2.867c0,0.586,0.35,1.054,1.053,1.406c0.545,0.272,1.15,0.408,1.814,0.408
	c1.014,0,2.008-0.623,2.984-1.872c0.975-1.247,1.403-2.379,1.287-3.394c-0.116-1.171-0.037-2.576,0.234-4.213
	c0.077-0.469,0.361-1.045,0.848-1.726c0.488-0.684,0.928-1.104,1.317-1.261c0,0.353-0.128,0.938-0.38,1.755
	c-0.255,0.82-0.381,1.427-0.381,1.815c0,0.86,0.234,1.523,0.703,1.99c0.701-0.271,1.324-1.15,1.871-2.634
	c0.469-1.13,0.74-2.224,0.82-3.275c-1.64-0.077-3.211-0.82-4.711-2.226c-1.502-1.404-2.252-2.925-2.252-4.563
	c0-0.271,0.037-0.546,0.117-0.819c0.231,0.353,0.582,0.899,1.053,1.64c0.662,0.974,1.17,1.462,1.521,1.462
	c0.467,0,0.701-0.488,0.701-1.462c0-1.249-0.332-2.38-0.994-3.395c-0.743-1.21-1.699-1.814-2.867-1.814
	c-0.549,0-1.366,0.292-2.459,0.878c-1.093,0.584-2.088,0.877-2.982,0.877c-0.273,0-1.484-0.352-3.629-1.053
	c3.783-0.625,5.676-1.19,5.676-1.699c0-1.325-2.594-2.223-7.783-2.689c-0.508-0.039-1.443-0.117-2.809-0.235
	c0.155-0.194,1.268-0.408,3.336-0.644c1.756-0.192,2.984-0.293,3.686-0.293c9.284,0,15.175,4.507,17.672,13.521
	c0.432-0.358,0.646-0.95,0.646-1.78c0-1.069-0.312-2.413-0.937-4.034c-0.235-0.634-0.607-1.584-1.113-2.848
	c3.198,4.075,4.801,7.938,4.801,11.583c0,1.921-0.451,3.667-1.348,5.232c-0.584,1.059-1.679,2.411-3.276,4.059
	c-1.6,1.645-2.691,2.919-3.277,3.821c2.146-0.586,3.551-1.035,4.214-1.347c1.48-0.664,2.828-1.66,4.037-2.985
	C88.943,72.668,88.729,73.429,88.301,74.44z M62.785,51.444c0,0.701-0.391,1.151-1.17,1.347l-1.521,0.233
	c-0.547,0.272-1.346,1.347-2.398,3.218c-0.118-0.584-0.293-1.403-0.527-2.457c-0.352,0.038-0.936,0.352-1.756,0.935
	c-0.35,0.274-0.917,0.684-1.698,1.229c0.235-1.403,1.017-2.826,2.343-4.271c1.404-1.598,2.77-2.396,4.096-2.396
	C61.908,49.281,62.785,50.002,62.785,51.444z M72.969,56.828c0,0.662-0.361,1.22-1.084,1.668c-0.722,0.448-1.434,0.673-2.135,0.673
	c-0.938,0-1.777-0.524-2.517-1.581c-0.897-1.286-1.813-2.125-2.751-2.516c0.194-0.195,0.43-0.293,0.705-0.293
	c0.349,0,0.943,0.272,1.783,0.819c0.837,0.548,1.374,0.82,1.609,0.82c0.195,0,0.516-0.272,0.965-0.82
	c0.447-0.547,0.945-0.819,1.492-0.819C72.324,54.779,72.969,55.463,72.969,56.828z"/>
<path fill="#03060D" d="M41.116,48.156c-2.693,2.737-6.007,4.107-9.946,4.107c-4.422,0-7.929-1.512-10.524-4.541
	c-2.452-2.884-3.677-6.559-3.677-11.027c0-4.805,2.09-10.284,6.272-16.435c3.411-5.044,7.423-9.465,12.037-13.262
	c-0.673,3.077-1.009,5.262-1.009,6.558c0,2.981,0.935,5.889,2.811,8.723c2.306,3.363,4.061,5.863,5.262,7.497
	c1.874,2.835,2.812,5.599,2.812,8.287C45.153,42.055,43.806,45.416,41.116,48.156z M41.044,32.769
	c-0.721-1.611-1.561-2.68-2.523-3.21c0.145,0.289,0.216,0.697,0.216,1.227c0,1.01-0.287,2.45-0.864,4.324l-0.938,2.884
	c0,1.681,0.841,2.522,2.523,2.522c1.777,0,2.668-1.178,2.668-3.532C42.125,35.783,41.764,34.378,41.044,32.769z"/>
</svg>
