<?xml version="1.0" encoding="utf-8"?>
<!-- Generator: Adobe Illustrator 16.0.0, SVG Export Plug-In . SVG Version: 6.00 Build 0)  -->
<!DOCTYPE svg PUBLIC "-//W3C//DTD SVG 1.1//EN" "http://www.w3.org/Graphics/SVG/1.1/DTD/svg11.dtd">
<svg version="1.1" id="Layer_1" xmlns="http://www.w3.org/2000/svg" xmlns:xlink="http://www.w3.org/1999/xlink" x="0px" y="0px"
	 width="100px" height="100px" viewBox="0 0 100 100" enable-background="new 0 0 100 100" xml:space="preserve">
<g>
	<circle fill="#BBD8E7" cx="50" cy="50" r="50"/>
</g>
<path fill="#03060D" d="M67.488,83.719c-4.787,4.871-10.684,7.307-17.688,7.307c-7.861,0-14.098-2.691-18.711-8.074
	c-4.359-5.127-6.537-11.662-6.537-19.607c0-8.543,3.717-18.285,11.15-29.223c6.064-8.969,13.199-16.83,21.402-23.58
	c-1.197,5.469-1.793,9.355-1.793,11.662c0,5.299,1.664,10.467,4.996,15.508c4.102,5.98,7.219,10.426,9.357,13.328
	c3.332,5.043,4.998,9.955,4.998,14.738C74.664,72.871,72.271,78.852,67.488,83.719z M67.359,56.357
	c-1.281-2.861-2.777-4.762-4.486-5.703c0.256,0.514,0.385,1.24,0.385,2.18c0,1.795-0.512,4.357-1.539,7.689l-1.664,5.127
	c0,2.99,1.492,4.486,4.484,4.486c3.16,0,4.742-2.094,4.742-6.281C69.281,61.721,68.641,59.223,67.359,56.357z"/>
</svg>
