<?xml version="1.0" encoding="utf-8"?>
<!-- Generator: Adobe Illustrator 16.0.0, SVG Export Plug-In . SVG Version: 6.00 Build 0)  -->
<!DOCTYPE svg PUBLIC "-//W3C//DTD SVG 1.1//EN" "http://www.w3.org/Graphics/SVG/1.1/DTD/svg11.dtd">
<svg version="1.1" id="Layer_1" xmlns="http://www.w3.org/2000/svg" xmlns:xlink="http://www.w3.org/1999/xlink" x="0px" y="0px"
	 width="120px" height="100px" viewBox="0 0 120 100" enable-background="new 0 0 120 100" xml:space="preserve">
<path fill-rule="evenodd" clip-rule="evenodd" d="M76.142,0c-36.768,1.679,4.253,32.995-16.484,49.5
	c0,0.001-0.003,0.003-0.005,0.004c-0.001-0.004-0.004-0.007-0.007-0.01c-0.102,0.041-0.192,0.089-0.293,0.13
	C44.828,55.501,28.657,31.908,28.187,56.7c7.67-11.506,11.167-0.275,23.775-0.977c-6.123,8.09-3.121,21.664-13.33,23.872
	c-18.65,4.033-32.297-18.638-31.16-32.868C9.997,15.126,34.762,0.759,59.353,2.239C26.803-4.279-0.79,22.546,0.018,50.376
	C0.945,82.286,17.875,97.902,43.858,100c36.768-1.678-4.253-32.996,16.484-49.5c0.002-0.001,0.003-0.003,0.005-0.004
	c0.003,0.004,0.004,0.007,0.007,0.01c0.102-0.041,0.192-0.089,0.294-0.13c14.523-5.877,30.696,17.716,31.165-7.075
	c-7.669,11.505-11.167,0.274-23.775,0.976c6.123-8.09,3.123-21.663,13.331-23.871c18.651-4.033,32.296,18.637,31.159,32.868
	c-2.523,31.602-27.289,45.969-51.88,44.487c32.55,6.519,60.143-20.308,59.334-48.137C119.056,17.715,102.125,2.099,76.142,0z"/>
</svg>
