<?xml version="1.0" encoding="utf-8"?>
<!-- Generator: Adobe Illustrator 16.0.0, SVG Export Plug-In . SVG Version: 6.00 Build 0)  -->
<!DOCTYPE svg PUBLIC "-//W3C//DTD SVG 1.1//EN" "http://www.w3.org/Graphics/SVG/1.1/DTD/svg11.dtd">
<svg version="1.1" id="Layer_1" xmlns="http://www.w3.org/2000/svg" xmlns:xlink="http://www.w3.org/1999/xlink" x="0px" y="0px"
	 width="100px" height="100px" viewBox="0 0 100 100" enable-background="new 0 0 100 100" xml:space="preserve">
<g>
	<path fill="#F7F5D9" d="M85.349,14.637C94.401,23.687,100,36.188,100,49.997C100,77.613,77.613,100,50,100
		c-13.807,0-26.305-5.596-35.354-14.646"/>
	<path fill="#9CC395" d="M14.646,85.354C5.596,76.307,0,63.805,0,49.997C0,22.384,22.387,0,50,0
		c13.802,0,26.301,5.593,35.349,14.637"/>
</g>
<path fill="#03060D" d="M88,73.112c-2.436-2.265-4.054-3.492-4.848-3.682c-0.576-0.139-1.135,0.198-1.672,1.003
	c-0.537,0.809-1.291,1.095-2.268,0.861c-0.396-0.095-1.175-0.434-2.334-1.018c-0.938,0.885-1.441,1.471-1.511,1.758
	c-0.095,0.399,0.089,0.938,0.551,1.623c0.46,0.682,0.894,1.072,1.301,1.17c0.257,0.061,0.621,0.091,1.09,0.089
	c0.468-0.001,0.777,0.015,0.927,0.051c0.443,0.104,0.469,0.971,0.078,2.595c-0.37,1.554-1.302,3.854-2.793,6.893
	c-0.059-3.909-0.61-5.99-1.656-6.238c-0.145-0.035-0.469,0.003-0.972,0.111c-0.505,0.107-0.864,0.137-1.08,0.084
	c-1.048-0.25-1.758-1.433-2.131-3.545c-1.723-0.146-2.757,0.506-3.103,1.95c-0.174,0.725,0.023,1.382,0.589,1.974
	c0.563,0.592,0.823,0.98,0.782,1.16c-0.233,0.977-2.021,2.134-5.356,3.474c-1.776,0.721-3.007,1.227-3.688,1.522
	c0.659-0.528,1.369-1.256,2.127-2.182c0.862-1.056,1.371-1.906,1.528-2.558c0.086-0.359-0.209-0.966-0.884-1.815
	c-0.676-0.848-0.926-1.633-0.753-2.355c0.146-0.614,0.543-1.321,1.194-2.12c-0.341-0.654-0.835-1.06-1.485-1.215
	c-1.444-0.348-2.279-0.049-2.504,0.89c0.155-0.651,0.038-0.163-0.35,1.463c-0.25,1.2-1.296,1.579-3.138,1.14
	c-1.409-0.338-3.696-1.229-6.864-2.674c3.981-0.039,6.118-0.674,6.411-1.903c-0.032,0.146-0.003-0.305,0.097-1.352
	c0.122-1.153,1.16-1.975,3.108-2.463c0.072-1.738-0.594-2.777-2.004-3.114c-0.216-0.052-0.705,0.232-1.463,0.851
	c-0.761,0.621-1.393,0.872-1.898,0.75c-0.867-0.205-1.763-1.413-2.684-3.62c-0.427-1.095-1.088-2.723-1.983-4.886
	c0.727,0.633,1.453,1.267,2.182,1.896c0.963,0.767,1.77,1.226,2.419,1.382c0.506,0.122,1.108-0.202,1.808-0.971
	c0.699-0.768,1.446-1.058,2.24-0.867c0.111,0.027,0.78,0.415,2.013,1.169c0.937-0.883,1.466-1.577,1.588-2.083
	c0.102-0.434-0.04-0.994-0.431-1.678c-0.39-0.687-0.802-1.08-1.235-1.184c-0.181-0.045-0.473-0.057-0.878-0.039
	c-0.405,0.019-0.698,0.005-0.879-0.038c-0.649-0.157-0.781-1.045-0.392-2.671c0.102-0.434,1.11-2.809,3.022-7.124
	c-0.166,0.532-0.173,1.601-0.021,3.203c0.181,1.953,0.687,3.025,1.518,3.228c0.144,0.032,0.459-0.007,0.946-0.119
	c0.485-0.112,0.852-0.139,1.104-0.079c0.83,0.199,1.404,0.834,1.723,1.902l0.463,1.655c0.758,0.183,1.455,0.064,2.09-0.357
	c0.636-0.422,1.046-1.011,1.227-1.769c0.189-0.794,0-1.479-0.568-2.057c-0.569-0.574-0.829-0.971-0.775-1.187
	c0.181-0.758,1.68-1.755,4.495-2.99c2.26-0.987,3.709-1.537,4.349-1.653c-2.054,1.726-3.199,3.072-3.432,4.049
	c-0.121,0.506,0.055,1.121,0.531,1.847c0.595,0.867,0.912,1.459,0.95,1.772c0.161,0.917-0.146,2.046-0.925,3.389
	c0.811,0.92,1.47,1.438,1.977,1.56c1.045,0.251,1.699-0.166,1.958-1.249c0.026-0.109,0.063-0.462,0.112-1.062
	c0.046-0.599,0.098-0.931,0.151-0.995c0.266-0.471,1.319-0.487,3.161-0.045c1.156,0.275,3.479,1.175,6.973,2.699
	c-0.847,0.026-2.116,0.065-3.809,0.118c-1.55,0.089-2.389,0.404-2.519,0.945c-0.06,0.253-0.074,0.708-0.04,1.364
	c0.034,0.657,0.017,1.132-0.053,1.419c-0.12,0.507-0.559,0.897-1.312,1.175l-2.155,0.861c0.245,0.898,0.42,1.437,0.531,1.616
	c0.259,0.518,0.692,0.854,1.306,1c0.434,0.104,0.922-0.181,1.465-0.853c0.542-0.672,1.212-0.913,2.007-0.722
	c0.975,0.232,1.861,1.398,2.657,3.498C86.349,68.917,87.047,70.706,88,73.112z M76.726,67.092c0.552-2.312,0.184-4.521-1.108-6.625
	c-1.292-2.104-3.094-3.433-5.404-3.984c-2.348-0.561-4.573-0.206-6.671,1.069c-2.099,1.27-3.448,3.078-4.046,5.416
	c-0.59,2.302-0.21,4.504,1.141,6.604c1.35,2.097,3.18,3.425,5.493,3.978c2.454,0.587,4.697,0.273,6.725-0.941
	C74.882,71.396,76.172,69.555,76.726,67.092z M75.911,66.897c-0.526,2.202-1.703,3.85-3.53,4.939
	c-1.826,1.09-3.843,1.373-6.044,0.846c-2.131-0.512-3.777-1.687-4.94-3.533c-1.163-1.842-1.489-3.829-0.979-5.96
	c0.503-2.095,1.698-3.708,3.592-4.842c1.896-1.13,3.889-1.445,5.984-0.943c2.094,0.5,3.727,1.692,4.898,3.577
	C76.063,62.867,76.404,64.838,75.911,66.897z"/>
<path fill="#03060D" d="M51.64,34.315c0,0.758-0.293,1.438-0.879,2.042c-0.586,0.605-1.258,0.909-2.016,0.909
	c-1.207,0-2.098-0.568-2.663-1.702l-2.666-0.115c-0.568,0-1.685,0.247-3.346,0.738c-1.777,0.491-2.798,0.89-3.064,1.191
	c-0.414,0.452-0.755,1.512-1.02,3.175c-0.228,1.361-0.339,2.364-0.339,3.007c0,1.021,0.16,1.769,0.48,2.24
	c0.321,0.474,0.984,0.87,1.984,1.191c1.001,0.32,1.616,0.501,1.844,0.537c0.151,0,0.396-0.018,0.737-0.057h0.681
	c0.491,0,1.001,0.077,1.532,0.228c0.755,0.229,1.077,0.53,0.965,0.909c-0.531-0.077-1.456,0.037-2.778,0.34l1.586,0.793
	c0,0.455-0.643,0.681-1.928,0.681c-0.342,0-0.805-0.076-1.39-0.226c-0.587-0.153-0.975-0.227-1.163-0.227h-0.736
	c-0.039,0.376-0.151,0.943-0.341,1.7c-0.645-0.039-1.399-0.416-2.27-1.136c-0.87-0.716-1.418-1.077-1.643-1.077
	c-0.228,0-0.551,0.361-0.965,1.077c-0.417,0.72-0.624,1.211-0.624,1.476c-0.491-0.265-0.905-0.756-1.249-1.476
	c-0.151-0.491-0.321-0.982-0.509-1.474c-0.379,0.039-1.077,0.832-2.099,2.383h-0.284c-0.076-0.115-0.36-0.909-0.852-2.383
	c-1.172-0.378-2.268-0.567-3.288-0.567c-0.491,0-1.249,0.115-2.27,0.34l-1.586-0.112c0.225-0.228,0.888-0.661,1.983-1.304
	c1.284-0.756,2.269-1.135,2.949-1.135c0.112,0,0.264,0.02,0.454,0.057c0.188,0.038,0.341,0.056,0.454,0.056
	c0.263,0,0.689-0.141,1.275-0.426c0.586-0.281,0.927-0.537,1.019-0.764c0.098-0.228,0.145-0.813,0.145-1.76
	c0-2.154-0.568-3.761-1.703-4.82c-0.983-0.945-2.608-1.625-4.877-2.04c-0.604,2.154-2.307,3.232-5.103,3.232
	c-0.909,0-1.815-0.549-2.723-1.646c-0.905-1.096-1.361-2.098-1.361-3.005c0-1.399,0.586-2.553,1.758-3.462
	c-0.944-0.981-1.418-1.983-1.418-3.004c0-0.947,0.292-1.777,0.879-2.498c0.586-0.716,1.353-1.133,2.297-1.245
	c-0.074-1.211,0.321-2.042,1.191-2.496c-0.416-0.416-0.623-1.153-0.623-2.211c0-1.247,0.414-2.288,1.247-3.119
	c0.83-0.833,1.872-1.25,3.117-1.25c1.363,0,2.479,0.477,3.348,1.42c1.098-3.743,3.459-5.615,7.089-5.615
	c1.89,0,3.554,0.756,4.99,2.269c0.53,0.568,0.793,0.87,0.793,0.907c-0.452,0-0.225-0.085,0.681-0.255
	c0.909-0.17,1.568-0.256,1.986-0.256c1.474,0,2.778,0.548,3.915,1.646c0.982,0.983,1.663,2.229,2.042,3.743
	c0.263,0.039,0.679,0.151,1.246,0.339c0.831,0.419,1.248,1.135,1.248,2.156c0,0.189-0.152,0.549-0.454,1.077
	c2.419,1.361,3.63,3.252,3.63,5.673c0,0.679-0.265,1.626-0.793,2.835C51.148,32.387,51.64,33.221,51.64,34.315z M28.273,36.811
	v-0.735c0-0.87-0.425-1.665-1.276-2.382c-0.851-0.718-1.71-1.078-2.58-1.078c-1.06,0-2.042,0.244-2.949,0.736
	C23.472,33.238,25.74,34.393,28.273,36.811z M27.252,29.779c-0.566-0.644-1.058-1.305-1.474-1.985
	c-1.589,0.417-2.382,0.889-2.382,1.417c0.452-0.035,1.115,0.048,1.983,0.258C26.249,29.676,26.875,29.779,27.252,29.779z
	 M30.715,28.021v-2.495c-0.91-0.15-1.459-0.228-1.646-0.228v0.85L30.715,28.021z M38.086,26.433
	c-0.454-0.189-1.305-0.567-2.554-1.134v4.877C37.311,29.155,38.16,27.906,38.086,26.433z M41.202,33.126l-1.246-1.532
	c-0.755,0.53-1.521,1.067-2.298,1.617c-0.775,0.549-1.445,1.162-2.011,1.842C37.346,34.145,39.201,33.504,41.202,33.126z"/>
</svg>
