<?xml version="1.0" encoding="utf-8"?>
<!-- Generator: Adobe Illustrator 16.0.0, SVG Export Plug-In . SVG Version: 6.00 Build 0)  -->
<!DOCTYPE svg PUBLIC "-//W3C//DTD SVG 1.1//EN" "http://www.w3.org/Graphics/SVG/1.1/DTD/svg11.dtd">
<svg version="1.1" id="Layer_1" xmlns="http://www.w3.org/2000/svg" xmlns:xlink="http://www.w3.org/1999/xlink" x="0px" y="0px"
	 width="100px" height="100px" viewBox="0 0 100 100" enable-background="new 0 0 100 100" xml:space="preserve">
<g>
	<path fill="#BBD8E7" d="M85.349,14.637C94.401,23.687,100,36.188,100,49.997C100,77.613,77.613,100,50,100
		c-13.807,0-26.305-5.596-35.354-14.646"/>
	<path fill="#9CC395" d="M14.646,85.354C5.596,76.307,0,63.805,0,49.997C0,22.384,22.387,0,50,0
		c13.802,0,26.301,5.593,35.349,14.637"/>
</g>
<path fill="#03060D" d="M76.723,83.675c-2.693,2.739-6.008,4.109-9.946,4.109c-4.423,0-7.93-1.514-10.524-4.541
	c-2.452-2.883-3.678-6.558-3.678-11.028c0-4.804,2.091-10.281,6.272-16.434c3.411-5.046,7.424-9.467,12.037-13.263
	c-0.675,3.076-1.009,5.262-1.009,6.56c0,2.98,0.935,5.886,2.811,8.721c2.306,3.365,4.061,5.864,5.262,7.496
	c1.873,2.835,2.812,5.599,2.812,8.289C80.759,77.574,79.412,80.938,76.723,83.675z M76.648,68.287
	c-0.719-1.61-1.56-2.679-2.521-3.208c0.146,0.288,0.216,0.698,0.216,1.225c0,1.011-0.287,2.454-0.864,4.325l-0.938,2.884
	c0,1.681,0.84,2.523,2.521,2.523c1.778,0,2.669-1.177,2.669-3.532C77.731,71.303,77.37,69.896,76.648,68.287z"/>
<path fill="#03060D" d="M51.64,34.285c0,0.757-0.293,1.437-0.879,2.043c-0.586,0.604-1.258,0.905-2.016,0.905
	c-1.207,0-2.098-0.566-2.663-1.701l-2.666-0.112c-0.568,0-1.685,0.245-3.346,0.736c-1.777,0.491-2.798,0.888-3.064,1.191
	c-0.414,0.454-0.755,1.514-1.02,3.177c-0.228,1.361-0.339,2.363-0.339,3.007c0,1.018,0.16,1.767,0.48,2.24
	c0.321,0.472,0.984,0.868,1.984,1.189c1.001,0.319,1.616,0.502,1.844,0.538c0.151,0,0.396-0.018,0.737-0.056h0.681
	c0.491,0,1.001,0.077,1.532,0.227c0.755,0.226,1.077,0.528,0.965,0.906c-0.531-0.073-1.456,0.039-2.778,0.341l1.586,0.795
	c0,0.454-0.643,0.679-1.928,0.679c-0.342,0-0.805-0.074-1.39-0.225c-0.587-0.154-0.975-0.229-1.163-0.229h-0.736
	c-0.039,0.379-0.151,0.944-0.341,1.702c-0.645-0.039-1.399-0.417-2.27-1.134c-0.87-0.719-1.418-1.078-1.643-1.078
	c-0.228,0-0.551,0.359-0.965,1.078c-0.417,0.717-0.624,1.208-0.624,1.474c-0.491-0.266-0.905-0.757-1.249-1.474
	c-0.151-0.494-0.321-0.985-0.509-1.477c-0.379,0.038-1.077,0.835-2.099,2.384h-0.284c-0.076-0.114-0.36-0.907-0.852-2.384
	c-1.172-0.376-2.268-0.565-3.288-0.565c-0.491,0-1.249,0.112-2.27,0.341l-1.586-0.112c0.225-0.229,0.888-0.663,1.983-1.306
	c1.284-0.758,2.269-1.136,2.949-1.136c0.112,0,0.264,0.021,0.454,0.058c0.188,0.04,0.341,0.058,0.454,0.058
	c0.263,0,0.689-0.143,1.275-0.427c0.586-0.283,0.927-0.538,1.019-0.765c0.098-0.229,0.145-0.813,0.145-1.759
	c0-2.154-0.568-3.762-1.703-4.821c-0.983-0.943-2.608-1.624-4.877-2.042c-0.604,2.154-2.307,3.234-5.103,3.234
	c-0.909,0-1.815-0.547-2.723-1.645c-0.905-1.099-1.361-2.099-1.361-3.007c0-1.4,0.586-2.551,1.758-3.46
	c-0.944-0.982-1.418-1.983-1.418-3.005c0-0.945,0.292-1.777,0.879-2.496c0.586-0.716,1.353-1.134,2.297-1.249
	c-0.074-1.207,0.321-2.042,1.191-2.494c-0.416-0.415-0.623-1.151-0.623-2.211c0-1.247,0.414-2.287,1.247-3.119
	c0.83-0.831,1.872-1.249,3.117-1.249c1.363,0,2.479,0.474,3.348,1.418c1.098-3.742,3.459-5.614,7.089-5.614
	c1.89,0,3.554,0.757,4.99,2.271c0.53,0.564,0.793,0.868,0.793,0.905c-0.452,0-0.225-0.086,0.681-0.255
	c0.909-0.17,1.568-0.256,1.986-0.256c1.474,0,2.778,0.549,3.915,1.646c0.982,0.984,1.663,2.229,2.042,3.742
	c0.263,0.038,0.679,0.15,1.246,0.34c0.831,0.418,1.248,1.135,1.248,2.156c0,0.189-0.152,0.549-0.454,1.078
	c2.419,1.361,3.63,3.251,3.63,5.67c0,0.681-0.265,1.628-0.793,2.837C51.148,32.356,51.64,33.188,51.64,34.285z M28.273,36.781
	v-0.737c0-0.87-0.425-1.664-1.276-2.382c-0.851-0.72-1.71-1.077-2.58-1.077c-1.06,0-2.042,0.245-2.949,0.735
	C23.472,33.209,25.74,34.36,28.273,36.781z M27.252,29.75c-0.566-0.646-1.058-1.306-1.474-1.986
	c-1.589,0.415-2.382,0.888-2.382,1.416c0.452-0.037,1.115,0.048,1.983,0.256C26.249,29.646,26.875,29.75,27.252,29.75z
	 M30.715,27.99v-2.496c-0.91-0.15-1.459-0.227-1.646-0.227v0.851L30.715,27.99z M38.086,26.402
	c-0.454-0.189-1.305-0.567-2.554-1.135v4.877C37.311,29.122,38.16,27.876,38.086,26.402z M41.202,33.094l-1.246-1.53
	c-0.755,0.53-1.521,1.068-2.298,1.616c-0.775,0.547-1.445,1.163-2.011,1.844C37.346,34.114,39.201,33.473,41.202,33.094z"/>
</svg>
