<?xml version="1.0" encoding="utf-8"?>
<!-- Generator: Adobe Illustrator 16.0.0, SVG Export Plug-In . SVG Version: 6.00 Build 0)  -->
<!DOCTYPE svg PUBLIC "-//W3C//DTD SVG 1.1//EN" "http://www.w3.org/Graphics/SVG/1.1/DTD/svg11.dtd">
<svg version="1.1" id="Layer_1" xmlns="http://www.w3.org/2000/svg" xmlns:xlink="http://www.w3.org/1999/xlink" x="0px" y="0px"
	 width="100px" height="100px" viewBox="0 0 100 100" enable-background="new 0 0 100 100" xml:space="preserve">
<g>
	<circle fill="#CFC9C2" cx="50" cy="49.998" r="50"/>
</g>
<path fill="#03060D" d="M52.307,6.25v27.246c0,3.26,1.371,4.889,4.117,4.889h0.715v1.865H42.643v-1.865h0.91
	c2.656,0,3.98-1.629,3.98-4.889V15.623c0-3.297-1.145-4.947-3.434-4.947h-1.457V8.871h0.523c2.832,0,5.395-0.875,7.688-2.621H52.307
	z"/>
<path fill="#03060D" d="M61.553,80.504l-2.504,8.455h-20.82V87.15c1.012-1.127,3.227-3.4,6.648-6.822
	c2.063-2.063,4.102-4.238,6.121-6.531c1.012-1.129,1.789-2.102,2.332-2.918c1.207-1.746,1.809-3.535,1.809-5.363
	c0-1.789-0.555-3.363-1.66-4.723c-1.105-1.363-2.531-2.045-4.285-2.045c-3.773,0-6.727,2.551-8.863,7.643l-1.867-0.701
	c2.527-7.15,6.508-10.73,11.953-10.73c2.684,0,4.965,0.914,6.855,2.74c1.887,1.828,2.828,4.082,2.828,6.766
	c0,3.422-1.965,6.766-5.891,10.031l-4.082,3.379c-2.605,2.182-4.766,4.223-6.473,6.127c-0.117,0.115-0.352,0.391-0.699,0.816h10.848
	c1.668,0,2.934-0.33,3.789-0.992c0.734-0.582,1.457-1.691,2.156-3.322H61.553z"/>
<g>
	<path fill="#03060D" d="M20.732,49.455v-2.91h58.328v2.91H20.732z"/>
</g>
</svg>
