<?xml version="1.0" encoding="utf-8"?>
<!-- Generator: Adobe Illustrator 16.0.0, SVG Export Plug-In . SVG Version: 6.00 Build 0)  -->
<!DOCTYPE svg PUBLIC "-//W3C//DTD SVG 1.1//EN" "http://www.w3.org/Graphics/SVG/1.1/DTD/svg11.dtd">
<svg version="1.1" id="Layer_1" xmlns="http://www.w3.org/2000/svg" xmlns:xlink="http://www.w3.org/1999/xlink" x="0px" y="0px"
	 width="50px" height="100px" viewBox="0 0 50 100" enable-background="new 0 0 50 100" xml:space="preserve">
<g>
	<path fill="#F7F5D9" d="M0,0c0,33.023,0,67.188,0,100c27.613,0,50-22.387,50-50.002C50,22.385,27.613,0,0,0z"/>
</g>
<path fill="#03060D" d="M17.998,49.746c0-4.793-1.789-8.957-5.363-12.488c-3.514-3.473-7.658-5.229-12.428-5.289
	c0,11.848,0,23.732,0,35.557c5.016-0.055,9.225-1.729,12.617-5.037C16.273,59.129,17.998,54.877,17.998,49.746z"/>
<path fill="#03060D" d="M40.455,46.342c-2.859-4.207-5.428-6.311-7.697-6.311c-1.85,0-3.197,0.883-4.037,2.652
	c-0.842,1.766-1.766,2.648-2.775,2.648c-1.432,0-2.566-0.508-3.406-1.516c-0.338-0.334-1.01-1.428-2.02-3.279l4.291-3.029
	c1.514-1.01,2.271-2.102,2.271-3.277c0-0.676-0.213-1.727-0.633-3.156c-0.422-1.43-0.631-2.438-0.631-3.027
	c0-1.262,1.684-2.398,5.049-3.406c3.699-1.012,6.475-1.766,8.326-2.271c-8.498-1.514-14.09-2.271-16.781-2.271
	c-4.289,0-6.604,0.59-6.939,1.766c-0.082,0.172-0.021,0.93,0.191,2.273c0.209,1.344,0.314,2.143,0.314,2.395
	c0,2.523-1.223,3.785-3.658,3.785c-1.18,0-2.902-0.797-5.174-2.396c1.008-3.361,1.092-6.012,0.252-7.947
	c-0.252-0.672-1.262-1.809-3.027-3.406c-1.432-1.346-2.145-2.609-2.145-3.785c0-2.273,1.809-5.846,5.426-10.725
	C6.438,2.588,3.947,4.258,0.207,7.043c0,7.555,0,15.152,0,22.781c5.275,0.063,9.861,2.027,13.752,5.918
	c3.953,3.953,5.932,8.623,5.932,14.004c0.082,5.721-1.789,10.453-5.617,14.193c-3.77,3.689-8.461,5.551-14.066,5.605
	c0,7.588,0,15.143,0,22.639c6.203-4.473,9.338-7.816,9.338-10.012c0-0.42-0.781-1.137-2.334-2.145
	c-1.559-1.01-2.336-2.354-2.336-4.037c0-3.365,1.936-5.342,5.805-5.932c1.936,4.461,4.121,6.688,6.561,6.688
	c0.504,0,1.281-0.254,2.334-0.756c1.051-0.506,1.744-0.76,2.082-0.76c2.438,0,4.75,4.293,6.938,12.871
	c1.684-7.484,2.523-13.037,2.523-16.652c0-3.785-0.514-5.68-1.547-5.68c-0.344,0-1.033,0.129-2.064,0.379
	c-1.033,0.252-1.848,0.379-2.449,0.379c-0.947,0-2.107-0.629-3.482-1.893s-2.064-2.355-2.064-3.281c0-0.672,0.801-2.225,2.398-4.668
	c2.859,0.674,4.752,1.01,5.678,1.01c2.271,0,3.783-1.027,4.541-3.092c0.76-2.059,1.811-3.092,3.154-3.092
	c1.85,0,6.057,1.852,12.617,5.551C44.533,52.27,42.051,48.695,40.455,46.342z"/>
</svg>
