<?xml version="1.0" encoding="utf-8"?>
<!-- Generator: Adobe Illustrator 16.0.0, SVG Export Plug-In . SVG Version: 6.00 Build 0)  -->
<!DOCTYPE svg PUBLIC "-//W3C//DTD SVG 1.1//EN" "http://www.w3.org/Graphics/SVG/1.1/DTD/svg11.dtd">
<svg version="1.1" id="Layer_1" xmlns="http://www.w3.org/2000/svg" xmlns:xlink="http://www.w3.org/1999/xlink" x="0px" y="0px"
	 width="50px" height="100px" viewBox="0 0 50 100" enable-background="new 0 0 50 100" xml:space="preserve">
<g>
	<path fill="#F79F75" d="M0,0c0,33.334,0,66.666,0,100c27.613,0,50-22.387,50-50C50,22.385,27.613,0,0,0z"/>
</g>
<path fill="#03060D" d="M34.688,68.145c-1.445,0.68-4.5,1.656-9.168,2.928c1.273-1.961,3.648-4.732,7.129-8.313
	c3.477-3.582,5.859-6.523,7.129-8.826c1.949-3.408,2.93-7.203,2.93-11.381c0-7.93-3.484-16.332-10.441-25.199
	c1.102,2.752,1.91,4.818,2.422,6.193c1.355,3.527,2.035,6.453,2.035,8.777c0,1.805-0.469,3.098-1.402,3.871
	C30.188,17.66,18.441,7.896,0.105,6.887c0,1.525,0,3.053,0,4.578c3.016,0.994,4.539,2.232,4.539,3.725
	c0,0.668-1.531,1.383-4.539,2.143c0,1.277,0,2.555,0,3.832c0.023,0.002,0.066,0.01,0.086,0.01c1.949,0,4.113-0.639,6.492-1.91
	c2.371-1.273,4.152-1.91,5.344-1.91c2.543,0,4.625,1.316,6.238,3.947c1.441,2.207,2.164,4.668,2.164,7.383
	c0,2.121-0.512,3.182-1.527,3.182c-0.766,0-1.867-1.061-3.313-3.182c-1.02-1.611-1.781-2.801-2.289-3.564
	c-0.172,0.596-0.254,1.189-0.254,1.783c0,3.563,1.633,6.871,4.898,9.928s6.684,4.668,10.25,4.838
	c-0.172,2.291-0.766,4.668-1.781,7.127c-1.191,3.227-2.551,5.137-4.074,5.729c-1.02-1.018-1.527-2.459-1.527-4.326
	c0-0.848,0.273-2.166,0.824-3.947c0.555-1.781,0.828-3.057,0.828-3.818c-0.848,0.34-1.805,1.252-2.863,2.738
	c-1.063,1.484-1.676,2.734-1.844,3.754c-0.594,3.563-0.766,6.619-0.512,9.164c0.254,2.209-0.68,4.668-2.801,7.385
	c-2.121,2.715-4.285,4.072-6.492,4.072c-1.445,0-2.758-0.297-3.945-0.891c-1.527-0.764-2.293-1.783-2.293-3.057
	c0-2.035,1.824-4.113,5.473-6.236c5.094-3.055,8.066-9.037,8.914-17.949c0.254,0-1.953,1.295-6.621,3.883
	c-3.574,1.984-6.695,3.199-9.375,3.664c0,14.457,0,28.912,0,43.369c10.566-0.686,18.539-2.59,23.887-5.725
	c-1.273,0-4.414-0.064-9.422-0.191c-5.004-0.127-6.449-0.191-4.324-0.191c-0.426,0-0.938-0.273-1.527-0.826
	c-0.598-0.553-0.891-1.039-0.891-1.463c0-1.357,1.781-2.422,5.344-3.186c2.375-0.508,4.586-0.762,6.621-0.762
	c11.117,0,18.539-4.455,22.277-13.367c0.934-2.205,1.398-3.861,1.398-4.965C40.836,64.537,37.91,66.703,34.688,68.145z"/>
<path fill="#03060D" d="M6.363,31.93c1.57-0.975,2.355-2.186,2.355-3.629c0-2.969-1.402-4.455-4.203-4.455
	c-1.188,0-2.27,0.594-3.246,1.781c-0.449,0.547-0.832,0.953-1.164,1.25c0,2.082,0,4.164,0,6.246c0.523,0.17,1.059,0.271,1.609,0.271
	C3.242,33.395,4.793,32.906,6.363,31.93z"/>
</svg>
