<?xml version="1.0" encoding="utf-8"?>
<!-- Generator: Adobe Illustrator 16.0.0, SVG Export Plug-In . SVG Version: 6.00 Build 0)  -->
<!DOCTYPE svg PUBLIC "-//W3C//DTD SVG 1.1//EN" "http://www.w3.org/Graphics/SVG/1.1/DTD/svg11.dtd">
<svg version="1.1" id="Layer_1" xmlns="http://www.w3.org/2000/svg" xmlns:xlink="http://www.w3.org/1999/xlink" x="0px" y="0px"
	 width="100px" height="100px" viewBox="0 0 100 100" enable-background="new 0 0 100 100" xml:space="preserve">
<g>
	<circle fill="#03060D" cx="50" cy="49.998" r="50"/>
</g>
<path fill="#FFFFFF" d="M78.945,24.277l-12.648,7.418c6.16,9.566,9.238,18.406,9.238,26.512c0,6.648-1.969,11.977-5.895,15.988
	c-3.938,4.018-9.219,6.023-15.871,6.023c-11.113,0-23.719-5.797-37.824-17.389l10.094-9.977c9.656,8.76,18.73,13.135,27.246,13.135
	c3.078,0,5.207-0.566,6.379-1.699c1.18-1.137,1.766-3.246,1.766-6.324c0-6.162-1.867-11.594-5.594-16.295L46.84,54.313V19.781
	L78.945,24.277z"/>
</svg>
