<?xml version="1.0" encoding="utf-8"?>
<!-- Generator: Adobe Illustrator 16.0.0, SVG Export Plug-In . SVG Version: 6.00 Build 0)  -->
<!DOCTYPE svg PUBLIC "-//W3C//DTD SVG 1.1//EN" "http://www.w3.org/Graphics/SVG/1.1/DTD/svg11.dtd">
<svg version="1.1" id="Layer_1" xmlns="http://www.w3.org/2000/svg" xmlns:xlink="http://www.w3.org/1999/xlink" x="0px" y="0px"
	 width="100px" height="100px" viewBox="0 0 100 100" enable-background="new 0 0 100 100" xml:space="preserve">
<g>
	<g>
		<circle fill="#CDC8C1" cx="50.001" cy="50.139" r="50"/>
	</g>
	<path fill="#03060D" d="M49.39,94.533c-3.242,3.24-8.498,3.24-11.741,0L5.605,62.49c-3.239-3.241-3.239-8.499,0-11.741
		L50.612,5.742c3.243-3.241,8.5-3.241,11.741,0l32.043,32.044c3.241,3.241,3.241,8.497,0,11.739L49.39,94.533z"/>
	<path fill="#FFFFFF" d="M84.266,58.011H48.261l13.183-9.384c-4.896-3.887-10.564-5.828-16.984-5.828
		c-3.209,0-5.412,0.612-6.588,1.835c-1.186,1.228-1.776,3.445-1.776,6.655c0,8.873,4.562,18.34,13.688,28.396L39.395,90.21
		c-12.09-14.706-18.129-27.847-18.129-39.428c0-6.926,2.084-12.445,6.269-16.544c4.181-4.099,9.747-6.148,16.667-6.148
		c8.453,0,17.665,3.214,27.643,9.634l7.726-13.18L84.266,58.011z"/>
</g>
</svg>
