<?xml version="1.0" encoding="utf-8"?>
<!-- Generator: Adobe Illustrator 16.0.0, SVG Export Plug-In . SVG Version: 6.00 Build 0)  -->
<!DOCTYPE svg PUBLIC "-//W3C//DTD SVG 1.1//EN" "http://www.w3.org/Graphics/SVG/1.1/DTD/svg11.dtd">
<svg version="1.1" id="Layer_1" xmlns="http://www.w3.org/2000/svg" xmlns:xlink="http://www.w3.org/1999/xlink" x="0px" y="0px"
	 width="100px" height="100px" viewBox="0 0 100 100" enable-background="new 0 0 100 100" xml:space="preserve">
<g>
	<circle fill="#C1B5AD" cx="50" cy="49.998" r="50"/>
</g>
<path fill="#0B0D12" d="M77.562,49.925c0.058-5.344-1.64-10.739-4.967-14.928c-1.608-1.771-2.93-3.787-4.633-5.461
	c-3.754-3.726-9.375-3.974-13.897-6.321c-0.263-2.358-1.125-4.715-0.603-7.093c0.159-0.791,0.392-1.593-0.029-2.348
	c-1.186-2.733-0.167-5.699-0.378-8.548C52.896,3.739,52.998,1.919,51.581,1c-0.33,3.097-1.469,5.979-2.392,8.918
	c-0.426,2.29-0.426,4.676-1.413,6.836c0.626,2.188-0.614,4.03-1.956,5.646c-2.966,1.519-6.496,1.88-9.077,4.11
	c-1.841,1.561-3.828,2.931-5.888,4.202c-1.545,1.933-3.256,3.797-3.944,6.24c-2.762,3.335-3.088,7.811-4.654,11.717
	c-0.029,5.799,1.146,12.043,4.85,16.692c2.65,2.187,4.502,5.131,7.148,7.319c2.54,1.516,5.251,2.762,7.874,4.127
	c1.71,0.399,3.475,0.595,5.176,1.06c1.38,7.109,2.322,14.389,5.092,21.132c0.919-2.768,0.808-5.735,1.601-8.532
	c1.118-4.135-1.176-8.44,0.117-12.5c1.938-1.733,5.17-0.608,7.32-2.095c4.092-2.523,8.422-4.98,11.39-8.839
	c1.105-2.22,3.426-3.877,3.426-6.54C76.27,56.906,78.36,53.549,77.562,49.925z M47.188,71.855c-2.965-0.72-5.727-2.138-8.214-3.871
	c-2.676-1.783-3.674-5.11-6.314-6.933c-2.472-2.951-1.937-6.982-2.95-10.476c0.406-2.438,0.885-4.856,1.138-7.325
	c1.206-1.956,3.067-3.515,3.583-5.87c1.767-2.532,4.458-4.284,6.619-6.48c1.572-1.813,4.074-1.048,6.139-1.119
	c-0.205,2-0.368,4.069,0.133,6.041c0.244,1.212,0.791,2.407,0.603,3.676c-0.414,2.699,0.599,5.407-0.117,8.075
	c-1.443,5.577,0.131,11.209,0.268,16.832C47.871,66.894,47.755,69.404,47.188,71.855z M69.665,61.285
	c-1.964,1.397-3.637,3.111-5.351,4.785c-2.979,2.06-5.923,4.24-9.469,5.27c0.32-2.53,0.632-5.131-0.174-7.608
	c-1.978-5.593,0.446-11.445,0.855-17.101c-0.361-3.364-0.016-6.952-1.558-10.049c-0.202-2.327,0.804-4.574,1.486-6.764
	c2.342,0.935,4.547,2.197,6.496,3.821c2.354,1.764,5.96,2.908,6.487,6.198c0.269,2.161,2.634,3.467,2.565,5.678
	C70.854,50.771,71.579,56.267,69.665,61.285z"/>
</svg>
