<?xml version="1.0" encoding="utf-8"?>
<!-- Generator: Adobe Illustrator 16.0.0, SVG Export Plug-In . SVG Version: 6.00 Build 0)  -->
<!DOCTYPE svg PUBLIC "-//W3C//DTD SVG 1.1//EN" "http://www.w3.org/Graphics/SVG/1.1/DTD/svg11.dtd">
<svg version="1.1" id="Layer_1" xmlns="http://www.w3.org/2000/svg" xmlns:xlink="http://www.w3.org/1999/xlink" x="0px" y="0px"
	 width="100px" height="100px" viewBox="0 0 100 100" enable-background="new 0 0 100 100" xml:space="preserve">
<g>
	<path fill="#F7F5D9" d="M85.349,14.637C94.401,23.687,100,36.188,100,49.997C100,77.613,77.613,100,50,100
		c-13.807,0-26.305-5.596-35.354-14.646"/>
	<path fill="#F79F75" d="M14.646,85.354C5.596,76.307,0,63.805,0,49.997C0,22.384,22.387,0,50,0
		c13.802,0,26.301,5.593,35.349,14.637"/>
</g>
<path fill="#03060D" d="M88,73.112c-2.436-2.265-4.054-3.492-4.848-3.682c-0.576-0.138-1.135,0.198-1.672,1.005
	c-0.537,0.808-1.291,1.093-2.268,0.859c-0.396-0.095-1.175-0.434-2.334-1.017c-0.938,0.885-1.441,1.471-1.511,1.758
	c-0.095,0.398,0.089,0.938,0.551,1.622c0.46,0.684,0.894,1.072,1.301,1.17c0.257,0.061,0.621,0.091,1.09,0.089
	c0.468-0.001,0.777,0.015,0.927,0.051c0.443,0.104,0.469,0.971,0.078,2.597c-0.37,1.552-1.302,3.852-2.793,6.892
	c-0.059-3.909-0.61-5.989-1.656-6.239c-0.145-0.035-0.469,0.003-0.972,0.111c-0.505,0.107-0.864,0.137-1.08,0.085
	c-1.048-0.251-1.758-1.432-2.131-3.546c-1.723-0.144-2.757,0.506-3.103,1.95c-0.174,0.725,0.023,1.382,0.589,1.975
	c0.563,0.592,0.823,0.979,0.782,1.16c-0.233,0.977-2.021,2.133-5.356,3.473c-1.776,0.721-3.007,1.227-3.688,1.522
	c0.659-0.528,1.369-1.256,2.127-2.182c0.862-1.056,1.371-1.906,1.528-2.558c0.086-0.359-0.209-0.966-0.884-1.815
	c-0.676-0.848-0.926-1.633-0.753-2.355c0.146-0.614,0.543-1.319,1.194-2.12c-0.341-0.654-0.835-1.06-1.485-1.215
	c-1.444-0.347-2.279-0.049-2.504,0.891c0.155-0.651,0.038-0.163-0.35,1.462c-0.25,1.2-1.296,1.58-3.138,1.14
	c-1.409-0.338-3.696-1.229-6.864-2.673c3.981-0.04,6.118-0.675,6.411-1.902c-0.032,0.145-0.003-0.307,0.097-1.353
	c0.122-1.154,1.16-1.976,3.108-2.464c0.072-1.738-0.594-2.777-2.004-3.114c-0.216-0.052-0.705,0.232-1.463,0.853
	c-0.761,0.619-1.393,0.87-1.898,0.748c-0.867-0.205-1.763-1.413-2.684-3.62c-0.427-1.095-1.088-2.723-1.983-4.885
	c0.727,0.632,1.453,1.266,2.182,1.897c0.963,0.765,1.77,1.225,2.419,1.382c0.506,0.12,1.108-0.204,1.808-0.973
	c0.699-0.768,1.446-1.058,2.24-0.867c0.111,0.027,0.78,0.415,2.013,1.169c0.937-0.883,1.466-1.577,1.588-2.083
	c0.102-0.434-0.04-0.993-0.431-1.678c-0.39-0.686-0.802-1.079-1.235-1.184c-0.181-0.043-0.473-0.057-0.878-0.039
	c-0.405,0.019-0.698,0.005-0.879-0.038c-0.649-0.155-0.781-1.045-0.392-2.671c0.102-0.434,1.11-2.809,3.022-7.123
	c-0.166,0.531-0.173,1.6-0.021,3.202c0.181,1.953,0.687,3.027,1.518,3.228c0.144,0.033,0.459-0.005,0.946-0.119
	c0.485-0.112,0.852-0.139,1.104-0.078c0.83,0.198,1.404,0.833,1.723,1.901l0.463,1.655c0.758,0.183,1.455,0.064,2.09-0.357
	c0.636-0.421,1.046-1.011,1.227-1.769c0.189-0.794,0-1.479-0.568-2.055c-0.569-0.576-0.829-0.971-0.775-1.188
	c0.181-0.758,1.68-1.755,4.495-2.99c2.26-0.985,3.709-1.537,4.349-1.651c-2.054,1.724-3.199,3.07-3.432,4.047
	c-0.121,0.506,0.055,1.121,0.531,1.847c0.595,0.867,0.912,1.459,0.95,1.772c0.161,0.919-0.146,2.046-0.925,3.389
	c0.811,0.92,1.47,1.439,1.977,1.561c1.045,0.25,1.699-0.167,1.958-1.25c0.026-0.108,0.063-0.462,0.112-1.062
	c0.046-0.599,0.098-0.931,0.151-0.995c0.266-0.471,1.319-0.487,3.161-0.045c1.156,0.277,3.479,1.175,6.973,2.699
	c-0.847,0.026-2.116,0.065-3.809,0.12c-1.55,0.087-2.389,0.402-2.519,0.943c-0.06,0.253-0.074,0.708-0.04,1.364
	c0.034,0.657,0.017,1.132-0.053,1.421c-0.12,0.506-0.559,0.896-1.312,1.175l-2.155,0.859c0.245,0.898,0.42,1.437,0.531,1.616
	c0.259,0.52,0.692,0.854,1.306,1.001c0.434,0.104,0.922-0.18,1.465-0.854c0.542-0.672,1.212-0.913,2.007-0.722
	c0.975,0.232,1.861,1.398,2.657,3.499C86.349,68.917,87.047,70.708,88,73.112z M76.726,67.092c0.552-2.312,0.184-4.52-1.108-6.623
	c-1.292-2.104-3.094-3.433-5.404-3.986c-2.348-0.561-4.573-0.206-6.671,1.069c-2.099,1.271-3.448,3.078-4.046,5.417
	c-0.59,2.303-0.21,4.504,1.141,6.603c1.35,2.098,3.18,3.425,5.493,3.978c2.454,0.587,4.697,0.274,6.725-0.941
	C74.882,71.396,76.172,69.555,76.726,67.092z M75.911,66.897c-0.526,2.203-1.703,3.85-3.53,4.939
	c-1.826,1.09-3.843,1.373-6.044,0.846c-2.131-0.51-3.777-1.687-4.94-3.531c-1.163-1.844-1.489-3.83-0.979-5.962
	c0.503-2.095,1.698-3.708,3.592-4.842c1.896-1.129,3.889-1.445,5.984-0.943c2.094,0.5,3.727,1.694,4.898,3.577
	C76.063,62.867,76.404,64.838,75.911,66.897z"/>
<path fill="#03060D" d="M51.937,38.077c-1.718,4.099-5.13,6.146-10.24,6.146c-0.937,0-1.952,0.115-3.044,0.349
	c-1.639,0.353-2.457,0.841-2.457,1.465c0,0.195,0.136,0.418,0.409,0.674c0.272,0.253,0.508,0.38,0.703,0.38
	c-0.977,0-0.313,0.03,1.987,0.086c2.302,0.06,3.746,0.089,4.332,0.089c-3.395,1.988-9.07,2.906-17.029,2.749
	c-2.614-0.037-4.857-1.188-6.729-3.45c-1.834-2.147-2.75-4.546-2.75-7.197c0-2.81,0.945-5.199,2.839-7.17
	c1.89-1.968,4.242-2.954,7.051-2.954c0.623,0,1.453,0.137,2.486,0.409c1.034,0.273,1.727,0.409,2.077,0.409
	c1.444,0,3.238-0.596,5.384-1.785c2.146-1.19,3.161-1.785,3.044-1.785c-0.391,4.096-1.756,6.848-4.097,8.251
	c-1.679,0.977-2.516,1.933-2.516,2.867c0,0.586,0.349,1.054,1.052,1.406c0.546,0.271,1.151,0.408,1.815,0.408
	c1.014,0,2.008-0.623,2.984-1.872c0.974-1.247,1.403-2.379,1.286-3.395c-0.115-1.17-0.037-2.576,0.235-4.212
	c0.077-0.47,0.361-1.045,0.848-1.726c0.488-0.684,0.928-1.104,1.317-1.261c0,0.353-0.128,0.938-0.381,1.755
	c-0.254,0.819-0.38,1.427-0.38,1.815c0,0.859,0.233,1.522,0.702,1.99c0.702-0.272,1.325-1.151,1.872-2.634
	c0.468-1.131,0.74-2.224,0.82-3.276c-1.64-0.076-3.211-0.819-4.712-2.225c-1.502-1.404-2.252-2.926-2.252-4.563
	c0-0.272,0.037-0.546,0.117-0.819c0.232,0.352,0.583,0.899,1.054,1.639c0.661,0.974,1.17,1.462,1.521,1.462
	c0.468,0,0.701-0.488,0.701-1.462c0-1.248-0.331-2.379-0.994-3.394c-0.742-1.211-1.698-1.814-2.867-1.814
	c-0.548,0-1.366,0.292-2.458,0.878c-1.093,0.584-2.088,0.877-2.982,0.877c-0.274,0-1.484-0.353-3.63-1.054
	c3.783-0.624,5.676-1.189,5.676-1.698c0-1.326-2.594-2.223-7.783-2.69c-0.507-0.038-1.442-0.116-2.808-0.235
	c0.155-0.193,1.268-0.408,3.336-0.644c1.755-0.192,2.983-0.293,3.685-0.293c9.285,0,15.175,4.507,17.673,13.521
	c0.431-0.358,0.646-0.95,0.646-1.78c0-1.069-0.313-2.413-0.937-4.035c-0.235-0.633-0.607-1.583-1.113-2.847
	c3.197,4.075,4.8,7.937,4.8,11.583c0,1.92-0.451,3.666-1.348,5.231c-0.583,1.06-1.678,2.412-3.276,4.059
	c-1.599,1.646-2.691,2.92-3.277,3.822c2.146-0.586,3.552-1.036,4.215-1.347c1.48-0.664,2.827-1.66,4.036-2.985
	C52.579,36.305,52.364,37.065,51.937,38.077z M26.422,15.08c0,0.702-0.391,1.151-1.17,1.347l-1.521,0.234
	c-0.548,0.271-1.347,1.346-2.398,3.218c-0.118-0.584-0.293-1.404-0.528-2.458c-0.351,0.039-0.936,0.353-1.755,0.936
	c-0.351,0.273-0.917,0.684-1.698,1.229c0.235-1.404,1.017-2.826,2.342-4.271c1.404-1.599,2.771-2.397,4.096-2.397
	C25.545,12.917,26.422,13.638,26.422,15.08z M36.604,20.465c0,0.661-0.36,1.22-1.083,1.668c-0.722,0.448-1.434,0.673-2.135,0.673
	c-0.938,0-1.777-0.525-2.517-1.582c-0.898-1.285-1.814-2.124-2.751-2.515c0.193-0.195,0.429-0.293,0.704-0.293
	c0.35,0,0.944,0.271,1.783,0.819c0.837,0.548,1.374,0.819,1.609,0.819c0.195,0,0.517-0.271,0.965-0.819s0.945-0.819,1.493-0.819
	C35.961,18.416,36.604,19.1,36.604,20.465z"/>
</svg>
