<?xml version="1.0" encoding="utf-8"?>
<!-- Generator: Adobe Illustrator 16.0.0, SVG Export Plug-In . SVG Version: 6.00 Build 0)  -->
<!DOCTYPE svg PUBLIC "-//W3C//DTD SVG 1.1//EN" "http://www.w3.org/Graphics/SVG/1.1/DTD/svg11.dtd">
<svg version="1.1" id="Layer_1" xmlns="http://www.w3.org/2000/svg" xmlns:xlink="http://www.w3.org/1999/xlink" x="0px" y="0px"
	 width="100px" height="100px" viewBox="0 0 100 100" enable-background="new 0 0 100 100" xml:space="preserve">
<g>
	<g>
		<circle fill="#CDC8C1" cx="50" cy="49.954" r="50"/>
	</g>
	<g>
		<path fill="#03060D" d="M94.775,55.801l-10.57,12.728l-2.59-2.588c1.007-2.541,1.644-4.878,1.907-7.013
			c0.262-2.132,0.154-4.11-0.324-5.934c-0.048-0.238-0.107-0.467-0.18-0.682c-0.071-0.217-0.155-0.421-0.252-0.612
			c-0.383-1.149-0.959-2.229-1.727-3.235c-0.767-1.009-1.868-2.23-3.306-3.668l-7.552-7.695L35.089,72.196
			c-3.069,3.067-4.724,5.729-4.963,7.98c-0.241,2.255,0.863,4.604,3.309,7.049l1.007,0.863l-2.733,2.731L8.696,67.809l2.732-2.732
			l1.15,1.149c2.397,2.494,4.722,3.622,6.976,3.381c2.253-0.238,4.891-1.871,7.911-4.89L62.63,29.55l-7.838-7.838
			c-2.205-2.109-4.087-3.584-5.645-4.422c-1.559-0.84-3.37-1.187-5.429-1.043c-0.289,0-0.59,0.012-0.9,0.035
			c-0.312,0.025-0.636,0.061-0.971,0.108c-0.624,0.048-1.175,0.119-1.653,0.216c-0.48,0.096-0.936,0.167-1.367,0.216
			c-0.145,0.048-0.276,0.083-0.395,0.107c-0.12,0.023-0.276,0.037-0.468,0.036c-0.528,0.144-1.128,0.311-1.798,0.503
			c-0.673,0.19-1.511,0.408-2.518,0.647l-2.373-2.518L43.717,4.74L94.775,55.801z"/>
	</g>
</g>
</svg>
