<?xml version="1.0" encoding="utf-8"?>
<!-- Generator: Adobe Illustrator 16.0.0, SVG Export Plug-In . SVG Version: 6.00 Build 0)  -->
<!DOCTYPE svg PUBLIC "-//W3C//DTD SVG 1.1//EN" "http://www.w3.org/Graphics/SVG/1.1/DTD/svg11.dtd">
<svg version="1.1" id="Layer_1" xmlns="http://www.w3.org/2000/svg" xmlns:xlink="http://www.w3.org/1999/xlink" x="0px" y="0px"
	 width="100px" height="100px" viewBox="0 0 100 100" enable-background="new 0 0 100 100" xml:space="preserve">
<g>
	<circle fill="#CFC9C2" cx="50" cy="49.998" r="50"/>
</g>
<path fill="#03060D" d="M85.332,58.918H49.328l13.184-9.383c-4.898-3.887-10.566-5.828-16.984-5.828
	c-3.211,0-5.414,0.613-6.59,1.836c-1.184,1.227-1.777,3.445-1.777,6.654c0,8.873,4.563,18.34,13.691,28.396L40.461,91.117
	c-12.09-14.705-18.129-27.844-18.129-39.424c0-6.928,2.086-12.447,6.27-16.545C32.781,31.051,38.348,29,45.27,29
	c8.453,0,17.664,3.213,27.641,9.633l7.727-13.18L85.332,58.918z"/>
</svg>
