<?xml version="1.0" encoding="utf-8"?>
<!-- Generator: Adobe Illustrator 16.0.0, SVG Export Plug-In . SVG Version: 6.00 Build 0)  -->
<!DOCTYPE svg PUBLIC "-//W3C//DTD SVG 1.1//EN" "http://www.w3.org/Graphics/SVG/1.1/DTD/svg11.dtd">
<svg version="1.1" id="Layer_1" xmlns="http://www.w3.org/2000/svg" xmlns:xlink="http://www.w3.org/1999/xlink" x="0px" y="0px"
	 width="100px" height="100px" viewBox="0 0 100 100" enable-background="new 0 0 100 100" xml:space="preserve">
<g>
	<path fill="#C1B5AD" d="M85.349,14.637C94.4,23.687,100,36.188,100,49.997C100,77.613,77.613,100,49.999,100
		c-13.806,0-26.305-5.596-35.354-14.646"/>
	<path fill="#F7F5D9" d="M14.646,85.354C5.597,76.307,0,63.805,0,49.997C0,22.384,22.386,0,49.999,0
		c13.804,0,26.302,5.593,35.35,14.637"/>
</g>
<path fill="#03060D" d="M89.62,65.99c0,2.702-0.982,4.544-2.947,5.526c-0.574,0.287-2.374,0.677-5.403,1.166
	c-1.964,0.329-2.946,1.086-2.946,2.271v4.973c0,0.209,0.062,0.841,0.184,1.905l0.185,1.966c0,0.613-0.143,1.617-0.43,3.008
	c-0.777,0.163-1.679,0.348-2.701,0.554c-0.328-1.23-0.491-2.069-0.491-2.519c0-0.203,0.05-0.512,0.153-0.921
	c0.102-0.408,0.153-0.716,0.153-0.922c0-0.284-0.253-1.083-0.763-2.393h-0.952c-0.126,0.204-0.167,0.471-0.128,0.797
	c0.164,0.696,0.226,1.288,0.186,1.781c-0.697,0.491-1.657,1.146-2.885,1.965c-0.289-0.083-0.39-0.123-0.309-0.123v-4.36
	c-0.081-0.203-0.285-0.285-0.613-0.246h-0.737l-0.737,5.771c-0.572,0.041-1.268,0.041-2.086,0c-0.287-1.35-0.799-3.354-1.535-6.016
	h-0.492c-0.449,1.433-0.695,2.211-0.736,2.334c0,0.163,0.051,0.48,0.154,0.951c0.102,0.471,0.153,0.787,0.153,0.951
	c0,0.122-0.042,0.43-0.124,0.921l-0.184,1.474c-0.083,0.08-0.184,0.121-0.307,0.121c-1.229,0-2.048-0.307-2.455-0.919
	c-0.411-0.615-0.575-1.475-0.492-2.58l0.492-7.366c0-0.122,0.039-0.287,0.121-0.492c0.082-0.203,0.123-0.348,0.123-0.428
	c0-0.328-0.348-0.984-1.043-1.967c-0.123-0.04-0.758-0.184-1.904-0.431c-0.695-0.162-2.066-0.449-4.111-0.857
	c-2.825-0.531-4.238-2.803-4.238-6.815c0-5.977,2.457-10.949,7.367-14.919c0.204,1.106,0.554,2.577,1.045,4.419
	c0.368,0.085,1.168,0.269,2.395,0.554c0.246,0.081,1.494,0.532,3.744,1.351c-1.145-0.695-2.64-1.819-4.48-3.376
	c-0.697-0.818-1.046-2.19-1.046-4.113c0-0.452,0.778-0.982,2.335-1.599c1.391-0.572,2.434-0.897,3.131-0.98
	c2.209-0.286,3.908-0.431,5.096-0.431c5.115,0,9.25,1.311,12.4,3.932c-1.021,1.188-2.783,2.453-5.279,3.806
	c0.982,0.041,2.416-0.347,4.299-1.168c1.883-0.816,2.68-1.227,2.395-1.227c0.326,0,0.982,0.655,1.965,1.964
	c0.735,0.982,1.328,1.864,1.779,2.64c1.311,2.333,2.19,4.852,2.642,7.552c0,0.942,0.02,1.617,0.061,2.025V65.99z M66.104,67.098
	c0-1.761-0.767-3.429-2.301-5.006c-1.536-1.576-3.185-2.363-4.944-2.363c-1.555,0-2.924,0.66-4.113,1.977
	c-1.186,1.32-1.779,2.782-1.779,4.389c0,1.401,0.675,2.309,2.027,2.719c0.859,0.248,2.065,0.392,3.62,0.434h3.377
	C64.732,69.285,66.104,68.569,66.104,67.098z M72.797,74.71v-1.902c-0.285-0.533-0.572-1.087-0.858-1.659
	c-0.245-0.818-0.696-1.964-1.351-3.44l-0.676,7.184c0,0.576-0.122,0.861-0.369,0.861c-0.162,0-0.287-0.04-0.368-0.123
	c-0.287-4.338-0.429-6.222-0.429-5.647v-2.148c-0.084-0.126-0.186-0.187-0.309-0.187c-1.391,1.436-2.086,3.748-2.086,6.938
	c0,1.761,0.162,2.844,0.49,3.257c0.328-0.083,0.695-0.226,1.106-0.431c0.163-0.083,0.634-0.123,1.411-0.123
	c0.775,0,1.72,0.245,2.823,0.735C72.593,78.024,72.797,76.921,72.797,74.71z M86.673,66.154c0-1.646-0.614-3.119-1.843-4.418
	c-1.228-1.296-2.639-1.945-4.234-1.945c-1.719,0-3.328,0.787-4.82,2.362c-1.494,1.576-2.242,3.223-2.242,4.944
	c0,1.432,0.697,2.148,2.088,2.148h7.06C85.343,69.204,86.673,68.176,86.673,66.154z"/>
<path fill="#03060D" d="M54.667,38.264c-2.436-2.264-4.054-3.492-4.848-3.682c-0.577-0.138-1.135,0.198-1.672,1.005
	c-0.537,0.808-1.292,1.094-2.268,0.859c-0.397-0.095-1.175-0.432-2.333-1.017c-0.938,0.885-1.441,1.471-1.511,1.758
	c-0.095,0.398,0.089,0.938,0.55,1.623c0.46,0.683,0.894,1.071,1.301,1.169c0.257,0.063,0.622,0.092,1.09,0.089
	c0.468,0,0.777,0.015,0.926,0.051c0.444,0.106,0.469,0.971,0.079,2.597c-0.37,1.552-1.302,3.852-2.794,6.892
	c-0.058-3.909-0.609-5.989-1.655-6.239c-0.145-0.035-0.469,0.003-0.972,0.112c-0.505,0.106-0.864,0.137-1.08,0.085
	c-1.048-0.25-1.758-1.433-2.131-3.547c-1.722-0.144-2.757,0.506-3.103,1.95c-0.173,0.725,0.024,1.382,0.589,1.975
	c0.564,0.593,0.824,0.981,0.783,1.16c-0.233,0.977-2.021,2.133-5.356,3.473c-1.777,0.723-3.007,1.229-3.688,1.524
	c0.659-0.529,1.369-1.258,2.126-2.184c0.862-1.054,1.372-1.906,1.528-2.558c0.086-0.357-0.208-0.964-0.883-1.813
	c-0.676-0.85-0.926-1.634-0.753-2.355c0.146-0.616,0.543-1.321,1.194-2.122c-0.34-0.654-0.834-1.06-1.485-1.213
	c-1.444-0.348-2.279-0.051-2.504,0.889c0.156-0.65,0.039-0.162-0.349,1.464c-0.25,1.198-1.296,1.578-3.138,1.139
	c-1.409-0.337-3.696-1.228-6.864-2.673c3.982-0.04,6.119-0.674,6.412-1.903c-0.033,0.146-0.003-0.307,0.096-1.353
	c0.123-1.152,1.16-1.976,3.108-2.464c0.073-1.736-0.593-2.775-2.003-3.112c-0.216-0.054-0.706,0.23-1.463,0.851
	c-0.76,0.62-1.392,0.871-1.898,0.75c-0.867-0.207-1.762-1.415-2.684-3.622c-0.426-1.095-1.087-2.723-1.982-4.885
	c0.727,0.632,1.453,1.266,2.181,1.897c0.963,0.765,1.77,1.225,2.419,1.382c0.506,0.12,1.108-0.203,1.808-0.973
	c0.698-0.766,1.446-1.056,2.24-0.866c0.111,0.026,0.78,0.414,2.012,1.169c0.937-0.882,1.466-1.578,1.588-2.084
	c0.102-0.432-0.04-0.992-0.431-1.678c-0.389-0.685-0.802-1.078-1.235-1.184c-0.181-0.043-0.472-0.057-0.877-0.038
	c-0.406,0.018-0.699,0.006-0.879-0.039c-0.65-0.155-0.781-1.045-0.392-2.669c0.102-0.436,1.111-2.809,3.022-7.125
	c-0.166,0.531-0.173,1.6-0.021,3.204c0.181,1.953,0.687,3.025,1.518,3.226c0.144,0.034,0.459-0.005,0.945-0.119
	c0.485-0.112,0.853-0.139,1.105-0.078c0.83,0.2,1.404,0.833,1.722,1.901l0.463,1.657c0.757,0.181,1.455,0.063,2.089-0.358
	c0.636-0.421,1.046-1.012,1.227-1.77c0.189-0.793,0-1.479-0.568-2.055c-0.57-0.576-0.829-0.971-0.775-1.188
	c0.181-0.758,1.68-1.755,4.495-2.988c2.26-0.987,3.709-1.539,4.349-1.653c-2.054,1.724-3.199,3.07-3.431,4.047
	c-0.121,0.506,0.055,1.122,0.531,1.847c0.595,0.867,0.912,1.459,0.95,1.772c0.162,0.919-0.146,2.048-0.924,3.389
	c0.811,0.92,1.469,1.439,1.977,1.561c1.044,0.25,1.699-0.167,1.958-1.25c0.027-0.108,0.063-0.462,0.112-1.06
	c0.046-0.601,0.098-0.932,0.151-0.997c0.267-0.471,1.32-0.485,3.162-0.045c1.156,0.277,3.479,1.175,6.973,2.699
	c-0.847,0.026-2.116,0.065-3.809,0.12c-1.549,0.087-2.388,0.403-2.519,0.945c-0.059,0.252-0.074,0.707-0.04,1.364
	c0.034,0.657,0.016,1.131-0.053,1.419c-0.12,0.506-0.558,0.896-1.311,1.175l-2.156,0.859c0.246,0.9,0.42,1.438,0.531,1.616
	c0.259,0.52,0.693,0.855,1.307,1.002c0.434,0.104,0.922-0.181,1.465-0.854c0.542-0.671,1.212-0.911,2.006-0.722
	c0.975,0.233,1.862,1.399,2.658,3.499C53.016,34.07,53.714,35.859,54.667,38.264z M43.392,32.244
	c0.552-2.311,0.183-4.521-1.108-6.624c-1.292-2.104-3.094-3.433-5.404-3.984c-2.348-0.563-4.573-0.208-6.671,1.067
	c-2.098,1.271-3.448,3.078-4.045,5.417c-0.59,2.303-0.21,4.505,1.141,6.604c1.35,2.097,3.18,3.424,5.493,3.977
	c2.455,0.586,4.698,0.274,6.725-0.94C41.548,36.547,42.838,34.706,43.392,32.244z M42.578,32.049
	c-0.527,2.203-1.703,3.851-3.53,4.939c-1.826,1.092-3.843,1.373-6.044,0.846c-2.131-0.51-3.777-1.687-4.94-3.531
	c-1.163-1.843-1.489-3.829-0.979-5.962c0.503-2.095,1.698-3.708,3.592-4.841c1.896-1.129,3.889-1.444,5.984-0.944
	c2.094,0.5,3.727,1.694,4.899,3.578C42.73,28.019,43.071,29.989,42.578,32.049z"/>
</svg>
