<?xml version="1.0" encoding="utf-8"?>
<!-- Generator: Adobe Illustrator 16.0.0, SVG Export Plug-In . SVG Version: 6.00 Build 0)  -->
<!DOCTYPE svg PUBLIC "-//W3C//DTD SVG 1.1//EN" "http://www.w3.org/Graphics/SVG/1.1/DTD/svg11.dtd">
<svg version="1.1" id="Layer_1" xmlns="http://www.w3.org/2000/svg" xmlns:xlink="http://www.w3.org/1999/xlink" x="0px" y="0px"
	 width="100px" height="100px" viewBox="0 0 100 100" enable-background="new 0 0 100 100" xml:space="preserve">
<g>
	<circle fill="#F6F3D8" cx="50" cy="50.069" r="50"/>
	<path fill="#03060D" d="M34.564,77.88c1.674-1.962,6.073-1.816,6.656,2.139c0.354,2.411,1,10.11,1.808,13.347
		c0.427,1.712,1.257,3.155,2.339,3.225c1.922,0.124,6.614-3.749,7.614-5.566c1.773-3.229,3.058-6.877,4.27-10.784
		c0.475-1.525,2.1-1.599,2.994-0.123c1.665,2.753,4.891,7.428,7.625,10.794c0.722,0.887,1.591,0.788,1.793-0.628
		c0.731-5.124,1.84-11.178,3.859-16.653c0.668-1.809,2.553-2.012,4.031-1.112c0.836,0.509,3.529,1.854,4.547,2.168
		c1.747,0.541,3.232,0.658,5.476-1.01c1.722-1.282,1.854-2.533,0.954-3.905c-1.847-2.821-4.365-4.995-6.375-7.91
		c-1.108-1.607-0.998-2.753,0.407-3.585c3.611-2.139,6.763-4.583,9.646-6.955c1.06-0.871,1.827-2.167,2.07-4.379
		c0.351-3.173,0.56-4.755-0.833-5.149c-1.367-0.389-2.198,0.591-7.983,2.088c-1.374,0.355-2.971,0.571-3.511-0.167
		c-0.554-0.758-0.187-2.205,0.998-3.511c1.775-1.958,4.089-4.279,5.896-6.985c0.866-1.298,1.938-3.411,1.088-4.679
		c-0.929-1.384-3.298-0.618-4.414-0.127c-1.554,0.685-4.609,1.339-6.469,1.608c-2.421,0.352-4.232,0.259-4.971-0.517
		c-0.658-0.692-0.862-2.343-0.148-4.159c1.054-2.679,2.957-5.137,4.527-6.449c1.396-1.166,1.275-1.848,0.204-2.753
		c-0.858-0.726-3.479-1.218-5.473-0.613c-2.937,0.89-5.728,2.351-8.333,4.309c-1.47,1.105-3.445,1.655-5.008,1.386
		c-1.283-0.221-2.67-1.268-3.031-3.363c-0.801-4.66-1.85-9.359-3.03-11.993c-0.721-1.607-1.27-2.191-2.254-2.181
		c-0.961,0.011-1.571,0.776-2.403,2.365c-1.322,2.527-2.68,7.618-3.695,11.809c-0.592,2.439-1.679,3.403-3.604,4.564
		c-1.072,0.647-2.088,0.222-2.643-1.146c-0.553-1.363-2.465-5.932-3.086-7.799c-0.407-1.219-0.906-1.293-1.701-0.129
		c-1.811,2.653-4.822,7.706-6.135,10.479c-0.775,1.636-0.941,3.164,0.073,4.194c1.356,1.377,1.884,2.063,1.109,2.864
		c-0.536,0.555-2.913,0.186-5.519-0.406c-1.726-0.392-4.664-0.851-7.344,0c-2.212,0.703-3.629,1.833-3.844,3.277
		c-0.172,1.158,2.106,4.43,3.443,5.556c0.989,0.834,1.446,1.512,1.547,2.237c0.203,1.478,0,3.382-0.832,4.619
		c-0.438,0.651-1.83,0.666-4.62,0.832c-6.253,0.372-8.985,1.563-9.296,6.006c-0.223,3.189,2.099,5.089,5.618,4.25
		c1.565-0.373,2.976-0.517,4.731-0.148c1.719,0.362,4.822,1.275,4.842,2.939c0.022,2.069-3.217,2.551-6.344,3.712
		c-1.248,0.463-0.92,1.666,0.135,1.851c1.035,0.181,12.755,3.258,14.945,5.948c1.213,1.491-0.172,4.784-0.976,6.692
		c-0.788,1.873-0.388,7.355,0.333,7.539c0.752,0.193,2.458-1.534,3.63-2.761C31.393,81.468,33.023,79.685,34.564,77.88z"/>
	<path fill="none" stroke="#F6F3D8" stroke-width="2.5" stroke-miterlimit="10" d="M69.888,50.069
		c0,10.982-8.903,19.885-19.884,19.885c-10.988,0-19.891-8.902-19.891-19.885c0-10.981,8.902-19.884,19.891-19.884
		C60.984,30.186,69.888,39.088,69.888,50.069z"/>
</g>
</svg>
