<?xml version="1.0" encoding="utf-8"?>
<!-- Generator: Adobe Illustrator 16.0.0, SVG Export Plug-In . SVG Version: 6.00 Build 0)  -->
<!DOCTYPE svg PUBLIC "-//W3C//DTD SVG 1.1//EN" "http://www.w3.org/Graphics/SVG/1.1/DTD/svg11.dtd">
<svg version="1.1" id="Layer_1" xmlns="http://www.w3.org/2000/svg" xmlns:xlink="http://www.w3.org/1999/xlink" x="0px" y="0px"
	 width="100px" height="100px" viewBox="0 0 100 100" enable-background="new 0 0 100 100" xml:space="preserve">
<g>
	<path fill="#BBD8E7" d="M85.349,14.637C94.4,23.687,100,36.188,100,49.997C100,77.613,77.613,100,49.999,100
		c-13.806,0-26.305-5.596-35.354-14.646"/>
	<path fill="#F7F5D9" d="M14.646,85.354C5.597,76.307,0,63.805,0,49.997C0,22.384,22.386,0,49.999,0
		c13.804,0,26.302,5.593,35.35,14.637"/>
</g>
<path fill="#03060D" d="M76.723,83.675c-2.693,2.739-6.008,4.109-9.946,4.109c-4.423,0-7.93-1.514-10.524-4.541
	c-2.452-2.883-3.677-6.558-3.677-11.028c0-4.804,2.091-10.281,6.271-16.434c3.41-5.046,7.423-9.467,12.037-13.263
	c-0.672,3.076-1.009,5.262-1.009,6.56c0,2.98,0.935,5.886,2.811,8.721c2.306,3.365,4.061,5.864,5.262,7.496
	c1.873,2.835,2.812,5.599,2.812,8.289C80.759,77.574,79.412,80.938,76.723,83.675z M76.651,68.287
	c-0.722-1.61-1.563-2.679-2.524-3.208c0.145,0.288,0.217,0.698,0.217,1.225c0,1.011-0.287,2.454-0.865,4.325l-0.938,2.884
	c0,1.681,0.84,2.523,2.523,2.523c1.776,0,2.667-1.177,2.667-3.532C77.731,71.303,77.371,69.896,76.651,68.287z"/>
<path fill="#03060D" d="M54.667,38.264c-2.436-2.264-4.054-3.492-4.848-3.682c-0.577-0.138-1.135,0.198-1.672,1.005
	c-0.537,0.808-1.292,1.094-2.268,0.859c-0.397-0.095-1.175-0.434-2.333-1.017c-0.938,0.885-1.441,1.471-1.511,1.758
	c-0.095,0.398,0.089,0.938,0.55,1.622c0.46,0.684,0.894,1.072,1.301,1.17c0.257,0.062,0.622,0.091,1.09,0.089
	c0.468-0.001,0.777,0.015,0.926,0.051c0.444,0.104,0.469,0.971,0.079,2.597c-0.37,1.552-1.302,3.852-2.794,6.892
	c-0.058-3.909-0.609-5.989-1.655-6.239c-0.145-0.035-0.469,0.003-0.972,0.111c-0.505,0.107-0.864,0.138-1.08,0.086
	c-1.048-0.252-1.758-1.433-2.131-3.547c-1.722-0.144-2.757,0.506-3.103,1.95c-0.173,0.725,0.024,1.382,0.589,1.975
	c0.564,0.593,0.824,0.98,0.783,1.16c-0.233,0.977-2.021,2.133-5.356,3.473c-1.777,0.721-3.007,1.227-3.688,1.523
	c0.659-0.528,1.369-1.257,2.126-2.183c0.862-1.056,1.372-1.906,1.528-2.558c0.086-0.359-0.208-0.966-0.883-1.815
	c-0.676-0.848-0.926-1.633-0.753-2.355c0.146-0.614,0.543-1.319,1.194-2.12c-0.34-0.654-0.834-1.06-1.485-1.215
	c-1.444-0.346-2.279-0.049-2.504,0.891c0.156-0.65,0.039-0.162-0.349,1.462c-0.25,1.2-1.296,1.58-3.138,1.14
	c-1.409-0.338-3.696-1.229-6.864-2.672c3.982-0.04,6.119-0.675,6.412-1.903c-0.033,0.146-0.003-0.307,0.096-1.353
	c0.123-1.154,1.16-1.976,3.108-2.464c0.073-1.738-0.593-2.776-2.003-3.114c-0.216-0.052-0.706,0.232-1.463,0.853
	c-0.76,0.62-1.392,0.87-1.898,0.748c-0.867-0.205-1.762-1.413-2.684-3.62c-0.426-1.095-1.087-2.723-1.982-4.885
	c0.727,0.632,1.453,1.266,2.181,1.897c0.963,0.765,1.77,1.225,2.419,1.382c0.506,0.12,1.108-0.204,1.808-0.973
	c0.698-0.768,1.446-1.058,2.24-0.866c0.111,0.026,0.78,0.414,2.012,1.169c0.937-0.884,1.466-1.578,1.588-2.084
	c0.102-0.434-0.04-0.992-0.431-1.678c-0.389-0.685-0.802-1.078-1.235-1.184c-0.181-0.043-0.472-0.057-0.877-0.038
	c-0.406,0.018-0.699,0.004-0.879-0.039c-0.65-0.155-0.781-1.045-0.392-2.671c0.102-0.434,1.111-2.808,3.022-7.123
	c-0.166,0.531-0.173,1.6-0.021,3.202c0.181,1.953,0.687,3.027,1.518,3.228c0.144,0.034,0.459-0.005,0.945-0.119
	c0.485-0.112,0.853-0.139,1.105-0.078c0.83,0.198,1.404,0.833,1.722,1.901l0.463,1.656c0.757,0.182,1.455,0.063,2.089-0.358
	c0.636-0.42,1.046-1.011,1.227-1.769c0.189-0.794,0-1.479-0.568-2.055c-0.57-0.576-0.829-0.971-0.775-1.188
	c0.181-0.758,1.68-1.755,4.495-2.99c2.26-0.985,3.709-1.537,4.349-1.651c-2.054,1.724-3.199,3.07-3.431,4.047
	c-0.121,0.506,0.055,1.122,0.531,1.847c0.595,0.867,0.912,1.459,0.95,1.772c0.162,0.919-0.146,2.047-0.924,3.389
	c0.811,0.92,1.469,1.439,1.977,1.561c1.044,0.25,1.699-0.167,1.958-1.25c0.027-0.108,0.063-0.462,0.112-1.061
	c0.046-0.6,0.098-0.931,0.151-0.996c0.267-0.471,1.32-0.487,3.162-0.045c1.156,0.277,3.479,1.175,6.973,2.699
	c-0.847,0.026-2.116,0.065-3.809,0.12c-1.549,0.087-2.388,0.402-2.519,0.943c-0.059,0.254-0.074,0.708-0.04,1.364
	c0.034,0.657,0.016,1.133-0.053,1.421c-0.12,0.506-0.558,0.896-1.311,1.175l-2.156,0.859c0.246,0.898,0.42,1.438,0.531,1.616
	c0.259,0.52,0.693,0.854,1.307,1.002c0.434,0.104,0.922-0.181,1.465-0.854c0.542-0.671,1.212-0.912,2.006-0.722
	c0.975,0.232,1.862,1.398,2.658,3.499C53.016,34.068,53.714,35.859,54.667,38.264z M43.392,32.243
	c0.552-2.312,0.183-4.52-1.108-6.623c-1.292-2.104-3.094-3.433-5.404-3.986c-2.348-0.561-4.573-0.206-6.671,1.069
	c-2.098,1.271-3.448,3.078-4.045,5.417c-0.59,2.303-0.21,4.505,1.141,6.603c1.35,2.099,3.18,3.426,5.493,3.978
	c2.455,0.587,4.698,0.275,6.725-0.941C41.548,36.547,42.838,34.706,43.392,32.243z M42.578,32.049
	c-0.527,2.203-1.703,3.851-3.53,4.939c-1.826,1.09-3.843,1.373-6.044,0.846c-2.131-0.51-3.777-1.687-4.94-3.531
	c-1.163-1.844-1.489-3.829-0.979-5.962c0.503-2.095,1.698-3.708,3.592-4.841c1.896-1.129,3.889-1.446,5.984-0.944
	c2.094,0.5,3.727,1.694,4.899,3.578C42.73,28.019,43.071,29.989,42.578,32.049z"/>
</svg>
