<?xml version="1.0" encoding="utf-8"?>
<!-- Generator: Adobe Illustrator 16.0.0, SVG Export Plug-In . SVG Version: 6.00 Build 0)  -->
<!DOCTYPE svg PUBLIC "-//W3C//DTD SVG 1.1//EN" "http://www.w3.org/Graphics/SVG/1.1/DTD/svg11.dtd">
<svg version="1.1" id="Layer_1" xmlns="http://www.w3.org/2000/svg" xmlns:xlink="http://www.w3.org/1999/xlink" x="0px" y="0px"
	 width="100px" height="100px" viewBox="0 0 100 100" enable-background="new 0 0 100 100" xml:space="preserve">
<g>
	<g>
		<path fill="#CDC8C1" d="M100,49.998C100,77.612,77.617,100,50,100C22.387,100,0,77.612,0,49.998C0,22.384,22.387,0,50,0
			C77.617,0,100,22.384,100,49.998z"/>
	</g>
	<g>
		<path fill="#03060D" d="M54.91,65.695c0,3.989,0.654,6.795,1.963,8.414c1.309,1.621,3.521,2.432,6.639,2.432l0.748-0.094V80
			H35.463v-3.553h0.934c3.117,0.063,5.33-0.717,6.639-2.338c1.308-1.619,1.963-4.394,1.963-8.32V53.26L26.674,26.427
			c-0.748-0.997-1.402-1.87-1.964-2.618c-0.561-0.748-1.091-1.339-1.589-1.776c-0.811-0.686-1.668-1.169-2.571-1.45
			c-0.904-0.281-2.073-0.514-3.506-0.701v-3.647h27.955v3.553c-2.805,0.25-4.708,0.64-5.703,1.168
			c-0.998,0.53-1.496,1.512-1.496,2.945c0,0.624,0.124,1.248,0.373,1.87c0.249,0.624,0.592,1.278,1.029,1.963l14.212,20.569
			l10.378-15.24c0.996-1.371,1.713-2.555,2.15-3.553c0.435-0.996,0.716-1.931,0.841-2.804c0-0.125,0-0.249,0-0.374
			c0-0.125,0-0.249,0-0.375c0-1.931-0.53-3.366-1.59-4.3c-1.06-0.936-2.898-1.527-5.516-1.776v-3.647h23.094v3.553
			c-0.748,0.125-1.436,0.296-2.057,0.514c-0.624,0.219-1.217,0.515-1.777,0.889c-0.998,0.561-2.025,1.449-3.085,2.665
			c-1.061,1.215-2.337,2.915-3.833,5.096L54.91,53.26V65.695z"/>
	</g>
</g>
</svg>
