<?xml version="1.0" encoding="utf-8"?>
<!-- Generator: Adobe Illustrator 16.0.0, SVG Export Plug-In . SVG Version: 6.00 Build 0)  -->
<!DOCTYPE svg PUBLIC "-//W3C//DTD SVG 1.1//EN" "http://www.w3.org/Graphics/SVG/1.1/DTD/svg11.dtd">
<svg version="1.1" id="Layer_1" xmlns="http://www.w3.org/2000/svg" xmlns:xlink="http://www.w3.org/1999/xlink" x="0px" y="0px"
	 width="100px" height="100px" viewBox="0 0 100 100" enable-background="new 0 0 100 100" xml:space="preserve">
<g>
	<g>
		<path fill="#CDC8C1" d="M100,49.998C100,77.613,77.616,100,50,100C22.387,100,0,77.613,0,49.998C0,22.385,22.387,0,50,0
			C77.616,0,100,22.385,100,49.998z"/>
	</g>
	<g>
		<path fill="#03060D" d="M74.355,79.999h-53.76v-2.711l42.635-57.22H44.25c-3.118,0.063-5.517,0.391-7.2,0.981
			c-1.683,0.594-3.242,1.73-4.675,3.413c-0.125,0.126-0.233,0.25-0.327,0.374c-0.093,0.126-0.203,0.25-0.327,0.373
			c-0.25,0.375-0.483,0.702-0.702,0.982c-0.219,0.28-0.42,0.577-0.607,0.889c-0.063,0.188-0.156,0.374-0.28,0.561
			c-0.125,0.188-0.25,0.375-0.374,0.562c-0.126,0.374-0.281,0.765-0.467,1.168c-0.188,0.406-0.407,0.889-0.654,1.449l-3.367-0.094
			V16.235h51.048v2.524L33.312,76.166h18.605c2.806,0.063,5.032,0,6.685-0.188c1.65-0.187,3.193-0.591,4.629-1.214
			c0.186-0.063,0.357-0.125,0.514-0.188c0.155-0.063,0.295-0.124,0.42-0.188c0.873-0.436,1.715-0.935,2.525-1.496
			c0.809-0.561,1.619-1.215,2.431-1.963c0.561-0.562,1.122-1.168,1.683-1.823s1.152-1.387,1.777-2.197l2.431-3.46h3.552
			L74.355,79.999z"/>
	</g>
</g>
</svg>
