<?xml version="1.0" encoding="utf-8"?><svg version="1.1" id="Layer_1" xmlns="http://www.w3.org/2000/svg" xmlns:xlink="http://www.w3.org/1999/xlink" x="0px" y="0px"
	 width="75.674px" height="50px"  >
<g>
	<path fill="#808080" d="M51.532,50c-4.57,0-13.464-4.568-13.464-12.942c0-4.236,1.472-6.44,2.101-7.381c0.012-0.019,0.024-0.037,0.036-0.055
		c-0.133-0.613-0.641-1.578-1.01-2.143l-0.322-0.492l2.702-3.839c-0.116-1.743-1.395-3.425-3.737-3.425s-3.62,1.682-3.737,3.425
		l2.702,3.839l-0.321,0.492c-0.369,0.566-0.877,1.531-1.01,2.144c0.012,0.017,0.023,0.035,0.036,0.054
		c0.628,0.94,2.101,3.145,2.101,7.381C37.606,45.432,28.712,50,24.142,50c-2.841,0-5.899-1.613-5.899-5.155
		c0-3.883,4.299-5.178,5.454-5.178c0.098,0,0.185,0.009,0.267,0.026l0.566,1.283c-0.262,0.45-0.977,1.68-1.169,2.31
		c2.558-0.207,5.779-4.72,5.867-6.493c-5.555,2.489-10.572,3.751-14.913,3.751C4.917,40.544,0,35.863,0,31.239
		c0-4.29,4.286-6.854,8.429-6.854h0.078c3.904,0.114,6.359,2.176,7.068,4.169c0.537,1.51,0.141,3.031-1.061,4.069l-1.358-0.303
		c-0.04-0.088-1.045-2.232-3.221-2.232c-0.689,0-1.26,0.146-1.488,0.383C8.38,30.54,8.306,30.65,8.314,30.9
		c0.059,1.748,3.037,2.01,4.807,2.01c4.778,0,9.13-2.36,9.13-4.952c0-2.712-3.39-5.681-6.668-8.553
		c-1.077-0.943-2.191-1.919-3.149-2.863l-0.06-0.06l-0.047-0.069c-0.838-1.228,0.522-2.808,0.963-3.122
		c3.337-2.38,9.188-5.886,14.351-8.979c1.21-0.725,2.374-1.422,3.444-2.068C32.798,1.209,35.577,0,37.767,0l0.07,0.001L37.907,0
		c2.19,0,4.968,1.209,6.683,2.244c1.07,0.646,2.234,1.344,3.444,2.068c5.163,3.093,11.014,6.599,14.351,8.979
		c0.441,0.314,1.802,1.895,0.963,3.122l-0.047,0.069l-0.06,0.06c-0.958,0.944-2.072,1.92-3.149,2.863
		c-3.278,2.872-6.668,5.841-6.668,8.553c0,2.592,4.352,4.952,9.13,4.952c1.77,0,4.748-0.262,4.807-2.01
		c0.008-0.25-0.066-0.36-0.133-0.43c-0.229-0.236-0.799-0.383-1.488-0.383c-2.2,0-3.211,2.21-3.221,2.232l-1.358,0.303
		c-1.202-1.038-1.598-2.56-1.061-4.069c0.709-1.993,3.164-4.055,7.05-4.168l0.096-0.001c4.143,0,8.429,2.564,8.429,6.854
		c0,4.624-4.917,9.305-14.314,9.305c-4.341,0-9.358-1.262-14.913-3.751c0.088,1.773,3.309,6.286,5.867,6.493
		c-0.192-0.63-0.907-1.859-1.169-2.31l0.566-1.283c0.082-0.018,0.169-0.026,0.267-0.026c1.155,0,5.454,1.295,5.454,5.178
		C57.431,48.387,54.373,50,51.532,50z"/>
	<path d="M40.955,27.039c0.393,0.677,0.98,1.837,1.013,2.755l0.009,0.248l-0.124,0.216
		c-0.066,0.114-0.148,0.238-0.244,0.381c-0.587,0.879-1.809,2.709-1.809,6.419c0,4.096,2.435,6.804,4.477,8.354
		c2.584,1.961,5.572,2.854,7.254,2.854c0.427,0,4.166-0.096,4.166-3.422c0-1.514-1.069-2.416-2.066-2.915
		c0.463,0.992,0.627,1.769,0.271,2.388c-0.187,0.323-0.582,0.709-1.409,0.709c-3.794,0-7.782-5.764-7.782-8.307
		c0-1.343,0.794-1.82,1.537-1.82c0.212,0,0.308,0.043,0.838,0.281c5.357,2.409,10.159,3.63,14.272,3.63
		c8.26,0,12.581-3.809,12.581-7.571c0-3.532-3.916-5.121-6.696-5.121h-0.063c-3.033,0.089-4.955,1.626-5.449,3.017
		c-0.163,0.457-0.177,0.895-0.048,1.291c0.741-0.932,2.055-2.071,4.055-2.071c0.845,0,2.006,0.158,2.734,0.911
		c0.427,0.442,0.641,1.028,0.619,1.693c-0.057,1.681-1.237,3.684-6.539,3.684c-5.246,0-10.863-2.686-10.863-6.685
		c0-3.497,3.69-6.73,7.259-9.856c1.045-0.916,2.036-1.783,2.92-2.643c-0.062-0.215-0.343-0.612-0.517-0.774
		c-3.285-2.341-9.088-5.817-14.209-8.886c-1.212-0.726-2.377-1.424-3.449-2.071c-1.227-0.74-3.826-1.994-5.787-1.994l-0.07,0.001
		l-0.07-0.001c-1.961,0-4.56,1.254-5.787,1.994c-1.072,0.647-2.237,1.346-3.449,2.071c-5.121,3.068-10.924,6.545-14.209,8.886
		c-0.174,0.162-0.455,0.56-0.517,0.774c0.884,0.859,1.875,1.727,2.92,2.643c3.569,3.126,7.259,6.359,7.259,9.856
		c0,3.999-5.617,6.685-10.863,6.685c-5.302,0-6.482-2.003-6.539-3.684c-0.022-0.665,0.192-1.251,0.619-1.693
		c0.729-0.753,1.889-0.911,2.734-0.911c2,0,3.314,1.14,4.055,2.071c0.128-0.396,0.115-0.834-0.048-1.291
		c-0.494-1.391-2.417-2.928-5.467-3.017H8.429c-2.78,0-6.696,1.589-6.696,5.121c0,3.763,4.321,7.571,12.581,7.571
		c4.113,0,8.915-1.221,14.272-3.63c0.53-0.238,0.626-0.281,0.838-0.281c0.743,0,1.537,0.478,1.537,1.82
		c0,2.543-3.988,8.307-7.782,8.307c-0.827,0-1.223-0.386-1.409-0.709c-0.356-0.619-0.192-1.396,0.271-2.388
		c-0.997,0.499-2.065,1.401-2.065,2.915c0,3.326,3.739,3.422,4.166,3.422c1.683,0,4.67-0.894,7.254-2.854
		c2.042-1.551,4.477-4.259,4.477-8.354c0-3.71-1.221-5.54-1.809-6.419c-0.096-0.143-0.178-0.267-0.244-0.381l-0.124-0.216
		l0.009-0.248c0.033-0.918,0.621-2.078,1.013-2.755l-2.361-3.354V23.41c0-3.09,2.355-5.42,5.479-5.42s5.479,2.33,5.479,5.42v0.274
		L40.955,27.039z"/>
</g>
</svg>
