<?xml version="1.0" encoding="utf-8"?><svg version="1.1" id="Layer_1" xmlns="http://www.w3.org/2000/svg" xmlns:xlink="http://www.w3.org/1999/xlink" x="0px" y="0px"
	 width="61.891px" height="50px"  >
<g>
	<path d="M26.701,49.645c-6.464-1.183-13.071-4.551-20.134-10.262c-3.813-3.083-5.4-4.98-6.132-7.332
		c-1.444-4.639,0.777-9.323,5.538-11.685c1.297-0.643,1.78-0.751,3.696-0.831c3.144-0.133,5.52,0.626,8.077,2.578l1.069,0.816
		v-2.036v-2.035l-2.178-2.179l-2.18-2.179v-7.25V0h5.963h5.963v1.381v1.381L30.913,2.7l4.529-0.063l0.069-1.318L35.58,0h5.934h5.934
		l0.004,7.172l0.004,7.171l-2.165,2.244l-2.165,2.243v1.963v1.963l0.631-0.417c3.627-2.401,5.253-2.942,8.4-2.794
		c2.021,0.095,2.523,0.206,3.896,0.861c1.951,0.931,4.139,3.041,5.042,4.864c0.481,0.972,0.678,1.764,0.767,3.096
		c0.229,3.418-0.859,5.812-3.99,8.783C47.796,46.713,36.162,51.377,26.701,49.645L26.701,49.645z M33.387,41.424
		c1.376-0.64,2.901-2.289,3.277-3.54c1.222-4.081-1.512-7.843-5.693-7.835c-3.534,0.007-5.962,2.435-5.955,5.956
		c0.003,1.833,0.521,3.063,1.819,4.323C28.552,41.994,31.211,42.438,33.387,41.424z M33.525,21.362
		c1.021-0.395,2.307-1.693,2.868-2.899c1.354-2.906,0.124-6.43-2.786-7.985c-1.304-0.697-3.977-0.692-5.305,0.011
		c-2.208,1.169-3.282,2.931-3.29,5.4c-0.007,2.216,0.771,3.648,2.827,5.21C28.881,21.89,31.809,22.025,33.525,21.362L33.525,21.362z
		"/>
	<linearGradient id="SVGID_2_" gradientUnits="userSpaceOnUse" x1="7.6699" y1="39.2559" x2="50.3282" y2="9.3862">
      <stop  style="stop-color:#8b723c" offset="0" />
      <stop  style="stop-color:#d2bb7b" offset="0.30000299" />
      <stop  style="stop-color:#ebd491" offset="0.5" />
      <stop  style="stop-color:#d2bb7b" offset="0.69999701" />
      <stop  style="stop-color:#8b723c" offset="1" />
	</linearGradient>
	<path fill="url(#SVGID_2_)" d="M30.71,47.789c-0.714,0-1.415-0.035-2.086-0.105c-5.203-0.542-11.073-3.025-16.106-6.813
		c-0.383-0.289-0.708-0.538-0.968-0.74c0.093-0.044,0.191-0.09,0.297-0.138c1.664-0.763,3.257-2.187,3.966-3.542
		c0.421-0.808,0.565-1.562,0.574-2.986c0.008-1.604-0.113-2.146-0.756-3.409c-1.1-2.158-3.289-3.554-5.578-3.554
		c-1.195,0-2.288,0.39-3.162,1.125c-1.477,1.241-2.469,2.738-2.02,4.148c0,0,1.021-0.78,2.162-1.351
		c0.774-0.387,1.55-0.575,2.378-0.575c0.446,0,0.881,0.087,1.292,0.259c1.476,0.616,2.225,1.713,2.225,3.26
		c0,1.138-0.366,1.952-1.186,2.643c-0.689,0.58-1.501,0.875-2.41,0.875c-1.537,0-3.252-0.852-4.828-2.397
		c-1.772-1.738-2.58-4.034-2.217-6.299c0.395-2.459,2.077-4.586,4.616-5.836c1.178-0.58,1.441-0.664,2.876-0.664l0.416,0.003
		c2.293,0.019,3.41,0.354,5.433,1.631c1.403,0.886,3.412,2.992,3.657,3.518c0.502,0.793,1.463,3.975,1.463,3.975
		s0.241-3.648,0.174-8.307l-0.07-4.82l-4.107-4.087V2.057l7.5,0.106l0.137,2.875h13.18l0.137-2.875l7.499-0.106v11.544l-4.106,4.087
		l-0.07,4.837c-0.061,4.158-0.104,8.5-0.104,8.5s1.141-3.271,1.627-4.106c0.563-0.968,3.224-3.372,4.404-4.046
		c1.429-0.813,3.015-1.244,4.583-1.244c2.215,0,4.293,0.848,5.852,2.388c1.492,1.474,2.138,2.945,2.229,5.077
		c0.069,1.609,0.032,1.809-0.55,3.053c-0.751,1.604-2.063,3.001-3.692,3.932c-0.979,0.56-1.903,0.844-2.741,0.844
		c-0.92,0-1.761-0.348-2.502-1.034c-1.549-1.437-1.611-3.326-0.161-4.931c0.67-0.741,1.509-1.134,2.429-1.133
		c1.607,0.001,4.519,2.161,4.519,2.161s0.149-3.061-2.341-4.711c-0.799-0.528-1.618-0.795-2.518-0.795
		c-0.513,0-1.047,0.083-1.635,0.253c-2.85,0.83-4.592,2.942-4.905,5.949c-0.333,3.182,1.279,5.865,4.313,7.18
		c0.207,0.09,0.385,0.177,0.53,0.254c-0.787,0.649-2.47,1.873-4.156,2.939C41.445,46.063,35.8,47.789,30.71,47.789z M30.959,27.972
		c-2.291,0.005-4.35,0.804-5.795,2.249c-1.446,1.446-2.24,3.501-2.234,5.785c0.004,2.452,0.715,4.139,2.453,5.823
		c1.446,1.405,3.46,2.211,5.523,2.211c0,0,0,0,0.001,0c1.149,0,2.298-0.253,3.322-0.73c1.87-0.868,3.89-3.063,4.41-4.789
		c0.792-2.644,0.366-5.339-1.167-7.397c-1.49-2.003-3.859-3.151-6.497-3.151H30.959z M30.975,7.884
		c-1.424,0-2.746,0.269-3.627,0.734c-2.969,1.571-4.417,3.95-4.428,7.273c-0.01,2.96,1.045,4.917,3.761,6.98
		c0.815,0.618,2.37,0.988,4.161,0.988l0,0c1.32,0,2.571-0.203,3.521-0.57c1.426-0.55,3.146-2.276,3.916-3.93
		c1.83-3.931,0.188-8.654-3.738-10.754C33.682,8.147,32.382,7.884,30.975,7.884z"/>
</g>
</svg>
