<?xml version="1.0" encoding="UTF-8" standalone="no"?>
<!-- Generator: Adobe Illustrator 16.0.3, SVG Export Plug-In . SVG Version: 6.00 Build 0)  -->

<svg
   xmlns:dc="http://purl.org/dc/elements/1.1/"
   xmlns:cc="http://creativecommons.org/ns#"
   xmlns:rdf="http://www.w3.org/1999/02/22-rdf-syntax-ns#"
   xmlns:svg="http://www.w3.org/2000/svg"
   xmlns="http://www.w3.org/2000/svg"
   xmlns:sodipodi="http://sodipodi.sourceforge.net/DTD/sodipodi-0.dtd"
   xmlns:inkscape="http://www.inkscape.org/namespaces/inkscape"
   version="1.1"
   id="Layer_1"
   x="0px"
   y="0px"
   width="563.36px"
   height="728.99px"
   viewBox="0 0 563.36 728.99"
   enable-background="new 0 0 563.36 728.99"
   xml:space="preserve"
   inkscape:version="0.91 r13725"
   sodipodi:docname="DOM_R.svg"
   inkscape:export-filename="C:\Users\Brenton\Downloads\Backup\MTG\Pictures\Symbols\Expansion Symbols\B - Expert Level Sets\B26 - Dominaria\DOM_R.png"
   inkscape:export-xdpi="37.0634"
   inkscape:export-ydpi="37.0634"><metadata
     id="metadata69"><rdf:RDF><cc:Work
         rdf:about=""><dc:format>image/svg+xml</dc:format><dc:type
           rdf:resource="http://purl.org/dc/dcmitype/StillImage" /></cc:Work></rdf:RDF></metadata><defs
     id="defs67" /><sodipodi:namedview
     pagecolor="#ffffff"
     bordercolor="#666666"
     borderopacity="1"
     objecttolerance="10"
     gridtolerance="10"
     guidetolerance="10"
     inkscape:pageopacity="0"
     inkscape:pageshadow="2"
     inkscape:window-width="715"
     inkscape:window-height="480"
     id="namedview65"
     showgrid="false"
     inkscape:zoom="0.32373558"
     inkscape:cx="-102.89312"
     inkscape:cy="364.495"
     inkscape:window-x="0"
     inkscape:window-y="0"
     inkscape:window-maximized="0"
     inkscape:current-layer="Layer_1" /><g
     id="g3"><g
       id="g5"><path
         d="M162.899,24.61C200.2,8.96,240.53,0.87,280.931,0c53.92,0.8,107.81,14.86,154.549,41.95    c29.65,17.09,56.36,39.23,78.74,65.11c10.18,11.94,19.78,24.51,27.19,38.38c-9.39,9.93-18.81,19.81-28.2,29.73    c19.67,18.77,34.65,42.06,45.96,66.67c-8.35,5.88-16.739,11.7-25.1,17.57c14.86,20.91,25,45.38,28.399,70.85    c-7.99,4.59-16,9.16-23.96,13.79c8.87,19.76,14.44,40.82,18.62,62.029c2.85,14.891,5.141,29.921,6.23,45.061    c-27.99,13.63-54.351,31.341-75.461,54.38c-22.21,24.091-38.14,54.171-44.359,86.421c-2.109,11.339-3.38,22.949-2.391,34.489    c-16.77,27.17-39.56,50.62-66.34,68.02c-19.41,12.671-40.8,22.291-63.1,28.61c-10.05,2.7-20.279,5.28-30.689,5.931    c-18.381-2.091-36.301-7.351-53.44-14.2c-43.31-17.29-80.931-48.55-105.351-88.341c1.311-17.199-1.619-34.5-6.449-50.97    c-10.01-33.46-30.51-63.31-56.84-86.069C41.229,473.92,21.091,461.44,0,451.109c1.47-18.899,4.5-37.649,8.58-56.149    c3.91-17.42,9-34.63,16.29-50.95c-8-4.57-15.971-9.17-23.95-13.76c3.4-25.46,13.54-49.93,28.39-70.84    c-8.35-5.87-16.739-11.69-25.1-17.56c11.32-24.61,26.29-47.91,45.96-66.68c-9.38-9.93-18.81-19.8-28.19-29.72    c5.49-10.42,12.381-20.02,19.641-29.26C73.5,76.12,115.649,44.33,162.899,24.61z M150.22,76.88    c-30.09,18.01-57,41.82-77.189,70.59c40.84,38.22,73.38,84.92,96.77,135.64c10.37-16.09,23.66-30.37,39.4-41.31    c21.15-14.84,46.8-23.39,72.699-23.26c26.311-0.04,52.331,8.89,73.631,24.22c14.83,10.58,27.45,24.14,37.409,39.37    c23.991-50.29,57.2-96.11,97.431-134.65c-11.91-17.2-26.53-32.41-42.46-45.91c-38.16-32.22-85.71-52.98-135.19-59.5    c-13.89-1.75-27.93-3.07-41.92-1.98C228.46,42.61,186.67,55.13,150.22,76.88z M62.021,219.47c-3.36,4.35-6.621,8.97-8.03,14.36    c24.101,29.83,46.64,60.89,68.36,92.49c-20.42-15.96-40.711-32.08-61.25-47.89c-8.25,8.75-14.101,19.59-17.73,31.02    c26.75,14.81,52.68,31.14,77.42,49.12c21.65,15.89,42.6,33.03,60.439,53.2c-2.709-13.69-6.149-27.229-10.119-40.609    c-18.61-62.061-48.1-121.67-91.19-170.44C73.53,206.55,67.38,212.68,62.021,219.47z M418.04,302.63    c-15.98,34.89-28.28,71.52-35.891,109.149c16.61-18.81,35.971-34.959,56.021-49.95c26.05-19.29,53.49-36.67,81.84-52.37    c-3.62-11.44-9.479-22.25-17.71-31.03c-20.55,15.79-40.85,31.92-61.26,47.9c10.399-15.09,20.98-30.06,31.75-44.89    c11.77-16.24,24.23-31.96,36.641-47.71c-1.65-5.67-5.11-10.55-8.741-15.12c-5.21-6.45-11.109-12.3-17.22-17.89    C456.57,231.06,434.99,265.87,418.04,302.63z M237.87,264.53c-23.75,13.01-41.35,35.55-50.95,60.63    c14.44,40.93,24.16,83.669,27.479,126.99c8.91,11.591,17.15,23.73,24.41,36.44c17.641,30.739,31.521,63.53,42.881,97.07    c5.68-16.94,12.13-33.61,19.279-49.98c12.99-29.37,28.04-58.14,48.061-83.39c1.72-44.11,11.689-87.66,26.65-129.1    c-5.261-12.99-12.57-25.2-21.86-35.71c-14.49-16.51-34.171-28.84-55.9-32.88C277.55,250.65,255.96,254.48,237.87,264.53z     M35.96,431.82c22.5,14.449,43.62,31.17,62.131,50.489c23.049,24.08,42.17,52.48,52.789,84.24    c5.44,16.59,9.04,34.029,8.311,51.561c25.229,33.859,63.91,55.979,104.449,66.119c-0.18-39.369-7.319-78.67-20.899-115.609    c-22.56-61.71-62.3-116.24-110.761-160.221c-22.42-20.279-46.539-38.79-72.569-54.2C47.69,378.68,40.78,405.199,35.96,431.82z     M431.56,408.27C383.61,451.74,344.2,505.52,321.47,566.39c-14.109,37.59-21.53,77.67-21.729,117.82    c14.409-3.45,28.38-8.67,41.67-15.2c24.2-11.95,46.44-28.76,62.5-50.62c0.12-11,0.93-22.199,3.42-33.02    c7-32.521,23.43-62.41,44.49-87.921c21.36-25.89,47.489-47.529,75.63-65.67c-4.9-26.6-11.74-53.109-23.471-77.58    C478,369.57,453.939,388.05,431.56,408.27z"
         id="path7" /></g></g><g
     id="g9"><linearGradient
       id="SVGID_1_"
       gradientUnits="userSpaceOnUse"
       x1="168.4023"
       y1="-48.7622"
       x2="557.597"
       y2="625.3428"><stop
         offset="0.1"
         style="stop-color:#8F743F"
         id="stop12" /><stop
         offset="0.5"
         style="stop-color:#EBD491"
         id="stop14" /><stop
         offset="0.9"
         style="stop-color:#8F743F"
         id="stop16" /></linearGradient><path
       fill="url(#SVGID_1_)"
       d="M169.8,283.11c10.37-16.09,23.66-30.37,39.4-41.31c21.15-14.84,46.8-23.39,72.699-23.26   c26.311-0.04,52.331,8.89,73.631,24.22c14.83,10.58,27.45,24.14,37.409,39.37c23.991-50.29,57.2-96.11,97.431-134.65   c-11.91-17.2-26.53-32.41-42.46-45.91c-38.16-32.22-85.71-52.98-135.19-59.5c-13.89-1.75-27.93-3.07-41.92-1.98   c-42.34,2.52-84.13,15.04-120.58,36.79c-30.09,18.01-57,41.82-77.189,70.59C113.87,185.69,146.41,232.39,169.8,283.11z"
       id="path18" /><linearGradient
       id="SVGID_2_"
       gradientUnits="userSpaceOnUse"
       x1="-40.5498"
       y1="70.3921"
       x2="346.0899"
       y2="740.0718"><stop
         offset="0.1"
         style="stop-color:#8F743F"
         id="stop21" /><stop
         offset="0.5"
         style="stop-color:#EBD491"
         id="stop23" /><stop
         offset="0.9"
         style="stop-color:#8F743F"
         id="stop25" /></linearGradient><path
       fill="url(#SVGID_2_)"
       d="M43.37,309.45c26.75,14.81,52.68,31.14,77.42,49.12c21.65,15.89,42.6,33.03,60.439,53.2   c-2.709-13.69-6.149-27.229-10.119-40.609c-18.61-62.061-48.1-121.67-91.19-170.44c-6.39,5.83-12.54,11.96-17.899,18.75   c-3.36,4.35-6.621,8.97-8.03,14.36c24.101,29.83,46.64,60.89,68.36,92.49c-20.42-15.96-40.711-32.08-61.25-47.89   C52.851,287.18,47,298.02,43.37,309.45z"
       id="path27" /><linearGradient
       id="SVGID_3_"
       gradientUnits="userSpaceOnUse"
       x1="222.127"
       y1="-65.499"
       x2="600.4916"
       y2="589.8479"><stop
         offset="0.1"
         style="stop-color:#8F743F"
         id="stop30" /><stop
         offset="0.5"
         style="stop-color:#EBD491"
         id="stop32" /><stop
         offset="0.9"
         style="stop-color:#8F743F"
         id="stop34" /></linearGradient><path
       fill="url(#SVGID_3_)"
       d="M483.47,200.72c-26.899,30.34-48.479,65.15-65.43,101.91c-15.98,34.89-28.28,71.52-35.891,109.149   c16.61-18.81,35.971-34.959,56.021-49.95c26.05-19.29,53.49-36.67,81.84-52.37c-3.62-11.44-9.479-22.25-17.71-31.03   c-20.55,15.79-40.85,31.92-61.26,47.9c10.399-15.09,20.98-30.06,31.75-44.89c11.77-16.24,24.23-31.96,36.641-47.71   c-1.65-5.67-5.11-10.55-8.741-15.12C495.479,212.16,489.58,206.31,483.47,200.72z"
       id="path36" /><linearGradient
       id="SVGID_4_"
       gradientUnits="userSpaceOnUse"
       x1="72.3184"
       y1="9.1143"
       x2="456.9672"
       y2="675.3456"><stop
         offset="0.1"
         style="stop-color:#8F743F"
         id="stop39" /><stop
         offset="0.5"
         style="stop-color:#EBD491"
         id="stop41" /><stop
         offset="0.9"
         style="stop-color:#8F743F"
         id="stop43" /></linearGradient><path
       fill="url(#SVGID_4_)"
       d="M349.03,452.29c1.72-44.11,11.689-87.66,26.65-129.1c-5.261-12.99-12.57-25.2-21.86-35.71   c-14.49-16.51-34.171-28.84-55.9-32.88c-20.37-3.95-41.96-0.12-60.05,9.93c-23.75,13.01-41.35,35.55-50.95,60.63   c14.44,40.93,24.16,83.669,27.479,126.99c8.91,11.591,17.15,23.73,24.41,36.44c17.641,30.739,31.521,63.53,42.881,97.07   c5.68-16.94,12.13-33.61,19.279-49.98C313.96,506.31,329.01,477.54,349.03,452.29z"
       id="path45" /><linearGradient
       id="SVGID_5_"
       gradientUnits="userSpaceOnUse"
       x1="-90.3398"
       y1="97.0093"
       x2="296.9499"
       y2="767.8149"><stop
         offset="0.1"
         style="stop-color:#8F743F"
         id="stop48" /><stop
         offset="0.5"
         style="stop-color:#EBD491"
         id="stop50" /><stop
         offset="0.9"
         style="stop-color:#8F743F"
         id="stop52" /></linearGradient><path
       fill="url(#SVGID_5_)"
       d="M131.979,408.399c-22.42-20.279-46.539-38.79-72.569-54.2c-11.72,24.48-18.63,51-23.45,77.621   c22.5,14.449,43.62,31.17,62.131,50.489c23.049,24.08,42.17,52.48,52.789,84.24c5.44,16.59,9.04,34.029,8.311,51.561   c25.229,33.859,63.91,55.979,104.449,66.119c-0.18-39.369-7.319-78.67-20.899-115.609   C220.181,506.91,180.44,452.38,131.979,408.399z"
       id="path54" /><linearGradient
       id="SVGID_6_"
       gradientUnits="userSpaceOnUse"
       x1="105.0225"
       y1="5.0674"
       x2="483.2064"
       y2="660.1012"><stop
         offset="0.1"
         style="stop-color:#8F743F"
         id="stop57" /><stop
         offset="0.5"
         style="stop-color:#EBD491"
         id="stop59" /><stop
         offset="0.9"
         style="stop-color:#8F743F"
         id="stop61" /></linearGradient><path
       fill="url(#SVGID_6_)"
       d="M503.979,354.2c-25.979,15.371-50.04,33.85-72.42,54.07C383.61,451.74,344.2,505.52,321.47,566.39   c-14.109,37.59-21.53,77.67-21.729,117.82c14.409-3.45,28.38-8.67,41.67-15.2c24.2-11.95,46.44-28.76,62.5-50.62   c0.12-11,0.93-22.199,3.42-33.02c7-32.521,23.43-62.41,44.49-87.921c21.36-25.89,47.489-47.529,75.63-65.67   C522.55,405.18,515.71,378.67,503.979,354.2z"
       id="path63" /></g></svg>