<?xml version="1.0" encoding="UTF-8" standalone="no"?>
<svg
	xmlns="http://www.w3.org/2000/svg" xmlns:xlink="http://www.w3.org/1999/xlink" version="1.1"
	width="600" height="451.93484">
	<style>g { display: none; }g.default { display: inline; }g.def { display: inline; }g:target { display: inline; }</style>
	<linearGradient id="uncommon_grad" xlink:href="#grad">
		<stop style="stop-color:#536e78" offset="0" />
		<stop style="stop-color:#99aebc" offset="0.30000299" />
		<stop style="stop-color:#d9eaf3" offset="0.5" />
		<stop style="stop-color:#99aebc" offset="0.69999701" />
		<stop style="stop-color:#536e78" offset="1" />
	</linearGradient>
	<linearGradient id="rare_grad" xlink:href="#grad">
		<stop style="stop-color:#8b723c" offset="0" />
		<stop style="stop-color:#d2bb7b" offset="0.30000299" />
		<stop style="stop-color:#ebd491" offset="0.5" />
		<stop style="stop-color:#d2bb7b" offset="0.69999701" />
		<stop style="stop-color:#8b723c" offset="1" />
	</linearGradient>
	<linearGradient id="mythic_grad" xlink:href="#grad">
		<stop style="stop-color:#bf331c" offset="0" />
		<stop style="stop-color:#d3641c" offset="0.30000299" />
		<stop style="stop-color:#f6b91d" offset="0.5" />
		<stop style="stop-color:#d3641c" offset="0.69999701" />
		<stop style="stop-color:#bf331c" offset="1" />
	</linearGradient>
	<linearGradient id="time_grad" xlink:href="#grad">
		<stop style="stop-color:#612c75" offset="0" />
		<stop style="stop-color:#7b5190" offset="0.30000299" />
		<stop style="stop-color:#bf99c3" offset="0.5" />
		<stop style="stop-color:#7b5190" offset="0.69999701" />
		<stop style="stop-color:#612c75" offset="1" />
	</linearGradient>
	<linearGradient id="grad"
		x1="0" y1="0" x2="1" y2="0" 
		gradientUnits="userSpaceOnUse"
		gradientTransform="matrix(536.81606,0,0,536.81606,31.585522,225.97063)"/>
	<path id="path1d" d="m 599.9548,451.93484 -31.55635,0 -172.029,0 -19.51229,0 0,-19.50099 c 0,-5.87515 0,-9.76179 -3.61547,-18.09999 -3.93184,-9.12908 -12.75587,-24.14462 -73.26994,-101.64014 -60.45759,77.49552 -69.32681,92.51106 -73.21345,101.64014 -3.61548,8.3382 -3.61548,12.22484 -3.61548,18.09999 l 0,19.50099 -19.51228,0 -172.07419,0 -31.55635,0 14.12296,-28.24592 c 9.75049,-19.50099 31.24,-23.25205 45.45335,-25.6812 3.00536,-0.53148 5.95424,-1.06205 8.60935,-1.72865 7.6377,-1.88683 38.39187,-40.47077 138.35986,-170.31165 C 106.62272,96.12654 75.86856,57.5539 68.14047,55.65577 65.49665,54.95527 62.53648,54.46944 59.48592,53.93842 45.31776,51.46408 23.87345,47.71302 14.12296,28.24592 L 0,0 l 31.55635,0 172.07419,0 19.51229,0 0,19.51228 c 0,5.86386 0,9.7505 3.61547,18.0887 3.88664,9.14038 12.75587,24.14462 73.21345,101.64014 60.51408,-77.49552 69.3833,-92.49976 73.26994,-101.64014 3.61547,-8.3382 3.61547,-12.22484 3.61547,-18.0887 l 0,-19.51228 19.51229,0 172.029,0 31.60154,0 -14.16815,28.24592 c -9.7505,19.4671 -31.16091,23.21816 -45.31777,25.6925 -3.05056,0.53148 -6.01073,1.01685 -8.65455,1.71735 -7.77328,1.89813 -38.52745,40.47077 -138.40505,170.31165 99.9228,129.84088 130.67696,168.42482 138.40505,170.31165 2.59862,0.66705 5.5588,1.19762 8.56416,1.72865 14.16816,2.42915 35.65766,6.18021 45.45335,25.6812 l 14.07777,28.24592 z"/>
	<path id="path2d" d="m 396.32417,19.512335 c 0,6.880708 0,13.772714 -5.16336,25.771584 v 0 C 385.99746,57.327983 375.71594,74.5467 299.97166,170.88791 v 0 C 224.28387,74.5467 213.95716,57.327983 208.7938,45.283919 v 0 c -5.16335,-11.99887 -5.16335,-18.890876 -5.16335,-25.771584 v 0 H 31.601452 c 6.880708,13.772714 27.488937,13.772714 41.306845,17.207419 v 0 c 13.72752,3.446003 20.608228,10.326711 158.267583,189.247716 v 0 C 93.516525,404.88847 86.635817,411.78048 72.908297,415.21518 v 0 c -13.817908,3.44601 -34.426137,3.44601 -41.306845,17.21872 v 0 H 203.63045 c 0,-6.89201 0,-13.77271 5.16335,-25.81678 v 0 c 5.16336,-12.05536 15.49007,-29.21759 91.17786,-125.61529 v 0 c 75.74428,96.3977 86.0258,113.55993 91.18915,125.61529 v 0 c 5.16336,12.04407 5.16336,18.92477 5.16336,25.81678 v 0 h 172.07419 c -6.88071,-13.77271 -27.53413,-13.77271 -41.30685,-17.21872 v 0 C 513.3188,411.78048 506.43809,404.88847 368.82393,225.96747 v 0 C 506.43809,47.046465 513.3188,40.165757 527.09151,36.719754 v 0 c 13.77272,-3.434705 34.42614,-3.434705 41.30685,-17.207419 v 0 z" />
	<g id="C" class="default">
		<use xlink:href="#path1d" style="fill:#ffffff"/>
		<use xlink:href="#path2d" /></g>
	<g id="80">
		<use xlink:href="#path1d" style="fill:#808080"/>
		<use xlink:href="#path2d" /></g>
	<g id="U">
		<use xlink:href="#path1d" />
		<use xlink:href="#path2d" style="fill:url(#uncommon_grad)"/></g>
	<g id="R">
		<use xlink:href="#path1d" />
		<use xlink:href="#path2d" style="fill:url(#rare_grad)"/></g>
	<g id="M">
		<use xlink:href="#path1d" />
		<use xlink:href="#path2d" style="fill:url(#mythic_grad)"/></g>
	<g id="T">
		<use xlink:href="#path1d" style="fill:#ffffff"/>
		<use xlink:href="#path2d" style="fill:url(#time_grad)"/></g>
</svg>
