<?xml version="1.0" encoding="UTF-8" standalone="no"?>
<svg
	xmlns="http://www.w3.org/2000/svg" xmlns:xlink="http://www.w3.org/1999/xlink" version="1.1"
	width="600" height="510.31689">
	<style>g { display: none; }g.default { display: inline; }g.def { display: inline; }g:target { display: inline; }</style>
	<radialGradient id="uncommon_grad" xlink:href="#grad">
		<stop style="stop-color:#d9eaf3" offset="0" />
		<stop style="stop-color:#99aebc" offset="0.69101" />
		<stop style="stop-color:#536e78" offset="1" />
	</radialGradient>
	<radialGradient id="rare_grad" xlink:href="#grad">
		<stop style="stop-color:#ebd491" offset="0" />
		<stop style="stop-color:#d2bb7b" offset="0.69101" />
		<stop style="stop-color:#8b723c" offset="1" />
	</radialGradient>
	<radialGradient id="mythic_grad" xlink:href="#grad">
		<stop style="stop-color:#f6b91d" offset="0" />
		<stop style="stop-color:#d3641c" offset="0.69101" />
		<stop style="stop-color:#bf331c" offset="1" />
	</radialGradient>
	<radialGradient id="time_grad" xlink:href="#grad">
		<stop style="stop-color:#bf99c3" offset="0" />
		<stop style="stop-color:#7b5190" offset="0.69101" />
		<stop style="stop-color:#612c75" offset="1" />
	</radialGradient>
	<radialGradient id="grad"
		cx="0" cy="0" r="1" fx="0" fy="0"
		gradientUnits="userSpaceOnUse"
		gradientTransform="matrix(224.16862,0,0,224.16843,300.0699,255.74044)"/>
	<path id="path1d" d="M 419.35319,0 179.60068,0 178.4525,0.15309 C 162.25043,1.90087 139.82267,13.56126 132.34675,38.08126 112.02398,43.70734 35.42769,65.08898 35.42769,65.08898 L 34.4326,65.43292 C 21.26682,70.52318 0,87.56726 0,118.75945 c 0,5.57505 0.6889,11.60937 2.23257,18.14123 l 91.44606,341.41736 2.53875,3.38075 c 10.32086,13.80366 35.49149,34.93015 64.29802,26.76533 0,0 128.91497,-35.47873 139.52925,-38.42572 10.6653,2.94699 139.78439,38.47675 139.78439,38.47675 28.55138,8.11379 53.72202,-13.0127 64.0939,-26.81636 l 2.48772,-3.34248 91.29298,-340.805 C 599.29833,130.81533 600,124.64068 600,118.96357 600,87.51623 578.82247,70.52318 565.65669,65.43292 l -0.94406,-0.34394 c 0,0 -76.64732,-21.38164 -96.97008,-27.00772 -7.47592,-24.52 -29.90368,-36.18039 -46.05473,-37.92817 L 420.53964,0 419.35319,0 z"/>
	<path id="path2d" d="m 180.7361,21.72609 c 0,0 -29.39337,3.18939 -29.39337,33.59061 L 42.25298,85.71793 c 0,0 -27.26287,10.51221 -18.88117,46.19506 l 90.24686,336.73534 c 0,0 18.88117,25.20891 40.91344,18.88117 l 145.56357,-40.02041 145.51253,40.02041 c 21.98125,6.32774 40.91344,-18.88117 40.91344,-18.88117 L 576.73024,131.91299 C 585.09918,96.23014 557.83632,85.71793 557.83632,85.71793 L 448.74657,55.3167 c 0,-30.40122 -29.39338,-33.59061 -29.39338,-33.59061 l -238.61709,0 z"/>
	<path id="path3d" d="m 181.69292,34.3433 c -1.3523,0.24291 -5.5878,1.18645 -9.51713,3.84002 -5.63883,3.7252 -8.22861,9.15992 -8.22861,17.13338 l 0,9.56816 c 0,0 -115.81298,32.3021 -117.4587,32.74861 -3.03629,1.39057 -12.10691,6.87632 -12.10691,21.36889 0,2.94699 0.34395,6.23844 1.23748,9.9764 0.1531,0.54806 87.96326,328.45569 89.40487,333.73732 3.89105,4.38859 15.30905,15.79384 26.01263,12.75754 l 149.0081,-41.0155 149.0081,41.0155 c 10.75461,3.0363 22.12158,-8.36895 26.01263,-12.75754 1.39057,-5.28163 89.25177,-333.18875 89.45589,-333.73732 0.842,-3.73796 1.23748,-7.02941 1.23748,-9.9764 0,-14.49257 -9.12164,-19.97832 -12.15794,-21.36889 -1.64572,-0.446 -117.4587,-32.74861 -117.4587,-32.74861 l 0,-9.56816 c 0,-7.97346 -2.58978,-13.40818 -8.17758,-17.13338 -3.98035,-2.65357 -8.16483,-3.59762 -9.56816,-3.84002 l -236.70345,0 z"/>
	<path id="path4d" d="m 438.68087,81.53345 0,323.82471 c 0,0 -2.79391,20.97341 -19.58283,20.97341 l -90.8975,0 121.69421,33.59061 c 0,0 6.97837,3.49556 10.46118,-4.18448 l 89.55795,-332.24469 c 0,0 3.48281,-10.46118 -4.93717,-13.25509 L 438.68087,81.53345 z M 55.11258,110.93959 c -8.41998,2.78114 -4.88614,13.25509 -4.88614,13.25509 l 89.50692,332.24469 c 3.48281,7.66728 10.51222,4.18447 10.51222,4.18447 l 121.6942,-33.53958 -90.94852,0 c -16.78893,0 -19.58283,-21.03719 -19.58283,-21.03719 l 0,-323.81195 -106.29585,28.70447 z m 127.97091,-60.85348 234.31779,0 c 4.88614,0 5.58781,6.27671 5.58781,6.27671 l 0,348.29368 c 0,5.5878 -5.58781,6.97838 -5.58781,6.97838 l -234.31779,0 c -4.88614,0 -4.88614,-6.97838 -4.88614,-6.97838 l 0,-348.29368 c 0,-4.18447 4.88614,-6.27671 4.88614,-6.27671"/>
	<path id="path5d" d="m 184.43579,55.176041 c -0.65063,0.446514 -1.14818,0.944058 -1.14818,1.186451 v 0 348.242648 c 0,0.80373 0.29342,1.95191 -0.15309,1.95191 v 0 h 233.37373 c 0.65064,-0.30618 1.39058,-0.80373 1.39058,-1.90088 v 0 -347.694073 c -0.0893,-0.688907 -0.44652,-1.645723 -0.49755,-1.786056 v 0 z M 443.77112,406.04675 c -1.1992,8.77719 -7.88416,25.42578 -24.67308,25.42578 v 0 h -53.32653 l 86.31753,23.86936 c 0.20412,0.051 0.80373,0.2424 1.4416,0.2424 v 0 c 0.44652,0 1.30127,0 1.90088,-1.18646 v 0 l 89.59622,-332.49984 c 0.20412,-0.54857 1.74779,-5.72814 -1.33954,-6.72322 v 0 L 443.82215,88.20532 Z M 56.70727,115.77437 c -3.393507,1.13542 -1.849844,6.27671 -1.543663,7.11871 v 0 l 89.200743,331.40269 c 0.89303,1.99018 1.79881,1.99018 2.24533,1.99018 v 0 c 0.5996,0 1.23748,-0.20412 2.23257,-0.5996 v 0 l 85.4245,-23.52491 h -53.2755 c -16.78892,0 -23.47388,-16.63584 -24.67308,-26.11469 v 0 -317.139765 z"/>
	<path id="path6d" d="m 314.40555,137.50367 c 16.37268,1.9e-4 30.04686,4.85794 41.02258,14.57327 10.97544,9.71567 16.46323,22.30959 16.46338,37.78178 -1.5e-4,14.03394 -2.2499,23.38981 -6.74925,28.06764 -4.49963,4.67804 -14.84517,12.5048 -31.03665,23.48029 5.39708,9.71834 12.09965,20.19977 20.10773,31.44433 8.00781,11.24467 16.32735,22.71439 24.95863,34.40921 3.95851,6.11648 9.13197,9.39845 15.52038,9.84592 6.38806,0.44748 9.58218,1.9313 9.58237,4.45145 -1.9e-4,0.71926 -0.2706,1.48382 -0.81123,2.29367 -0.541,0.80986 -0.902,1.39597 -1.08301,1.75835 h -40.20723 c -1.08177,-0.18119 -3.15171,-1.21615 -6.2098,-3.1049 -3.05836,-1.88874 -9.48915,-10.48006 -19.29238,-25.77397 -9.80347,-15.29386 -19.02345,-28.33799 -27.65997,-39.13245 -8.6367,-10.79433 -20.42213,-16.19152 -35.35633,-16.19161 -1.0762,9e-5 -1.70487,7.69096 -1.886,23.07263 -0.18125,15.38179 -0.27184,25.23318 -0.27179,29.5542 -5e-5,4.49678 -5e-5,7.10479 0,7.82402 -5e-5,0.71929 -5e-5,1.3507 0,1.89424 -5e-5,6.65455 1.43984,10.92619 4.31969,12.81492 2.87972,1.88875 8.0971,2.83312 15.65215,2.83312 h 20.77895 c 2.69576,0 4.04369,1.16949 4.04379,3.50845 -1e-4,3.77749 -1.61706,5.66624 -4.8509,5.66624 h -2.70134 l -23.4803,-2.15778 h -40.47901 l -31.84787,2.97313 c -3.23392,-10e-6 -4.85089,-1.71031 -4.8509,-5.13091 1e-5,-2.70135 4.72187,-4.27576 14.1656,-4.72324 9.44371,-0.44747 15.33506,-1.12144 17.67405,-2.02189 2.33894,-0.90044 3.50843,-12.32624 3.50845,-34.27744 v -70.97622 c -2e-5,-8.6365 -0.76458,-18.17218 -2.29367,-28.60708 -1.52914,-10.43462 -3.19277,-16.59638 -4.9909,-18.48528 -1.79817,-1.88859 -8.63526,-3.3724 -20.51129,-4.45146 -11.87602,-1.07872 -17.81403,-2.96884 -17.81406,-5.67035 3e-5,-3.23376 1.3507,-4.85072 4.05202,-4.85089 5.5784,1.07632 13.22535,2.42424 22.94085,4.04378 9.7155,1.61988 17.99111,2.42973 24.82685,2.42956 h 15.64804 c 5.94071,-5.04014 12.8231,-9.49433 20.64718,-13.3626 7.82394,-3.8679 17.31433,-5.80194 28.47119,-5.80213 z m -43.71568,44.53103 v 21.05073 c -5e-5,9.35599 2.60796,16.77782 7.82402,22.26551 5.21595,5.48789 13.94041,8.23179 26.17341,8.2317 10.07504,9e-5 18.53184,-3.14873 25.37041,-9.44648 6.83835,-6.29754 10.25758,-14.84356 10.2577,-25.63808 -1.2e-4,-12.77085 -3.50857,-23.34013 -10.52536,-31.70787 -7.01702,-8.36741 -17.36118,-12.5512 -31.03253,-12.55137 -8.6367,1.7e-4 -15.47378,2.0248 -20.51129,6.07391 -5.03762,4.04943 -7.55641,11.29008 -7.55636,21.72195 z"/>
	<path id="path7d" d="m 314.40555,137.50367 c 16.37268,1.9e-4 30.04686,4.85794 41.02258,14.57327 10.97544,9.71567 16.46323,22.30959 16.46338,37.78178 -1.5e-4,14.03394 -2.2499,23.38981 -6.74925,28.06764 -4.49963,4.67804 -14.84517,12.5048 -31.03665,23.48029 5.39708,9.71834 12.09965,20.19977 20.10773,31.44433 8.00781,11.24467 16.32735,22.71439 24.95863,34.40921 3.95851,6.11648 9.13197,9.39845 15.52038,9.84592 6.38806,0.44748 9.58218,1.9313 9.58237,4.45145 -1.9e-4,0.71926 -0.2706,1.48382 -0.81123,2.29367 -0.541,0.80986 -0.902,1.39597 -1.08301,1.75835 h -40.20723 c -1.08177,-0.18119 -3.15171,-1.21615 -6.2098,-3.1049 -3.05836,-1.88874 -9.48915,-10.48006 -19.29238,-25.77397 -9.80347,-15.29386 -19.02345,-28.33799 -27.65997,-39.13245 -8.6367,-10.79433 -20.42213,-16.19152 -35.35633,-16.19161 -1.0762,9e-5 -1.70487,7.69096 -1.886,23.07263 -0.18125,15.38179 -0.27184,25.23318 -0.27179,29.5542 -5e-5,4.49678 -5e-5,7.10479 0,7.82402 -5e-5,0.71929 -5e-5,1.3507 0,1.89424 -5e-5,6.65455 1.43984,10.92619 4.31969,12.81492 2.87972,1.88875 8.0971,2.83312 15.65215,2.83312 h 20.77895 c 2.69576,0 4.04369,1.16949 4.04379,3.50845 -1e-4,3.77749 -1.61706,5.66624 -4.8509,5.66624 h -2.70134 l -23.4803,-2.15778 h -40.47901 l -31.84787,2.97313 c -3.23392,-10e-6 -4.85089,-1.71031 -4.8509,-5.13091 1e-5,-2.70135 4.72187,-4.27576 14.1656,-4.72324 9.44371,-0.44747 15.33506,-1.12144 17.67405,-2.02189 2.33894,-0.90044 3.50843,-12.32624 3.50845,-34.27744 v -70.97622 c -2e-5,-8.6365 -0.76458,-18.17218 -2.29367,-28.60708 -1.52914,-10.43462 -3.19277,-16.59638 -4.9909,-18.48528 -1.79817,-1.88859 -8.63526,-3.3724 -20.51129,-4.45146 -11.87602,-1.07872 -17.81403,-2.96884 -17.81406,-5.67035 3e-5,-3.23376 1.3507,-4.85072 4.05202,-4.85089 5.5784,1.07632 13.22535,2.42424 22.94085,4.04378 9.7155,1.61988 17.99111,2.42973 24.82685,2.42956 h 15.64804 c 5.94071,-5.04014 12.8231,-9.49433 20.64718,-13.3626 7.82394,-3.8679 17.31433,-5.80194 28.47119,-5.80213 z m -43.71568,44.53103 v 21.05073 c -5e-5,9.35599 2.60796,16.77782 7.82402,22.26551 5.21595,5.48789 13.94041,8.23179 26.17341,8.2317 10.07504,9e-5 18.53184,-3.14873 25.37041,-9.44648 6.83835,-6.29754 10.25758,-14.84356 10.2577,-25.63808 -1.2e-4,-12.77085 -3.50857,-23.34013 -10.52536,-31.70787 -7.01702,-8.36741 -17.36118,-12.5512 -31.03253,-12.55137 -8.6367,1.7e-4 -15.47378,2.0248 -20.51129,6.07391 -5.03762,4.04943 -7.55641,11.29008 -7.55636,21.72195 z"/>
	<g id="C" class="default">
		<use xlink:href="#path1d" style="fill:#ffffff"/>
		<use xlink:href="#path2d" />
		<use xlink:href="#path3d" style="fill:#ffffff"/>
		<use xlink:href="#path4d" />
		<use xlink:href="#path5d" />
		<use xlink:href="#path6d" style="fill:#ffffff;stroke:#000000"/>
		<use xlink:href="#path7d" style="fill:#ffffff"/></g>
	<g id="80">
		<use xlink:href="#path1d" style="fill:#808080"/>
		<use xlink:href="#path2d" />
		<use xlink:href="#path3d" style="fill:#808080"/>
		<use xlink:href="#path4d" />
		<use xlink:href="#path5d" />
		<use xlink:href="#path6d" style="fill:#808080;stroke:#000000"/>
		<use xlink:href="#path7d" style="fill:#808080"/></g>
	<g id="U">
		<use xlink:href="#path1d" />
		<use xlink:href="#path2d" style="fill:#536e78"/>
		<use xlink:href="#path3d" />
		<use xlink:href="#path4d" style="fill:#536e78"/>
		<use xlink:href="#path5d" style="fill:url(#uncommon_grad)"/>
		<use xlink:href="#path6d" style="fill:#ffffff;stroke:#536e78;stroke-width:12.75862789;stroke-opacity:0.37391304"/>
		<use xlink:href="#path7d" /></g>
	<g id="R">
		<use xlink:href="#path1d" />
		<use xlink:href="#path2d" style="fill:#8b723c"/>
		<use xlink:href="#path3d" />
		<use xlink:href="#path4d" style="fill:#8b723c"/>
		<use xlink:href="#path5d" style="fill:url(#rare_grad)"/>
		<use xlink:href="#path6d" style="fill:#ffffff;stroke:#8b723c;stroke-width:12.75862789;stroke-opacity:0.37391304"/>
		<use xlink:href="#path7d" /></g>
	<g id="M">
		<use xlink:href="#path1d" />
		<use xlink:href="#path2d" style="fill:#bf331c"/>
		<use xlink:href="#path3d" />
		<use xlink:href="#path4d" style="fill:#bf331c"/>
		<use xlink:href="#path5d" style="fill:url(#mythic_grad)"/>
		<use xlink:href="#path6d" style="fill:#ffffff;stroke:#bf331c;stroke-width:12.75862789;stroke-opacity:0.37391304"/>
		<use xlink:href="#path7d" /></g>
	<g id="T">
		<use xlink:href="#path1d" style="fill:#ffffff"/>
		<use xlink:href="#path2d" style="fill:#612c75"/>
		<use xlink:href="#path3d" style="fill:#ffffff"/>
		<use xlink:href="#path4d" style="fill:#612c75"/>
		<use xlink:href="#path5d" style="fill:url(#time_grad)"/>
		<use xlink:href="#path6d" style="fill:#ffffff;stroke:#612c75;stroke-width:12.75862789;stroke-opacity:0.37391304"/>
		<use xlink:href="#path7d" /></g>
</svg>
