<?xml version="1.0" encoding="UTF-8" standalone="no"?>
<svg
	xmlns="http://www.w3.org/2000/svg" xmlns:xlink="http://www.w3.org/1999/xlink" version="1.1"
	width="600" height="503.21094">
	<style>g { display: none; }g.default { display: inline; }g.def { display: inline; }g:target { display: inline; }</style>
	<linearGradient id="uncommon_grad" xlink:href="#grad">
		<stop style="stop-color:#536e78" offset="0" />
		<stop style="stop-color:#99aebc" offset="0.30000299" />
		<stop style="stop-color:#d9eaf3" offset="0.5" />
		<stop style="stop-color:#99aebc" offset="0.69999701" />
		<stop style="stop-color:#536e78" offset="1" />
	</linearGradient>
	<linearGradient id="rare_grad" xlink:href="#grad">
		<stop style="stop-color:#8b723c" offset="0" />
		<stop style="stop-color:#d2bb7b" offset="0.30000299" />
		<stop style="stop-color:#ebd491" offset="0.5" />
		<stop style="stop-color:#d2bb7b" offset="0.69999701" />
		<stop style="stop-color:#8b723c" offset="1" />
	</linearGradient>
	<linearGradient id="mythic_grad" xlink:href="#grad">
		<stop style="stop-color:#bf331c" offset="0" />
		<stop style="stop-color:#d3641c" offset="0.30000299" />
		<stop style="stop-color:#f6b91d" offset="0.5" />
		<stop style="stop-color:#d3641c" offset="0.69999701" />
		<stop style="stop-color:#bf331c" offset="1" />
	</linearGradient>
	<linearGradient id="time_grad" xlink:href="#grad">
		<stop style="stop-color:#612c75" offset="0" />
		<stop style="stop-color:#7b5190" offset="0.30000299" />
		<stop style="stop-color:#bf99c3" offset="0.5" />
		<stop style="stop-color:#7b5190" offset="0.69999701" />
		<stop style="stop-color:#612c75" offset="1" />
	</linearGradient>
	<linearGradient id="grad"
		x1="0" y1="0" x2="1" y2="0"
		gradientUnits="userSpaceOnUse"
		gradientTransform="matrix(405.56102,405.56102,-405.56102,405.56102,97.219477,33.394029)"/>
	<path id="path1d" d="m 171.38394,0 c 0,0 -31.70179,3.3421 -31.70179,36.15792 L 22.089835,68.98749 c 0,0 -29.3911998,11.27786 -20.3689098,49.74636 L 98.971825,481.75714 c 0,0 20.355165,27.17688 44.107445,20.35516 l 156.98229,-43.14469 156.87227,43.14469 c 23.69726,6.82172 44.10743,-20.35516 44.10743,-20.35516 L 598.27842,118.73385 C 607.3007,80.26535 577.92325,68.98749 577.92325,68.98749 L 460.31719,36.15792 C 460.31719,3.3421 428.6154,0 428.6154,0 L 171.38394,0 z"/>
	<path id="path2d" d="m 173.9147,30.518863 c 0,0 -5.26759,2.255571 -5.26759,6.766715 v 0 375.483952 c 0,0 0,7.57817 5.26759,7.57817 v 0 h 252.61029 c 0,0 6.01028,-1.55415 6.01028,-7.57817 v 0 -375.483952 c 0,0 -0.74269,-6.766715 -6.01028,-6.766715 v 0 z M 449.46581,413.52597 c 0,0 -3.01201,22.61073 -21.1116,22.61073 v 0 h -97.9936 l 131.1395,36.21293 c 0,0 7.57817,3.7547 11.33287,-4.51114 v 0 l 96.54948,-358.18206 c 0,0 3.69969,-11.277863 -5.3226,-14.289876 v 0 L 449.46581,64.421208 Z M 35.953469,96.122996 c -9.091055,2.99826 -5.267586,14.289874 -5.267586,14.289874 v 0 l 96.480707,358.12705 c 3.76846,8.32086 11.29162,4.56615 11.29162,4.56615 v 0 l 131.19451,-36.15791 h -97.9936 c -18.11334,0 -21.1116,-22.6795 -21.1116,-22.6795 v 0 -349.09101 z" />
	<path id="path3d" d="m 319.45397,197.05996 c 33.25594,-16.9718 49.91141,-36.3092 49.91141,-57.91593 0,-12.07556 -4.30484,-22.01933 -12.95579,-29.76255 -8.59593,-7.78447 -19.06233,-11.6492 -31.3717,-11.6492 -12.88702,0 -23.58723,4.08479 -32.12814,12.2406 -8.54092,8.16957 -12.79075,17.3569 -12.79075,27.50698 0,7.04178 1.99426,13.8085 6.07904,20.3139 4.02978,6.45038 13.64346,18.00331 28.84107,34.49374 l 4.41486,4.77246 z m -21.27664,29.01986 c -22.34942,9.72371 -39.0599,20.30014 -50.18647,31.64677 -11.16783,11.38789 -16.75175,23.79353 -16.75175,37.23069 0,14.3999 5.58392,26.26916 16.80676,35.77282 11.12657,9.40738 24.60499,14.13858 40.40775,14.13858 15.47267,0 28.30467,-4.67618 38.57853,-14.02855 10.2601,-9.35237 15.41765,-20.41018 15.41765,-33.14591 0,-18.59471 -14.78499,-42.49827 -44.27247,-71.6144 m -12.57069,-13.64346 c -24.4537,-23.97233 -36.63928,-45.51029 -36.63928,-64.58638 0,-17.98956 7.78447,-33.3522 23.4772,-45.9779 15.63771,-12.68072 34.10864,-19.02107 55.38529,-19.02107 20.74026,0 37.65704,5.58391 50.81914,16.65547 13.16208,11.16783 19.7225,25.19639 19.7225,42.27822 0,13.64346 -4.7312,25.56773 -14.17985,35.82783 -9.4624,10.2601 -26.91558,21.22163 -52.38703,32.82957 28.7998,29.28118 43.1997,53.83115 43.1997,73.75995 0,19.66749 -7.83949,37.17568 -23.58723,52.55207 -15.74774,15.30764 -37.2857,22.99583 -64.62764,22.99583 -26.86056,0 -47.76586,-7.20682 -62.75716,-21.60672 -15.03256,-14.3999 -22.5007,-29.81756 -22.5007,-46.25298 0,-16.06407 7.41313,-31.05537 22.2944,-45.01516 14.88127,-13.91853 35.5115,-25.41644 61.78066,-34.43873"/>
	<g id="C" class="default">
		<use xlink:href="#path1d" style="fill:#ffffff"/>
		<use xlink:href="#path2d" />
		<use xlink:href="#path3d" style="fill:#ffffff"/></g>
	<g id="80">
		<use xlink:href="#path1d" style="fill:#808080"/>
		<use xlink:href="#path2d" />
		<use xlink:href="#path3d" style="fill:#808080"/></g>
	<g id="U">
		<use xlink:href="#path1d" />
		<use xlink:href="#path2d" style="fill:url(#uncommon_grad)"/>
		<use xlink:href="#path3d" /></g>
	<g id="R">
		<use xlink:href="#path1d" />
		<use xlink:href="#path2d" style="fill:url(#rare_grad)"/>
		<use xlink:href="#path3d" /></g>
	<g id="M">
		<use xlink:href="#path1d" />
		<use xlink:href="#path2d" style="fill:url(#mythic_grad)"/>
		<use xlink:href="#path3d" /></g>
	<g id="T">
		<use xlink:href="#path1d" style="fill:#ffffff"/>
		<use xlink:href="#path2d" style="fill:url(#time_grad)"/>
		<use xlink:href="#path3d" style="fill:#ffffff"/></g>
</svg>
