<?xml version="1.0" encoding="UTF-8" standalone="no"?>
<svg
	xmlns="http://www.w3.org/2000/svg" xmlns:xlink="http://www.w3.org/1999/xlink" version="1.1"
	width="600" height="655.09332">
	<style>g { display: none; }g.default { display: inline; }g.def { display: inline; }g:target { display: inline; }</style>
	<linearGradient id="uncommon_grad" xlink:href="#grad">
		<stop style="stop-color:#536e78" offset="0" />
		<stop style="stop-color:#99aebc" offset="0.30000299" />
		<stop style="stop-color:#d9eaf3" offset="0.5" />
		<stop style="stop-color:#99aebc" offset="0.69999701" />
		<stop style="stop-color:#536e78" offset="1" />
	</linearGradient>
	<linearGradient id="rare_grad" xlink:href="#grad">
		<stop style="stop-color:#8b723c" offset="0" />
		<stop style="stop-color:#d2bb7b" offset="0.30000299" />
		<stop style="stop-color:#ebd491" offset="0.5" />
		<stop style="stop-color:#d2bb7b" offset="0.69999701" />
		<stop style="stop-color:#8b723c" offset="1" />
	</linearGradient>
	<linearGradient id="mythic_grad" xlink:href="#grad">
		<stop style="stop-color:#bf331c" offset="0" />
		<stop style="stop-color:#d3641c" offset="0.30000299" />
		<stop style="stop-color:#f6b91d" offset="0.5" />
		<stop style="stop-color:#d3641c" offset="0.69999701" />
		<stop style="stop-color:#bf331c" offset="1" />
	</linearGradient>
	<linearGradient id="time_grad" xlink:href="#grad">
		<stop style="stop-color:#612c75" offset="0" />
		<stop style="stop-color:#7b5190" offset="0.30000299" />
		<stop style="stop-color:#bf99c3" offset="0.5" />
		<stop style="stop-color:#7b5190" offset="0.69999701" />
		<stop style="stop-color:#612c75" offset="1" />
	</linearGradient>
	<linearGradient id="grad"
		x1="0" y1="0" x2="1" y2="0"
		gradientUnits="userSpaceOnUse"
		gradientTransform="matrix(425.88739,-298.20962,298.20962,425.88739,87.093351,476.65706)"/>
	<path id="path1d" d="M 558.36008,469.15501 600,316.51885 557.98466,183.43762 300,0 42.015344,183.43762 0,316.51885 41.574623,469.15501 300,652.91909 558.36008,469.15501 z"/>
	<path id="path2d" d="m 243.13075,152.65248 0,347.56516 56.86925,113.7385 56.86925,-113.7385 0,-347.56516 L 300,38.89765 243.13075,152.65248 z m 157.9248,-12.63398 0,372.8168 -37.8693,63.82284 94.82017,-70.71114 0,-359.04021 -94.82017,-70.71113 37.8693,63.82284 z m -259.06197,6.88829 0,359.04021 94.82017,70.71114 -37.93459,-63.82284 0,-372.8168 37.93459,-63.82284 -94.82017,70.71113 z m 360.19914,334.37619 37.9346,-25.31693 37.86931,-139.00648 -37.86931,-120.0555 -37.9346,-25.25164 0,309.63055 z M 59.872681,196.90407 l -37.934599,120.0555 37.934599,139.00648 37.869307,25.31693 0,-309.63055 -37.869307,25.25164 z"/>
	<g id="C" class="default">
		<use xlink:href="#path1d" style="fill:#ffffff"/>
		<use xlink:href="#path2d" /></g>
	<g id="80">
		<use xlink:href="#path1d" style="fill:#808080"/>
		<use xlink:href="#path2d" style="fill:#808080"/></g>
	<g id="U">
		<use xlink:href="#path1d" />
		<use xlink:href="#path2d" style="fill:url(#uncommon_grad)"/></g>
	<g id="R">
		<use xlink:href="#path1d" />
		<use xlink:href="#path2d" style="fill:url(#rare_grad)"/></g>
	<g id="M">
		<use xlink:href="#path1d" />
		<use xlink:href="#path2d" style="fill:url(#mythic_grad)"/></g>
	<g id="T">
		<use xlink:href="#path1d" style="fill:#ffffff"/>
		<use xlink:href="#path2d" style="fill:url(#time_grad)"/></g>
</svg>
