<?xml version="1.0" encoding="UTF-8" standalone="no"?>
<svg
	xmlns="http://www.w3.org/2000/svg" xmlns:xlink="http://www.w3.org/1999/xlink" version="1.1"
	width="600" height="253.0134">
	<style>g { display: none; }g.default { display: inline; }g.def { display: inline; }g:target { display: inline; }</style>
	<radialGradient id="uncommon_grad" xlink:href="#grad">
		<stop style="stop-color:#d9eaf3" offset="0" />
		<stop style="stop-color:#99aebc" offset="0.69101" />
		<stop style="stop-color:#536e78" offset="1" />
	</radialGradient>
	<radialGradient id="rare_grad" xlink:href="#grad">
		<stop style="stop-color:#ebd491" offset="0" />
		<stop style="stop-color:#d2bb7b" offset="0.69101" />
		<stop style="stop-color:#8b723c" offset="1" />
	</radialGradient>
	<radialGradient id="mythic_grad" xlink:href="#grad">
		<stop style="stop-color:#f6b91d" offset="0" />
		<stop style="stop-color:#d3641c" offset="0.69101" />
		<stop style="stop-color:#bf331c" offset="1" />
	</radialGradient>
	<radialGradient id="time_grad" xlink:href="#grad">
		<stop style="stop-color:#bf99c3" offset="0" />
		<stop style="stop-color:#7b5190" offset="0.69101" />
		<stop style="stop-color:#612c75" offset="1" />
	</radialGradient>
	<radialGradient id="grad"
		cx="0" cy="0" r="1" fx="0" fy="0"
		gradientUnits="userSpaceOnUse"
		gradientTransform="matrix(201.4002,0,0,201.4002,324.63244,123.74467)"/>
	<path id="path1d" d="m 139.84023,56.21184 c 0,0 -43.442722,-24.61292 -82.656836,-40.80563 0,0 45.681946,-4.73752 69.175256,-4.73752 12.14915,0 23.60434,0.53667 34.05095,1.5545 35.4574,3.50687 103.73512,15.28591 175.33465,54.7221 1.05484,-8.64228 2.23922,-14.31436 2.27623,-14.42539 l 1.37869,-6.39381 0.93455,-4.45068 4.12683,-1.98014 5.92191,-2.82216 c 18.54296,-8.78107 40.84263,-13.26876 66.32533,-13.26876 50.28067,0 97.55413,17.49738 102.80057,19.44975 l 13.2225,5.12615 4.77454,0.22207 c -2.42428,-4.6635 -3.7197,-9.86367 -3.7197,-15.2489 C 533.7857,14.86028 548.63673,0 566.89285,0 585.17673,0 600,14.86028 600,33.15342 c 0,18.20986 -14.82327,33.10715 -33.10715,33.10715 -0.5463,0 -1.0826,-0.037 -1.62852,-0.037 l 1.80433,7.01375 -110.41577,179.77607 -31.7007,-22.33669 44.06268,-76.11498 -7.08778,-4.6635 c -13.44458,-8.49423 -27.94399,-14.31435 -43.08186,-17.21054 -1.15662,14.10154 -7.55968,31.98754 -26.67633,39.83407 -5.20943,2.16519 -11.4922,3.2848 -18.1821,3.2848 -8.70705,0 -22.15163,-1.84134 -37.18771,-10.73345 C 332.9591,162.79687 240.42934,109.23139 141.21893,109.23139 106.01135,109.23139 0,115.69922 0,115.69922 c 0,0 59.894516,-34.87447 139.84023,-59.48738"/>
	<path id="path2d" d="m 491.74943,135.8337 c 0,0 -3.29406,-10.4096 -10.19678,-25.15885 0,0 19.05188,-20.995 45.58016,-34.76343 L 491.74943,135.8337 z M 566.89285,9.28999 c -13.15773,0 -23.85417,10.66868 -23.85417,23.86343 0,6.56961 2.67411,12.50077 6.97674,16.84042 l -4.70051,7.98531 -14.49941,-0.57368 c -6.75468,-2.60934 -14.6012,-5.68133 -14.6012,-5.68133 -3.94177,-1.51749 -97.48011,-37.07667 -161.85306,-6.46783 l -5.93116,2.82216 -1.36944,6.39381 c -0.14805,0.83276 -2.60009,12.72284 -3.39584,27.6849 C 266.85584,36.47524 191.2035,24.58516 159.50281,21.43915 c -33.96768,-3.35883 -67.768802,-0.074 -67.768802,-0.074 45.219292,21.14305 72.941212,38.52939 72.941212,38.52939 0,0 -41.49035,5.67207 -120.612547,44.49756 l 74.347667,-3.46986 c 110.78588,-9.327 218.56455,53.49145 223.11702,56.16556 18.36716,10.8815 36.68805,11.20536 47.09765,6.86571 25.40867,-10.44661 20.78218,-41.96224 20.78218,-41.96224 16.91444,1.70254 36.9749,7.12479 57.54426,20.17148 l 14.49016,9.42879 -44.23848,76.41107 16.70163,11.7883 103.2262,-168.08032 -1.98939,-7.83727 4.73752,-8.05934 c 2.23922,0.68472 4.55247,1.19363 7.01376,1.19363 13.19474,0 23.85417,-10.70569 23.85417,-23.85417 0,-13.19475 -10.65943,-23.86343 -23.85417,-23.86343"/>
	<path id="path3d" d="m 546.75838,33.116206 c 0,5.385232 2.10042,10.437357 5.89414,14.240331 v 0 l 2.01715,2.017149 -1.48048,2.461291 -4.6635,8.022331 -1.11961,1.878354 -2.2022,-0.06477 -14.52718,-0.582937 -0.61995,-0.03701 -0.57368,-0.212819 -14.6012,-5.681327 C 509.93153,53.278442 464.99908,36.586072 416.7448,36.586072 v 0 c -23.56733,0 -44.02566,4.006539 -60.79205,11.991858 v 0 l -4.26562,2.063413 -0.98082,4.626489 c -0.0278,0.111035 -2.52606,11.890074 -3.32182,27.074209 v 0 l -0.32385,6.143976 -5.2742,-3.146012 C 265.05151,39.695072 188.49238,28.017816 159.14194,25.121634 v 0 c -10.07649,-0.971562 -21.14305,-1.517488 -32.92209,-1.517488 v 0 c -7.62445,0 -14.53642,0.222072 -20.09746,0.508914 v 0 c 37.37277,18.182099 60.25538,32.496453 60.50521,32.635248 v 0 l 8.60527,5.422244 -10.08575,1.415705 c -0.36086,0.02776 -36.07735,5.274197 -102.939359,36.253162 v 0 L 118.08649,97.23008 c 7.55042,-0.610697 15.35994,-0.934551 23.16945,-0.934551 v 0 c 103.30023,0 198.14323,55.258771 202.14977,57.609031 v 0 c 9.72488,5.78311 20.56937,8.96613 30.50707,8.96613 v 0 c 5.06137,0 9.65085,-0.83276 13.30578,-2.35025 v 0 c 22.37369,-9.17895 18.68176,-36.82685 18.54296,-37.98347 v 0 l -0.69397,-4.73752 4.70051,0.50891 c 20.96724,2.12818 40.87965,9.14194 59.2098,20.74517 v 0 l 14.45315,9.42879 2.9702,1.91536 -1.73956,3.04423 -42.54518,73.47789 10.7427,7.58744 100.29301,-163.407566 -1.58226,-6.356795 -0.39787,-1.489729 0.7865,-1.258405 4.70051,-8.059342 1.51749,-2.535316 2.78514,0.86978 c 2.20221,0.68472 4.08982,1.008575 5.93116,1.008575 v 0 c 11.13133,0 20.13448,-9.030905 20.13448,-20.162236 v 0 c 0,-11.103572 -9.00315,-20.134477 -20.13448,-20.134477 v 0 c -11.09432,0 -20.13447,9.030905 -20.13447,20.134477 M 488.24255,136.95311 c -0.037,-0.074 -3.36808,-10.4096 -10.04873,-24.76097 v 0 l -1.01783,-2.20221 1.62853,-1.84134 c 0.79575,-0.86978 19.81062,-21.614951 46.66276,-35.56844 v 0 l 11.42742,-5.921904 -6.54185,11.094318 -35.39264,59.959286 -4.22861,7.16181 z" />
	<path id="path4d" d="M 348.29128,145.66961 C 326.63932,132.90976 222.4323,78.83536 117.29073,87.69046 c 0,0 42.24909,-14.74924 77.64172,-20.63414 0,0 -7.84652,-12.75985 -51.11344,-33.40324 0,0 96.32349,0.98081 196.58874,61.92092 0,0 0,16.69237 5.89414,30.47005 5.89415,13.73141 14.74925,9.78965 14.74925,9.78965 0,0 13.73142,10.84449 25.54747,14.74924 0,0 -16.69237,7.87428 -38.30733,-4.91333"/>
	<path id="path5d" d="m 373.30208,149.27827 c -7.73549,0 -15.545,-2.27623 -23.16945,-6.79168 C 346.07982,140.09932 250.26525,84.18358 144.2539,83.06397 159.14194,78.6503 178.26784,73.59818 195.54315,70.702 l 5.42224,-0.9068 -2.85917,-4.65424 c -0.32348,-0.50929 -6.68064,-10.44661 -36.21615,-26.50053 32.13559,3.43286 102.68954,15.61903 174.87201,59.02474 0.21318,5.09839 1.19363,18.33015 6.14397,29.82234 4.70051,10.94627 11.52921,12.5748 15.17488,12.5748 0.79576,0 1.5545,-0.074 2.17445,-0.17618 2.56308,1.91537 8.13337,5.88489 14.41614,9.35476 -0.43452,0.037 -0.86053,0.037 -1.36944,0.037"/>
	<path id="path6d" d="m 396.07365,138.29499 -14.38837,-7.33761 c 6.8657,-5.89415 14.74924,-4.91333 14.74924,-4.91333 l -0.3605,12.25094 z"/>
	<path id="path7d" d="m 472.08685,99.50651 -11.78829,-1.00857 13.76843,32.45944 C 415.11628,93.58461 359.06175,113.24718 359.06175,113.24718 353.1676,89.64284 360.07032,57.22041 360.07032,57.22041 420.00185,28.73975 511.412,64.12313 511.412,64.12313 481.95053,83.74869 472.08685,99.50651 472.08685,99.50651"/>
	<path id="path8d" d="m 466.30374,122.13929 c -21.72598,-11.64024 -45.80223,-17.74721 -70.19307,-17.74721 -16.09093,0 -28.30486,2.60009 -34.26378,4.1916 -3.50687,-18.86682 0.24946,-42.22133 1.48048,-48.8002 14.67522,-6.60662 32.59824,-9.93769 53.24163,-9.93769 36.46598,0 72.24724,10.52063 86.74665,15.35994 -20.09746,14.27734 -29.74832,25.99161 -33.04238,30.43304 l -9.65085,-0.82352 -6.10697,-0.50928 2.38727,5.63506 9.40102,22.19789 z"/>
	<g id="C" class="default">
		<use xlink:href="#path1d" style="fill:#ffffff"/>
		<use xlink:href="#path2d" />
		<use xlink:href="#path3d" />
		<use xlink:href="#path4d" style="fill:#ffffff"/>
		<use xlink:href="#path5d" style="fill:#ffffff"/>
		<use xlink:href="#path6d" style="fill:#ffffff"/>
		<use xlink:href="#path7d" style="fill:#ffffff"/>
		<use xlink:href="#path8d" style="fill:#ffffff"/></g>
	<g id="80">
		<use xlink:href="#path1d" style="fill:#808080"/>
		<use xlink:href="#path2d" />
		<use xlink:href="#path3d" />
		<use xlink:href="#path4d" style="fill:#808080"/>
		<use xlink:href="#path5d" style="fill:#808080"/>
		<use xlink:href="#path6d" style="fill:#808080"/>
		<use xlink:href="#path7d" style="fill:#808080"/>
		<use xlink:href="#path8d" style="fill:#808080"/></g>
	<g id="U">
		<use xlink:href="#path1d" style="fill:#ffffff"/>
		<use xlink:href="#path2d" style="fill:#536e78"/>
		<use xlink:href="#path3d" style="fill:url(#uncommon_grad)"/>
		<use xlink:href="#path4d" style="fill:#536e78"/>
		<use xlink:href="#path5d" style="fill:#ffffff"/>
		<use xlink:href="#path6d" style="fill:#536e78"/>
		<use xlink:href="#path7d" style="fill:#536e78"/>
		<use xlink:href="#path8d" style="fill:#ffffff"/></g>
	<g id="R">
		<use xlink:href="#path1d" style="fill:#ffffff"/>
		<use xlink:href="#path2d" style="fill:#8b723c"/>
		<use xlink:href="#path3d" style="fill:url(#rare_grad)"/>
		<use xlink:href="#path4d" style="fill:#8b723c"/>
		<use xlink:href="#path5d" style="fill:#ffffff"/>
		<use xlink:href="#path6d" style="fill:#8b723c"/>
		<use xlink:href="#path7d" style="fill:#8b723c"/>
		<use xlink:href="#path8d" style="fill:#ffffff"/></g>
	<g id="M">
		<use xlink:href="#path1d" style="fill:#ffffff"/>
		<use xlink:href="#path2d" style="fill:#bf331c"/>
		<use xlink:href="#path3d" style="fill:url(#mythic_grad)"/>
		<use xlink:href="#path4d" style="fill:#bf331c"/>
		<use xlink:href="#path5d" style="fill:#ffffff"/>
		<use xlink:href="#path6d" style="fill:#bf331c"/>
		<use xlink:href="#path7d" style="fill:#bf331c"/>
		<use xlink:href="#path8d" style="fill:#ffffff"/></g>
	<g id="T">
		<use xlink:href="#path1d" style="fill:#ffffff"/>
		<use xlink:href="#path2d" style="fill:#612c75"/>
		<use xlink:href="#path3d" style="fill:url(#time_grad)"/>
		<use xlink:href="#path4d" style="fill:#612c75"/>
		<use xlink:href="#path5d" style="fill:#ffffff"/>
		<use xlink:href="#path6d" style="fill:#612c75"/>
		<use xlink:href="#path7d" style="fill:#612c75"/>
		<use xlink:href="#path8d" style="fill:#ffffff"/></g>
</svg>
