<?xml version="1.0" encoding="UTF-8" standalone="no"?>
<svg
	xmlns="http://www.w3.org/2000/svg" xmlns:xlink="http://www.w3.org/1999/xlink" version="1.1"
	width="600" height="510.31689">
	<style>g { display: none; }g.default { display: inline; }g.def { display: inline; }g:target { display: inline; }</style>
	<radialGradient id="uncommon_grad" xlink:href="#grad">
		<stop style="stop-color:#d9eaf3" offset="0" />
		<stop style="stop-color:#99aebc" offset="0.69101" />
		<stop style="stop-color:#536e78" offset="1" />
	</radialGradient>
	<radialGradient id="rare_grad" xlink:href="#grad">
		<stop style="stop-color:#ebd491" offset="0" />
		<stop style="stop-color:#d2bb7b" offset="0.69101" />
		<stop style="stop-color:#8b723c" offset="1" />
	</radialGradient>
	<radialGradient id="mythic_grad" xlink:href="#grad">
		<stop style="stop-color:#f6b91d" offset="0" />
		<stop style="stop-color:#d3641c" offset="0.69101" />
		<stop style="stop-color:#bf331c" offset="1" />
	</radialGradient>
	<radialGradient id="time_grad" xlink:href="#grad">
		<stop style="stop-color:#bf99c3" offset="0" />
		<stop style="stop-color:#7b5190" offset="0.69101" />
		<stop style="stop-color:#612c75" offset="1" />
	</radialGradient>
	<radialGradient id="grad"
		cx="0" cy="0" r="1" fx="0" fy="0"
		gradientUnits="userSpaceOnUse"
		gradientTransform="matrix(224.16862,0,0,224.16843,300.0699,255.74044)"/>
	<path id="path1d" d="M 419.35319,0 179.60068,0 178.4525,0.15309 C 162.25043,1.90087 139.82267,13.56126 132.34675,38.08126 112.02398,43.70734 35.42769,65.08898 35.42769,65.08898 L 34.4326,65.43292 C 21.26682,70.52318 0,87.56726 0,118.75945 c 0,5.57505 0.6889,11.60937 2.23257,18.14123 l 91.44606,341.41736 2.53875,3.38075 c 10.32086,13.80366 35.49149,34.93015 64.29802,26.76533 0,0 128.91497,-35.47873 139.52925,-38.42572 10.6653,2.94699 139.78439,38.47675 139.78439,38.47675 28.55138,8.11379 53.72202,-13.0127 64.0939,-26.81636 l 2.48772,-3.34248 91.29298,-340.805 C 599.29833,130.81533 600,124.64068 600,118.96357 600,87.51623 578.82247,70.52318 565.65669,65.43292 l -0.94406,-0.34394 c 0,0 -76.64732,-21.38164 -96.97008,-27.00772 -7.47592,-24.52 -29.90368,-36.18039 -46.05473,-37.92817 L 420.53964,0 419.35319,0 z"/>
	<path id="path2d" d="m 180.7361,21.72609 c 0,0 -29.39337,3.18939 -29.39337,33.59061 L 42.25298,85.71793 c 0,0 -27.26287,10.51221 -18.88117,46.19506 l 90.24686,336.73534 c 0,0 18.88117,25.20891 40.91344,18.88117 l 145.56357,-40.02041 145.51253,40.02041 c 21.98125,6.32774 40.91344,-18.88117 40.91344,-18.88117 L 576.73024,131.91299 C 585.09918,96.23014 557.83632,85.71793 557.83632,85.71793 L 448.74657,55.3167 c 0,-30.40122 -29.39338,-33.59061 -29.39338,-33.59061 l -238.61709,0 z"/>
	<path id="path3d" d="m 181.69292,34.3433 c -1.3523,0.24291 -5.5878,1.18645 -9.51713,3.84002 -5.63883,3.7252 -8.22861,9.15992 -8.22861,17.13338 l 0,9.56816 c 0,0 -115.81298,32.3021 -117.4587,32.74861 -3.03629,1.39057 -12.10691,6.87632 -12.10691,21.36889 0,2.94699 0.34395,6.23844 1.23748,9.9764 0.1531,0.54806 87.96326,328.45569 89.40487,333.73732 3.89105,4.38859 15.30905,15.79384 26.01263,12.75754 l 149.0081,-41.0155 149.0081,41.0155 c 10.75461,3.0363 22.12158,-8.36895 26.01263,-12.75754 1.39057,-5.28163 89.25177,-333.18875 89.45589,-333.73732 0.842,-3.73796 1.23748,-7.02941 1.23748,-9.9764 0,-14.49257 -9.12164,-19.97832 -12.15794,-21.36889 -1.64572,-0.446 -117.4587,-32.74861 -117.4587,-32.74861 l 0,-9.56816 c 0,-7.97346 -2.58978,-13.40818 -8.17758,-17.13338 -3.98035,-2.65357 -8.16483,-3.59762 -9.56816,-3.84002 l -236.70345,0 z"/>
	<path id="path4d" d="m 438.68087,81.53345 0,323.82471 c 0,0 -2.79391,20.97341 -19.58283,20.97341 l -90.8975,0 121.69421,33.59061 c 0,0 6.97837,3.49556 10.46118,-4.18448 l 89.55795,-332.24469 c 0,0 3.48281,-10.46118 -4.93717,-13.25509 L 438.68087,81.53345 z M 55.11258,110.93959 c -8.41998,2.78114 -4.88614,13.25509 -4.88614,13.25509 l 89.50692,332.24469 c 3.48281,7.66728 10.51222,4.18447 10.51222,4.18447 l 121.6942,-33.53958 -90.94852,0 c -16.78893,0 -19.58283,-21.03719 -19.58283,-21.03719 l 0,-323.81195 -106.29585,28.70447 z m 127.97091,-60.85348 234.31779,0 c 4.88614,0 5.58781,6.27671 5.58781,6.27671 l 0,348.29368 c 0,5.5878 -5.58781,6.97838 -5.58781,6.97838 l -234.31779,0 c -4.88614,0 -4.88614,-6.97838 -4.88614,-6.97838 l 0,-348.29368 c 0,-4.18447 4.88614,-6.27671 4.88614,-6.27671"/>
	<path id="path5d" d="m 184.43579,55.176041 c -0.65063,0.446514 -1.14818,0.944058 -1.14818,1.186451 v 0 348.242648 c 0,0.80373 0.29342,1.95191 -0.15309,1.95191 v 0 h 233.37373 c 0.65064,-0.30618 1.39058,-0.80373 1.39058,-1.90088 v 0 -347.694073 c -0.0893,-0.688907 -0.44652,-1.645723 -0.49755,-1.786056 v 0 z M 443.77112,406.04675 c -1.1992,8.77719 -7.88416,25.42578 -24.67308,25.42578 v 0 h -53.32653 l 86.31753,23.86936 c 0.20412,0.051 0.80373,0.2424 1.4416,0.2424 v 0 c 0.44652,0 1.30127,0 1.90088,-1.18646 v 0 l 89.59622,-332.49984 c 0.20412,-0.54857 1.74779,-5.72814 -1.33954,-6.72322 v 0 L 443.82215,88.20532 Z M 56.70727,115.77437 c -3.393507,1.13542 -1.849844,6.27671 -1.543663,7.11871 v 0 l 89.200743,331.40269 c 0.89303,1.99018 1.79881,1.99018 2.24533,1.99018 v 0 c 0.5996,0 1.23748,-0.20412 2.23257,-0.5996 v 0 l 85.4245,-23.52491 h -53.2755 c -16.78892,0 -23.47388,-16.63584 -24.67308,-26.11469 v 0 -317.139765 z" />
	<path id="path6d" d="m 369.73804,130.61255 c -2.84731,2.03476 -7.52276,3.50951 -14.02637,4.42423 -6.50392,0.91514 -9.90777,2.03322 -10.21157,3.35424 -0.30409,1.32142 -0.45606,3.4056 -0.45592,6.25255 -1.4e-4,9.1433 2.33681,26.06332 7.01086,50.76012 4.67375,24.69708 7.72404,38.67071 9.15087,41.92094 1.8297,13.41702 4.77609,30.49057 8.83917,51.22068 4.06275,20.73022 7.66975,32.16376 10.82101,34.30065 3.15091,2.13692 8.08068,3.20537 14.78934,3.20536 6.70826,1e-5 9.6562,3.55429 8.84382,10.66284 -4.06932,0.81878 -7.2204,1.22818 -9.45326,1.22818 -2.03475,0 -6.10077,-0.45747 -12.19806,-1.3724 -6.09765,-0.91493 -15.7525,-1.3724 -28.96458,-1.3724 -12.19509,0 -20.17205,0.50709 -23.93089,1.52127 -3.7591,1.01418 -5.84329,1.31967 -6.25256,0.91648 -2.02847,-2.03456 -3.04265,-3.76207 -3.04253,-5.18254 -1.2e-4,-2.03456 3.91237,-3.91559 11.73749,-5.64312 7.82485,-1.7275 12.54993,-4.01483 14.17524,-6.86199 -2.64259,-18.0877 -5.33621,-36.32895 -8.08086,-54.72379 -2.74493,-18.39469 -5.03226,-27.99837 -6.86199,-28.81105 -1.83,-0.81248 -16.66739,0.76306 -44.51222,4.72663 -27.84501,3.96377 -42.88709,7.36607 -45.12631,10.20692 -2.84098,9.96198 -5.68502,20.83725 -8.53213,32.62585 -2.84717,11.78871 -4.27074,22.56164 -4.27071,32.31881 -3e-5,2.84717 0.20312,5.84628 0.60944,8.99735 0.40626,3.1511 2.64396,4.72664 6.71312,4.72663 4.67076,-0.40938 9.34466,-0.81877 14.02172,-1.22818 2.03451,0.6141 3.05178,1.93688 3.05184,3.96833 -6e-5,2.03146 -6e-5,3.65818 0,4.88015 l -58.2362,3.96367 c -0.60788,-4.677 -0.91182,-7.62649 -0.91183,-8.84847 1e-5,-1.01108 0.55827,-1.41582 1.67479,-1.21423 1.11653,0.2016 2.58973,0.5071 4.41959,0.91649 2.03456,0 4.01639,-0.71179 5.9455,-2.13536 1.92911,-1.42357 5.58728,-12.24767 10.97454,-32.47233 5.38722,-20.22459 9.50441,-35.51945 12.35158,-45.88462 -3e-5,-0.40931 -0.15355,0.20013 -0.46057,1.82831 -0.30707,1.62835 -0.46059,2.54173 -0.46057,2.74015 l 29.88571,-111.28054 c -5.89903,-2.03437 -11.79491,-4.16818 -17.68765,-6.40143 -28.86224,-1.42027 -43.29333,-5.58553 -43.29334,-12.4958 16.25787,1.01129 33.22906,1.97429 50.91364,2.88902 17.68449,0.91514 30.49042,1.3726 38.41784,1.3724 11.99016,2e-4 25.81183,-0.91473 41.46503,-2.7448 15.65295,-1.82965 25.0023,-2.74458 28.04809,-2.7448 7.52399,2.2e-4 11.89395,1.83008 13.10989,5.4896 z m -120.11971,92.07627 c 0.60783,0.6142 3.85817,0.92125 9.751,0.92113 9.96184,1.2e-4 21.49772,-0.45735 34.60769,-1.37239 13.10978,-0.91482 25.05196,-1.98327 35.82656,-3.20537 -1.2e-4,-10.16027 -2.74492,-25.35277 -8.23438,-45.57757 -5.48971,-20.22446 -8.74314,-30.79424 -9.76031,-31.70937 -1.01739,-0.91473 -2.54176,-1.3722 -4.57311,-1.3724 -2.03156,2e-4 -3.85987,2e-4 -5.48494,0 -4.6771,2e-4 -9.75885,0.0514 -15.24525,0.15353 -5.48657,0.10254 -10.67066,0.25296 -15.55229,0.45126 -4.87557,18.09412 -9.70144,36.18494 -14.47764,54.27252 -4.7763,18.08787 -7.06208,27.23408 -6.85733,27.43866 z"/>
	<path id="path7d" d="m 369.73804,130.61255 c -2.84731,2.03476 -7.52276,3.50951 -14.02637,4.42423 -6.50392,0.91514 -9.90777,2.03322 -10.21157,3.35424 -0.30409,1.32142 -0.45606,3.4056 -0.45592,6.25255 -1.4e-4,9.1433 2.33681,26.06332 7.01086,50.76012 4.67375,24.69708 7.72404,38.67071 9.15087,41.92094 1.8297,13.41702 4.77609,30.49057 8.83917,51.22068 4.06275,20.73022 7.66975,32.16376 10.82101,34.30065 3.15091,2.13692 8.08068,3.20537 14.78934,3.20536 6.70826,1e-5 9.6562,3.55429 8.84382,10.66284 -4.06932,0.81878 -7.2204,1.22818 -9.45326,1.22818 -2.03475,0 -6.10077,-0.45747 -12.19806,-1.3724 -6.09765,-0.91493 -15.7525,-1.3724 -28.96458,-1.3724 -12.19509,0 -20.17205,0.50709 -23.93089,1.52127 -3.7591,1.01418 -5.84329,1.31967 -6.25256,0.91648 -2.02847,-2.03456 -3.04265,-3.76207 -3.04253,-5.18254 -1.2e-4,-2.03456 3.91237,-3.91559 11.73749,-5.64312 7.82485,-1.7275 12.54993,-4.01483 14.17524,-6.86199 -2.64259,-18.0877 -5.33621,-36.32895 -8.08086,-54.72379 -2.74493,-18.39469 -5.03226,-27.99837 -6.86199,-28.81105 -1.83,-0.81248 -16.66739,0.76306 -44.51222,4.72663 -27.84501,3.96377 -42.88709,7.36607 -45.12631,10.20692 -2.84098,9.96198 -5.68502,20.83725 -8.53213,32.62585 -2.84717,11.78871 -4.27074,22.56164 -4.27071,32.31881 -3e-5,2.84717 0.20312,5.84628 0.60944,8.99735 0.40626,3.1511 2.64396,4.72664 6.71312,4.72663 4.67076,-0.40938 9.34466,-0.81877 14.02172,-1.22818 2.03451,0.6141 3.05178,1.93688 3.05184,3.96833 -6e-5,2.03146 -6e-5,3.65818 0,4.88015 l -58.2362,3.96367 c -0.60788,-4.677 -0.91182,-7.62649 -0.91183,-8.84847 1e-5,-1.01108 0.55827,-1.41582 1.67479,-1.21423 1.11653,0.2016 2.58973,0.5071 4.41959,0.91649 2.03456,0 4.01639,-0.71179 5.9455,-2.13536 1.92911,-1.42357 5.58728,-12.24767 10.97454,-32.47233 5.38722,-20.22459 9.50441,-35.51945 12.35158,-45.88462 -3e-5,-0.40931 -0.15355,0.20013 -0.46057,1.82831 -0.30707,1.62835 -0.46059,2.54173 -0.46057,2.74015 l 29.88571,-111.28054 c -5.89903,-2.03437 -11.79491,-4.16818 -17.68765,-6.40143 -28.86224,-1.42027 -43.29333,-5.58553 -43.29334,-12.4958 16.25787,1.01129 33.22906,1.97429 50.91364,2.88902 17.68449,0.91514 30.49042,1.3726 38.41784,1.3724 11.99016,2e-4 25.81183,-0.91473 41.46503,-2.7448 15.65295,-1.82965 25.0023,-2.74458 28.04809,-2.7448 7.52399,2.2e-4 11.89395,1.83008 13.10989,5.4896 z m -120.11971,92.07627 c 0.60783,0.6142 3.85817,0.92125 9.751,0.92113 9.96184,1.2e-4 21.49772,-0.45735 34.60769,-1.37239 13.10978,-0.91482 25.05196,-1.98327 35.82656,-3.20537 -1.2e-4,-10.16027 -2.74492,-25.35277 -8.23438,-45.57757 -5.48971,-20.22446 -8.74314,-30.79424 -9.76031,-31.70937 -1.01739,-0.91473 -2.54176,-1.3722 -4.57311,-1.3724 -2.03156,2e-4 -3.85987,2e-4 -5.48494,0 -4.6771,2e-4 -9.75885,0.0514 -15.24525,0.15353 -5.48657,0.10254 -10.67066,0.25296 -15.55229,0.45126 -4.87557,18.09412 -9.70144,36.18494 -14.47764,54.27252 -4.7763,18.08787 -7.06208,27.23408 -6.85733,27.43866 z"/>
	<g id="C" class="default">
		<use xlink:href="#path1d" style="fill:#ffffff"/>
		<use xlink:href="#path2d" />
		<use xlink:href="#path3d" style="fill:#ffffff"/>
		<use xlink:href="#path4d" />
		<use xlink:href="#path5d" />
		<use xlink:href="#path6d" style="fill:#ffffff;stroke:#000000"/>
		<use xlink:href="#path7d" style="fill:#ffffff"/></g>
	<g id="80">
		<use xlink:href="#path1d" style="fill:#808080"/>
		<use xlink:href="#path2d" />
		<use xlink:href="#path3d" style="fill:#808080"/>
		<use xlink:href="#path4d" />
		<use xlink:href="#path5d" />
		<use xlink:href="#path6d" style="fill:#808080;stroke:#000000"/>
		<use xlink:href="#path7d" style="fill:#808080"/></g>
	<g id="U">
		<use xlink:href="#path1d" />
		<use xlink:href="#path2d" style="fill:#536e78"/>
		<use xlink:href="#path3d" />
		<use xlink:href="#path4d" style="fill:#536e78"/>
		<use xlink:href="#path5d" style="fill:url(#uncommon_grad)"/>
		<use xlink:href="#path6d" style="fill:#ffffff;stroke:#536e78;stroke-width:12.75862789;stroke-opacity:0.37391304"/>
		<use xlink:href="#path7d" /></g>
	<g id="R">
		<use xlink:href="#path1d" />
		<use xlink:href="#path2d" style="fill:#8b723c"/>
		<use xlink:href="#path3d" />
		<use xlink:href="#path4d" style="fill:#8b723c"/>
		<use xlink:href="#path5d" style="fill:url(#rare_grad)"/>
		<use xlink:href="#path6d" style="fill:#ffffff;stroke:#8b723c;stroke-width:12.75862789;stroke-opacity:0.37391304"/>
		<use xlink:href="#path7d" /></g>
	<g id="M">
		<use xlink:href="#path1d" />
		<use xlink:href="#path2d" style="fill:#bf331c"/>
		<use xlink:href="#path3d" />
		<use xlink:href="#path4d" style="fill:#bf331c"/>
		<use xlink:href="#path5d" style="fill:url(#mythic_grad)"/>
		<use xlink:href="#path6d" style="fill:#ffffff;stroke:#bf331c;stroke-width:12.75862789;stroke-opacity:0.37391304"/>
		<use xlink:href="#path7d" /></g>
	<g id="T">
		<use xlink:href="#path1d" style="fill:#ffffff"/>
		<use xlink:href="#path2d" style="fill:#612c75"/>
		<use xlink:href="#path3d" style="fill:#ffffff"/>
		<use xlink:href="#path4d" style="fill:#612c75"/>
		<use xlink:href="#path5d" style="fill:url(#time_grad)"/>
		<use xlink:href="#path6d" style="fill:#ffffff;stroke:#612c75;stroke-width:12.75862789;stroke-opacity:0.37391304"/>
		<use xlink:href="#path7d" /></g>
</svg>
