<?xml version="1.0" encoding="UTF-8" standalone="no"?>
<svg
	xmlns="http://www.w3.org/2000/svg" xmlns:xlink="http://www.w3.org/1999/xlink" version="1.1"
	width="600" height="510.31689">
	<style>g { display: none; }g.default { display: inline; }g.def { display: inline; }g:target { display: inline; }</style>
	<radialGradient id="uncommon_grad" xlink:href="#grad">
		<stop style="stop-color:#d9eaf3" offset="0" />
		<stop style="stop-color:#99aebc" offset="0.69101" />
		<stop style="stop-color:#536e78" offset="1" />
	</radialGradient>
	<radialGradient id="rare_grad" xlink:href="#grad">
		<stop style="stop-color:#ebd491" offset="0" />
		<stop style="stop-color:#d2bb7b" offset="0.69101" />
		<stop style="stop-color:#8b723c" offset="1" />
	</radialGradient>
	<radialGradient id="mythic_grad" xlink:href="#grad">
		<stop style="stop-color:#f6b91d" offset="0" />
		<stop style="stop-color:#d3641c" offset="0.69101" />
		<stop style="stop-color:#bf331c" offset="1" />
	</radialGradient>
	<radialGradient id="time_grad" xlink:href="#grad">
		<stop style="stop-color:#bf99c3" offset="0" />
		<stop style="stop-color:#7b5190" offset="0.69101" />
		<stop style="stop-color:#612c75" offset="1" />
	</radialGradient>
	<radialGradient id="grad"
		cx="0" cy="0" r="1" fx="0" fy="0"
		gradientUnits="userSpaceOnUse"
		gradientTransform="matrix(224.16862,0,0,224.16843,300.0699,255.74044)"/>
	<path id="path1d" d="M 419.35319,0 179.60068,0 178.4525,0.15309 C 162.25043,1.90087 139.82267,13.56126 132.34675,38.08126 112.02398,43.70734 35.42769,65.08898 35.42769,65.08898 L 34.4326,65.43292 C 21.26682,70.52318 0,87.56726 0,118.75945 c 0,5.57505 0.6889,11.60937 2.23257,18.14123 l 91.44606,341.41736 2.53875,3.38075 c 10.32086,13.80366 35.49149,34.93015 64.29802,26.76533 0,0 128.91497,-35.47873 139.52925,-38.42572 10.6653,2.94699 139.78439,38.47675 139.78439,38.47675 28.55138,8.11379 53.72202,-13.0127 64.0939,-26.81636 l 2.48772,-3.34248 91.29298,-340.805 C 599.29833,130.81533 600,124.64068 600,118.96357 600,87.51623 578.82247,70.52318 565.65669,65.43292 l -0.94406,-0.34394 c 0,0 -76.64732,-21.38164 -96.97008,-27.00772 -7.47592,-24.52 -29.90368,-36.18039 -46.05473,-37.92817 L 420.53964,0 419.35319,0 z"/>
	<path id="path2d" d="m 180.7361,21.72609 c 0,0 -29.39337,3.18939 -29.39337,33.59061 L 42.25298,85.71793 c 0,0 -27.26287,10.51221 -18.88117,46.19506 l 90.24686,336.73534 c 0,0 18.88117,25.20891 40.91344,18.88117 l 145.56357,-40.02041 145.51253,40.02041 c 21.98125,6.32774 40.91344,-18.88117 40.91344,-18.88117 L 576.73024,131.91299 C 585.09918,96.23014 557.83632,85.71793 557.83632,85.71793 L 448.74657,55.3167 c 0,-30.40122 -29.39338,-33.59061 -29.39338,-33.59061 l -238.61709,0 z"/>
	<path id="path3d" d="m 181.69292,34.3433 c -1.3523,0.24291 -5.5878,1.18645 -9.51713,3.84002 -5.63883,3.7252 -8.22861,9.15992 -8.22861,17.13338 l 0,9.56816 c 0,0 -115.81298,32.3021 -117.4587,32.74861 -3.03629,1.39057 -12.10691,6.87632 -12.10691,21.36889 0,2.94699 0.34395,6.23844 1.23748,9.9764 0.1531,0.54806 87.96326,328.45569 89.40487,333.73732 3.89105,4.38859 15.30905,15.79384 26.01263,12.75754 l 149.0081,-41.0155 149.0081,41.0155 c 10.75461,3.0363 22.12158,-8.36895 26.01263,-12.75754 1.39057,-5.28163 89.25177,-333.18875 89.45589,-333.73732 0.842,-3.73796 1.23748,-7.02941 1.23748,-9.9764 0,-14.49257 -9.12164,-19.97832 -12.15794,-21.36889 -1.64572,-0.446 -117.4587,-32.74861 -117.4587,-32.74861 l 0,-9.56816 c 0,-7.97346 -2.58978,-13.40818 -8.17758,-17.13338 -3.98035,-2.65357 -8.16483,-3.59762 -9.56816,-3.84002 l -236.70345,0 z"/>
	<path id="path4d" d="m 438.68087,81.53345 0,323.82471 c 0,0 -2.79391,20.97341 -19.58283,20.97341 l -90.8975,0 121.69421,33.59061 c 0,0 6.97837,3.49556 10.46118,-4.18448 l 89.55795,-332.24469 c 0,0 3.48281,-10.46118 -4.93717,-13.25509 L 438.68087,81.53345 z M 55.11258,110.93959 c -8.41998,2.78114 -4.88614,13.25509 -4.88614,13.25509 l 89.50692,332.24469 c 3.48281,7.66728 10.51222,4.18447 10.51222,4.18447 l 121.6942,-33.53958 -90.94852,0 c -16.78893,0 -19.58283,-21.03719 -19.58283,-21.03719 l 0,-323.81195 -106.29585,28.70447 z m 127.97091,-60.85348 234.31779,0 c 4.88614,0 5.58781,6.27671 5.58781,6.27671 l 0,348.29368 c 0,5.5878 -5.58781,6.97838 -5.58781,6.97838 l -234.31779,0 c -4.88614,0 -4.88614,-6.97838 -4.88614,-6.97838 l 0,-348.29368 c 0,-4.18447 4.88614,-6.27671 4.88614,-6.27671"/>
	<path id="path5d" d="m 184.43579,55.176041 c -0.65063,0.446514 -1.14818,0.944058 -1.14818,1.186451 v 0 348.242648 c 0,0.80373 0.29342,1.95191 -0.15309,1.95191 v 0 h 233.37373 c 0.65064,-0.30618 1.39058,-0.80373 1.39058,-1.90088 v 0 -347.694073 c -0.0893,-0.688907 -0.44652,-1.645723 -0.49755,-1.786056 v 0 z M 443.77112,406.04675 c -1.1992,8.77719 -7.88416,25.42578 -24.67308,25.42578 v 0 h -53.32653 l 86.31753,23.86936 c 0.20412,0.051 0.80373,0.2424 1.4416,0.2424 v 0 c 0.44652,0 1.30127,0 1.90088,-1.18646 v 0 l 89.59622,-332.49984 c 0.20412,-0.54857 1.74779,-5.72814 -1.33954,-6.72322 v 0 L 443.82215,88.20532 Z M 56.70727,115.77437 c -3.393507,1.13542 -1.849844,6.27671 -1.543663,7.11871 v 0 l 89.200743,331.40269 c 0.89303,1.99018 1.79881,1.99018 2.24533,1.99018 v 0 c 0.5996,0 1.23748,-0.20412 2.23257,-0.5996 v 0 l 85.4245,-23.52491 h -53.2755 c -16.78892,0 -23.47388,-16.63584 -24.67308,-26.11469 v 0 -317.139765 z"/>
	<path id="path6d" d="m 318.09722,123.90409 c 3.45492,-0.81236 7.62328,-1.21866 12.5051,-1.21887 12.59801,2.1e-4 24.03,3.45679 34.296,10.36974 10.26567,6.91336 16.11038,14.78952 17.53412,23.62851 1.4234,8.83934 2.13518,14.68249 2.13536,17.52947 -1.8e-4,13.00769 -4.98112,24.08611 -14.94285,33.23529 -11.79192,8.13217 -19.10827,13.21236 -21.94906,15.2406 15.04194,2.84726 27.39041,10.2675 37.04544,22.26076 9.65466,11.99344 14.48209,23.98524 14.48228,35.97543 -1.9e-4,11.17772 -1.98202,21.39084 -5.94551,30.63937 -3.96385,9.24858 -10.62114,15.70272 -19.97187,19.36244 -9.35108,3.65974 -17.48156,6.09903 -24.39147,7.31791 -6.91019,1.21887 -13.82025,1.82831 -20.73018,1.82831 -8.74004,0 -16.66737,-0.66059 -23.78203,-1.98183 -7.11486,-1.32124 -15.90594,-3.35424 -26.3733,-6.09904 -10.46751,-2.74478 -20.07118,-4.11718 -28.81105,-4.11719 l -10.67215,0.61404 -27.7457,4.8755 c -0.81257,-0.60792 -1.52437,-1.36929 -2.13535,-2.28423 -0.61099,-0.91495 -0.91648,-1.98337 -0.91648,-3.20536 0,-0.81258 0.61099,-1.7275 1.83297,-2.74479 l 35.67304,-10.05806 c 0.81257,-0.60782 1.42198,-3.60542 1.82831,-8.99269 0.40623,-5.38721 0.60945,-12.55313 0.60945,-21.49781 -4e-5,-19.10494 -0.71183,-40.85239 -2.13536,-65.24239 -1.42361,-24.38978 -2.99915,-40.90506 -4.72662,-49.5459 -1.72755,-8.64049 -9.2486,-13.87422 -22.56316,-15.70116 -13.31458,-1.82658 -19.97187,-3.85959 -19.97188,-6.09903 1e-5,-1.42027 0.66059,-2.99427 1.98184,-4.72198 1.32122,-1.72731 2.99911,-2.59107 5.03368,-2.59127 6.30217,1.42067 12.70513,2.84269 19.20891,4.26607 6.50375,1.42376 12.60278,2.13554 18.29709,2.13535 13.20599,1.9e-4 24.84112,-2.89657 34.90542,-8.69031 10.06418,-5.79332 23.52918,-10.6223 40.39503,-14.48693 z m -41.46037,98.78474 c -7e-5,14.83751 -0.10238,27.08363 -0.30703,36.7384 -0.20475,9.65492 -0.4095,18.85231 -0.61414,27.59217 -7e-5,8.94467 0.40776,15.65312 1.22353,20.1254 0.81563,4.47234 2.64547,8.48718 5.48959,12.04454 2.84397,3.55739 7.31472,6.14866 13.41228,7.77382 6.09738,1.62518 12.90819,2.43776 20.43245,2.43775 13.21212,10e-6 23.52758,-1.82985 30.94641,-5.48959 7.41855,-3.65972 12.80425,-9.70601 16.15708,-18.13891 3.35252,-8.43285 5.02886,-19.76403 5.02902,-33.99361 -1.6e-4,-12.80897 -6.09763,-22.97245 -18.29244,-30.49049 -15.04223,-6.50057 -29.98196,-13.00433 -44.81925,-19.51131 10.36499,-1.82974 20.01983,-5.74224 28.96457,-11.73749 8.94449,-5.995 13.41679,-14.88844 13.41694,-26.68034 v -5.18256 c -1.5e-4,-10.56961 -3.6087,-19.46151 -10.82567,-26.67569 -7.21723,-7.21382 -16.51696,-10.82081 -27.89922,-10.82101 l -7.00621,0.60476 c -10.56987,1.42688 -17.53265,6.25585 -20.88835,14.48694 -3.35586,8.23146 -5.03375,19.66345 -5.03368,34.296 -7e-5,3.65987 0.10227,9.14791 0.30702,16.46412 0.20465,7.31648 0.30703,12.70216 0.30703,16.15708 z"/>
	<path id="path7d" d="m 318.09722,123.90409 c 3.45492,-0.81236 7.62328,-1.21866 12.5051,-1.21887 12.59801,2.1e-4 24.03,3.45679 34.296,10.36974 10.26567,6.91336 16.11038,14.78952 17.53412,23.62851 1.4234,8.83934 2.13518,14.68249 2.13536,17.52947 -1.8e-4,13.00769 -4.98112,24.08611 -14.94285,33.23529 -11.79192,8.13217 -19.10827,13.21236 -21.94906,15.2406 15.04194,2.84726 27.39041,10.2675 37.04544,22.26076 9.65466,11.99344 14.48209,23.98524 14.48228,35.97543 -1.9e-4,11.17772 -1.98202,21.39084 -5.94551,30.63937 -3.96385,9.24858 -10.62114,15.70272 -19.97187,19.36244 -9.35108,3.65974 -17.48156,6.09903 -24.39147,7.31791 -6.91019,1.21887 -13.82025,1.82831 -20.73018,1.82831 -8.74004,0 -16.66737,-0.66059 -23.78203,-1.98183 -7.11486,-1.32124 -15.90594,-3.35424 -26.3733,-6.09904 -10.46751,-2.74478 -20.07118,-4.11718 -28.81105,-4.11719 l -10.67215,0.61404 -27.7457,4.8755 c -0.81257,-0.60792 -1.52437,-1.36929 -2.13535,-2.28423 -0.61099,-0.91495 -0.91648,-1.98337 -0.91648,-3.20536 0,-0.81258 0.61099,-1.7275 1.83297,-2.74479 l 35.67304,-10.05806 c 0.81257,-0.60782 1.42198,-3.60542 1.82831,-8.99269 0.40623,-5.38721 0.60945,-12.55313 0.60945,-21.49781 -4e-5,-19.10494 -0.71183,-40.85239 -2.13536,-65.24239 -1.42361,-24.38978 -2.99915,-40.90506 -4.72662,-49.5459 -1.72755,-8.64049 -9.2486,-13.87422 -22.56316,-15.70116 -13.31458,-1.82658 -19.97187,-3.85959 -19.97188,-6.09903 1e-5,-1.42027 0.66059,-2.99427 1.98184,-4.72198 1.32122,-1.72731 2.99911,-2.59107 5.03368,-2.59127 6.30217,1.42067 12.70513,2.84269 19.20891,4.26607 6.50375,1.42376 12.60278,2.13554 18.29709,2.13535 13.20599,1.9e-4 24.84112,-2.89657 34.90542,-8.69031 10.06418,-5.79332 23.52918,-10.6223 40.39503,-14.48693 z m -41.46037,98.78474 c -7e-5,14.83751 -0.10238,27.08363 -0.30703,36.7384 -0.20475,9.65492 -0.4095,18.85231 -0.61414,27.59217 -7e-5,8.94467 0.40776,15.65312 1.22353,20.1254 0.81563,4.47234 2.64547,8.48718 5.48959,12.04454 2.84397,3.55739 7.31472,6.14866 13.41228,7.77382 6.09738,1.62518 12.90819,2.43776 20.43245,2.43775 13.21212,10e-6 23.52758,-1.82985 30.94641,-5.48959 7.41855,-3.65972 12.80425,-9.70601 16.15708,-18.13891 3.35252,-8.43285 5.02886,-19.76403 5.02902,-33.99361 -1.6e-4,-12.80897 -6.09763,-22.97245 -18.29244,-30.49049 -15.04223,-6.50057 -29.98196,-13.00433 -44.81925,-19.51131 10.36499,-1.82974 20.01983,-5.74224 28.96457,-11.73749 8.94449,-5.995 13.41679,-14.88844 13.41694,-26.68034 v -5.18256 c -1.5e-4,-10.56961 -3.6087,-19.46151 -10.82567,-26.67569 -7.21723,-7.21382 -16.51696,-10.82081 -27.89922,-10.82101 l -7.00621,0.60476 c -10.56987,1.42688 -17.53265,6.25585 -20.88835,14.48694 -3.35586,8.23146 -5.03375,19.66345 -5.03368,34.296 -7e-5,3.65987 0.10227,9.14791 0.30702,16.46412 0.20465,7.31648 0.30703,12.70216 0.30703,16.15708 z"/>
	<g id="C" class="default">
		<use xlink:href="#path1d" style="fill:#ffffff"/>
		<use xlink:href="#path2d" />
		<use xlink:href="#path3d" style="fill:#ffffff"/>
		<use xlink:href="#path4d" />
		<use xlink:href="#path5d" />
		<use xlink:href="#path6d" style="fill:#ffffff;stroke:#000000"/>
		<use xlink:href="#path7d" style="fill:#ffffff"/></g>
	<g id="80">
		<use xlink:href="#path1d" style="fill:#808080"/>
		<use xlink:href="#path2d" />
		<use xlink:href="#path3d" style="fill:#808080"/>
		<use xlink:href="#path4d" />
		<use xlink:href="#path5d" />
		<use xlink:href="#path6d" style="fill:#808080;stroke:#000000"/>
		<use xlink:href="#path7d" style="fill:#808080"/></g>
	<g id="U">
		<use xlink:href="#path1d" />
		<use xlink:href="#path2d" style="fill:#536e78"/>
		<use xlink:href="#path3d" />
		<use xlink:href="#path4d" style="fill:#536e78"/>
		<use xlink:href="#path5d" style="fill:url(#uncommon_grad)"/>
		<use xlink:href="#path6d" style="fill:#ffffff;stroke:#536e78;stroke-width:12.75862789;stroke-opacity:0.37391304"/>
		<use xlink:href="#path7d" /></g>
	<g id="R">
		<use xlink:href="#path1d" />
		<use xlink:href="#path2d" style="fill:#8b723c"/>
		<use xlink:href="#path3d" />
		<use xlink:href="#path4d" style="fill:#8b723c"/>
		<use xlink:href="#path5d" style="fill:url(#rare_grad)"/>
		<use xlink:href="#path6d" style="fill:#ffffff;stroke:#8b723c;stroke-width:12.75862789;stroke-opacity:0.37391304"/>
		<use xlink:href="#path7d" /></g>
	<g id="M">
		<use xlink:href="#path1d" />
		<use xlink:href="#path2d" style="fill:#bf331c"/>
		<use xlink:href="#path3d" />
		<use xlink:href="#path4d" style="fill:#bf331c"/>
		<use xlink:href="#path5d" style="fill:url(#mythic_grad)"/>
		<use xlink:href="#path6d" style="fill:#ffffff;stroke:#bf331c;stroke-width:12.75862789;stroke-opacity:0.37391304"/>
		<use xlink:href="#path7d" /></g>
	<g id="T">
		<use xlink:href="#path1d" style="fill:#ffffff"/>
		<use xlink:href="#path2d" style="fill:#612c75"/>
		<use xlink:href="#path3d" style="fill:#ffffff"/>
		<use xlink:href="#path4d" style="fill:#612c75"/>
		<use xlink:href="#path5d" style="fill:url(#time_grad)"/>
		<use xlink:href="#path6d" style="fill:#ffffff;stroke:#612c75;stroke-width:12.75862789;stroke-opacity:0.37391304"/>
		<use xlink:href="#path7d" /></g>
</svg>
