<?xml version="1.0" encoding="UTF-8" standalone="no"?>
<svg
   xmlns="http://www.w3.org/2000/svg"
   width="40.426952pt"
   height="21.172592pt"
   viewBox="0 0 40.426953 21.172592"
   version="1.1"
>
  <defs
     id="defs17" />
      />
  <g
     id="#030303ff"
     transform="translate(0.02499998,0.59882554)">
    <path
       d="M 0.97500002,0.87500002 H 3 V 19.0625 H 0.97500002 Z"
       id="path5"
       style="opacity:1;fill:#000000;stroke:#ffffff;stroke-width:2"
        />
    <path
       d="M 0.97500002,0.87500002 H 3 V 19.0625 H 0.97500002 Z"
       id="path3"
       style="opacity:1;fill:#000000;stroke-width:1.09375"
        />
    <path
       d="M 6.9750002,0.87500002 H 10.725 L 18.975,15.125 V 0.87500002 c 2.025,0 0.025,-2.8155e-4 2.025,0 V 19.0625 H 18.225 L 9.0000002,3.1250001 V 19.06243 l -2.025,7e-5 z"
       id="path7"
       style="opacity:1;fill:#000000;stroke:#ffffff;stroke-width:2"
        />
    <path
       d="M 6.9750002,0.87500002 H 10.725 L 18.975,15.125 V 0.87500002 c 2.025,0 0.025,-2.8155e-4 2.025,0 V 19.0625 H 18.225 L 9.0000002,3.1250001 V 19.06243 l -2.025,7e-5 z"
       id="path6"
       style="opacity:1;fill:#000000;stroke-width:2"
        />
    <path
       d="m 22.987501,0.87500002 c 2.1375,0 0,0 2.1375,0 L 30.993751,17.56 36.862501,0.87500002 h 2.1375 L 32.737501,19.0625 h -3.4875 z"
       id="path9"
       style="opacity:1;fill:#000000;stroke:#ffffff;stroke-width:2"
        />
    <path
       d="m 22.987501,0.87500002 c 2.1375,0 0,0 2.1375,0 L 30.993751,17.56 36.862501,0.87500002 h 2.1375 L 32.737501,19.0625 h -3.4875 z"
       id="path10"
       style="opacity:1;fill:#000000;stroke-width:2"
        />
  </g>
</svg>
