<?xml version="1.0" encoding="utf-8"?><svg version="1.1" id="Layer_1" xmlns="http://www.w3.org/2000/svg" xmlns:xlink="http://www.w3.org/1999/xlink" x="0px" y="0px"
	 width="44.616px" height="50.017px"  >
<g>
	<path d="M19.768,50.008C19.577,50.005,0,19.35,0,19.35L19.713,0.008 M22.878,0.008c3.093,1.187,16.098,11.038,18.594,14.383
		c2.842,3.809,3.299,5.052,3.104,8.456c-0.219,3.836-1.659,6.047-6.491,9.97c-3.345,2.715-5.234,4.667-5.704,5.891
		c-0.186,0.484,0.222,0.592,1.775,0.469c1.425-0.113,2.241,0.064,2.784,0.607c1.962,1.962,1.482,5.655-1.067,8.204
		c-1.64,1.64-2.121,2.028-4.654,2.021c-1.94-0.006-2.963-0.549-4.024-1.229l0,0c-0.907-0.581-2.033-2.049-2.894-3.771
		c-2.9-5.803-1.377-11.253,4.632-16.581c2.895-2.566,3.962-4.147,2.8-4.147c-0.672,0-4.257,3.08-6.627,5.693l-2.185,2.409"/>
	<linearGradient id="SVGID_1_" gradientUnits="userSpaceOnUse" x1="11.7471" y1="9.1738" x2="39.5671" y2="42.3284">
		<stop  offset="0.1" style="stop-color:#bf331c"/>
		<stop  offset="0.4" style="stop-color:#f6b91d"/>
		<stop  offset="0.7" style="stop-color:#bf331c"/>
	</linearGradient>
	<path fill="url(#SVGID_1_)" d="M33.503,47.302c1.79-0.925,3.083-3.698,2.413-5.17c-0.51-1.121-2.075-1.496-2.612-0.626
		c-0.162,0.261-0.122,0.445,0.088,0.408c1.744-0.303,2.06,0.912,0.613,2.358c-1.23,1.23-3.063,1.197-3.739-0.066
		c-0.299-0.558-0.441-2.076-0.326-3.467c0.265-3.19,1.527-4.964,6.725-9.449c4.499-3.882,6.119-6.255,6.13-8.98
		c0.012-2.729-1.474-5.286-5.202-8.954C33.066,8.902,25.377,3.204,24.821,3.76c-0.112,0.112-0.058,23.998-0.058,23.998l2.755-2.781
		c3.293-2.735,4.495-3.2,5.626-2.176c1.165,1.054,0.861,2.05,0.861,2.179c0,1.146-0.668,2.039-3.679,4.915
		c-3.875,3.702-5.553,6.483-5.571,9.23c-0.027,4.223,3.089,8.851,5.96,8.851C31.532,47.976,32.786,47.673,33.503,47.302
		L33.503,47.302z M17.772,4.117L2.101,19.305l15.468,23.71L17.772,4.117z"/>
</g>
</svg>
