<?xml version="1.0" encoding="UTF-8" standalone="no"?>
<svg
   xmlns="http://www.w3.org/2000/svg"
   version="1.1"
   id="Layer_1"
   x="0px"
   y="0px"
   width="44.6152"
   height="50.001091"
   viewBox="0 0 44.615199 50.001093"
>
<g
   id="g297"
   transform="rotate(-90,25.000546,25.000546)"><g
     transform="rotate(90,25.000546,25.000546)"
     id="g349"><g
       id="g226"
       transform="rotate(90,22.307599,22.307599)"><g
         transform="rotate(90,25.000547,25.000546)"
         id="g215"><g
           id="g186"
           transform="rotate(90,22.307599,22.3076)"><g
             id="g166"><g
               id="g146"><g
                 transform="rotate(90,25.005046,25.005046)"
                 id="g279"><g
                   id="g85">
	<path
   style="fill:#ffffff"
   d="M 19.768,50.009 C 19.577,50.007 0,19.351 0,19.351 L 19.713,0.009 m 3.165,0 c 3.093,1.188 16.098,11.038 18.594,14.383 2.842,3.809 3.299,5.053 3.104,8.456 -0.219,3.836 -1.659,6.048 -6.491,9.97 -3.345,2.716 -5.234,4.667 -5.704,5.891 -0.186,0.484 0.222,0.593 1.775,0.469 1.425,-0.113 2.241,0.064 2.784,0.607 1.962,1.963 1.482,5.655 -1.067,8.204 -1.64,1.64 -2.121,2.028 -4.654,2.021 -1.94,-0.006 -2.963,-0.549 -4.024,-1.229 v 0 c -0.907,-0.58 -2.033,-2.049 -2.894,-3.77 -2.9,-5.803 -1.377,-11.254 4.632,-16.581 2.895,-2.565 3.962,-4.147 2.8,-4.147 -0.672,0 -4.257,3.08 -6.627,5.693 l -2.185,2.409"
   id="path81" />
	<path
   d="m 33.503,47.303 c 1.79,-0.925 3.083,-3.698 2.413,-5.17 -0.51,-1.12 -2.075,-1.495 -2.612,-0.626 -0.162,0.261 -0.122,0.444 0.088,0.408 1.744,-0.303 2.06,0.912 0.613,2.357 -1.23,1.23 -3.063,1.197 -3.739,-0.066 -0.299,-0.557 -0.441,-2.076 -0.326,-3.467 0.265,-3.189 1.527,-4.963 6.725,-9.448 4.499,-3.882 6.119,-6.255 6.13,-8.98 0.012,-2.729 -1.474,-5.286 -5.202,-8.954 C 33.066,8.903 25.377,3.205 24.821,3.761 24.709,3.874 24.763,27.759 24.763,27.759 l 2.755,-2.781 c 3.293,-2.734 4.495,-3.199 5.626,-2.176 1.165,1.055 0.861,2.05 0.861,2.18 0,1.145 -0.668,2.038 -3.679,4.914 -3.875,3.701 -5.553,6.482 -5.571,9.23 -0.027,4.223 3.089,8.852 5.96,8.852 0.817,0 2.071,-0.304 2.788,-0.675 z M 17.772,4.118 2.101,19.306 17.569,43.017 Z"
   id="path83" />
</g></g></g></g></g></g></g></g></g>
</svg>