<?xml version="1.0" encoding="UTF-8" standalone="no"?>
<svg
   xmlns="http://www.w3.org/2000/svg"
   xmlns:xlink="http://www.w3.org/1999/xlink"   version="1.1"
   width="600"
   height="631.30194">
  <defs
     id="defs3204">
    <linearGradient
       x1="358.23572"
       y1="-1069.9309"
       x2="233.50645"
       y2="-1023.5629"
       id="linearGradient4064"
       xlink:href="#linearGradient642"
       gradientUnits="userSpaceOnUse" />
    <linearGradient
       x1="0"
       y1="0"
       x2="1"
       y2="0"
       id="linearGradient642"
       gradientUnits="userSpaceOnUse"
       gradientTransform="matrix(31.895508,0,0,-31.895508,466.73633,146.39844)"
       spreadMethod="pad">
      <stop  style="stop-color:#bf331c" offset="0" />
      <stop  style="stop-color:#d3641c" offset="0.30000299" />
      <stop  style="stop-color:#f6b91d" offset="0.5" />
      <stop  style="stop-color:#d3641c" offset="0.69999701" />
      <stop  style="stop-color:#bf331c" offset="1" />
    </linearGradient>
  </defs>
  <g
     transform="translate(-262.59483,-20.654429)"
     id="layer1">
    <path
       d="m 415.77879,-1011.0054 a 109.60155,110.30865 0 1 1 -219.20309,0 109.60155,110.30865 0 1 1 219.20309,0 z"
       transform="matrix(2.5068448,0,0,2.5068448,-196.78465,2848.7012)"
       id="path4143"
       style="fill:none;stroke:#000000;stroke-width:13.63192081;stroke-miterlimit:4" />
    <path
       d="m 415.77879,-1011.0054 a 109.60155,110.30865 0 1 1 -219.20309,0 109.60155,110.30865 0 1 1 219.20309,0 z"
       transform="matrix(2.5068448,0,0,2.5068448,-196.78465,2848.7012)"
       id="path7402"
       style="fill:url(#linearGradient4064);stroke:#000000;stroke-width:8.51282215;stroke-miterlimit:4" />
    <path
       d="m 327.44791,182.60449 c -40.51661,49.5895 -64.85308,113.04919 -64.85308,182.16142 0,158.45122 127.92051,287.19043 285.46678,287.19043 157.54652,0 285.38878,-128.73921 285.38878,-287.19043 l -15.77147,69.37803 -33.46185,54.69907 -53.5783,49.3257 -60.51416,33.44697 -50.94198,16.31897 -59.02612,2.01359 -50.86145,-6.4666 -58.85598,-23.63701 -63.16058,-38.18219 -49.75659,-59.70842 -28.42751,-67.28064 -12.48667,-74.15137 4.56787,-62.48509 z"
       id="path7408"
       style="color:#000000;fill:#000000;stroke-width:8.51293373" />
    <path
       d="m 368.47467,263.04224 25.24241,10.09697 c 16.95459,-47.76976 54.48425,-72.02319 82.56317,-61.69373 19.32332,7.10851 43.55857,35.13971 26.29477,73.05281 -12.63106,27.73941 -87.62073,99.93702 -135.04694,150.50794 l 0.31553,20.825 181.42989,0.31552 21.77158,-78.88256 -24.61135,0 c -6.88614,23.53553 -19.26527,31.27814 -32.81515,35.65492 l -88.97953,-0.94659 c 38.53735,-46.3259 83.7801,-69.24148 112.6443,-104.75605 28.88314,-35.53779 20.69323,-92.41022 -5.04848,-116.43066 -56.39637,-52.62464 -140.60053,-10.51018 -163.7602,72.25643 z"
       id="path7410"
       style="fill:#000000;stroke:#000000;stroke-width:2.52424216px" />
    <path
       d="m 685.9299,164.67354 c -69.8165,-1.26944 -100.81999,93.88615 -97.90399,152.16207 3.05105,60.98064 26.97254,143.1654 101.02749,143.2376 69.21699,0.0682 99.85169,-94.00126 100.13516,-147.25367 0.46422,-87.13633 -40.30154,-147.00151 -103.25866,-148.146 z m 0.44603,28.22607 c 39.35319,-0.22466 51.51953,74.46892 53.1676,121.70481 1.55671,44.61901 -5.65606,122.80942 -50.04384,119.47389 -39.06947,-2.93569 -50.8867,-72.39475 -51.38297,-118.58131 -0.42105,-39.20804 1.0314,-122.32805 48.25921,-122.59739 z"
       id="path7412"
       style="color:#000000;fill:#000000;stroke-width:8.02700043" />
  </g>
</svg>
