<?xml version="1.0" encoding="UTF-8" standalone="no"?>
<svg
   xmlns="http://www.w3.org/2000/svg"
   xmlns:xlink="http://www.w3.org/1999/xlink"
   version="1.1"
   width="543.90631"
   height="568.625">
   <filter
       style="color-interpolation-filters:sRGB"
       id="filter3711"
       x="-0.055990591"
       width="1.1119812"
       y="-0.064627916"
       height="1.1292558">
      <feGaussianBlur
         stdDeviation="4.1839844"
         id="feGaussianBlur3713" />
    </filter>
    <filter
       style="color-interpolation-filters:sRGB"
       id="filter3715"
       x="-0.12995577"
       width="1.2599115"
       y="-0.11567455"
       height="1.2313491">
      <feBlend
         mode="color-burn"
         in2="BackgroundImage"
         id="feBlend3717" />
      <feGaussianBlur
         stdDeviation="23.156833"
         id="feGaussianBlur3719" />
    </filter>
  <linearGradient
     id="linearGradient3991">
    <stop
       style="stop-color:#000000;stop-opacity:0.6"
       offset="0"/>
    <stop
       style="stop-color:#536f78;stop-opacity:0.6"
       offset="0.75"/>
    <stop
       style="stop-color:#536e78;stop-opacity:0"
       offset="1"/>
  </linearGradient>
  <linearGradient
     id="linearGradient4136">
    <stop
       style="stop-color:#d9eaf3"
       offset="0"/>
    <stop
       style="stop-color:#99aebc"
       offset="0.35"/>
    <stop
       style="stop-color:#ffffff;stop-opacity:.5"
       offset="0.5"/>
    <stop
       style="stop-color:#99aebc"
       offset="0.65"/>
    <stop
       style="stop-color:#d9eaf3"
       offset="1"/>
  </linearGradient>
  <linearGradient
     x1="226.15625"
     y1="117.1875"
     x2="372.40466"
     y2="117.17473"
     id="linearGradient6400"
     xlink:href="#linearGradient4136"
     gradientUnits="userSpaceOnUse"
     gradientTransform="translate(-27.35098,-22.64754)" />
  <linearGradient
     x1="226.15625"
     y1="117.1875"
     x2="372.40466"
     y2="117.17473"
     id="linearGradient3194"
     xlink:href="#linearGradient4136"
     gradientUnits="userSpaceOnUse"
     gradientTransform="matrix(-1,0,0,-1,571.21152,591.21496)" />
  <linearGradient
     x1="226.15625"
     y1="117.1875"
     x2="372.40466"
     y2="117.17473"
     id="linearGradient3196"
     xlink:href="#linearGradient4136"
     gradientUnits="userSpaceOnUse"
     gradientTransform="matrix(-0.5,-0.8660254,0.8660254,-0.5,155.77476,696.94246)" />
  <linearGradient
     x1="226.15625"
     y1="117.1875"
     x2="372.40466"
     y2="117.17473"
     id="linearGradient3198"
     xlink:href="#linearGradient4136"
     gradientUnits="userSpaceOnUse"
     gradientTransform="matrix(0.5,-0.8660254,0.8660254,0.5,-143.50649,389.99525)" />
  <linearGradient
     x1="226.15625"
     y1="117.1875"
     x2="372.40466"
     y2="117.17473"
     id="linearGradient3200"
     xlink:href="#linearGradient4136"
     gradientUnits="userSpaceOnUse"
     gradientTransform="matrix(0.5,0.8660254,-0.8660254,0.5,388.08585,-128.34311)" />
  <linearGradient
     x1="226.15625"
     y1="117.1875"
     x2="372.40466"
     y2="117.17473"
     id="linearGradient3202"
     xlink:href="#linearGradient4136"
     gradientUnits="userSpaceOnUse"
     gradientTransform="matrix(-0.5,0.8660254,-0.8660254,-0.5,687.36703,178.57217)" />
  <radialGradient
     cx="273.73438"
     cy="284.3125"
     r="213.82812"
     fx="273.73438"
     fy="284.3125"
     id="radialGradient3989"
     xlink:href="#linearGradient3991"
     gradientUnits="userSpaceOnUse"
     gradientTransform="matrix(0.41249463,0,0,0.41246811,159.00792,167.01138)" />
  <path d="M 220.59375,0 164.1875,97.71875 51.34375,97.75 0,186.65625 56.40625,284.3125 0,382.0625 l 51.34375,88.90625 112.84375,0 56.40625,97.65625 102.6875,0 56.40625,-97.71875 112.8438,-0.0312 51.3437,-88.90625 -56.375,-97.59375 56.4063,-97.75 -51.3438,-88.90625 -112.84375,0 L 323.28125,5e-5 z"/>
  <path
     d="m 227.09375,206.59375 -44.8125,77.6875 44.8125,77.6875 89.6875,0 44.84375,-77.6875 -44.84375,-77.65625 z"
     style="fill:#ffffff;fill-opacity:0.25;filter:url(#filter3711)"/>
  <path
     d="m 260.30527,44.07121 c -15.08202,17.49006 -23.6875,74.375 -23.6875,74.8 l -22.71875,-46.625 -15.09375,22.71875 28.96875,65.59375 -0.6875,46.5625 44.84375,77.6875 44.84375,-77.6875 -0.6875,-46.5625 28.96875,-65.59375 -15.125,-22.71875 -22.71875,46.625 c 0,0 -8.57423,-56.88494 -23.65625,-74.375 -0.3121,-0.0195 -23.25,0 -23.25,0 z"
     style="fill:url(#linearGradient6400)"/>
  <path
     d="M 474.13385,154.13389 C 451.446,149.8175 397.87946,170.8074 397.87946,170.8074 l 29.01906,-42.98751 -27.22189,-1.5 -42.32148,57.88457 -40.66805,22.68585 -44.85755,77.67954 89.70122,-0.008 39.98056,-23.87665 71.29023,-7.7092 12.11251,-24.458 -51.73781,3.63748 c 0,0 44.97669,-35.86797 52.58252,-57.67441 -0.13914,-0.28006 -11.625,-20.13509 -11.625,-20.13509 z"
     style="fill:url(#linearGradient3200)"/>
  <path
     d="m 485.75878,394.33042 c -7.60583,-21.80644 -52.56689,-57.70148 -52.56689,-57.70148 l 51.73781,3.63749 -12.12814,-24.43095 -71.29023,-7.7092 -39.98056,-23.87664 -89.70122,-0.008 44.85747,77.67957 40.66806,22.68586 42.32148,57.88455 27.23751,-1.73926 -29.01906,-42.98752 c 0,0 53.55092,21.01697 76.23877,16.70059 0.17296,-0.26052 11.625,-20.13509 11.625,-20.13509 z"
     style="fill:url(#linearGradient3202)"/>
  <path
     d="m 283.55527,524.49621 c 15.08202,-17.49006 23.6875,-74.375 23.6875,-74.5 l 22.71875,46.625 15.09375,-22.71875 -28.96875,-65.59375 0.6875,-46.5625 -44.84375,-77.6875 -44.84375,77.6875 0.6875,46.5625 -28.96875,65.59375 15.125,22.71875 22.71875,-46.625 c 0,0 8.57423,56.88494 23.65625,74.375 0.3121,0.0195 23.25,0 23.25,0 z"
     style="fill:url(#linearGradient3194)"/>
  <path
     d="m 69.72676,414.46543 c 22.68785,4.31638 76.25439,-16.67352 76.25439,-16.67352 l -29.01906,42.98751 27.22189,1.7122 42.32148,-57.88455 40.66806,-22.68586 44.85747,-77.67957 -89.70122,0.008 -39.98056,23.87664 -71.29023,7.7092 -12.11251,24.45801 51.73781,-3.63748 c 0,0 -44.97669,35.86797 -52.58252,57.67441 0.13914,0.28005 11.625,20.13509 11.625,20.13509 z"
     style="fill:url(#linearGradient3196)"/>
  <path
     d="m 58.10176,174.237 c 7.60583,21.80644 52.56689,57.70148 52.56689,57.70148 l -51.73781,-3.4 12.12814,24.43095 71.29023,7.7092 39.98056,23.87664 89.70122,0.008 -44.85747,-77.67957 -40.66806,-22.68586 -42.32148,-57.88455 -27.23751,1.73926 29.01906,42.98752 c 0,0 -53.55092,-21.01697 -76.23877,-16.70059 -0.17296,0.26052 -11.625,20.13509 -11.625,20.13509 z"
     style="fill:url(#linearGradient3198)"/>
  <path
     d="m 260.3125,44.0625 c -15.08202,17.49006 -23.6875,74.375 -23.6875,74.375 l -22.71875,-46.625 -15.09375,22.71875 28.96875,65.59375 -0.6875,46.46875 -40.59375,-22.625 -42.3125,-57.90625 -27.25,1.75 29.03125,43 c 0,0 -53.56215,-21.03513 -76.25,-16.71875 -0.17296,0.26052 -11.625,20.15625 -11.625,20.15625 7.60583,21.80644 52.5625,57.6875 52.5625,57.6875 l -51.71875,-3.625 12.125,24.40625 71.28125,7.71875 39.9375,23.84375 -39.9375,23.84375 -71.28125,7.71875 -12.125,24.4375 51.75,-3.625 c 0,0 -44.98792,35.88106 -52.59375,57.6875 0.13914,0.28005 11.625,20.125 11.625,20.125 22.68785,4.31638 76.25,-16.6875 76.25,-16.6875 l -29,43 27.21875,1.71875 42.3125,-57.90625 40.59375,-22.625 0.6875,46.46875 -28.96875,65.59375 15.125,22.71875 22.71875,-46.625 c 0,0 8.57423,56.88494 23.65625,74.375 0.3121,0.0195 23.25,0 23.25,0 15.08202,-17.49006 23.6875,-74.375 23.6875,-74.375 l 22.71875,46.625 15.09375,-22.71875 -28.96875,-65.59375 0.6875,-46.46875 40.5625,22.625 42.34375,57.90625 27.21875,-1.75 -29,-43 c 0,0 53.5309,21.03513 76.21875,16.71875 0.17296,-0.26052 11.625,-20.125 11.625,-20.125 C 478.14417,372.53731 433.1875,336.625 433.1875,336.625 l 51.75,3.65625 -12.125,-24.4375 L 401.5,308.125 361.625,284.28125 401.5,260.46875 472.8125,252.75 l 12.09375,-24.4375 -51.71875,3.625 c 0,0 44.95667,-35.84981 52.5625,-57.65625 -0.13914,-0.28006 -11.625,-20.15625 -11.625,-20.15625 -22.68785,-4.31639 -76.25,16.6875 -76.25,16.6875 l 29.03125,-43 L 399.6875,126.09375 357.34375,184 l -40.5625,22.625 -0.6875,-46.5 28.96875,-65.59375 -15.125,-22.71875 -22.71875,46.625 c 0,0 -8.57423,-56.88494 -23.65625,-74.375 -0.3121,-0.0195 -23.25,0 -23.25,0 z"
     style="fill:url(#radialGradient3989);filter:url(#filter3715)"/>
</svg>