<?xml version="1.0" encoding="utf-8"?><svg version="1.1" id="Layer_1" xmlns="http://www.w3.org/2000/svg" xmlns:xlink="http://www.w3.org/1999/xlink" x="0px" y="0px"
	 width="66.519px" height="50px"  >
<g id="Layer_1_4_">
	<path d="M62.323,23.241c-0.267-0.17-0.521-0.332-0.775-0.488c1.288-0.84,2.336-1.669,3.204-2.529l1.767-1.751l-2.234-1.092
		c-0.806-0.394-1.579-0.683-2.361-0.923c1.413-1.827,2.455-3.839,3.262-6.255l0.874-2.617l-2.743,0.302
		c-4.12,0.455-6.785,1.504-8.731,2.27c-1.032,0.406-1.852,0.729-2.382,0.747c-0.035-0.004-0.302-0.053-0.884-0.574
		c-0.566-0.507-1.17-1.229-1.754-1.926c-0.405-0.483-0.823-0.983-1.237-1.421C42.861,1.212,37.116,0,33.259,0
		s-9.602,1.212-15.066,6.983c-0.414,0.438-0.833,0.938-1.238,1.421c-0.584,0.698-1.188,1.419-1.753,1.927
		c-0.582,0.521-0.849,0.569-0.885,0.573c-0.53-0.018-1.349-0.341-2.382-0.747c-1.946-0.766-4.61-1.814-8.731-2.269L0.46,7.586
		l0.874,2.617c0.807,2.416,1.849,4.428,3.262,6.256c-0.782,0.239-1.556,0.528-2.361,0.923L0,18.474l1.767,1.75
		c0.869,0.86,1.916,1.689,3.204,2.529c-0.254,0.156-0.508,0.317-0.775,0.488c-0.12,0.075-0.243,0.154-0.371,0.234l-2.59,1.638
		l2.715,1.421c2.047,1.071,3.701,1.716,5.68,2.143c-0.071,0.101-0.144,0.204-0.218,0.312l-1.682,2.423l2.931,0.339
		c1.622,0.187,2.815,0.263,4.118,0.263c1.128,0,2.322-0.057,4.002-0.155c0.211-0.013,0.421-0.02,0.624-0.02
		c1.829,0,3.243,0.516,3.98,1.451c0.883,1.12,0.738,2.728,0.461,3.878l-0.171,0.711l0.381,0.624l3.319,5.43l0,0l2.184,3.572
		c0.271,0.442,0.563,0.824,0.874,1.148h5.654c0.31-0.324,0.603-0.706,0.873-1.148l0.448-0.732c0-0.001,0.001-0.003,0.002-0.004
		l0.001-0.002l1.732-2.834l0,0l3.319-5.43l0.381-0.624l-0.171-0.711c-0.277-1.15-0.421-2.758,0.462-3.878
		c0.737-0.936,2.15-1.451,3.979-1.451c0.203,0,0.413,0.007,0.624,0.02c1.681,0.099,2.874,0.155,4.002,0.155
		c1.303,0,2.496-0.076,4.118-0.263l2.931-0.339l-1.682-2.423c-0.074-0.107-0.146-0.211-0.219-0.312
		c1.979-0.428,3.634-1.071,5.681-2.143l2.714-1.421l-2.589-1.638C62.566,23.396,62.443,23.317,62.323,23.241z"/>
	
		<linearGradient id="SVGID_2_" gradientUnits="userSpaceOnUse" x1="29.4795" y1="200.5596" x2="50.5126" y2="240.1172" gradientTransform="matrix(1 0 0 -1 -8.3599 239.0547)">
		<stop  offset="0.1" style="stop-color:#bf331c"/>
		<stop  offset="0.5" style="stop-color:#f6b91d"/>
		<stop  offset="0.9" style="stop-color:#bf331c"/>
	</linearGradient>
	<path fill="url(#SVGID_2_)" d="M20.744,23.292c-1.785-2.12-2.851-4.753-2.851-7.044c0-0.521,0.042-1.049,0.124-1.566l0.059-0.372
		l0.246-0.285c1.601-1.856,4.061-3.348,7.115-4.313l2.951-0.933l-1.362,2.779c-0.426,0.867-0.641,1.795-0.641,2.76
		c0,3.606,3.083,6.54,6.873,6.54c3.791,0,6.874-2.934,6.874-6.54c0-0.965-0.216-1.893-0.641-2.76L38.13,8.779l2.951,0.933
		c3.055,0.965,5.515,2.456,7.115,4.313l0.246,0.285l0.059,0.372c0.082,0.518,0.124,1.045,0.124,1.566
		c0,2.291-1.065,4.924-2.851,7.044c-1.464,1.738-4.073,3.911-8.363,4.8v14.652l3.19-5.221c-0.509-2.239-0.204-4.15,0.885-5.533
		c1.16-1.472,3.106-2.25,5.628-2.25c0.244,0,0.495,0.008,0.748,0.022c1.641,0.097,2.802,0.152,3.878,0.152
		c1.065,0,2.06-0.056,3.321-0.188c-0.572-0.789-1.072-1.354-1.908-2.043l-0.609-0.503l0.785-0.083
		c3.276-0.344,5.179-0.864,7.756-2.16c-1.065-0.677-1.874-1.178-3.377-1.74l-0.687-0.257l0.646-0.345
		c2.313-1.236,4-2.367,5.263-3.532c-1.314-0.583-2.579-0.882-4.14-1.25l-0.195-0.046L58.01,17.63l0.431-0.421
		c2.129-2.076,3.556-4.305,4.583-7.173c-3.55,0.452-5.919,1.384-7.671,2.074c-1.247,0.49-2.231,0.878-3.141,0.893
		c-1.533,0-2.918-1.652-4.256-3.252c-0.402-0.48-0.782-0.935-1.152-1.325c-4.952-5.23-10.099-6.328-13.545-6.328
		c-3.445,0-8.592,1.098-13.544,6.328c-0.37,0.391-0.75,0.845-1.152,1.325c-1.339,1.599-2.723,3.252-4.25,3.252
		c-0.915-0.016-1.899-0.403-3.146-0.894c-1.752-0.689-4.121-1.622-7.672-2.074c1.027,2.868,2.455,5.098,4.583,7.174l0.432,0.42
		l-0.587,0.139l-0.196,0.047c-1.56,0.368-2.824,0.666-4.138,1.25c1.262,1.164,2.949,2.296,5.262,3.531l0.646,0.346l-0.687,0.257
		c-1.502,0.563-2.311,1.063-3.377,1.74c2.577,1.296,4.48,1.815,7.757,2.16l0.785,0.083l-0.609,0.502
		c-0.836,0.69-1.336,1.254-1.908,2.043c1.262,0.133,2.255,0.188,3.32,0.188c1.077,0,2.237-0.056,3.879-0.152
		c0.252-0.015,0.503-0.022,0.747-0.022c2.522,0,4.468,0.778,5.628,2.25c1.089,1.382,1.394,3.293,0.885,5.533l3.19,5.22V28.092
		C24.817,27.203,22.208,25.03,20.744,23.292z"/>
	<path fill="#FFFFFF" d="M47.192,14.89c-1.431-1.66-3.712-3.03-6.511-3.914c0.497,1.015,0.776,2.147,0.776,3.343
		c0,4.344-3.671,7.864-8.199,7.864c-4.527,0-8.198-3.521-8.198-7.864c0-1.195,0.278-2.328,0.776-3.343
		c-2.8,0.884-5.08,2.254-6.511,3.914c-0.071,0.445-0.108,0.898-0.108,1.358c0,3.372,3.034,9.559,11.214,10.731v21.673
		c1.715,1.797,3.94,1.797,5.654,0V26.979C44.267,25.808,47.3,19.62,47.3,16.248C47.3,15.788,47.264,15.335,47.192,14.89z"/>
</g>
</svg>
