<?xml version="1.0" encoding="UTF-8" standalone="no"?>
<svg
   xmlns="http://www.w3.org/2000/svg"
   xmlns:xlink="http://www.w3.org/1999/xlink"
   version="1.1"
   width="33.500172"
   height="33">
    <linearGradient
       id="linearGradient3848">
		<stop style="stop-color:#536e78" offset="0" />
		<stop style="stop-color:#99aebc" offset="0.30000299" />
		<stop style="stop-color:#d9eaf3" offset="0.5" />
		<stop style="stop-color:#99aebc" offset="0.69999701" />
		<stop style="stop-color:#536e78" offset="1" />
    </linearGradient>
    <linearGradient
       x1="0.86276329"
       y1="14.450589"
       x2="32.750088"
       y2="14.4375"
       id="linearGradient3854"
       xlink:href="#linearGradient3848"
       gradientUnits="userSpaceOnUse" />
  <path d="m 9.4688358,0 -0.1875,2.125 c -0.309269,3.593644 -2.374575,5.301241 -4.5625,6.8125 -1.093963,0.755629 -2.191493,1.422717 -3.09375,2.25 -0.90225698,0.827283 -1.61431898,1.901 -1.624999981162,3.25 C -0.01041418,15.764142 0.94382482,16.833996 2.1875858,18 c 1.243761,1.166004 2.871536,2.409529 4.625,3.78125 3.5069282,2.743442 7.4162912,6.011398 9.2500002,9.8125 l 0.6875,1.40625 0.6875,-1.40625 c 1.833709,-3.801102 5.743072,-7.069058 9.25,-9.8125 1.753464,-1.371721 3.381239,-2.615246 4.625,-3.78125 1.243761,-1.166004 2.198002,-2.235858 2.1875,-3.5625 -0.01068,-1.349 -0.722743,-2.422717 -1.625,-3.25 -0.902257,-0.827283 -1.999787,-1.494371 -3.09375,-2.25 C 26.593411,7.426241 24.528105,5.718644 24.218836,2.125 L 24.031336,0 l -1.1875,1.78125 c -1.131649,1.67793 -1.399355,3.299416 -1.09375,4.75 0.305605,1.450584 1.140842,2.70245 2.0625,3.75 0.921658,1.04755 1.949672,1.9317 2.71875,2.65625 0.384539,0.362275 0.709835,0.685031 0.90625,0.9375 0.196415,0.252469 0.219054,0.400634 0.21875,0.375 -8.67e-4,-0.07302 -0.0434,0.145721 -0.28125,0.4375 -0.237848,0.291779 -0.614681,0.658326 -1.09375,1.0625 -0.958138,0.808348 -2.310072,1.750107 -3.6875,2.6875 -1.377428,0.937393 -2.77268,1.873322 -3.9375,2.6875 -0.873984,0.610892 -1.405515,1.066026 -1.90625,1.5625 -0.500735,-0.496474 -1.032266,-0.951608 -1.90625,-1.5625 -1.16482,-0.814178 -2.560072,-1.750107 -3.9375,-2.6875 C 9.5289078,17.500107 8.1769738,16.558348 7.2188358,15.75 c -0.479069,-0.404174 -0.855902,-0.770721 -1.09375,-1.0625 -0.237848,-0.291779 -0.280383,-0.510517 -0.28125,-0.4375 -3.04e-4,0.02563 0.02234,-0.122531 0.21875,-0.375 0.196415,-0.252469 0.521711,-0.575225 0.90625,-0.9375 0.769078,-0.72455 1.797092,-1.6087 2.71875,-2.65625 0.9216582,-1.04755 1.7568952,-2.299416 2.0625002,-3.75 0.305605,-1.450584 0.0379,-3.07207 -1.09375,-4.75 z m 7.2812502,0.15625 -0.6875,1.75 -4.625,11.65625 -0.1875,0.46875 0.34375,0.34375 4.625,4.5625 0.53125,0.53125 0.53125,-0.53125 4.625,-4.5625 0.34375,-0.34375 -0.1875,-0.46875 -4.625,-11.65625 z m 0,4.03125 3.75,9.46875 -3.75,3.6875 -3.75,-3.6875 z"/>
  <path
     d="m 10.031336,2.1875 c -0.6657022,7.735331 -9.24619918,7.822921 -9.28125018,12.25 -0.0287,3.625459 12.12103118,8.803023 16.00000018,16.84375 3.878969,-8.040727 16.0287,-13.218291 16,-16.84375 -0.03505,-4.427079 -8.615548,-4.514669 -9.28125,-12.25 -4.162856,6.172391 4.91346,10.037885 4.9375,12.0625 0.02404,2.024615 -10.474299,7.695409 -11.65625,9.40625 C 15.568135,21.945409 5.0697948,16.274615 5.0938358,14.25 5.1178758,12.225385 14.194192,8.359891 10.031336,2.1875 z m 6.71875,0 -4.625,11.65625 4.625,4.5625 4.625,-4.5625 -4.625,-11.65625 z"
     style="fill:url(#linearGradient3854)"/>
</svg>
