<?xml version="1.0" encoding="UTF-8" ?>

<svg width="400pt" height="400pt" viewBox="0 0 400 400" version="1.1" xmlns="http://www.w3.org/2000/svg">
<g id="#00a6e1ff">
<path fill="#00a6e1"  d=" M 214.91 35.72 C 220.48 23.77 229.58 12.96 241.98 7.82 C 237.94 20.12 236.81 33.26 238.71 46.07 C 231.79 40.63 223.59 37.15 214.91 35.72 M 220.47 33.01 C 225.24 34.33 229.90 36.06 234.25 38.45 C 234.02 30.72 234.27 22.96 235.93 15.39 C 229.42 19.92 224.40 26.19 220.47 33.01 Z" />
<path fill="#00a6e1"  d=" M 158.27 7.78 C 170.65 12.98 179.80 23.76 185.36 35.74 C 176.66 37.14 168.45 40.63 161.52 46.10 C 163.45 33.28 162.35 20.09 158.27 7.78 M 164.31 15.40 C 165.97 22.96 166.33 30.72 166.08 38.44 C 170.39 36.01 175.06 34.33 179.83 33.06 C 175.86 26.24 170.89 19.88 164.31 15.40 Z" />
<path fill="#00a6e1"  d=" M 77.77 17.80 C 79.58 15.66 81.62 13.75 83.79 12.00 C 89.39 24.53 97.58 35.92 108.01 44.88 C 113.16 49.62 119.67 52.48 126.05 55.14 C 133.62 58.25 141.99 57.26 149.94 56.85 C 139.98 68.93 133.41 83.44 128.97 98.35 C 122.58 84.50 110.58 72.51 95.73 68.19 C 84.87 66.04 72.82 67.11 63.38 73.28 C 46.81 84.09 35.80 101.19 26.94 118.48 C 27.24 112.63 28.70 106.94 30.23 101.32 C 33.58 89.42 38.12 77.86 43.63 66.81 C 53.08 49.23 64.78 32.92 77.77 17.80 M 47.49 67.55 C 42.92 76.46 39.09 85.75 35.99 95.27 C 40.65 89.84 44.68 83.81 50.06 79.03 C 53.96 75.57 57.96 72.16 62.43 69.44 C 72.07 63.54 83.98 62.49 94.96 64.18 C 107.52 66.84 118.05 75.46 125.65 85.51 C 126.41 86.46 127.22 87.42 128.28 88.05 C 132.02 78.63 136.33 69.41 142.00 60.97 C 136.33 61.01 130.48 60.99 125.15 58.79 C 117.93 55.88 110.63 52.57 104.91 47.15 C 95.58 39.07 88.24 28.98 82.40 18.16 C 69.17 33.41 57.14 49.79 47.49 67.55 Z" />
<path fill="#00a6e1"  d=" M 297.67 39.82 C 305.69 31.81 311.81 22.12 316.64 11.92 C 322.09 16.64 326.36 22.49 330.95 28.00 C 340.61 40.34 349.50 53.33 356.85 67.18 C 363.40 80.49 368.68 94.49 371.98 108.97 C 372.71 111.96 373.00 115.03 373.05 118.11 C 364.40 100.84 353.25 83.96 336.81 73.22 C 329.24 68.17 319.88 66.79 310.96 67.29 C 302.44 67.55 294.53 71.65 288.04 76.94 C 280.97 82.77 274.92 90.02 271.22 98.46 C 267.03 83.44 260.25 68.94 250.31 56.85 C 255.19 57.20 260.09 57.43 264.98 57.21 C 271.71 56.86 277.81 53.74 283.70 50.75 C 289.10 48.19 293.43 43.94 297.67 39.82 M 290.87 50.82 C 286.12 54.13 280.78 56.51 275.44 58.68 C 270.03 60.92 264.10 61.05 258.34 61.11 C 264.07 69.68 268.61 79.00 272.12 88.68 C 280.19 77.41 291.26 67.20 305.18 64.21 C 315.65 62.57 326.96 63.39 336.38 68.60 C 347.69 75.01 356.40 84.90 364.12 95.16 C 355.40 66.07 337.39 40.88 317.80 18.10 C 311.25 30.72 302.26 42.22 290.87 50.82 Z" />
<path fill="#00a6e1"  d=" M 191.40 55.79 C 202.97 53.30 215.32 56.24 224.99 62.93 C 237.46 71.47 246.03 84.71 251.15 98.75 C 258.62 119.52 259.29 142.62 253.46 163.88 C 249.33 178.67 241.77 192.88 230.06 203.04 C 221.56 210.49 210.42 215.29 198.99 214.89 C 185.31 214.79 172.65 207.29 163.82 197.19 C 150.93 182.53 144.43 163.15 142.83 143.91 C 141.13 121.76 145.66 98.63 158.14 80.01 C 165.91 68.42 177.48 58.67 191.40 55.79 M 191.44 59.61 C 178.49 62.55 167.95 71.91 160.80 82.76 C 149.29 100.33 145.08 121.94 146.49 142.70 C 147.76 159.77 152.98 176.88 163.32 190.69 C 170.42 200.11 180.35 207.99 192.11 210.39 C 202.94 212.82 214.50 209.82 223.45 203.45 C 235.46 195.01 243.45 181.93 248.20 168.24 C 255.25 147.40 255.40 124.29 248.76 103.32 C 244.19 89.24 236.24 75.75 224.14 66.89 C 214.89 60.06 202.74 56.89 191.44 59.61 Z" />
<path fill="#00a6e1"  d=" M 100.41 134.47 C 110.20 128.99 119.98 122.47 126.01 112.76 C 124.39 125.30 122.94 138.02 124.88 150.61 C 118.68 148.69 111.79 149.22 106.11 152.42 C 91.72 160.13 81.77 174.38 76.49 189.55 C 73.06 199.34 71.49 209.68 70.65 219.99 C 69.78 232.39 71.34 244.78 72.60 257.10 C 64.59 237.36 59.59 216.54 56.28 195.52 C 54.33 180.76 51.45 165.97 52.24 151.02 C 68.91 147.62 85.50 142.83 100.41 134.47 M 55.73 154.06 C 55.78 168.88 58.40 183.51 60.48 198.15 C 62.15 207.60 63.93 217.06 66.47 226.33 C 67.03 218.24 67.64 210.13 69.25 202.17 C 72.34 185.70 79.71 169.68 91.98 158.04 C 99.62 150.79 109.56 144.72 120.52 145.76 C 120.03 138.82 120.23 131.86 120.83 124.94 C 102.48 140.69 79.17 149.36 55.73 154.06 Z" />
<path fill="#00a6e1"  d=" M 274.25 112.64 C 279.92 121.94 289.14 128.27 298.39 133.62 C 313.73 142.48 330.91 147.53 348.18 151.05 C 348.86 166.49 345.86 181.75 343.85 197.00 C 340.54 216.74 336.06 236.42 328.48 255.01 C 328.21 255.77 327.70 256.42 327.04 256.87 C 327.28 256.16 327.78 254.75 328.02 254.04 C 330.94 232.26 330.98 209.53 323.52 188.59 C 318.18 173.87 308.41 160.09 294.42 152.52 C 288.70 149.27 281.72 148.64 275.45 150.60 C 277.35 137.98 276.02 125.20 274.25 112.64 M 279.49 124.95 C 280.08 131.85 280.48 138.79 279.73 145.70 C 294.15 144.61 306.28 154.61 314.84 165.15 C 328.66 182.27 332.89 204.79 333.83 226.23 C 336.57 216.67 338.32 206.85 340.04 197.07 C 342.00 182.80 344.61 168.54 344.59 154.08 C 321.16 149.31 297.85 140.69 279.49 124.95 Z" />
<path fill="#00a6e1"  d=" M 195.42 116.67 C 208.12 115.06 220.65 120.01 231.14 126.80 C 237.55 131.26 243.97 136.60 247.01 144.00 C 249.19 149.71 244.97 155.27 241.52 159.47 C 228.88 172.92 209.51 180.29 191.14 177.36 C 178.10 175.37 166.70 167.60 157.72 158.25 C 154.19 154.59 151.37 149.25 153.25 144.11 C 155.39 138.49 159.88 134.16 164.35 130.33 C 173.29 123.23 184.03 118.09 195.42 116.67 M 194.06 132.03 C 191.24 134.05 187.65 135.91 187.15 139.74 L 186.02 139.36 C 186.25 139.93 186.71 141.08 186.94 141.66 L 185.49 141.39 C 185.50 144.45 185.50 147.50 185.51 150.56 L 186.93 150.36 C 186.71 150.92 186.28 152.03 186.06 152.59 L 187.86 152.29 C 187.69 152.85 187.33 153.96 187.15 154.52 L 188.04 154.42 C 189.36 156.55 191.10 158.54 193.75 158.86 L 193.37 159.98 C 193.94 159.75 195.09 159.29 195.67 159.06 L 195.37 160.51 C 198.90 160.59 202.46 160.61 205.95 160.00 C 208.67 158.23 211.35 156.31 212.95 153.41 L 213.86 153.51 C 213.67 152.97 213.29 151.89 213.10 151.36 L 214.52 151.57 C 214.51 147.84 214.50 144.11 214.54 140.38 L 213.88 140.74 C 212.71 136.66 209.30 133.44 205.33 132.09 L 205.56 131.50 C 201.72 131.45 197.84 131.27 194.06 132.03 Z" />
<path fill="#00a6e1"  d=" M 128.86 172.70 C 132.91 186.75 138.10 200.86 147.10 212.56 C 144.81 213.13 142.03 213.35 140.65 215.56 C 136.75 220.85 137.43 227.77 137.70 233.95 C 139.20 254.78 142.32 275.45 145.63 296.06 C 147.77 308.67 150.14 321.29 154.18 333.45 C 160.15 351.91 166.26 370.33 173.11 388.48 C 163.42 377.40 156.13 364.46 149.57 351.36 C 134.77 322.89 123.08 292.94 112.18 262.79 C 106.93 247.90 101.20 233.12 97.23 217.81 C 107.49 210.13 118.77 202.45 124.59 190.63 C 127.24 185.01 128.26 178.82 128.86 172.70 M 101.36 219.60 C 109.46 245.19 118.74 270.40 128.47 295.42 C 137.40 317.89 147.36 339.98 158.95 361.21 C 156.58 351.13 152.52 341.54 149.66 331.60 C 144.61 315.10 142.10 297.96 139.46 280.95 C 136.99 263.39 134.31 245.80 133.74 228.06 C 133.37 221.43 135.44 214.50 140.70 210.15 C 136.27 203.24 132.81 195.77 129.88 188.12 C 124.77 201.93 112.64 211.01 101.36 219.60 Z" />
<path fill="#00a6e1"  d=" M 253.31 212.57 C 262.23 200.76 267.78 186.67 271.43 172.42 C 272.32 180.67 273.98 189.19 278.95 196.04 C 285.42 204.91 294.45 211.38 303.19 217.83 C 301.13 226.16 298.26 234.27 295.49 242.38 C 280.75 284.41 265.18 326.41 243.39 365.38 C 238.56 373.56 233.39 381.60 227.15 388.80 C 234.73 368.80 241.45 348.48 247.90 328.10 C 252.93 310.40 255.47 292.13 258.17 273.97 C 260.16 259.34 262.29 244.69 262.85 229.92 C 263.05 224.71 262.82 218.84 259.06 214.81 C 257.61 213.17 255.25 213.16 253.31 212.57 M 270.51 188.07 C 267.63 195.74 264.16 203.21 259.72 210.10 C 264.26 214.05 266.73 219.92 266.62 225.92 C 266.62 239.95 264.57 253.89 262.80 267.79 C 259.30 291.85 256.29 316.22 248.28 339.30 C 245.99 346.71 243.20 353.97 241.08 361.43 C 246.52 352.50 250.85 342.94 255.50 333.59 C 269.37 303.97 280.70 273.24 291.51 242.40 C 294.13 234.76 296.83 227.15 298.95 219.36 C 287.53 211.04 275.64 201.76 270.51 188.07 Z" />
</g>
<g id="#103287fe">
<path fill="#103287"  d=" M 164.31 15.40 C 170.89 19.88 175.86 26.24 179.83 33.06 C 175.06 34.33 170.39 36.01 166.08 38.44 C 166.33 30.72 165.97 22.96 164.31 15.40 M 168.17 21.67 C 168.41 25.79 168.61 29.90 168.68 34.03 C 171.12 33.15 173.56 32.28 176.01 31.41 C 173.60 28.00 170.99 24.74 168.17 21.67 Z" />
<path fill="#103287"  d=" M 220.47 33.01 C 224.40 26.19 229.42 19.92 235.93 15.39 C 234.27 22.96 234.02 30.72 234.25 38.45 C 229.90 36.06 225.24 34.33 220.47 33.01 M 224.28 31.40 C 226.71 32.29 229.15 33.18 231.58 34.08 C 231.66 29.97 231.83 25.87 232.07 21.77 C 229.21 24.75 226.65 28.01 224.28 31.40 Z" />
<path fill="#103287"  d=" M 47.49 67.55 C 57.14 49.79 69.17 33.41 82.40 18.16 C 88.24 28.98 95.58 39.07 104.91 47.15 C 110.63 52.57 117.93 55.88 125.15 58.79 C 130.48 60.99 136.33 61.01 142.00 60.97 C 136.33 69.41 132.02 78.63 128.28 88.05 C 127.22 87.42 126.41 86.46 125.65 85.51 C 118.05 75.46 107.52 66.84 94.96 64.18 C 83.98 62.49 72.07 63.54 62.43 69.44 C 57.96 72.16 53.96 75.57 50.06 79.03 C 44.68 83.81 40.65 89.84 35.99 95.27 C 39.09 85.75 42.92 76.46 47.49 67.55 M 52.58 63.60 C 49.24 69.22 46.45 75.15 43.93 81.17 C 49.97 75.79 55.86 70.04 63.04 66.18 C 72.72 60.97 84.18 60.10 94.90 61.59 C 108.14 64.09 119.13 73.12 127.36 83.39 C 130.25 76.62 133.49 70.00 137.19 63.63 C 127.04 63.48 117.73 58.84 109.20 53.78 C 97.89 45.67 88.86 34.67 82.01 22.62 C 70.95 35.33 61.11 49.09 52.58 63.60 Z" />
<path fill="#103287"  d=" M 290.87 50.82 C 302.26 42.22 311.25 30.72 317.80 18.10 C 337.39 40.88 355.40 66.07 364.12 95.16 C 356.40 84.90 347.69 75.01 336.38 68.60 C 326.96 63.39 315.65 62.57 305.18 64.21 C 291.26 67.20 280.19 77.41 272.12 88.68 C 268.61 79.00 264.07 69.68 258.34 61.11 C 264.10 61.05 270.03 60.92 275.44 58.68 C 280.78 56.51 286.12 54.13 290.87 50.82 M 318.26 22.61 C 314.18 29.79 309.43 36.61 303.72 42.58 C 298.41 48.09 292.76 53.53 285.74 56.80 C 278.69 60.52 271.11 63.58 263.01 63.63 C 266.82 69.81 269.81 76.41 272.76 83.03 C 275.89 80.41 278.26 77.02 281.35 74.37 C 288.99 67.46 298.47 61.91 308.93 61.16 C 317.46 60.53 326.29 61.23 334.20 64.70 C 342.65 68.41 349.44 74.87 356.13 81.06 C 352.87 72.18 348.10 63.96 343.07 55.99 C 335.63 44.27 327.40 33.06 318.26 22.61 Z" />
<path fill="#103287"  d=" M 191.44 59.61 C 202.74 56.89 214.89 60.06 224.14 66.89 C 236.24 75.75 244.19 89.24 248.76 103.32 C 255.40 124.29 255.25 147.40 248.20 168.24 C 243.45 181.93 235.46 195.01 223.45 203.45 C 214.50 209.82 202.94 212.82 192.11 210.39 C 180.35 207.99 170.42 200.11 163.32 190.69 C 152.98 176.88 147.76 159.77 146.49 142.70 C 145.08 121.94 149.29 100.33 160.80 82.76 C 167.95 71.91 178.49 62.55 191.44 59.61 M 166.33 81.46 C 153.64 98.40 149.12 120.20 150.00 141.03 C 154.57 134.04 160.38 127.83 167.48 123.38 C 180.40 114.84 196.75 109.98 212.07 114.11 C 227.10 118.22 241.37 127.04 249.82 140.39 C 250.72 117.07 244.67 92.18 227.97 75.10 C 219.96 66.99 208.68 61.47 197.08 62.55 C 184.53 63.55 173.66 71.62 166.33 81.46 M 195.42 116.67 C 184.03 118.09 173.29 123.23 164.35 130.33 C 159.88 134.16 155.39 138.49 153.25 144.11 C 151.37 149.25 154.19 154.59 157.72 158.25 C 166.70 167.60 178.10 175.37 191.14 177.36 C 209.51 180.29 228.88 172.92 241.52 159.47 C 244.97 155.27 249.19 149.71 247.01 144.00 C 243.97 136.60 237.55 131.26 231.14 126.80 C 220.65 120.01 208.12 115.06 195.42 116.67 M 152.72 158.56 C 155.42 170.00 160.35 181.02 167.74 190.21 C 174.75 198.97 184.73 205.96 196.09 207.23 C 206.97 208.60 217.86 204.01 225.83 196.77 C 236.78 186.86 243.54 173.07 247.06 158.89 C 233.15 175.67 210.13 185.09 188.51 180.71 C 174.33 177.98 162.36 168.93 152.72 158.56 Z" />
<path fill="#103287"  d=" M 55.73 154.06 C 79.17 149.36 102.48 140.69 120.83 124.94 C 120.23 131.86 120.03 138.82 120.52 145.76 C 109.56 144.72 99.62 150.79 91.98 158.04 C 79.71 169.68 72.34 185.70 69.25 202.17 C 67.64 210.13 67.03 218.24 66.47 226.33 C 63.93 217.06 62.15 207.60 60.48 198.15 C 58.40 183.51 55.78 168.88 55.73 154.06 M 58.18 156.20 C 59.16 174.30 61.80 192.29 65.33 210.05 C 67.64 192.73 73.37 175.37 84.88 161.92 C 93.15 152.15 104.42 143.46 117.72 143.01 C 117.64 138.92 117.66 134.83 117.82 130.74 C 100.36 143.94 79.42 151.61 58.18 156.20 Z" />
<path fill="#103287"  d=" M 279.49 124.95 C 297.85 140.69 321.16 149.31 344.59 154.08 C 344.61 168.54 342.00 182.80 340.04 197.07 C 338.32 206.85 336.57 216.67 333.83 226.23 C 332.89 204.79 328.66 182.27 314.84 165.15 C 306.28 154.61 294.15 144.61 279.73 145.70 C 280.48 138.79 280.08 131.85 279.49 124.95 M 282.57 130.88 C 282.61 134.91 282.62 138.95 282.61 142.99 C 295.83 143.47 307.06 152.06 315.33 161.74 C 326.91 175.22 332.70 192.66 335.00 210.05 C 337.32 200.15 338.42 190.03 339.94 179.99 C 341.13 172.10 341.74 164.13 342.11 156.16 C 320.90 151.67 300.10 143.86 282.57 130.88 Z" />
<path fill="#103287"  d=" M 101.36 219.60 C 112.64 211.01 124.77 201.93 129.88 188.12 C 132.81 195.77 136.27 203.24 140.70 210.15 C 135.44 214.50 133.37 221.43 133.74 228.06 C 134.31 245.80 136.99 263.39 139.46 280.95 C 142.10 297.96 144.61 315.10 149.66 331.60 C 152.52 341.54 156.58 351.13 158.95 361.21 C 147.36 339.98 137.40 317.89 128.47 295.42 C 118.74 270.40 109.46 245.19 101.36 219.60 M 129.70 194.80 C 123.70 205.54 113.84 213.23 104.27 220.62 C 110.29 239.29 116.94 257.76 123.78 276.15 C 130.77 294.78 138.12 313.31 146.76 331.24 C 142.13 314.48 139.32 297.31 136.78 280.13 C 134.38 262.82 131.73 245.48 131.20 227.99 C 130.90 221.37 132.84 214.67 137.26 209.65 C 134.56 204.79 132.05 199.83 129.70 194.80 Z" />
<path fill="#103287"  d=" M 270.51 188.07 C 275.64 201.76 287.53 211.04 298.95 219.36 C 296.83 227.15 294.13 234.76 291.51 242.40 C 280.70 273.24 269.37 303.97 255.50 333.59 C 250.85 342.94 246.52 352.50 241.08 361.43 C 243.20 353.97 245.99 346.71 248.28 339.30 C 256.29 316.22 259.30 291.85 262.80 267.79 C 264.57 253.89 266.62 239.95 266.62 225.92 C 266.73 219.92 264.26 214.05 259.72 210.10 C 264.16 203.21 267.63 195.74 270.51 188.07 M 270.60 194.74 C 268.39 199.84 265.85 204.78 263.11 209.61 C 267.00 214.19 269.26 220.01 269.18 226.05 C 269.19 237.30 267.75 248.49 266.43 259.65 C 263.13 283.96 260.04 308.42 253.35 332.09 C 262.93 311.76 271.26 290.87 278.98 269.78 C 284.92 253.41 291.05 237.08 296.03 220.38 C 286.29 213.26 276.70 205.35 270.60 194.74 Z" />
</g>
<g id="#070400ff">
<path fill="#070400"  d=" M 168.17 21.67 C 170.99 24.74 173.60 28.00 176.01 31.41 C 173.56 32.28 171.12 33.15 168.68 34.03 C 168.61 29.90 168.41 25.79 168.17 21.67 Z" />
<path fill="#070400"  d=" M 224.28 31.40 C 226.65 28.01 229.21 24.75 232.07 21.77 C 231.83 25.87 231.66 29.97 231.58 34.08 C 229.15 33.18 226.71 32.29 224.28 31.40 Z" />
<path fill="#070400"  d=" M 52.58 63.60 C 61.11 49.09 70.95 35.33 82.01 22.62 C 88.86 34.67 97.89 45.67 109.20 53.78 C 117.73 58.84 127.04 63.48 137.19 63.63 C 133.49 70.00 130.25 76.62 127.36 83.39 C 119.13 73.12 108.14 64.09 94.90 61.59 C 84.18 60.10 72.72 60.97 63.04 66.18 C 55.86 70.04 49.97 75.79 43.93 81.17 C 46.45 75.15 49.24 69.22 52.58 63.60 Z" />
<path fill="#070400"  d=" M 318.26 22.61 C 327.40 33.06 335.63 44.27 343.07 55.99 C 348.10 63.96 352.87 72.18 356.13 81.06 C 349.44 74.87 342.65 68.41 334.20 64.70 C 326.29 61.23 317.46 60.53 308.93 61.16 C 298.47 61.91 288.99 67.46 281.35 74.37 C 278.26 77.02 275.89 80.41 272.76 83.03 C 269.81 76.41 266.82 69.81 263.01 63.63 C 271.11 63.58 278.69 60.52 285.74 56.80 C 292.76 53.53 298.41 48.09 303.72 42.58 C 309.43 36.61 314.18 29.79 318.26 22.61 Z" />
<path fill="#070400"  d=" M 166.33 81.46 C 173.66 71.62 184.53 63.55 197.08 62.55 C 208.68 61.47 219.96 66.99 227.97 75.10 C 244.67 92.18 250.72 117.07 249.82 140.39 C 241.37 127.04 227.10 118.22 212.07 114.11 C 196.75 109.98 180.40 114.84 167.48 123.38 C 160.38 127.83 154.57 134.04 150.00 141.03 C 149.12 120.20 153.64 98.40 166.33 81.46 Z" />
<path fill="#070400"  d=" M 58.18 156.20 C 79.42 151.61 100.36 143.94 117.82 130.74 C 117.66 134.83 117.64 138.92 117.72 143.01 C 104.42 143.46 93.15 152.15 84.88 161.92 C 73.37 175.37 67.64 192.73 65.33 210.05 C 61.80 192.29 59.16 174.30 58.18 156.20 Z" />
<path fill="#070400"  d=" M 194.06 132.03 C 197.84 131.27 201.72 131.45 205.56 131.50 L 205.33 132.09 C 209.30 133.44 212.71 136.66 213.88 140.74 L 214.54 140.38 C 214.50 144.11 214.51 147.84 214.52 151.57 L 213.10 151.36 C 213.29 151.89 213.67 152.97 213.86 153.51 L 212.95 153.41 C 211.35 156.31 208.67 158.23 205.95 160.00 C 202.46 160.61 198.90 160.59 195.37 160.51 L 195.67 159.06 C 195.09 159.29 193.94 159.75 193.37 159.98 L 193.75 158.86 C 191.10 158.54 189.36 156.55 188.04 154.42 L 187.15 154.52 C 187.33 153.96 187.69 152.85 187.86 152.29 L 186.06 152.59 C 186.28 152.03 186.71 150.92 186.93 150.36 L 185.51 150.56 C 185.50 147.50 185.50 144.45 185.49 141.39 L 186.94 141.66 C 186.71 141.08 186.25 139.93 186.02 139.36 L 187.15 139.74 C 187.65 135.91 191.24 134.05 194.06 132.03 Z" />
<path fill="#070400"  d=" M 282.57 130.88 C 300.10 143.86 320.90 151.67 342.11 156.16 C 341.74 164.13 341.13 172.10 339.94 179.99 C 338.42 190.03 337.32 200.15 335.00 210.05 C 332.70 192.66 326.91 175.22 315.33 161.74 C 307.06 152.06 295.83 143.47 282.61 142.99 C 282.62 138.95 282.61 134.91 282.57 130.88 Z" />
<path fill="#070400"  d=" M 152.72 158.56 C 162.36 168.93 174.33 177.98 188.51 180.71 C 210.13 185.09 233.15 175.67 247.06 158.89 C 243.54 173.07 236.78 186.86 225.83 196.77 C 217.86 204.01 206.97 208.60 196.09 207.23 C 184.73 205.96 174.75 198.97 167.74 190.21 C 160.35 181.02 155.42 170.00 152.72 158.56 Z" />
<path fill="#070400"  d=" M 129.70 194.80 C 132.05 199.83 134.56 204.79 137.26 209.65 C 132.84 214.67 130.90 221.37 131.20 227.99 C 131.73 245.48 134.38 262.82 136.78 280.13 C 139.32 297.31 142.13 314.48 146.76 331.24 C 138.12 313.31 130.77 294.78 123.78 276.15 C 116.94 257.76 110.29 239.29 104.27 220.62 C 113.84 213.23 123.70 205.54 129.70 194.80 Z" />
<path fill="#070400"  d=" M 270.60 194.74 C 276.70 205.35 286.29 213.26 296.03 220.38 C 291.05 237.08 284.92 253.41 278.98 269.78 C 271.26 290.87 262.93 311.76 253.35 332.09 C 260.04 308.42 263.13 283.96 266.43 259.65 C 267.75 248.49 269.19 237.30 269.18 226.05 C 269.26 220.01 267.00 214.19 263.11 209.61 C 265.85 204.78 268.39 199.84 270.60 194.74 Z" />
</g>
</svg>
