<?xml version="1.0" encoding="UTF-8" standalone="no"?>
<!-- Generator: Adobe Illustrator 16.0.0, SVG Export Plug-In . SVG Version: 6.00 Build 0)  -->

<svg
   xmlns:dc="http://purl.org/dc/elements/1.1/"
   xmlns:cc="http://creativecommons.org/ns#"
   xmlns:rdf="http://www.w3.org/1999/02/22-rdf-syntax-ns#"
   xmlns:svg="http://www.w3.org/2000/svg"
   xmlns="http://www.w3.org/2000/svg"
   xmlns:sodipodi="http://sodipodi.sourceforge.net/DTD/sodipodi-0.dtd"
   xmlns:inkscape="http://www.inkscape.org/namespaces/inkscape"
   version="1.1"
   id="Layer_1"
   x="0px"
   y="0px"
   width="328.875px"
   height="426.762px"
   viewBox="0 0 328.875 426.762"
   enable-background="new 0 0 328.875 426.762"
   xml:space="preserve"
   sodipodi:docname="CM2_M.svg"
   inkscape:export-filename="C:\MTG\Pictures\Symbols\Expansion Symbols\G - Reprint and Starter Sets\Commander Anthology II\CM2_M.png"
   inkscape:export-xdpi="67.485237"
   inkscape:export-ydpi="67.485237"
   inkscape:version="0.92.2 (5c3e80d, 2017-08-06)"><metadata
     id="metadata117"><rdf:RDF><cc:Work
         rdf:about=""><dc:format>image/svg+xml</dc:format><dc:type
           rdf:resource="http://purl.org/dc/dcmitype/StillImage" /></cc:Work></rdf:RDF></metadata><defs
     id="defs115" /><sodipodi:namedview
     pagecolor="#ffffff"
     bordercolor="#666666"
     borderopacity="1"
     objecttolerance="10"
     gridtolerance="10"
     guidetolerance="10"
     inkscape:pageopacity="0"
     inkscape:pageshadow="2"
     inkscape:window-width="690"
     inkscape:window-height="480"
     id="namedview113"
     showgrid="false"
     inkscape:zoom="0.55300145"
     inkscape:cx="164.4375"
     inkscape:cy="213.381"
     inkscape:window-x="0"
     inkscape:window-y="0"
     inkscape:window-maximized="0"
     inkscape:current-layer="Layer_1" /><g
     id="g6"><path
       d="M52.324,0c0,0,30.984,4.471,38.604,5.241c20.79,1.67,41.649,2.78,62.521,2.54c17.279-0.1,34.569,0.311,51.84-0.471   c23.16-1.109,69.24-6.629,69.24-6.629l1.42-0.182l0.779,3.161c0,0,10.24,45.261,19.25,66.601c-3.93,0.26-12.47,1.279-12.47,1.279   c-6.09,0.59-12.319,1.801-17.63,4.95c-1.71,1.04-3.689,2.899-3.04,5.11c1.12,2.52,3.78,3.82,6.19,4.869   c6.359,2.531,13.199,3.531,19.989,4.121c13.25,0.91,27.126,0.049,39.856-4.061c0,14.25-0.877,43.82-0.896,44.18   c-0.32,3.18-0.56,6.37-0.77,9.561c-0.03,0.369-3.307,24.447-3.44,25.4c-6.28,37.819-17.13,74.909-32.771,109.92   c-15.59,34.979-35.84,68.039-61.209,96.799c-18.85,21.281-40.58,40.261-65.34,54.371c-6.09-3.431-11.9-7.33-17.83-11.01   c-12.211-9.301-24.2-18.941-34.94-29.951c-39.069-39.43-67.3-88.68-86.01-140.72c-10.16-27.93-17-56.96-21.69-86.28l-0.1-0.72   c-3.051-23.69-4.471-47.6-3.65-71.479c7.811,2.539,15.961,3.93,24.16,4.13c11.15,0.42,22.53-0.07,33.23-3.479   c3.17-1.121,6.77-2.49,8.39-5.681c0.59-3.08-2.62-4.899-4.92-6.08c-8.87-3.96-18.771-4.56-28.341-5.16   c8.851-20.94,15.57-42.89,18.98-65.38L52.324,0z"
       id="path2" /><path
       d="M141.785,24.771"
       id="path4" /></g><g
     id="g108"><linearGradient
       id="SVGID_1_"
       gradientUnits="userSpaceOnUse"
       x1="19.959"
       y1="84.6758"
       x2="304.9734"
       y2="84.6758"><stop
         offset="0"
         style="stop-color:#BF331C"
         id="stop8" /><stop
         offset="0.0958"
         style="stop-color:#D2551C"
         id="stop10" /><stop
         offset="0.1989"
         style="stop-color:#E1721D"
         id="stop12" /><stop
         offset="0.3015"
         style="stop-color:#ED861D"
         id="stop14" /><stop
         offset="0.4025"
         style="stop-color:#F4931D"
         id="stop16" /><stop
         offset="0.5"
         style="stop-color:#F6971D"
         id="stop18" /><stop
         offset="0.5975"
         style="stop-color:#F4931D"
         id="stop20" /><stop
         offset="0.6985"
         style="stop-color:#ED861D"
         id="stop22" /><stop
         offset="0.8011"
         style="stop-color:#E1721D"
         id="stop24" /><stop
         offset="0.9042"
         style="stop-color:#D2551C"
         id="stop26" /><stop
         offset="1"
         style="stop-color:#BF331C"
         id="stop28" /></linearGradient><path
       fill="url(#SVGID_1_)"
       d="M66.429,19.781c24.55,3.01,49.28,4.51,74.011,5c23-0.189,46.01,0.52,68.989-0.68   c17.72-0.75,35.42-2.16,53.03-4.33c2.56,12.25,5.939,24.32,9.91,36.189c-7.92,2.061-16.211,4.93-21.73,11.301   c-6.109,6.92-6.62,18.18-0.92,25.5c4.18,5.549,10.68,8.729,17.12,10.879c9.29,3.051,19.12,3.781,28.819,4.261   c-13.449,18.06-32,31.899-52.16,41.68c-20.889-10.819-36.159-31.75-39.59-55.069c-26.31,0.029-52.619,0.049-78.92-0.01   c-3.439,23.319-18.68,44.27-39.58,55.069c-20.18-9.729-38.699-23.62-52.17-41.66c10.19-0.521,20.551-1.28,30.23-4.771   c6.15-2.189,12.3-5.479,16.109-10.969c5.281-7.301,4.65-18.181-1.33-24.9c-5.5-6.381-13.809-9.221-21.719-11.311   C60.498,44.092,63.869,32.021,66.429,19.781z"
       id="path31" /><linearGradient
       id="SVGID_2_"
       gradientUnits="userSpaceOnUse"
       x1="20.0352"
       y1="208.5713"
       x2="308.0717"
       y2="208.5713"><stop
         offset="0"
         style="stop-color:#BF331C"
         id="stop33" /><stop
         offset="0.0958"
         style="stop-color:#D2551C"
         id="stop35" /><stop
         offset="0.1989"
         style="stop-color:#E1721D"
         id="stop37" /><stop
         offset="0.3015"
         style="stop-color:#ED861D"
         id="stop39" /><stop
         offset="0.4025"
         style="stop-color:#F4931D"
         id="stop41" /><stop
         offset="0.5"
         style="stop-color:#F6971D"
         id="stop43" /><stop
         offset="0.5975"
         style="stop-color:#F4931D"
         id="stop45" /><stop
         offset="0.6985"
         style="stop-color:#ED861D"
         id="stop47" /><stop
         offset="0.8011"
         style="stop-color:#E1721D"
         id="stop49" /><stop
         offset="0.9042"
         style="stop-color:#D2551C"
         id="stop51" /><stop
         offset="1"
         style="stop-color:#BF331C"
         id="stop53" /></linearGradient><path
       fill="url(#SVGID_2_)"
       d="M17.509,114.981c14.749,21.021,35.64,37,58.26,48.771c1.87,4.739,2.55,9.869,4.181,14.709   c7.359,26.95,18.47,52.75,31.709,77.311c-14.879,10.47-27.1,24.359-36.83,39.66c-1.5,2.22-2.549,4.75-4.379,6.729   c-0.931-1.17-1.681-2.47-2.381-3.771C37.539,242.191,19.738,178.941,17.509,114.981z"
       id="path56" /><linearGradient
       id="SVGID_3_"
       gradientUnits="userSpaceOnUse"
       x1="23.0361"
       y1="208.5859"
       x2="305.0887"
       y2="208.5859"><stop
         offset="0"
         style="stop-color:#BF331C"
         id="stop58" /><stop
         offset="0.0958"
         style="stop-color:#D2551C"
         id="stop60" /><stop
         offset="0.1989"
         style="stop-color:#E1721D"
         id="stop62" /><stop
         offset="0.3015"
         style="stop-color:#ED861D"
         id="stop64" /><stop
         offset="0.4025"
         style="stop-color:#F4931D"
         id="stop66" /><stop
         offset="0.5"
         style="stop-color:#F6971D"
         id="stop68" /><stop
         offset="0.5975"
         style="stop-color:#F4931D"
         id="stop70" /><stop
         offset="0.6985"
         style="stop-color:#ED861D"
         id="stop72" /><stop
         offset="0.8011"
         style="stop-color:#E1721D"
         id="stop74" /><stop
         offset="0.9042"
         style="stop-color:#D2551C"
         id="stop76" /><stop
         offset="1"
         style="stop-color:#BF331C"
         id="stop78" /></linearGradient><path
       fill="url(#SVGID_3_)"
       d="M253.119,163.731c22.629-11.74,43.5-27.75,58.27-48.75c-1.72,50.25-13.199,100.021-32.66,146.329   c-6.08,13.941-12.4,27.861-20.279,40.881c-5.561-8.391-10.83-17.07-17.551-24.641c-7-8.149-14.88-15.58-23.67-21.77   c13.07-24.34,24.18-49.84,31.48-76.52C250.408,174.151,251.179,168.752,253.119,163.731z"
       id="path81" /><linearGradient
       id="SVGID_4_"
       gradientUnits="userSpaceOnUse"
       x1="21.4453"
       y1="338.9063"
       x2="306.4606"
       y2="338.9063"><stop
         offset="0"
         style="stop-color:#BF331C"
         id="stop83" /><stop
         offset="0.0958"
         style="stop-color:#D2551C"
         id="stop85" /><stop
         offset="0.1989"
         style="stop-color:#E1721D"
         id="stop87" /><stop
         offset="0.3015"
         style="stop-color:#ED861D"
         id="stop89" /><stop
         offset="0.4025"
         style="stop-color:#F4931D"
         id="stop91" /><stop
         offset="0.5"
         style="stop-color:#F6971D"
         id="stop93" /><stop
         offset="0.5975"
         style="stop-color:#F4931D"
         id="stop95" /><stop
         offset="0.6985"
         style="stop-color:#ED861D"
         id="stop97" /><stop
         offset="0.8011"
         style="stop-color:#E1721D"
         id="stop99" /><stop
         offset="0.9042"
         style="stop-color:#D2551C"
         id="stop101" /><stop
         offset="1"
         style="stop-color:#BF331C"
         id="stop103" /></linearGradient><path
       fill="url(#SVGID_4_)"
       d="M118.988,271.541c0.98-0.83,1.76-0.66,2.33,0.52c12.381,19.721,26.561,38.421,43.131,54.82   c15.16-15.029,28.33-31.99,39.97-49.85c1.37-2.04,2.44-4.311,4.149-6.09c1.211,0.24,2.101,1.17,3.07,1.88   c15.561,12.53,28.01,28.92,36.37,47.01c-21.69,34.101-49.3,65.181-83.569,87.04c-34.371-21.84-61.761-53.1-83.75-87.07   C89.809,301.262,102.408,284.071,118.988,271.541z"
       id="path106" /></g><path
     fill="#FFFFFF"
     d="M138.891,111.15c17.529-0.34,35.069-0.061,52.609-0.15c7.311,22.57,23.779,41.859,44.76,52.891  C224.2,209.67,203.65,253.52,174.27,290.77c-3.039,3.551-5.64,7.551-9.279,10.53c-31.301-36.2-53.561-79.68-67.32-125.38  c-1.15-4.061-2.57-8.07-3.141-12.27C115.439,152.92,131.811,133.55,138.891,111.15z"
     id="path110" /></svg>