<?xml version="1.0" encoding="UTF-8" standalone="no"?>
<!-- Generator: Adobe Illustrator 16.0.0, SVG Export Plug-In . SVG Version: 6.00 Build 0)  -->

<svg
   xmlns:dc="http://purl.org/dc/elements/1.1/"
   xmlns:cc="http://creativecommons.org/ns#"
   xmlns:rdf="http://www.w3.org/1999/02/22-rdf-syntax-ns#"
   xmlns:svg="http://www.w3.org/2000/svg"
   xmlns="http://www.w3.org/2000/svg"
   xmlns:sodipodi="http://sodipodi.sourceforge.net/DTD/sodipodi-0.dtd"
   xmlns:inkscape="http://www.inkscape.org/namespaces/inkscape"
   version="1.1"
   id="Layer_1"
   x="0px"
   y="0px"
   width="328.875px"
   height="426.762px"
   viewBox="0 0 328.875 426.762"
   enable-background="new 0 0 328.875 426.762"
   xml:space="preserve"
   sodipodi:docname="CM2_R.svg"
   inkscape:export-filename="C:\MTG\Pictures\Symbols\Expansion Symbols\G - Reprint and Starter Sets\Commander Anthology II\CM2_R.png"
   inkscape:export-xdpi="67.429977"
   inkscape:export-ydpi="67.429977"
   inkscape:version="0.92.2 (5c3e80d, 2017-08-06)"><metadata
     id="metadata115"><rdf:RDF><cc:Work
         rdf:about=""><dc:format>image/svg+xml</dc:format><dc:type
           rdf:resource="http://purl.org/dc/dcmitype/StillImage" /></cc:Work></rdf:RDF></metadata><defs
     id="defs113" /><sodipodi:namedview
     pagecolor="#ffffff"
     bordercolor="#666666"
     borderopacity="1"
     objecttolerance="10"
     gridtolerance="10"
     guidetolerance="10"
     inkscape:pageopacity="0"
     inkscape:pageshadow="2"
     inkscape:window-width="690"
     inkscape:window-height="480"
     id="namedview111"
     showgrid="false"
     inkscape:zoom="0.55300145"
     inkscape:cx="164.4375"
     inkscape:cy="213.381"
     inkscape:window-x="0"
     inkscape:window-y="0"
     inkscape:window-maximized="0"
     inkscape:current-layer="Layer_1" /><g
     id="g4"><path
       d="M52.324,0c0,0,30.984,4.471,38.605,5.241c20.789,1.67,41.649,2.78,62.52,2.54c17.28-0.1,34.57,0.311,51.84-0.471   c23.16-1.109,69.24-6.629,69.24-6.629l1.42-0.182l0.779,3.161c0,0,10.24,45.261,19.25,66.601c-3.93,0.26-12.469,1.279-12.469,1.279   c-6.091,0.59-12.32,1.801-17.631,4.95c-1.709,1.04-3.689,2.899-3.04,5.11c1.12,2.52,3.78,3.82,6.19,4.869   c6.359,2.531,13.199,3.531,19.99,4.121c13.25,0.91,27.126,0.049,39.855-4.061c0,14.25-0.876,43.82-0.896,44.18   c-0.319,3.18-0.56,6.37-0.77,9.561c-0.029,0.369-3.307,24.447-3.439,25.4c-6.28,37.819-17.131,74.909-32.771,109.92   c-15.59,34.979-35.84,68.039-61.21,96.799c-18.85,21.281-40.58,40.261-65.34,54.371c-6.09-3.431-11.9-7.33-17.83-11.01   c-12.21-9.301-24.2-18.941-34.939-29.951c-39.07-39.43-67.301-88.68-86.01-140.72c-10.161-27.93-17-56.96-21.69-86.28l-0.101-0.72   c-3.05-23.69-4.47-47.6-3.649-71.479c7.81,2.539,15.96,3.93,24.159,4.13c11.15,0.42,22.53-0.07,33.23-3.479   c3.17-1.121,6.77-2.49,8.39-5.681c0.591-3.08-2.62-4.899-4.919-6.08c-8.871-3.96-18.771-4.56-28.341-5.16   c8.851-20.94,15.57-42.89,18.98-65.38L52.324,0z M66.43,19.781c-2.561,12.24-5.931,24.311-9.9,36.18   c7.91,2.09,16.22,4.93,21.72,11.311c5.98,6.72,6.61,17.6,1.33,24.9c-3.81,5.489-9.96,8.779-16.11,10.969   c-9.68,3.49-20.039,4.25-30.229,4.771c13.47,18.04,31.99,31.931,52.17,41.66c20.899-10.8,36.14-31.75,39.58-55.069   c26.3,0.059,52.61,0.039,78.92,0.01c3.43,23.319,18.7,44.25,39.59,55.069c20.16-9.78,38.71-23.62,52.16-41.68   c-9.7-0.479-19.53-1.21-28.82-4.261c-6.439-2.149-12.939-5.33-17.12-10.879c-5.699-7.32-5.189-18.58,0.92-25.5   c5.521-6.371,13.811-9.24,21.73-11.301c-3.971-11.869-7.35-23.939-9.91-36.189c-17.609,2.17-35.31,3.58-53.029,4.33   c-22.98,1.199-45.99,0.49-68.99,0.68C115.709,24.291,90.979,22.791,66.43,19.781z M17.509,114.981   c2.23,63.96,20.03,127.21,50.561,183.409c0.7,1.301,1.45,2.601,2.38,3.771c1.83-1.979,2.88-4.51,4.38-6.729   c9.729-15.301,21.95-29.19,36.83-39.66c-13.24-24.561-24.351-50.36-31.71-77.311c-1.63-4.84-2.311-9.97-4.18-14.709   C53.149,151.981,32.259,136.002,17.509,114.981z M253.119,163.731c-1.939,5.021-2.71,10.42-4.41,15.53   c-7.3,26.68-18.41,52.18-31.479,76.52c8.79,6.189,16.67,13.62,23.67,21.77c6.72,7.57,11.989,16.25,17.55,24.641   c7.88-13.02,14.2-26.939,20.279-40.881c19.461-46.309,30.941-96.079,32.66-146.329   C296.619,135.981,275.749,151.991,253.119,163.731z M118.989,271.541c-16.58,12.53-29.181,29.721-38.3,48.26   c21.99,33.971,49.38,65.23,83.75,87.07c34.27-21.859,61.88-52.939,83.569-87.04c-8.359-18.09-20.81-34.479-36.37-47.01   c-0.969-0.71-1.859-1.64-3.069-1.88c-1.71,1.779-2.78,4.05-4.15,6.09c-11.64,17.859-24.81,34.82-39.97,49.85   c-16.57-16.399-30.75-35.1-43.13-54.82C120.749,270.881,119.969,270.711,118.989,271.541z"
       id="path2" /></g><g
     id="g106"><linearGradient
       id="SVGID_1_"
       gradientUnits="userSpaceOnUse"
       x1="-14.499"
       y1="84.6758"
       x2="332.6862"
       y2="84.6758"><stop
         offset="0"
         style="stop-color:#8F743F"
         id="stop6" /><stop
         offset="0.0872"
         style="stop-color:#AC9259"
         id="stop8" /><stop
         offset="0.1925"
         style="stop-color:#C7AF71"
         id="stop10" /><stop
         offset="0.2973"
         style="stop-color:#DBC383"
         id="stop12" /><stop
         offset="0.4005"
         style="stop-color:#E7D08D"
         id="stop14" /><stop
         offset="0.5"
         style="stop-color:#EBD491"
         id="stop16" /><stop
         offset="0.5995"
         style="stop-color:#E7D08D"
         id="stop18" /><stop
         offset="0.7027"
         style="stop-color:#DBC383"
         id="stop20" /><stop
         offset="0.8075"
         style="stop-color:#C7AF71"
         id="stop22" /><stop
         offset="0.9128"
         style="stop-color:#AC9259"
         id="stop24" /><stop
         offset="1"
         style="stop-color:#8F743F"
         id="stop26" /></linearGradient><path
       fill="url(#SVGID_1_)"
       d="M66.43,19.781c24.55,3.01,49.279,4.51,74.01,5c23-0.189,46.01,0.52,68.99-0.68   c17.72-0.75,35.42-2.16,53.029-4.33c2.561,12.25,5.939,24.32,9.91,36.189c-7.92,2.061-16.21,4.93-21.73,11.301   c-6.109,6.92-6.619,18.18-0.92,25.5c4.181,5.549,10.681,8.729,17.12,10.879c9.29,3.051,19.12,3.781,28.82,4.261   c-13.45,18.06-32,31.899-52.16,41.68c-20.89-10.819-36.16-31.75-39.59-55.069c-26.31,0.029-52.62,0.049-78.92-0.01   c-3.44,23.319-18.681,44.27-39.58,55.069c-20.18-9.729-38.7-23.62-52.17-41.66c10.19-0.521,20.55-1.28,30.229-4.771   c6.15-2.189,12.301-5.479,16.11-10.969c5.28-7.301,4.65-18.181-1.33-24.9c-5.5-6.381-13.81-9.221-21.72-11.311   C60.499,44.092,63.869,32.021,66.43,19.781z"
       id="path29" /><linearGradient
       id="SVGID_2_"
       gradientUnits="userSpaceOnUse"
       x1="-13.5898"
       y1="208.5713"
       x2="322.0251"
       y2="208.5713"><stop
         offset="0"
         style="stop-color:#8F743F"
         id="stop31" /><stop
         offset="0.0872"
         style="stop-color:#AC9259"
         id="stop33" /><stop
         offset="0.1925"
         style="stop-color:#C7AF71"
         id="stop35" /><stop
         offset="0.2973"
         style="stop-color:#DBC383"
         id="stop37" /><stop
         offset="0.4005"
         style="stop-color:#E7D08D"
         id="stop39" /><stop
         offset="0.5"
         style="stop-color:#EBD491"
         id="stop41" /><stop
         offset="0.5995"
         style="stop-color:#E7D08D"
         id="stop43" /><stop
         offset="0.7027"
         style="stop-color:#DBC383"
         id="stop45" /><stop
         offset="0.8075"
         style="stop-color:#C7AF71"
         id="stop47" /><stop
         offset="0.9128"
         style="stop-color:#AC9259"
         id="stop49" /><stop
         offset="1"
         style="stop-color:#8F743F"
         id="stop51" /></linearGradient><path
       fill="url(#SVGID_2_)"
       d="M17.509,114.981c14.75,21.021,35.641,37,58.261,48.771c1.869,4.739,2.55,9.869,4.18,14.709   c7.359,26.95,18.47,52.75,31.71,77.311c-14.88,10.47-27.101,24.359-36.83,39.66c-1.5,2.22-2.55,4.75-4.38,6.729   c-0.93-1.17-1.68-2.47-2.38-3.771C37.539,242.191,19.739,178.941,17.509,114.981z"
       id="path54" /><linearGradient
       id="SVGID_3_"
       gradientUnits="userSpaceOnUse"
       x1="-26.3047"
       y1="208.5859"
       x2="333.2772"
       y2="208.5859"><stop
         offset="0"
         style="stop-color:#8F743F"
         id="stop56" /><stop
         offset="0.0872"
         style="stop-color:#AC9259"
         id="stop58" /><stop
         offset="0.1925"
         style="stop-color:#C7AF71"
         id="stop60" /><stop
         offset="0.2973"
         style="stop-color:#DBC383"
         id="stop62" /><stop
         offset="0.4005"
         style="stop-color:#E7D08D"
         id="stop64" /><stop
         offset="0.5"
         style="stop-color:#EBD491"
         id="stop66" /><stop
         offset="0.5995"
         style="stop-color:#E7D08D"
         id="stop68" /><stop
         offset="0.7027"
         style="stop-color:#DBC383"
         id="stop70" /><stop
         offset="0.8075"
         style="stop-color:#C7AF71"
         id="stop72" /><stop
         offset="0.9128"
         style="stop-color:#AC9259"
         id="stop74" /><stop
         offset="1"
         style="stop-color:#8F743F"
         id="stop76" /></linearGradient><path
       fill="url(#SVGID_3_)"
       d="M253.119,163.731c22.63-11.74,43.5-27.75,58.27-48.75c-1.719,50.25-13.199,100.021-32.66,146.329   c-6.079,13.941-12.399,27.861-20.279,40.881c-5.561-8.391-10.83-17.07-17.55-24.641c-7-8.149-14.88-15.58-23.67-21.77   c13.069-24.34,24.18-49.84,31.479-76.52C250.409,174.151,251.18,168.752,253.119,163.731z"
       id="path79" /><linearGradient
       id="SVGID_4_"
       gradientUnits="userSpaceOnUse"
       x1="-19.3838"
       y1="338.9063"
       x2="327.7996"
       y2="338.9063"><stop
         offset="0"
         style="stop-color:#8F743F"
         id="stop81" /><stop
         offset="0.0872"
         style="stop-color:#AC9259"
         id="stop83" /><stop
         offset="0.1925"
         style="stop-color:#C7AF71"
         id="stop85" /><stop
         offset="0.2973"
         style="stop-color:#DBC383"
         id="stop87" /><stop
         offset="0.4005"
         style="stop-color:#E7D08D"
         id="stop89" /><stop
         offset="0.5"
         style="stop-color:#EBD491"
         id="stop91" /><stop
         offset="0.5995"
         style="stop-color:#E7D08D"
         id="stop93" /><stop
         offset="0.7027"
         style="stop-color:#DBC383"
         id="stop95" /><stop
         offset="0.8075"
         style="stop-color:#C7AF71"
         id="stop97" /><stop
         offset="0.9128"
         style="stop-color:#AC9259"
         id="stop99" /><stop
         offset="1"
         style="stop-color:#8F743F"
         id="stop101" /></linearGradient><path
       fill="url(#SVGID_4_)"
       d="M118.989,271.541c0.979-0.83,1.76-0.66,2.33,0.52c12.38,19.721,26.56,38.421,43.13,54.82   c15.16-15.029,28.33-31.99,39.97-49.85c1.37-2.04,2.44-4.311,4.15-6.09c1.21,0.24,2.101,1.17,3.069,1.88   c15.561,12.53,28.011,28.92,36.37,47.01c-21.689,34.101-49.3,65.181-83.569,87.04c-34.37-21.84-61.76-53.1-83.75-87.07   C89.809,301.262,102.409,284.071,118.989,271.541z"
       id="path104" /></g><path
     fill="#FFFFFF"
     d="M138.891,111.15c17.529-0.34,35.069-0.061,52.609-0.15c7.311,22.57,23.779,41.859,44.76,52.891  C224.2,209.67,203.65,253.52,174.27,290.77c-3.039,3.551-5.64,7.551-9.279,10.53c-31.301-36.2-53.561-79.68-67.32-125.38  c-1.15-4.061-2.57-8.07-3.141-12.27C115.439,152.92,131.811,133.55,138.891,111.15z"
     id="path108" /></svg>