<?xml version="1.0" encoding="utf-8"?><svg version="1.1" id="Layer_1" xmlns="http://www.w3.org/2000/svg" xmlns:xlink="http://www.w3.org/1999/xlink" x="0px" y="0px"
	 width="49.478px" height="50px"  >
<g>
	<path d="M43.796,8.481C40.182,4.119,35.147,1.106,29.622,0l-2.551,1.105l1.232,1.967c1.653,1.164,2.64,3.063,2.64,5.078
		c0,1.657-0.646,3.216-1.817,4.388s-2.73,1.817-4.388,1.817s-3.216-0.646-4.388-1.817s-1.817-2.73-1.817-4.388
		c0-2.016,0.987-3.914,2.641-5.077l1.232-1.968L19.854,0C14.329,1.106,9.296,4.119,5.681,8.481C2.018,12.902,0,18.504,0,24.256
		v0.014v0.006l1.799,2.294l1.426-1.517c1.074-2.063,3.184-3.346,5.506-3.346c3.422,0.001,6.205,2.784,6.205,6.206
		c0,1.802-0.784,3.514-2.151,4.695l-1.253,1.083l1.042,1.286L23.411,48.36L24.738,50l1.328-1.64l10.838-13.384l1.041-1.286
		l-1.252-1.082c-1.368-1.182-2.152-2.894-2.152-4.696c0-3.421,2.784-6.205,6.205-6.205c2.322,0,4.433,1.282,5.507,3.346l1.426,1.516
		l1.799-2.294v-0.006v-0.014C49.478,18.504,47.46,12.902,43.796,8.481z"/>
	
		<linearGradient id="SVGID_2_" gradientUnits="userSpaceOnUse" x1="16.6685" y1="99.6553" x2="50.6745" y2="112.0325" gradientTransform="matrix(1 0 0 -1 -8.3599 129.0547)">
      <stop  style="stop-color:#536e78" offset="0" />
      <stop  style="stop-color:#99aebc" offset="0.30000299" />
      <stop  style="stop-color:#d9eaf3" offset="0.5" />
      <stop  style="stop-color:#99aebc" offset="0.69999701" />
      <stop  style="stop-color:#536e78" offset="1" />
	</linearGradient>
	<path fill="url(#SVGID_2_)" d="M40.746,19.639c-4.562,0-8.273,3.712-8.273,8.274c0,2.287,0.946,4.465,2.609,6.027L24.738,46.713
		L14.396,33.94c1.662-1.563,2.608-3.74,2.608-6.027c0-4.563-3.711-8.274-8.273-8.274c-2.642,0-5.078,1.244-6.625,3.318
		C2.663,13.232,9.447,4.89,18.828,2.364c-1.5,1.533-2.363,3.608-2.363,5.786c0,2.21,0.86,4.287,2.423,5.851
		c1.563,1.563,3.641,2.423,5.851,2.423s4.288-0.86,5.851-2.423c1.563-1.563,2.424-3.641,2.424-5.851
		c0-2.178-0.864-4.253-2.363-5.786c9.38,2.525,16.164,10.868,16.722,20.593C45.824,20.883,43.389,19.639,40.746,19.639z"/>
</g>
</svg>
