<?xml version="1.0" encoding="UTF-8" standalone="no"?>
<svg
   xmlns="http://www.w3.org/2000/svg"
   version="1.1"
   id="Layer_1"
   x="0px"
   y="0px"
   width="63.377998"
   height="49.999855"
   viewBox="0 0 63.378 49.999855"
>
<g
   id="g390"
   transform="rotate(-90,24.999928,24.999928)"><g
     transform="rotate(90,24.999928,24.999928)"
     id="g394"><g
       id="g267"
       transform="rotate(90,31.689,31.689)"><g
         transform="rotate(90,24.999928,24.999928)"
         id="g243"><g
           id="g219"
           transform="rotate(90,31.689,31.689)"><g
             id="g195"><g
               id="g171"><g
                 transform="rotate(90,24.999928,24.999928)"
                 id="g445"><g
                   id="g285">
	<path
   style="fill:#ffffff"
   d="m 36.131,0 c 5.929,10.727 5.014,17.817 3.011,20.668 L 35.105,10.573 C 33.21,6.095 33.012,6.349 31.934,6.349 h -1.797 c 2.354,12.627 1.817,21.301 0.107,31.433 l 12.11,-7.865 c -1.114,4.625 -4.981,8.608 -11.752,8.166 V 49.911 C 46.363,50.913 59.874,33.71 52.241,15.922 53.711,13.113 57.524,14.068 63.378,16.094 60.025,6.245 48.95,1.278 36.131,0 Z"
   id="path277" />
	<path
   style="fill:#ffffff"
   d="M 0.754,1.452 0,23.206 10.074,12.737 C 0.254,22.933 4.114,50.259 28.451,49.998 V 38.088 C 16.464,38.799 13.647,25.583 19.164,19.706 v 0.033 l 5.275,4.121 V 8.239 L 16.631,1.452 Z"
   id="path279" />
	<path
   d="m 39.178,2.191 c 4.014,8.664 4.91,17.054 -0.53,21.588 L 32.2,8.363 c 1.686,8.831 1.504,18.091 0.467,25.575 l 12.659,-8.28 c -1.159,7.453 -4.819,13.955 -13.05,14.185 v 8.28 C 48.862,48.191 57.057,28.785 50.405,16.129 51.319,12.24 55.415,11.9 59.754,13 56.353,7.041 47.413,3.408 39.178,2.191 Z"
   id="path281" />
	<path
   d="M 2.318,3.136 1.841,18.762 9.415,10.753 h 0.782 l 2.223,1.708 C 1.766,23.862 6.243,46.885 26.749,48.151 V 39.872 C 15.832,39.752 10.165,25.396 18.955,17.478 l 3.787,2.909 V 8.902 L 16.022,3.135 H 2.318 Z"
   id="path283" />
</g></g></g></g></g></g></g></g></g>
</svg>