<?xml version="1.0" encoding="utf-8"?>
<!-- Generator: Adobe Illustrator 16.0.0, SVG Export Plug-In . SVG Version: 6.00 Build 0)  -->
<!DOCTYPE svg PUBLIC "-//W3C//DTD SVG 1.1//EN" "http://www.w3.org/Graphics/SVG/1.1/DTD/svg11.dtd">
<svg version="1.1" id="Layer_1" xmlns="http://www.w3.org/2000/svg" xmlns:xlink="http://www.w3.org/1999/xlink" x="0px" y="0px"
	 width="897.035px" height="896.997px" viewBox="0 0 897.035 896.997" enable-background="new 0 0 897.035 896.997"
	 xml:space="preserve">
<path d="M811.042,411.54c-6.334-78.394-40.334-153.309-92.711-211.687c0.193,0.125,0.387,0.246,0.58,0.371
	c-15.029-17.141-31.759-32.506-49.793-46.07c-10.688-8.232-21.835-15.873-33.406-22.838c0.202,0.325,0.411,0.648,0.616,0.973
	c-100.847-59.27-231.171-68.673-338.435-19.931c-101.36,44.975-179.829,138.303-205.21,246.408
	c-11.001,40.801-8.753,83.527-7.789,125.296c6.335,78.391,40.334,153.307,92.712,211.686c-0.193-0.125-0.388-0.248-0.581-0.373
	c15.028,17.143,31.759,32.508,49.792,46.072c10.688,8.232,21.836,15.871,33.407,22.838c-0.203-0.324-0.412-0.65-0.617-0.973
	c100.848,59.27,231.172,68.674,338.435,19.93c101.36-44.975,179.829-138.303,205.21-246.408
	C814.253,496.031,812.006,453.304,811.042,411.54z"/>
<g>
	<g>
		<path d="M373.285,6c95.199-14.961,196.078-2.402,281.84,42.879c114.16,57.438,200.559,166.961,229.598,291.438
			c23.441,101.281,13.84,210.961-32.48,304.563c-60.398,125.598-182.637,219.438-319.918,244.48
			c-115.359,21.277-239.281-2-336.48-68.563c-72.641-50.32-131.84-121.117-164.16-203.68c-52-130.641-39.84-285.68,35.359-404.957
			C133.445,103.839,247.843,26.476,373.285,6z M298.484,113.679C197.523,158.476,119.363,251.437,94.082,359.117
			c-10.957,40.641-8.719,83.199-7.758,124.801c9.199,113.84,76.961,220.32,174.641,279.121
			c-12.16-19.52-31.359-38.242-28.723-63.281c1.203-33.52,36.961-52.16,66.961-53.52c55.441-6.398,104.402,26.32,145.281,59.762
			c-34.961-106.242-157.359-174.16-266.082-155.121c47.922-37.52,107.762-59.52,168.883-60
			c80.078-0.563,157.117,29.281,224.719,70.559c-71.68-113.68-200.801-181.52-330.242-205.918
			c24.563-13.84,54.16-11.359,81.441-14.082c144.801,1.039,279.922,63.441,402.801,134.723
			c-80-137.523-222.082-226.961-370.48-274.883c141.281-14.078,282.48,34.402,399.359,111.602
			c-49.199-74.16-120.559-132.082-200.879-169.68c59.281-1.199,115.039,26.559,163.84,58
			C616.484,85.597,437.921,50.316,298.484,113.679z"/>
	</g>
</g>
<linearGradient id="SVGID_1_" gradientUnits="userSpaceOnUse" x1="195.6636" y1="654.8579" x2="790.4127" y2="311.4794">
	<stop  offset="0.05" style="stop-color:#BF331C"/>
	<stop  offset="0.1444" style="stop-color:#CE4E1C"/>
	<stop  offset="0.3" style="stop-color:#E4761D"/>
	<stop  offset="0.424" style="stop-color:#F18E1D"/>
	<stop  offset="0.5" style="stop-color:#F6971D"/>
	<stop  offset="0.576" style="stop-color:#F18E1D"/>
	<stop  offset="0.7" style="stop-color:#E4761D"/>
	<stop  offset="0.8556" style="stop-color:#CE4E1C"/>
	<stop  offset="0.95" style="stop-color:#BF331C"/>
</linearGradient>
<path fill="url(#SVGID_1_)" d="M809.613,411.683c-6.31-78.085-40.176-152.705-92.347-210.853c0.191,0.123,0.386,0.245,0.577,0.369
	c-48.801-31.441-104.559-59.199-163.84-58c80.32,37.598,151.68,95.52,200.879,169.68
	c-116.879-77.199-258.078-125.68-399.359-111.602c148.398,47.922,290.48,137.359,370.48,274.883
	c-122.879-71.281-258-133.684-402.801-134.723c-27.281,2.723-56.879,0.242-81.441,14.082
	c129.441,24.398,258.563,92.238,330.242,205.918c-67.602-41.277-144.641-71.121-224.719-70.559
	c-61.121,0.48-120.961,22.48-168.883,60C287.125,531.839,409.523,599.757,444.484,706c-40.879-33.441-89.84-66.16-145.281-59.762
	c-30,1.359-65.758,20-66.961,53.52c-2.593,24.624,15.928,43.141,28.108,62.313c100.451,59.036,230.262,68.402,337.103,19.852
	c100.961-44.797,179.121-137.758,204.402-245.438C812.812,495.843,810.574,453.285,809.613,411.683z"/>
</svg>
