<?xml version="1.0" encoding="UTF-8" standalone="no"?>
<svg
   xmlns="http://www.w3.org/2000/svg"
   version="1.1"
   id="Layer_1"
   x="0px"
   y="0px"
   width="66.519997"
   height="49.999748"
   viewBox="0 0 66.519999 49.999748"
>
<g
   id="g270"
   transform="rotate(-90,24.999875,24.999875)"><g
     transform="rotate(90,24.999875,24.999875)"
     id="g360"><g
       id="g236"
       transform="rotate(90,33.26,33.26)"><g
         transform="rotate(90,24.999875,24.999875)"
         id="g224"><g
           id="g194"
           transform="rotate(90,33.26,33.26)"><g
             id="g173"><g
               id="g152"><g
                 transform="rotate(90,24.999875,24.999875)"
                 id="g297"><g
                   id="Layer_1_1_">
	<path
   style="fill:#ffffff"
   d="m 62.324,23.241 c -0.268,-0.17 -0.521,-0.332 -0.776,-0.488 1.288,-0.84 2.336,-1.669 3.205,-2.529 l 1.767,-1.751 -2.234,-1.092 c -0.807,-0.394 -1.58,-0.683 -2.362,-0.923 1.414,-1.827 2.455,-3.839 3.262,-6.255 L 66.06,7.586 63.317,7.888 c -4.12,0.455 -6.786,1.504 -8.731,2.27 -1.032,0.406 -1.852,0.729 -2.382,0.747 C 52.168,10.901 51.902,10.852 51.32,10.331 50.754,9.824 50.15,9.102 49.566,8.405 49.161,7.922 48.742,7.422 48.329,6.984 42.862,1.212 37.117,0 33.26,0 29.403,0 23.657,1.212 18.193,6.983 17.78,7.421 17.361,7.921 16.956,8.404 c -0.584,0.698 -1.188,1.419 -1.754,1.927 -0.581,0.521 -0.848,0.569 -0.884,0.573 -0.53,-0.018 -1.35,-0.34 -2.382,-0.747 C 9.989,9.392 7.324,8.343 3.204,7.889 L 0.46,7.586 1.335,10.203 c 0.806,2.416 1.848,4.428 3.262,6.256 -0.783,0.239 -1.556,0.528 -2.362,0.923 L 0,18.474 l 1.767,1.75 c 0.869,0.86 1.917,1.689 3.205,2.529 -0.255,0.156 -0.509,0.317 -0.776,0.488 -0.119,0.075 -0.242,0.154 -0.37,0.234 l -2.59,1.638 2.715,1.421 c 2.046,1.071 3.7,1.716 5.68,2.143 -0.071,0.101 -0.145,0.204 -0.218,0.312 l -1.683,2.422 2.93,0.339 c 1.623,0.187 2.816,0.263 4.119,0.263 1.128,0 2.321,-0.057 4.002,-0.155 0.211,-0.013 0.421,-0.02 0.623,-0.02 1.83,0 3.244,0.516 3.98,1.451 0.883,1.12 0.738,2.728 0.461,3.878 l -0.17,0.711 5.884,9.627 c 0.27,0.441 0.563,0.823 0.873,1.147 1.714,1.797 3.94,1.797 5.654,0 0.31,-0.324 0.604,-0.706 0.873,-1.147 l 5.884,-9.627 -0.171,-0.711 c -0.276,-1.15 -0.421,-2.758 0.462,-3.878 0.737,-0.936 2.15,-1.451 3.98,-1.451 0.202,0 0.412,0.007 0.623,0.02 1.681,0.099 2.874,0.155 4.002,0.155 1.303,0 2.496,-0.076 4.118,-0.263 l 2.931,-0.339 -1.682,-2.423 c -0.073,-0.107 -0.146,-0.211 -0.219,-0.312 1.979,-0.428 3.635,-1.071 5.681,-2.143 l 2.714,-1.421 -2.589,-1.638 c -0.127,-0.078 -0.25,-0.157 -0.369,-0.233 z"
   id="path37" />
	<path
   d="m 47.115,30.071 c 0.237,0 0.479,0.008 0.728,0.022 1.62,0.096 2.801,0.153 3.897,0.153 1.242,0 2.376,-0.074 3.916,-0.252 -0.734,-1.059 -1.264,-1.718 -2.293,-2.566 3.62,-0.381 5.609,-1.006 8.387,-2.46 -1.346,-0.851 -2.17,-1.424 -3.926,-2.081 2.354,-1.258 4.266,-2.514 5.685,-3.919 -1.564,-0.766 -3.028,-1.096 -4.837,-1.523 2.104,-2.052 3.698,-4.389 4.837,-7.802 -6.461,0.713 -9.172,2.993 -11.303,3.028 -1.808,0 -3.595,-2.818 -5.162,-4.474 C 42.417,3.31 37.409,1.765 33.26,1.765 29.11,1.765 24.102,3.31 19.475,8.197 17.909,9.852 16.121,12.671 14.313,12.671 12.182,12.635 9.471,10.356 3.01,9.643 c 1.14,3.413 2.734,5.75 4.837,7.802 -1.808,0.428 -3.272,0.758 -4.837,1.523 1.419,1.405 3.33,2.661 5.686,3.919 -1.757,0.657 -2.581,1.23 -3.927,2.081 2.778,1.454 4.767,2.079 8.387,2.46 -1.029,0.849 -1.559,1.508 -2.293,2.566 1.54,0.177 2.674,0.252 3.916,0.252 1.097,0 2.278,-0.059 3.897,-0.153 0.248,-0.015 0.49,-0.022 0.729,-0.022 4.659,0 7.295,2.787 6.159,7.509 l 4.869,7.966 V 26.979 C 22.252,25.806 19.219,19.62 19.219,16.248 c 0,-0.46 0.036,-0.913 0.107,-1.358 1.431,-1.66 3.711,-3.03 6.511,-3.915 -0.497,1.015 -0.776,2.147 -0.776,3.344 0,4.344 3.671,7.864 8.199,7.864 4.527,0 8.198,-3.521 8.198,-7.864 0,-1.196 -0.279,-2.329 -0.776,-3.344 2.799,0.885 5.08,2.255 6.511,3.915 0.071,0.445 0.107,0.898 0.107,1.358 0,3.372 -3.033,9.559 -11.214,10.731 v 18.566 l 4.869,-7.966 c -1.135,-4.721 1.501,-7.508 6.16,-7.508 z"
   id="path39" />
</g></g></g></g></g></g></g></g></g>
</svg>