<?xml version="1.0" encoding="utf-8"?>
<!-- Generator: Adobe Illustrator 16.0.0, SVG Export Plug-In . SVG Version: 6.00 Build 0)  -->
<!DOCTYPE svg PUBLIC "-//W3C//DTD SVG 1.1//EN" "http://www.w3.org/Graphics/SVG/1.1/DTD/svg11.dtd">
<svg version="1.1" id="Layer_1" xmlns="http://www.w3.org/2000/svg" xmlns:xlink="http://www.w3.org/1999/xlink" x="0px" y="0px"
	 width="167.514px" height="130px" viewBox="-89.5 74.5 167.514 130" enable-background="new -89.5 74.5 167.514 130"
	 xml:space="preserve">
<g id="_x23_ffffffff_2_">
	<path d="M35.04,74.5h0.33c1.95,1.72,4.34,2.78,6.59,4.03c12.42,6.76,22.631,17.439,28.86,30.13c7.3,14.66,9.13,31.939,5.101,47.81
		c-4.08,16.46-14.431,31.271-28.541,40.7c-3.789,2.77-8.32,4.36-11.97,7.33h-0.34c-1.11-10.4-3.44-20.92-9.42-29.689
		c-3.14,6.369-8.431,11.699-14.97,14.539c-7.69,3.351-16.36,3.381-24.55,2.32c3.29,3.59,6.72,7.03,9.96,10.67
		c-7.21-0.609-14.661-0.22-21.581-2.689c-14.96-5.021-27.43-15.58-37.27-27.681c-8.85-10.88-17.9-21.579-26.74-32.47
		c9.04-11.05,18.19-22,27.22-33.05C-52.54,94.59-40.21,84.3-25.5,79.35c6.94-2.47,14.41-2.09,21.639-2.68
		c-3.29,3.59-6.699,7.07-10.009,10.65C-6.14,86.35,1.959,86.3,9.33,89.1c7.12,2.69,12.99,8.25,16.29,15.09
		C31.639,95.439,33.969,84.9,35.04,74.5 M-62.27,115.23c10.51-7.92,23.63-13.221,36.97-11.83c6.46,0.67,13.68,2.99,16.93,9.109
		c2.88,4.58,2.63,11.521-2.09,14.79c-3.85,2.98-11.24,2.351-12.65-2.909c-0.22-4.711,5.7-6.32,9.31-4.49
		c-1.48-4.211-4.98-7.521-9.37-8.53c-8.5-2.431-17.11,0.97-24.7,4.63c-12.91,6.38-24.75,14.71-36.12,23.5
		c8.26,6.42,16.8,12.5,25.78,17.87c7.8,4.521,15.88,9.04,24.82,10.75c7.45,1.36,17.03-0.97,19.59-9.011
		c-3.46,1.541-8.45,0.621-9.36-3.549c0.11-5.141,6.93-6.841,10.89-4.86c5.84,2.28,7.239,10.02,4.28,15.09
		c-3.07,6.569-10.6,9.16-17.34,9.819c-13.34,1.351-26.54-3.89-36.98-11.939c10.73,15.54,26.4,29.17,45.4,32.8
		c-1.3-2.38-3.64-4.899-2.69-7.819c0.84-2.08,3.23-2.74,5.27-2.311c5.31,0.74,10.74,1.13,16.07,0.23
		c7.56-1.07,14.84-5.65,18.3-12.58c-3.34-1.7-6.55-4.21-7.74-7.91c-1.58-4.59,0.73-9.7,4.49-12.48
		c3.961-3.149,9.211-3.729,14.1-3.76c-4.789,2.08-9.35,4.91-12.43,9.221c11.131,9.27,18.65,22.699,20.66,37.049
		c13.26-7.159,23.85-19.1,29.301-33.149c5.42-13.79,5.84-29.47,1.219-43.54C64.61,103.96,53.469,90.561,39.1,82.93
		c-1.99,14.301-9.471,27.721-20.59,36.93c2.939,4.4,7.539,7.23,12.35,9.201c-4.689,0.129-9.66-0.471-13.561-3.28
		c-3.89-2.63-6.47-7.62-5.17-12.32c1.041-3.93,4.381-6.67,7.881-8.42C17.959,100.561,14,97.18,9.7,94.93
		C2,91.05-6.96,91.67-15.25,92.72c-2.41,0.46-4.95-1.7-4.59-4.2c0.39-2.229,1.82-4.069,2.92-5.989
		C-35.9,86.16-51.5,99.76-62.27,115.23z"/>
	<path d="M43.59,93.09c10.539,8.561,17.739,20.98,20.68,34.18c4.76,21.311-3.76,44.86-20.65,58.561c1.28-4.2,3.93-7.77,5.76-11.721
		c6.601-13.459,9.891-28.819,7.801-43.779c-1.41-11.04-5.36-21.67-10.93-31.28C45.16,97.17,44.26,95.17,43.59,93.09z"/>
</g>
<g id="_x23_050001ff_2_">
	<linearGradient id="SVGID_1_" gradientUnits="userSpaceOnUse" x1="33.8613" y1="199.1758" x2="-30.9131" y2="86.9832">
		<stop  offset="0.1" style="stop-color:#8F743F"/>
		<stop  offset="0.5" style="stop-color:#EBD491"/>
		<stop  offset="0.9" style="stop-color:#8F743F"/>
	</linearGradient>
	<path fill="url(#SVGID_1_)" d="M-62.27,115.23C-51.5,99.76-35.9,86.16-16.92,82.53c-1.1,1.92-2.53,3.76-2.92,5.989
		c-0.36,2.5,2.18,4.66,4.59,4.2C-6.96,91.67,2,91.05,9.7,94.93c4.301,2.25,8.26,5.631,10.311,10.11c-3.5,1.75-6.84,4.49-7.881,8.42
		c-1.3,4.7,1.28,9.69,5.17,12.32c3.9,2.81,8.871,3.409,13.561,3.28c-4.811-1.971-9.41-4.801-12.35-9.201
		c11.119-9.209,18.6-22.629,20.59-36.93c14.369,7.631,25.51,21.03,30.539,36.49c4.621,14.07,4.201,29.75-1.219,43.54
		c-5.451,14.05-16.041,25.99-29.301,33.149c-2.01-14.35-9.529-27.779-20.66-37.049c3.08-4.311,7.641-7.141,12.43-9.221
		c-4.889,0.03-10.139,0.61-14.1,3.76c-3.76,2.78-6.07,7.891-4.49,12.48c1.19,3.7,4.4,6.21,7.74,7.91
		c-3.46,6.93-10.74,11.51-18.3,12.58c-5.33,0.899-10.76,0.51-16.07-0.23c-2.04-0.43-4.43,0.23-5.27,2.311
		c-0.95,2.92,1.39,5.439,2.69,7.819c-19-3.63-34.67-17.26-45.4-32.8c10.44,8.05,23.64,13.29,36.98,11.939
		c6.74-0.659,14.27-3.25,17.34-9.819c2.959-5.07,1.56-12.81-4.28-15.09c-3.96-1.98-10.78-0.28-10.89,4.86
		c0.91,4.17,5.9,5.09,9.36,3.549c-2.56,8.041-12.14,10.371-19.59,9.011c-8.94-1.71-17.02-6.229-24.82-10.75
		c-8.98-5.37-17.52-11.45-25.78-17.87c11.37-8.79,23.21-17.12,36.12-23.5c7.59-3.66,16.2-7.061,24.7-4.63
		c4.39,1.01,7.89,4.319,9.37,8.53c-3.61-1.83-9.53-0.221-9.31,4.49c1.41,5.26,8.8,5.89,12.65,2.909
		c4.72-3.27,4.971-10.21,2.09-14.79c-3.25-6.119-10.47-8.439-16.93-9.109C-38.64,102.01-51.76,107.311-62.27,115.23 M43.59,93.09
		c0.67,2.08,1.569,4.08,2.66,5.96c5.569,9.61,9.52,20.24,10.93,31.28c2.09,14.96-1.2,30.32-7.801,43.779
		c-1.83,3.951-4.479,7.521-5.76,11.721c16.891-13.7,25.41-37.25,20.65-58.561C61.33,114.07,54.129,101.65,43.59,93.09z"/>
</g>
</svg>
