<?xml version="1.0" encoding="utf-8"?>
<!-- Generator: Adobe Illustrator 16.0.0, SVG Export Plug-In . SVG Version: 6.00 Build 0)  -->
<!DOCTYPE svg PUBLIC "-//W3C//DTD SVG 1.1//EN" "http://www.w3.org/Graphics/SVG/1.1/DTD/svg11.dtd">
<svg version="1.1" id="Layer_1" xmlns="http://www.w3.org/2000/svg" xmlns:xlink="http://www.w3.org/1999/xlink" x="0px" y="0px"
	 width="167.514px" height="130px" viewBox="-89.5 -75.5 167.514 130" enable-background="new -89.5 -75.5 167.514 130"
	 xml:space="preserve">
<g id="_x23_ffffffff">
	<path fill="#FFFFFF" d="M35.04-75.5h0.33c1.95,1.72,4.34,2.78,6.59,4.03c12.42,6.76,22.631,17.439,28.86,30.13
		C78.12-26.68,79.95-9.4,75.92,6.47C71.84,22.93,61.49,37.74,47.379,47.17c-3.789,2.77-8.32,4.36-11.97,7.33h-0.34
		c-1.11-10.4-3.44-20.92-9.42-29.689C22.51,31.18,17.219,36.51,10.68,39.35C2.99,42.7-5.68,42.73-13.87,41.67
		c3.29,3.59,6.72,7.03,9.96,10.67c-7.21-0.609-14.661-0.22-21.581-2.689C-40.45,44.63-52.92,34.07-62.76,21.97
		C-71.61,11.09-80.66,0.391-89.5-10.5c9.04-11.05,18.19-22,27.22-33.05c9.74-11.86,22.07-22.15,36.78-27.1
		c6.94-2.47,14.41-2.09,21.639-2.68c-3.29,3.59-6.699,7.07-10.009,10.65c7.73-0.97,15.83-1.02,23.2,1.78
		c7.12,2.69,12.99,8.25,16.29,15.09C31.639-54.56,33.969-65.1,35.04-75.5 M-62.27-34.77c10.51-7.92,23.63-13.22,36.97-11.83
		c6.46,0.67,13.68,2.99,16.93,9.11c2.88,4.58,2.63,11.521-2.09,14.79c-3.85,2.98-11.24,2.35-12.65-2.91
		c-0.22-4.71,5.7-6.32,9.31-4.49c-1.48-4.21-4.98-7.52-9.37-8.53c-8.5-2.43-17.11,0.97-24.7,4.63
		c-12.91,6.38-24.75,14.71-36.12,23.5C-75.73-4.08-67.19,2-58.21,7.37c7.8,4.521,15.88,9.04,24.82,10.75
		c7.45,1.36,17.03-0.97,19.59-9.011c-3.46,1.541-8.45,0.621-9.36-3.549c0.11-5.141,6.93-6.841,10.89-4.86
		c5.84,2.28,7.239,10.02,4.28,15.09c-3.07,6.569-10.6,9.16-17.34,9.819c-13.34,1.351-26.54-3.89-36.98-11.939
		c10.73,15.54,26.4,29.17,45.4,32.8c-1.3-2.38-3.64-4.899-2.69-7.819c0.84-2.08,3.23-2.74,5.27-2.311
		c5.31,0.74,10.74,1.13,16.07,0.23c7.56-1.07,14.84-5.65,18.3-12.58c-3.34-1.7-6.55-4.21-7.74-7.91c-1.58-4.59,0.73-9.7,4.49-12.48
		C20.75,0.45,26-0.13,30.889-0.16c-4.789,2.08-9.35,4.91-12.43,9.221C29.59,18.33,37.11,31.76,39.12,46.109
		c13.26-7.159,23.85-19.1,29.301-33.149c5.42-13.79,5.84-29.47,1.219-43.54C64.61-46.04,53.469-59.44,39.1-67.07
		c-1.99,14.3-9.471,27.72-20.59,36.93c2.939,4.4,7.539,7.23,12.35,9.2c-4.689,0.13-9.66-0.47-13.561-3.28
		c-3.89-2.63-6.47-7.62-5.17-12.32c1.041-3.93,4.381-6.67,7.881-8.42C17.959-49.44,14-52.82,9.7-55.07
		C2-58.95-6.96-58.33-15.25-57.28c-2.41,0.46-4.95-1.7-4.59-4.2c0.39-2.23,1.82-4.07,2.92-5.99C-35.9-63.84-51.5-50.24-62.27-34.77z
		"/>
	<path fill="#FFFFFF" d="M43.59-56.91c10.539,8.56,17.739,20.98,20.68,34.18c4.76,21.31-3.76,44.86-20.65,58.56
		c1.28-4.2,3.93-7.77,5.76-11.721C55.98,10.65,59.27-4.71,57.18-19.67c-1.41-11.04-5.36-21.67-10.93-31.28
		C45.16-52.83,44.26-54.83,43.59-56.91z"/>
</g>
<g id="_x23_050001ff">
	<path fill="#050001" d="M-62.27-34.77c10.77-15.47,26.37-29.07,45.35-32.7c-1.1,1.92-2.53,3.76-2.92,5.99
		c-0.36,2.5,2.18,4.66,4.59,4.2C-6.96-58.33,2-58.95,9.7-55.07c4.301,2.25,8.26,5.63,10.311,10.11c-3.5,1.75-6.84,4.49-7.881,8.42
		c-1.3,4.7,1.28,9.69,5.17,12.32c3.9,2.81,8.871,3.41,13.561,3.28c-4.811-1.97-9.41-4.8-12.35-9.2
		c11.119-9.21,18.6-22.63,20.59-36.93c14.369,7.63,25.51,21.03,30.539,36.49C74.26-16.51,73.84-0.83,68.42,12.96
		C62.969,27.01,52.379,38.95,39.12,46.109C37.11,31.76,29.59,18.33,18.459,9.061C21.54,4.75,26.1,1.92,30.889-0.16
		C26-0.13,20.75,0.45,16.79,3.6c-3.76,2.78-6.07,7.891-4.49,12.48c1.19,3.7,4.4,6.21,7.74,7.91c-3.46,6.93-10.74,11.51-18.3,12.58
		c-5.33,0.899-10.76,0.51-16.07-0.23c-2.04-0.43-4.43,0.23-5.27,2.311c-0.95,2.92,1.39,5.439,2.69,7.819
		c-19-3.63-34.67-17.26-45.4-32.8c10.44,8.05,23.64,13.29,36.98,11.939c6.74-0.659,14.27-3.25,17.34-9.819
		c2.959-5.07,1.56-12.81-4.28-15.09c-3.96-1.98-10.78-0.28-10.89,4.86c0.91,4.17,5.9,5.09,9.36,3.549
		c-2.56,8.041-12.14,10.371-19.59,9.011c-8.94-1.71-17.02-6.229-24.82-10.75C-67.19,2-75.73-4.08-83.99-10.5
		c11.37-8.79,23.21-17.12,36.12-23.5c7.59-3.66,16.2-7.06,24.7-4.63c4.39,1.01,7.89,4.32,9.37,8.53c-3.61-1.83-9.53-0.22-9.31,4.49
		c1.41,5.26,8.8,5.89,12.65,2.91c4.72-3.27,4.971-10.21,2.09-14.79c-3.25-6.12-10.47-8.44-16.93-9.11
		C-38.64-47.99-51.76-42.69-62.27-34.77 M43.59-56.91c0.67,2.08,1.569,4.08,2.66,5.96c5.569,9.61,9.52,20.24,10.93,31.28
		c2.09,14.96-1.2,30.32-7.801,43.779c-1.83,3.951-4.479,7.521-5.76,11.721C60.51,22.13,69.03-1.42,64.27-22.73
		C61.33-35.93,54.129-48.35,43.59-56.91z"/>
</g>
</svg>
