<?xml version="1.0" encoding="utf-8"?><svg version="1.1" id="Layer_1" xmlns="http://www.w3.org/2000/svg" xmlns:xlink="http://www.w3.org/1999/xlink" x="0px" y="0px"
	 width="61.389px" height="50px"  >
<g>
	<path fill="#ffffff" d="M57.445,1.818c-0.057,0.026-5.935,2.631-24.926,2.631h-3.647C9.878,4.449,4,1.844,3.944,1.818L0.039,0.02L0,4.299v2.653
		c0,1.985,1.397,3.255,2.847,3.751c0.093,0.359,0.215,0.688,0.388,0.99v9.039h7.776c-0.423,4.578-2.002,21.703-2.132,23.1
		c-0.594,0.887-0.837,1.873-0.837,2.773c0,0.51,0.072,0.989,0.191,1.402L8.806,50h9.897l1.644-6.027c0,0-0.604-0.305-1.176-0.59
		c0.25-2.902,1.615-18.746,1.944-22.568h2.264c-0.005,0.189-0.083,2.738-0.083,2.738h14.797c0,0-0.078-2.552-0.084-2.738h2.265
		c0.329,3.822,1.694,19.666,1.943,22.568c-0.571,0.285-1.173,0.59-1.173,0.59L42.686,50h9.885l0.581-1.976
		c0.105-0.364,0.186-0.847,0.186-1.392c0-0.864-0.213-1.879-0.825-2.801c-0.129-1.396-1.709-18.52-2.134-23.1h7.776v-9.037
		c0.173-0.305,0.298-0.632,0.39-0.993c1.447-0.495,2.845-1.765,2.845-3.75V0L57.445,1.818z"/>
		<path d="M18.921,11.098h7.627l-0.249,3.234h-7.626L18.921,11.098z M34.839,11.098h7.629l0.248,3.234h-7.628
			L34.839,11.098z M32.519,7.202h-3.647c-20.314,0-26.117-2.902-26.117-2.902v2.654c0,0.994,1.161,1.242,1.161,1.242h1.492V9.69
			c0,1.16,1.243,1.492,1.243,1.492h8.042l-0.332,3.232H5.988v3.565h8.041l-2.486,26.946c-1.079,0.914-0.664,2.322-0.664,2.322h5.723
			l0.495-1.824l-0.83-0.414l2.322-26.948h7.629l-0.085,2.737h9.121l-0.082-2.737H42.8l2.321,26.948l-0.829,0.414l0.495,1.824h5.723
			c0,0,0.415-1.408-0.664-2.322L47.359,17.98h8.043v-3.565h-8.376l-0.331-3.232h8.043c0,0,1.243-0.332,1.243-1.492V8.196h1.491
			c0,0,1.162-0.248,1.162-1.242V4.299C58.635,4.299,52.832,7.202,32.519,7.202"/></g>
</svg>