<?xml version="1.0" encoding="UTF-8" standalone="no"?>
<svg
   xmlns="http://www.w3.org/2000/svg"
   version="1.1"
   id="Layer_1"
   x="0px"
   y="0px"
   width="47.792"
   height="50"
   viewBox="0 0 47.792 50"
>
<g
   id="g457"
   transform="rotate(-90,25,25)"><g
     transform="rotate(90,25,25)"
     id="g370"><g
       id="g245"
       transform="rotate(90,23.896,23.896)"><g
         transform="rotate(90,25,25)"
         id="g232"><g
           id="g201"
           transform="rotate(90,23.896,23.896)"><g
             id="g179"><g
               id="g157"><g
                 transform="rotate(90,25,25)"
                 id="g4">
	<path
   style="fill:#808080"
   d="M 10.221,0 6.313,5.308 6.003,9.496 8.271,13.519 1.857,19.37 0,29.679 10.193,24.563 18.076,10.945 10.772,7.795 Z m 27.35,0 -0.551,7.795 -7.304,3.15 7.883,13.618 10.193,5.116 -1.857,-10.309 -6.414,-5.851 2.268,-4.023 -0.31,-4.188 z m -13.675,5.479 -9.959,17.206 9.959,-5 9.959,5 z m 0,14.776 -10.212,5.126 10.212,23.251 10.212,-23.251 z M 11.627,26.415 1.06,31.719 21.986,50 Z m 24.538,0 L 25.806,50 46.732,31.72 Z"
   id="path4186" />
	<path
   d="M 9.164,3.65 7.594,5.782 7.341,9.198 9.927,13.786 3.07,20.041 1.757,27.33 9.254,23.567 16.201,11.567 9.52,8.684 Z m 29.464,0 -0.356,5.034 -6.681,2.882 6.947,12 7.497,3.763 -1.313,-7.289 -6.857,-6.255 2.586,-4.588 -0.252,-3.416 z m -14.732,4.448 -6.624,11.443 6.624,-3.326 6.624,3.326 z m 0,13.625 -8.509,4.271 8.509,19.374 8.509,-19.374 z m -12.915,6.485 -7.587,3.809 15.025,13.125 z m 25.83,0 -7.438,16.934 15.025,-13.125 z"
   id="rect3355" />
</g></g></g></g></g></g></g></g>
</svg>