<?xml version="1.0" encoding="UTF-8" standalone="no"?>
<svg
   xmlns="http://www.w3.org/2000/svg"
   version="1.1"
   x="0px"
   y="0px"
   width="600"
   height="354.41812"
   viewBox="0 0 600 354.41812"
>
<g
   id="Layer_1"
   transform="translate(0,-2.7908778)">
	
	
	<g
   id="g1210">
		<g
   id="g1148">
			<path
   d="m 195.9,129.517 c 97.613,-70.758 207.986,-80.433 248.198,-24.958 9.938,13.71 14.57,30.286 14.45,48.536 C 476.509,110.42 478.042,69.64 456.559,41.661 405.154,-25.287 285.839,0.022 183.021,73.595 66.193,157.192 22.993,285.658 77.724,337.615 63.478,272.1 111.313,190.833 195.9,129.517 Z"
   id="path1146"
   style="fill:#e00d14" />
		</g>
		<g
   id="g1170">
			<path
   d="m 236.195,356.387 h -9.492 v -28.479 h -7.847 v -8.041 h 25.186 v 8.041 h -7.847 z"
   id="path1150"
    />
			<path
   d="m 272.279,343.986 c 0,8.428 -6.975,13.223 -14.967,13.223 -7.941,0 -14.963,-4.748 -14.963,-13.223 0,-8.477 6.973,-13.27 14.963,-13.27 7.993,10e-4 14.967,4.794 14.967,13.27 z m -20.632,0 c 0,3.148 2.082,5.57 5.665,5.57 3.585,0 5.668,-2.422 5.668,-5.57 0,-3.051 -2.083,-5.619 -5.668,-5.619 -3.583,0 -5.665,2.569 -5.665,5.619 z"
   id="path1152"
    />
			<path
   d="m 285.117,331.539 v 13.271 c 0,3.148 0.774,5.377 4.408,5.377 3.632,0 4.406,-2.229 4.406,-5.377 v -13.271 h 8.815 v 14.967 c 0,8.186 -5.764,10.703 -13.222,10.703 -7.459,0 -13.221,-2.518 -13.221,-10.703 v -14.967 z"
   id="path1154"
    />
			<path
   d="m 317.376,335.607 h 0.097 c 1.694,-3.051 4.602,-4.406 8.04,-4.406 h 1.694 v 8.475 c -1.21,-0.678 -2.373,-0.824 -3.729,-0.824 -4.893,0 -6.103,3.246 -6.103,7.508 v 10.027 h -8.814 v -24.848 h 8.814 v 4.068 z"
   id="path1156"
    />
			<path
   d="m 338.931,334.736 h 0.097 c 2.034,-3.004 4.506,-4.02 7.943,-4.02 6.684,0 9.347,4.213 9.347,10.314 v 15.355 h -8.814 v -12.109 c 0,-2.375 0.388,-6.539 -3.97,-6.539 -3.586,0 -4.603,2.664 -4.603,5.764 v 12.885 h -8.814 v -24.848 h 8.814 z"
   id="path1158"
    />
			<path
   d="m 389.69,356.387 h -8.814 v -2.764 h -0.097 c -1.55,2.471 -4.601,3.586 -7.507,3.586 -7.362,0 -12.545,-6.15 -12.545,-13.271 0,-7.119 5.086,-13.221 12.448,-13.221 2.857,0 5.86,1.064 7.7,3.244 v -2.422 h 8.814 v 24.848 z m -19.856,-12.401 c 0,3.148 2.082,5.57 5.666,5.57 3.584,0 5.666,-2.422 5.666,-5.57 0,-3.051 -2.082,-5.619 -5.666,-5.619 -3.584,0 -5.666,2.569 -5.666,5.619 z"
   id="path1160"
    />
			<path
   d="m 404.756,334.639 h 0.097 c 2.083,-2.76 4.651,-3.922 7.847,-3.922 3.584,0 6.683,1.451 8.476,4.746 1.694,-3.102 5.037,-4.746 8.427,-4.746 6.297,0 8.477,4.115 8.477,9.83 v 15.84 h -8.816 V 344.52 c 0,-2.568 0.099,-6.781 -3.632,-6.781 -4.067,0 -4.213,3.826 -4.213,6.781 v 11.867 h -8.814 V 344.52 c 0,-2.762 0,-6.975 -3.923,-6.975 -3.924,0 -3.924,4.213 -3.924,6.975 v 11.867 h -8.814 v -24.848 h 8.814 v 3.1 z"
   id="path1162"
    />
			<path
   d="M 469.95,345.439 H 451.4 c 0,3.584 1.889,5.52 5.521,5.52 1.889,0 3.246,-0.629 4.214,-2.273 h 8.476 c -0.678,2.904 -2.422,5.037 -4.698,6.439 -2.276,1.404 -5.085,2.084 -7.943,2.084 -8.233,0 -14.384,-4.65 -14.384,-13.223 0,-8.283 5.666,-13.27 13.755,-13.27 8.621,0 13.609,5.326 13.609,13.803 z m -8.184,-5.085 c -0.437,-2.373 -2.616,-3.922 -4.989,-3.922 -2.567,0 -4.697,1.355 -5.229,3.922 z"
   id="path1164"
    />
			<path
   d="m 482.789,334.736 h 0.096 c 2.034,-3.004 4.505,-4.02 7.943,-4.02 6.684,0 9.347,4.213 9.347,10.314 v 15.355 h -8.814 v -12.109 c 0,-2.375 0.388,-6.539 -3.971,-6.539 -3.583,0 -4.601,2.664 -4.601,5.764 v 12.885 h -8.815 v -24.848 h 8.815 z"
   id="path1166"
    />
			<path
   d="m 516.016,356.387 h -8.814 v -17.582 h -2.858 v -7.266 h 2.858 v -7.459 h 8.814 v 7.459 h 4.988 v 7.266 h -4.988 z"
   id="path1168"
    />
		</g>
		<g
   id="g1196">
			<path
   d="m 577.567,212.311 c -1.035,-0.124 -2.174,-0.211 -3.479,-0.268 -1.185,-0.049 -2.195,-0.072 -3.116,-0.072 -1.331,0 -2.704,0.078 -4.128,0.234 h -17.553 -21.125 -8.621 l -4.303,7.469 -1.094,1.9 c -5.183,-6.123 -14.361,-11.418 -30.614,-11.418 -7.3,0 -14.403,1.044 -21.262,3.117 l 0.615,-1.068 h -25.804 -21.126 -8.621 l -3.836,6.66 c -1.526,-1.683 -3.457,-3.305 -5.898,-4.672 h 1.136 l 4.304,-7.471 24.641,-42.775 c 7.188,-12.482 9.041,-22.757 5.665,-31.413 -2.288,-5.864 -8.829,-15.698 -26.948,-15.698 -4.43,0 -8.922,0.609 -13.399,1.814 h -9.909 -21.125 -8.619 l -4.304,7.47 -0.104,0.181 c -6.478,-6.573 -16.748,-9.522 -32.971,-9.522 -5.726,0 -11.753,0.457 -17.914,1.357 -5.924,0.865 -10.249,1.615 -13.218,2.295 l -6.351,1.451 -2.312,4.015 c -4.132,-4.818 -11.096,-9.06 -22.812,-9.06 -4.542,0 -9.067,0.609 -13.51,1.814 h -9.101 -21.124 -8.621 l -4.302,7.471 -0.42,0.727 c -6.444,-6.957 -16.829,-10.069 -33.493,-10.069 -5.194,0 -10.636,0.376 -16.201,1.117 L 166.7,82.986 179.578,60.628 H 153.775 111.351 102.73 L 98.427,68.1 89.193,84.133 76.32,106.49 h 19.949 l -28.437,49.363 c -1.951,3.388 -3.61,6.172 -4.931,8.278 -0.782,1.247 -1.707,2.374 -2.822,3.442 -0.591,0.56 -1.391,1.042 -2.399,1.431 -0.499,0.193 -1.991,0.642 -5.029,0.642 -1.459,0 -2.225,-0.091 -2.508,-0.135 -1.091,-0.401 -2.106,-0.828 -3.037,-1.272 l -3.051,-1.46 h -3.385 -2.107 -8.62 l -4.303,7.47 -10.15,17.619 -10.068,17.48 19.664,4.502 c 3.074,0.704 6.568,1.22 10.683,1.575 3.817,0.327 7.979,0.492 12.385,0.492 7.266,0 14.034,-0.865 20.118,-2.573 5.956,-1.673 11.675,-4.075 16.997,-7.142 1.179,-0.675 2.337,-1.389 3.475,-2.138 3.299,5.147 10.32,11.885 24.455,11.885 3.524,0 7.008,-0.308 10.355,-0.912 1.285,-0.231 2.584,-0.515 3.894,-0.843 h 9.464 9.062 l -1.006,1.748 -12.88,22.359 h 25.803 21.123 8.621 l 1.144,-1.988 h 8.843 l -28.437,49.363 c -1.951,3.389 -3.61,6.172 -4.931,8.277 -0.782,1.246 -1.706,2.375 -2.823,3.441 -0.59,0.561 -1.39,1.043 -2.398,1.432 -0.499,0.193 -1.992,0.643 -5.029,0.643 -1.459,0 -2.225,-0.092 -2.508,-0.135 -1.091,-0.4 -2.106,-0.828 -3.037,-1.273 l -3.051,-1.459 h -3.385 -2.107 -8.62 l -4.303,7.471 -10.15,17.615 -10.063,17.473 19.652,4.51 c 3.07,0.705 6.567,1.221 10.689,1.578 3.816,0.326 7.979,0.492 12.385,0.492 7.266,0 14.034,-0.865 20.118,-2.574 5.952,-1.67 11.672,-4.072 16.997,-7.143 5.146,-2.947 9.91,-6.623 14.134,-10.908 4.169,-4.232 7.713,-8.861 10.534,-13.764 l 5.585,-9.697 c 4.094,4.234 10.876,7.906 22.079,7.906 4.657,0 9.231,-0.609 13.654,-1.814 h 9.652 10.663 25.802 21.126 8.62 15.135 21.125 8.621 4.756 21.125 8.619 l 4.304,-7.469 0.897,-1.559 c 5.234,5.967 14.361,11.076 30.272,11.076 7.541,0 14.861,-1.105 21.904,-3.297 l -0.718,1.248 h 25.803 21.124 8.621 l 4.302,-7.469 22.188,-38.514 c 0.37,-0.07 0.73,-0.131 1.077,-0.186 1.762,-0.271 3.782,-0.41 6,-0.41 0.615,0 1.741,0.033 3.613,0.186 0.139,0.012 0.262,0.021 0.368,0.031 l 1.645,0.721 h 3.115 1.87 8.621 l 4.303,-7.471 11.563,-20.07 L 600,214.987 Z"
   id="path1172"
    />
			<path
   d="m 179.087,60.257 h -25.803 -42.424 -8.621 l -4.303,7.472 -9.234,16.033 -12.873,22.357 h 19.949 l -28.437,49.363 c -1.951,3.388 -3.61,6.172 -4.931,8.278 -0.782,1.247 -1.704,2.377 -2.822,3.442 -0.589,0.561 -1.391,1.042 -2.399,1.431 -0.499,0.193 -1.991,0.642 -5.029,0.642 -1.459,0 -2.225,-0.091 -2.508,-0.135 -1.091,-0.401 -2.106,-0.828 -3.037,-1.272 l -3.051,-1.46 h -3.384 -2.107 -8.62 l -4.303,7.47 -10.15,17.619 -10.068,17.48 19.664,4.502 c 3.074,0.704 6.568,1.22 10.683,1.575 3.817,0.327 7.979,0.492 12.385,0.492 7.266,0 14.034,-0.865 20.118,-2.573 5.956,-1.673 11.675,-4.075 16.997,-7.142 1.179,-0.675 2.337,-1.389 3.475,-2.138 3.299,5.147 10.32,11.885 24.455,11.885 3.524,0 7.008,-0.308 10.355,-0.912 1.285,-0.231 2.584,-0.515 3.894,-0.843 h 9.464 9.062 l -1.006,1.748 -12.88,22.359 h 25.803 21.123 8.621 l 1.144,-1.988 h 8.843 l -28.437,49.363 c -1.951,3.389 -3.61,6.172 -4.931,8.277 -0.782,1.246 -1.706,2.375 -2.823,3.441 -0.59,0.561 -1.39,1.043 -2.398,1.432 -0.499,0.193 -1.992,0.643 -5.029,0.643 -1.459,0 -2.225,-0.092 -2.508,-0.135 -1.091,-0.4 -2.106,-0.828 -3.037,-1.273 l -3.051,-1.459 h -3.385 -2.107 -8.62 l -4.303,7.471 -10.15,17.615 -10.063,17.473 19.652,4.51 c 3.07,0.705 6.567,1.221 10.689,1.578 3.816,0.326 7.979,0.492 12.385,0.492 7.266,0 14.034,-0.865 20.118,-2.574 5.952,-1.67 11.672,-4.072 16.997,-7.143 5.146,-2.947 9.91,-6.623 14.134,-10.908 4.169,-4.232 7.713,-8.861 10.534,-13.764 l 5.585,-9.697 c 4.094,4.234 10.876,7.906 22.079,7.906 4.657,0 9.231,-0.609 13.654,-1.814 h 9.652 10.663 25.802 21.126 8.62 15.135 21.125 8.621 4.756 21.125 8.619 l 4.304,-7.469 0.897,-1.559 c 5.234,5.967 14.361,11.076 30.272,11.076 7.541,0 14.861,-1.105 21.904,-3.297 l -0.718,1.248 h 25.803 21.124 8.621 l 4.302,-7.469 22.188,-38.514 c 0.37,-0.07 0.73,-0.131 1.077,-0.186 1.762,-0.271 3.782,-0.41 6,-0.41 0.615,0 1.741,0.033 3.613,0.186 0.139,0.012 0.262,0.021 0.368,0.031 l 1.645,0.721 h 3.115 1.87 8.621 l 4.303,-7.471 11.563,-20.07 11.275,-19.577 -22.433,-2.677 c -1.035,-0.124 -2.174,-0.211 -3.479,-0.268 -1.185,-0.049 -2.195,-0.072 -3.116,-0.072 -1.331,0 -2.704,0.078 -4.128,0.234 h -17.553 -21.125 -8.621 l -4.303,7.469 -1.094,1.9 c -5.183,-6.123 -14.361,-11.418 -30.614,-11.418 -7.3,0 -14.403,1.044 -21.262,3.117 l 0.615,-1.068 h -25.804 -21.126 -8.621 l -3.836,6.66 c -1.526,-1.683 -3.457,-3.305 -5.898,-4.672 h 1.136 l 4.304,-7.471 24.641,-42.775 c 7.188,-12.482 9.041,-22.757 5.665,-31.413 -2.288,-5.864 -8.829,-15.698 -26.948,-15.698 -4.43,0 -8.922,0.609 -13.399,1.814 h -9.909 -21.125 -8.619 l -4.304,7.47 -0.104,0.181 c -6.478,-6.573 -16.748,-9.522 -32.971,-9.522 -5.726,0 -11.753,0.457 -17.914,1.357 -5.924,0.865 -10.249,1.615 -13.218,2.295 l -6.351,1.451 -2.312,4.015 c -4.132,-4.818 -11.096,-9.06 -22.812,-9.06 -4.542,0 -9.067,0.609 -13.51,1.814 h -9.101 -21.124 -8.621 l -4.302,7.471 -0.42,0.727 c -6.444,-6.957 -16.829,-10.069 -33.493,-10.069 -5.194,0 -10.636,0.376 -16.201,1.117 l 20.11,-34.911 z"
   id="path1174"
    />
			<path
   d="m 178.594,59.887 h -25.803 -42.424 -8.621 l -4.303,7.472 -9.234,16.033 -12.873,22.357 h 19.949 l -28.437,49.363 c -1.951,3.388 -3.61,6.172 -4.931,8.278 -0.782,1.247 -1.704,2.377 -2.822,3.442 -0.589,0.561 -1.391,1.042 -2.399,1.431 -0.499,0.193 -1.991,0.642 -5.029,0.642 -1.459,0 -2.225,-0.091 -2.508,-0.135 -1.091,-0.401 -2.106,-0.828 -3.037,-1.272 l -3.051,-1.46 h -3.385 -2.107 -8.62 l -4.303,7.47 -10.15,17.62 -10.068,17.48 19.664,4.502 c 3.074,0.704 6.568,1.22 10.683,1.575 3.817,0.327 7.979,0.492 12.385,0.492 7.266,0 14.034,-0.865 20.118,-2.573 5.956,-1.673 11.675,-4.075 16.997,-7.142 1.179,-0.675 2.337,-1.389 3.475,-2.138 3.299,5.147 10.32,11.885 24.455,11.885 3.524,0 7.008,-0.308 10.355,-0.912 1.285,-0.231 2.584,-0.515 3.894,-0.843 h 9.464 9.062 l -1.006,1.748 -12.88,22.359 h 25.803 21.123 8.621 l 1.144,-1.988 h 8.843 l -28.437,49.363 c -1.951,3.389 -3.61,6.172 -4.931,8.277 -0.782,1.246 -1.706,2.375 -2.823,3.441 -0.59,0.561 -1.39,1.043 -2.398,1.432 -0.499,0.193 -1.992,0.643 -5.029,0.643 -1.459,0 -2.225,-0.092 -2.508,-0.135 -1.091,-0.4 -2.106,-0.828 -3.037,-1.273 l -3.051,-1.459 h -3.385 -2.107 -8.62 l -4.303,7.471 -10.15,17.615 -10.063,17.473 19.652,4.51 c 3.07,0.705 6.567,1.221 10.689,1.578 3.816,0.326 7.979,0.492 12.385,0.492 7.266,0 14.034,-0.865 20.118,-2.574 5.952,-1.67 11.672,-4.072 16.997,-7.143 5.146,-2.947 9.91,-6.623 14.134,-10.908 4.169,-4.232 7.713,-8.861 10.534,-13.764 l 5.585,-9.697 c 4.094,4.234 10.876,7.906 22.079,7.906 4.657,0 9.231,-0.609 13.654,-1.814 h 9.652 10.663 25.802 21.126 8.62 15.135 21.125 8.621 4.756 21.125 8.619 l 4.304,-7.469 0.897,-1.559 c 5.234,5.967 14.361,11.076 30.272,11.076 7.541,0 14.861,-1.105 21.904,-3.297 l -0.718,1.248 h 25.803 21.124 8.621 l 4.302,-7.469 22.188,-38.514 c 0.37,-0.07 0.73,-0.131 1.077,-0.186 1.762,-0.271 3.782,-0.41 6,-0.41 0.615,0 1.741,0.033 3.613,0.186 0.139,0.012 0.262,0.021 0.368,0.031 l 1.645,0.721 h 3.115 1.87 8.621 l 4.303,-7.471 11.563,-20.07 11.275,-19.577 -22.433,-2.677 c -1.035,-0.124 -2.174,-0.211 -3.479,-0.268 -1.185,-0.049 -2.195,-0.072 -3.116,-0.072 -1.331,0 -2.704,0.078 -4.128,0.234 h -17.553 -21.125 -8.621 l -4.303,7.469 -1.094,1.9 c -5.183,-6.123 -14.361,-11.418 -30.614,-11.418 -7.3,0 -14.403,1.044 -21.262,3.117 l 0.615,-1.068 h -25.804 -21.126 -8.621 l -3.836,6.66 c -1.526,-1.683 -3.457,-3.305 -5.898,-4.672 h 1.136 l 4.304,-7.471 24.641,-42.776 c 7.188,-12.482 9.041,-22.757 5.665,-31.413 -2.288,-5.864 -8.829,-15.698 -26.948,-15.698 -4.43,0 -8.922,0.609 -13.399,1.814 h -9.909 -21.126 -8.619 l -4.304,7.47 -0.104,0.181 c -6.478,-6.573 -16.748,-9.522 -32.971,-9.522 -5.726,0 -11.753,0.457 -17.914,1.357 -5.924,0.865 -10.249,1.615 -13.218,2.295 l -6.351,1.451 -2.312,4.015 c -4.132,-4.818 -11.096,-9.06 -22.812,-9.06 -4.542,0 -9.067,0.609 -13.51,1.814 h -9.101 -21.124 -8.621 l -4.302,7.471 -0.42,0.727 c -6.444,-6.957 -16.829,-10.069 -33.493,-10.069 -5.194,0 -10.636,0.376 -16.201,1.117 l 20.11,-34.911 z"
   id="path1176"
    />
			<path
   d="m 178.101,59.517 h -25.802 -42.424 -8.621 l -4.304,7.472 -9.233,16.033 -12.873,22.357 h 19.948 l -28.436,49.363 c -1.952,3.388 -3.611,6.172 -4.931,8.278 -0.783,1.247 -1.704,2.377 -2.823,3.442 -0.589,0.561 -1.391,1.042 -2.399,1.431 -0.499,0.193 -1.991,0.642 -5.028,0.642 -1.46,0 -2.225,-0.091 -2.508,-0.135 -1.092,-0.401 -2.107,-0.828 -3.038,-1.272 l -3.051,-1.46 h -3.384 -2.108 -8.619 l -4.304,7.47 -10.15,17.619 -10.068,17.48 19.664,4.502 c 3.074,0.704 6.568,1.22 10.683,1.575 3.817,0.327 7.98,0.492 12.386,0.492 7.265,0 14.033,-0.865 20.118,-2.573 5.955,-1.673 11.674,-4.075 16.997,-7.142 1.179,-0.675 2.337,-1.389 3.475,-2.138 3.298,5.147 10.319,11.885 24.454,11.885 3.524,0 7.009,-0.308 10.355,-0.912 1.286,-0.231 2.585,-0.515 3.895,-0.843 h 9.463 9.063 l -1.007,1.748 -12.879,22.359 h 25.802 21.123 8.621 l 1.145,-1.988 h 8.842 l -28.436,49.363 c -1.952,3.389 -3.611,6.172 -4.931,8.277 -0.783,1.246 -1.707,2.375 -2.823,3.441 -0.591,0.561 -1.391,1.043 -2.399,1.432 -0.499,0.193 -1.991,0.643 -5.029,0.643 -1.459,0 -2.224,-0.092 -2.508,-0.135 -1.091,-0.4 -2.106,-0.828 -3.037,-1.273 l -3.051,-1.459 h -3.384 -2.108 -8.619 l -4.304,7.471 -10.15,17.615 -10.066,17.474 19.652,4.51 c 3.07,0.705 6.567,1.221 10.689,1.578 3.817,0.326 7.98,0.492 12.386,0.492 7.265,0 14.033,-0.865 20.118,-2.574 5.951,-1.67 11.672,-4.072 16.997,-7.143 5.146,-2.947 9.909,-6.623 14.133,-10.908 4.17,-4.232 7.713,-8.861 10.534,-13.764 l 5.586,-9.697 c 4.094,4.234 10.875,7.906 22.078,7.906 4.657,0 9.232,-0.609 13.654,-1.814 h 9.652 10.663 25.803 21.125 8.62 15.136 21.124 8.621 4.757 21.124 8.62 l 4.303,-7.469 0.897,-1.559 c 5.234,5.967 14.361,11.076 30.273,11.076 7.54,0 14.861,-1.105 21.904,-3.297 l -0.718,1.248 h 25.802 21.125 8.621 l 4.302,-7.469 22.188,-38.514 c 0.371,-0.07 0.731,-0.131 1.078,-0.186 1.761,-0.271 3.781,-0.41 5.999,-0.41 0.616,0 1.741,0.033 3.613,0.186 0.14,0.012 0.263,0.021 0.368,0.031 l 1.645,0.721 h 3.116 1.869 8.621 l 4.303,-7.471 11.563,-20.07 11.275,-19.577 -22.433,-2.677 c -1.035,-0.124 -2.174,-0.211 -3.478,-0.268 -1.186,-0.049 -2.195,-0.072 -3.117,-0.072 -1.331,0 -2.704,0.078 -4.127,0.234 h -17.554 -21.124 -8.621 l -4.304,7.469 -1.094,1.9 c -5.183,-6.123 -14.36,-11.418 -30.614,-11.418 -7.3,0 -14.403,1.044 -21.262,3.117 l 0.615,-1.068 h -25.804 -21.122 -8.621 l -3.836,6.66 c -1.527,-1.683 -3.458,-3.305 -5.899,-4.672 h 1.137 l 4.303,-7.471 24.642,-42.775 c 7.187,-12.482 9.04,-22.757 5.664,-31.413 -2.288,-5.864 -8.829,-15.698 -26.947,-15.698 -4.431,0 -8.922,0.609 -13.4,1.814 h -9.909 -21.124 -8.62 l -4.303,7.47 -0.105,0.181 c -6.477,-6.573 -16.748,-9.522 -32.971,-9.522 -5.726,0 -11.753,0.457 -17.913,1.357 -5.925,0.865 -10.25,1.615 -13.219,2.295 l -6.351,1.451 -2.312,4.015 c -4.131,-4.818 -11.096,-9.06 -22.812,-9.06 -4.541,0 -9.067,0.609 -13.51,1.814 h -9.1 -21.125 -8.621 l -4.302,7.471 -0.42,0.727 c -6.444,-6.957 -16.829,-10.069 -33.492,-10.069 -5.194,0 -10.637,0.376 -16.202,1.117 l 20.11,-34.911 z"
   id="path1178"
    />
			<path
   d="m 177.607,59.147 h -25.802 -42.424 -8.621 l -4.304,7.472 -9.233,16.033 -12.872,22.358 h 19.948 l -28.436,49.363 c -1.952,3.388 -3.611,6.172 -4.931,8.278 -0.783,1.247 -1.704,2.377 -2.823,3.442 -0.589,0.561 -1.391,1.042 -2.399,1.431 -0.499,0.193 -1.991,0.642 -5.028,0.642 -1.46,0 -2.225,-0.091 -2.508,-0.135 -1.092,-0.401 -2.107,-0.828 -3.038,-1.272 l -3.051,-1.46 h -3.384 -2.108 -8.619 l -4.304,7.47 -10.15,17.619 -10.068,17.48 19.664,4.502 c 3.074,0.704 6.568,1.22 10.683,1.575 3.817,0.327 7.98,0.493 12.386,0.493 7.265,0 14.033,-0.866 20.118,-2.574 5.955,-1.673 11.674,-4.075 16.997,-7.141 1.179,-0.676 2.337,-1.39 3.475,-2.139 3.298,5.148 10.319,11.885 24.454,11.885 3.524,0 7.009,-0.307 10.355,-0.912 1.286,-0.231 2.585,-0.515 3.895,-0.843 h 9.463 9.063 l -1.007,1.748 -12.879,22.359 h 25.802 21.123 8.621 l 1.145,-1.988 h 8.842 l -28.436,49.363 c -1.952,3.389 -3.611,6.172 -4.931,8.277 -0.783,1.247 -1.707,2.375 -2.823,3.442 -0.591,0.561 -1.391,1.042 -2.399,1.432 -0.499,0.193 -1.991,0.642 -5.029,0.642 -1.459,0 -2.224,-0.091 -2.508,-0.135 -1.091,-0.4 -2.106,-0.827 -3.037,-1.272 l -3.051,-1.46 h -3.384 -2.108 -8.619 l -4.304,7.471 -10.15,17.616 -10.063,17.472 19.652,4.511 c 3.07,0.704 6.567,1.221 10.689,1.577 3.817,0.327 7.98,0.492 12.386,0.492 7.265,0 14.033,-0.865 20.118,-2.573 5.951,-1.67 11.672,-4.073 16.997,-7.143 5.146,-2.948 9.909,-6.624 14.133,-10.909 4.17,-4.232 7.713,-8.861 10.534,-13.764 l 5.586,-9.696 c 4.094,4.233 10.875,7.906 22.078,7.906 4.657,0 9.232,-0.609 13.654,-1.814 h 9.652 10.663 25.803 21.125 8.62 15.136 21.124 8.621 4.757 21.124 8.62 l 4.303,-7.47 0.897,-1.558 c 5.234,5.967 14.361,11.075 30.273,11.075 7.54,0 14.861,-1.104 21.904,-3.297 l -0.718,1.249 h 25.802 21.125 8.621 l 4.302,-7.47 22.188,-38.513 c 0.371,-0.07 0.731,-0.132 1.078,-0.186 1.761,-0.272 3.781,-0.41 5.999,-0.41 0.616,0 1.741,0.032 3.613,0.185 0.14,0.012 0.263,0.021 0.368,0.032 l 1.645,0.72 h 3.116 1.869 8.621 l 4.303,-7.47 11.563,-20.07 11.275,-19.578 -22.433,-2.677 c -1.035,-0.124 -2.174,-0.211 -3.478,-0.267 -1.186,-0.049 -2.195,-0.073 -3.117,-0.073 -1.331,0 -2.704,0.078 -4.127,0.234 h -17.554 -21.124 -8.621 l -4.304,7.47 -1.094,1.899 c -5.183,-6.122 -14.36,-11.417 -30.614,-11.417 -7.3,0 -14.403,1.043 -21.262,3.116 l 0.615,-1.068 h -25.804 -21.125 -8.621 l -3.836,6.66 c -1.527,-1.683 -3.458,-3.305 -5.899,-4.672 h 1.137 l 4.303,-7.471 24.642,-42.775 c 7.187,-12.482 9.04,-22.757 5.664,-31.413 -2.288,-5.864 -8.829,-15.698 -26.947,-15.698 -4.431,0 -8.922,0.609 -13.4,1.814 h -9.909 -21.124 -8.62 l -4.303,7.47 -0.105,0.181 c -6.477,-6.573 -16.748,-9.522 -32.971,-9.522 -5.726,0 -11.753,0.457 -17.913,1.357 -5.925,0.865 -10.25,1.615 -13.219,2.295 l -6.351,1.451 -2.312,4.015 c -4.131,-4.818 -11.096,-9.06 -22.812,-9.06 -4.541,0 -9.067,0.609 -13.51,1.814 h -9.1 -21.125 -8.621 l -4.302,7.471 -0.42,0.727 c -6.444,-6.957 -16.829,-10.069 -33.492,-10.069 -5.194,0 -10.637,0.376 -16.202,1.117 l 20.11,-34.911 z"
   id="path1180"
    />
			<path
   d="m 177.114,58.778 h -25.802 -42.424 -8.621 L 95.963,66.25 86.73,82.283 73.857,104.64 H 93.805 L 65.37,154.003 c -1.952,3.388 -3.611,6.172 -4.931,8.277 -0.783,1.248 -1.704,2.377 -2.823,3.443 -0.589,0.561 -1.391,1.042 -2.399,1.431 -0.499,0.193 -1.991,0.642 -5.028,0.642 -1.46,0 -2.225,-0.091 -2.508,-0.135 -1.092,-0.401 -2.107,-0.828 -3.038,-1.272 l -3.051,-1.46 H 38.208 36.1 27.48 l -4.304,7.47 -10.15,17.619 -10.068,17.48 19.664,4.502 c 3.074,0.704 6.568,1.219 10.683,1.575 3.817,0.327 7.98,0.492 12.386,0.492 7.265,0 14.033,-0.866 20.118,-2.573 5.955,-1.673 11.674,-4.076 16.997,-7.142 1.179,-0.675 2.337,-1.389 3.475,-2.138 3.298,5.147 10.319,11.885 24.454,11.885 3.524,0 7.009,-0.308 10.355,-0.912 1.286,-0.232 2.585,-0.516 3.895,-0.844 h 9.463 9.063 l -1.007,1.749 -12.879,22.358 h 25.802 21.123 8.621 l 1.145,-1.987 h 8.842 l -28.436,49.362 c -1.952,3.389 -3.611,6.172 -4.931,8.277 -0.783,1.247 -1.707,2.375 -2.823,3.442 -0.591,0.561 -1.391,1.042 -2.399,1.432 -0.499,0.193 -1.991,0.642 -5.029,0.642 -1.459,0 -2.224,-0.091 -2.508,-0.135 -1.091,-0.4 -2.106,-0.827 -3.037,-1.272 l -3.051,-1.46 h -3.384 -2.108 -8.619 l -4.304,7.471 -10.15,17.616 -10.063,17.472 19.652,4.511 c 3.07,0.704 6.567,1.221 10.689,1.577 3.817,0.327 7.98,0.492 12.386,0.492 7.265,0 14.033,-0.865 20.118,-2.573 5.951,-1.67 11.672,-4.073 16.997,-7.143 5.146,-2.948 9.909,-6.624 14.133,-10.909 4.17,-4.232 7.713,-8.861 10.534,-13.764 l 5.586,-9.696 c 4.094,4.233 10.875,7.906 22.078,7.906 4.657,0 9.232,-0.609 13.654,-1.814 h 9.652 10.663 25.803 21.125 8.62 15.136 21.124 8.621 4.757 21.124 8.62 l 4.303,-7.47 0.897,-1.558 c 5.234,5.967 14.361,11.075 30.273,11.075 7.54,0 14.861,-1.104 21.904,-3.297 l -0.718,1.249 h 25.802 21.125 8.621 l 4.302,-7.47 22.188,-38.513 c 0.371,-0.07 0.731,-0.132 1.078,-0.186 1.761,-0.272 3.781,-0.41 5.999,-0.41 0.616,0 1.741,0.037 3.613,0.186 0.14,0.011 0.263,0.021 0.368,0.031 l 1.645,0.72 h 3.116 1.869 8.621 l 4.303,-7.47 11.563,-20.07 11.275,-19.577 -22.433,-2.678 c -1.035,-0.123 -2.174,-0.211 -3.478,-0.267 -1.186,-0.049 -2.195,-0.072 -3.117,-0.072 -1.331,0 -2.704,0.078 -4.127,0.234 h -17.554 -21.124 -8.621 l -4.304,7.469 -1.094,1.9 c -5.183,-6.123 -14.36,-11.418 -30.614,-11.418 -7.3,0 -14.403,1.044 -21.262,3.117 l 0.615,-1.068 h -25.804 -21.125 -8.621 l -3.836,6.66 c -1.527,-1.683 -3.458,-3.306 -5.899,-4.673 h 1.137 l 4.303,-7.471 24.642,-42.774 c 7.187,-12.482 9.04,-22.757 5.664,-31.413 -2.288,-5.865 -8.829,-15.698 -26.947,-15.698 -4.431,0 -8.922,0.609 -13.4,1.814 h -9.909 -21.124 -8.62 l -4.303,7.47 -0.105,0.181 c -6.477,-6.573 -16.748,-9.523 -32.971,-9.523 -5.726,0 -11.753,0.457 -17.913,1.357 -5.925,0.864 -10.25,1.615 -13.219,2.294 l -6.351,1.451 -2.312,4.015 c -4.131,-4.818 -11.096,-9.06 -22.812,-9.06 -4.541,0 -9.067,0.609 -13.51,1.814 h -9.1 -21.125 -8.621 l -4.302,7.47 -0.42,0.727 c -6.444,-6.957 -16.829,-10.07 -33.492,-10.07 -5.194,0 -10.637,0.376 -16.202,1.118 l 20.11,-34.911 z"
   id="path1182"
    />
			<path
   d="M 176.622,58.408 H 150.819 108.395 99.774 L 95.471,65.88 86.237,81.913 73.364,104.27 h 19.949 l -28.437,49.363 c -1.951,3.388 -3.61,6.172 -4.931,8.278 -0.782,1.247 -1.704,2.377 -2.822,3.442 -0.589,0.561 -1.391,1.042 -2.399,1.431 -0.499,0.193 -1.991,0.642 -5.029,0.642 -1.459,0 -2.225,-0.091 -2.508,-0.135 -1.091,-0.401 -2.106,-0.828 -3.037,-1.272 l -3.051,-1.46 h -3.385 -2.107 -8.62 l -4.303,7.47 -10.15,17.619 -10.068,17.48 19.664,4.502 c 3.074,0.704 6.568,1.22 10.683,1.575 3.817,0.327 7.979,0.493 12.385,0.493 7.266,0 14.034,-0.866 20.118,-2.574 5.956,-1.673 11.675,-4.075 16.997,-7.141 1.179,-0.676 2.337,-1.39 3.475,-2.139 3.299,5.148 10.32,11.885 24.455,11.885 3.524,0 7.008,-0.307 10.355,-0.912 1.285,-0.231 2.584,-0.515 3.894,-0.843 h 9.464 9.062 l -1.006,1.748 -12.88,22.359 h 25.803 21.123 8.621 l 1.144,-1.988 h 8.843 l -28.437,49.363 c -1.951,3.389 -3.61,6.172 -4.931,8.277 -0.782,1.247 -1.706,2.375 -2.823,3.442 -0.59,0.561 -1.39,1.042 -2.398,1.432 -0.499,0.193 -1.992,0.642 -5.029,0.642 -1.459,0 -2.225,-0.091 -2.508,-0.135 -1.091,-0.4 -2.106,-0.827 -3.037,-1.272 l -3.051,-1.46 h -3.385 -2.107 -8.62 l -4.303,7.471 -10.15,17.616 -10.063,17.472 19.652,4.511 c 3.07,0.704 6.567,1.221 10.689,1.577 3.816,0.327 7.979,0.492 12.385,0.492 7.266,0 14.034,-0.865 20.118,-2.573 5.952,-1.67 11.672,-4.073 16.997,-7.143 5.146,-2.948 9.91,-6.624 14.134,-10.909 4.169,-4.232 7.713,-8.861 10.534,-13.764 l 5.585,-9.696 c 4.094,4.233 10.876,7.906 22.079,7.906 4.657,0 9.231,-0.609 13.654,-1.814 h 9.652 10.663 25.802 21.126 8.62 15.135 21.125 8.621 4.756 21.125 8.619 l 4.304,-7.47 0.897,-1.558 c 5.234,5.967 14.361,11.075 30.272,11.075 7.541,0 14.861,-1.104 21.904,-3.297 l -0.718,1.249 h 25.803 21.124 8.621 l 4.302,-7.47 22.188,-38.513 c 0.37,-0.07 0.73,-0.132 1.077,-0.186 1.762,-0.272 3.782,-0.41 6,-0.41 0.615,0 1.741,0.032 3.613,0.185 0.139,0.012 0.262,0.021 0.368,0.032 l 1.645,0.72 h 3.115 1.87 8.621 l 4.303,-7.47 11.563,-20.07 11.275,-19.578 -22.433,-2.677 c -1.035,-0.124 -2.174,-0.211 -3.479,-0.267 -1.185,-0.049 -2.195,-0.073 -3.116,-0.073 -1.331,0 -2.704,0.078 -4.128,0.234 h -17.553 -21.125 -8.621 l -4.303,7.47 -1.094,1.899 c -5.183,-6.122 -14.361,-11.417 -30.614,-11.417 -7.3,0 -14.403,1.043 -21.262,3.116 l 0.615,-1.068 h -25.804 -21.126 -8.621 l -3.836,6.66 c -1.526,-1.683 -3.457,-3.305 -5.898,-4.672 h 1.136 l 4.304,-7.471 24.641,-42.775 c 7.188,-12.482 9.041,-22.757 5.665,-31.413 -2.288,-5.864 -8.829,-15.698 -26.948,-15.698 -4.43,0 -8.922,0.609 -13.399,1.814 h -9.909 -21.125 -8.619 l -4.304,7.47 -0.104,0.181 c -6.478,-6.573 -16.748,-9.522 -32.971,-9.522 -5.726,0 -11.753,0.457 -17.914,1.357 -5.924,0.865 -10.249,1.615 -13.218,2.295 l -6.351,1.451 -2.312,4.015 c -4.132,-4.818 -11.096,-9.06 -22.812,-9.06 -4.542,0 -9.067,0.609 -13.51,1.814 h -9.101 -21.124 -8.621 l -4.302,7.471 -0.42,0.727 c -6.444,-6.957 -16.829,-10.069 -33.493,-10.069 -5.194,0 -10.636,0.376 -16.201,1.117 l 20.11,-34.911 z"
   id="path1184"
    />
			<path
   d="M 176.129,58.038 H 150.326 107.902 99.281 L 94.978,65.51 85.744,81.543 72.871,103.9 H 92.82 l -28.437,49.363 c -1.951,3.388 -3.61,6.172 -4.931,8.277 -0.782,1.248 -1.704,2.378 -2.822,3.443 -0.589,0.561 -1.391,1.042 -2.399,1.431 -0.499,0.193 -1.991,0.642 -5.029,0.642 -1.459,0 -2.225,-0.091 -2.508,-0.135 -1.091,-0.401 -2.106,-0.828 -3.037,-1.272 l -3.051,-1.46 h -3.385 -2.107 -8.62 l -4.303,7.47 -10.15,17.62 -10.068,17.48 19.664,4.502 c 3.074,0.704 6.568,1.219 10.683,1.575 3.817,0.327 7.979,0.492 12.385,0.492 7.266,0 14.034,-0.866 20.118,-2.573 5.956,-1.673 11.675,-4.076 16.997,-7.142 1.179,-0.675 2.337,-1.389 3.475,-2.138 3.299,5.147 10.32,11.885 24.455,11.885 3.524,0 7.008,-0.308 10.355,-0.912 1.285,-0.232 2.584,-0.516 3.894,-0.844 h 9.464 9.062 l -1.006,1.749 -12.88,22.358 h 25.803 21.123 8.621 l 1.144,-1.987 h 8.843 l -28.437,49.362 c -1.951,3.389 -3.61,6.172 -4.931,8.277 -0.782,1.247 -1.706,2.375 -2.823,3.442 -0.59,0.561 -1.39,1.042 -2.398,1.432 -0.499,0.193 -1.992,0.642 -5.029,0.642 -1.459,0 -2.225,-0.091 -2.508,-0.135 -1.091,-0.4 -2.106,-0.827 -3.037,-1.272 l -3.051,-1.46 h -3.385 -2.107 -8.62 l -4.303,7.471 -10.15,17.616 -10.063,17.472 19.652,4.511 c 3.07,0.704 6.567,1.221 10.689,1.577 3.816,0.327 7.979,0.492 12.385,0.492 7.266,0 14.034,-0.865 20.118,-2.573 5.952,-1.67 11.672,-4.073 16.997,-7.143 5.146,-2.948 9.91,-6.624 14.134,-10.909 4.169,-4.232 7.713,-8.861 10.534,-13.764 l 5.585,-9.696 c 4.094,4.233 10.876,7.906 22.079,7.906 4.657,0 9.231,-0.609 13.654,-1.814 h 9.652 10.663 25.802 21.126 8.62 15.135 21.125 8.621 4.756 21.125 8.619 l 4.304,-7.47 0.897,-1.558 c 5.234,5.967 14.361,11.075 30.272,11.075 7.541,0 14.861,-1.104 21.904,-3.297 l -0.718,1.249 h 25.803 21.124 8.621 l 4.302,-7.47 22.188,-38.513 c 0.37,-0.07 0.73,-0.132 1.077,-0.186 1.762,-0.272 3.782,-0.41 6,-0.41 0.615,0 1.741,0.036 3.613,0.186 0.139,0.011 0.262,0.021 0.368,0.031 l 1.645,0.72 h 3.115 1.87 8.621 l 4.303,-7.47 11.563,-20.07 11.275,-19.577 -22.433,-2.678 c -1.035,-0.123 -2.174,-0.211 -3.479,-0.267 -1.185,-0.049 -2.195,-0.072 -3.116,-0.072 -1.331,0 -2.704,0.078 -4.128,0.234 h -17.553 -21.125 -8.621 l -4.303,7.469 -1.094,1.9 c -5.183,-6.123 -14.361,-11.418 -30.614,-11.418 -7.3,0 -14.403,1.044 -21.262,3.117 l 0.615,-1.068 h -25.804 -21.126 -8.621 l -3.836,6.66 c -1.526,-1.683 -3.457,-3.306 -5.898,-4.673 h 1.136 l 4.304,-7.471 24.641,-42.775 c 7.188,-12.482 9.041,-22.757 5.665,-31.413 -2.288,-5.865 -8.829,-15.698 -26.948,-15.698 -4.43,0 -8.922,0.609 -13.399,1.814 h -9.909 -21.125 -8.619 l -4.304,7.47 -0.104,0.181 c -6.478,-6.573 -16.748,-9.523 -32.971,-9.523 -5.726,0 -11.753,0.457 -17.914,1.357 -5.924,0.864 -10.249,1.615 -13.218,2.294 l -6.351,1.451 -2.312,4.015 c -4.132,-4.818 -11.096,-9.06 -22.812,-9.06 -4.542,0 -9.067,0.609 -13.51,1.814 h -9.101 -21.124 -8.621 l -4.302,7.47 -0.42,0.727 c -6.444,-6.957 -16.829,-10.07 -33.493,-10.07 -5.194,0 -10.636,0.376 -16.201,1.118 l 20.11,-34.911 z"
   id="path1186"
    />
			<path
   d="M 175.636,57.668 H 149.833 107.409 98.788 L 94.485,65.14 85.251,81.173 72.378,103.53 H 92.327 L 63.89,152.893 c -1.951,3.388 -3.61,6.172 -4.931,8.277 -0.782,1.248 -1.704,2.378 -2.822,3.443 -0.589,0.561 -1.391,1.042 -2.399,1.431 -0.499,0.193 -1.991,0.642 -5.029,0.642 -1.459,0 -2.225,-0.091 -2.508,-0.135 -1.091,-0.401 -2.106,-0.828 -3.037,-1.272 l -3.051,-1.46 h -3.385 -2.107 -8.62 l -4.303,7.47 -10.15,17.619 -10.068,17.48 19.664,4.502 c 3.074,0.704 6.568,1.219 10.683,1.575 3.817,0.327 7.979,0.493 12.385,0.493 7.266,0 14.034,-0.867 20.118,-2.574 5.956,-1.673 11.675,-4.076 16.997,-7.141 1.179,-0.676 2.337,-1.39 3.475,-2.139 3.299,5.148 10.32,11.885 24.455,11.885 3.524,0 7.008,-0.307 10.355,-0.912 1.285,-0.232 2.584,-0.516 3.894,-0.844 h 9.464 9.062 l -1.006,1.749 -12.88,22.358 h 25.803 21.123 8.621 l 1.144,-1.987 h 8.843 l -28.437,49.362 c -1.951,3.389 -3.61,6.172 -4.931,8.277 -0.782,1.248 -1.706,2.375 -2.823,3.443 -0.59,0.561 -1.39,1.041 -2.398,1.432 -0.499,0.193 -1.992,0.641 -5.029,0.641 -1.459,0 -2.225,-0.09 -2.508,-0.135 -1.091,-0.4 -2.106,-0.826 -3.037,-1.271 l -3.051,-1.461 h -3.385 -2.107 -8.62 l -4.303,7.471 -10.15,17.617 -10.063,17.471 19.652,4.512 c 3.07,0.703 6.567,1.221 10.689,1.576 3.816,0.328 7.979,0.492 12.385,0.492 7.266,0 14.034,-0.865 20.118,-2.572 5.952,-1.67 11.672,-4.074 16.997,-7.143 5.146,-2.949 9.91,-6.625 14.134,-10.91 4.169,-4.232 7.713,-8.861 10.534,-13.764 l 5.585,-9.695 c 4.094,4.232 10.876,7.906 22.079,7.906 4.657,0 9.231,-0.609 13.654,-1.814 h 9.652 10.663 25.802 21.126 8.62 15.135 21.125 8.621 4.756 21.125 8.619 l 4.304,-7.471 0.897,-1.557 c 5.234,5.967 14.361,11.074 30.272,11.074 7.541,0 14.861,-1.104 21.904,-3.297 l -0.718,1.25 h 25.803 21.124 8.621 l 4.302,-7.471 22.188,-38.512 c 0.37,-0.07 0.73,-0.133 1.077,-0.186 1.762,-0.273 3.782,-0.41 6,-0.41 0.615,0 1.741,0.035 3.613,0.185 0.139,0.011 0.262,0.021 0.368,0.032 l 1.645,0.719 h 3.115 1.87 8.621 l 4.303,-7.469 11.563,-20.07 11.275,-19.578 -22.433,-2.678 c -1.035,-0.123 -2.174,-0.211 -3.479,-0.266 -1.185,-0.049 -2.195,-0.073 -3.116,-0.073 -1.331,0 -2.704,0.078 -4.128,0.234 h -17.553 -21.125 -8.621 l -4.303,7.47 -1.094,1.899 c -5.183,-6.122 -14.361,-11.417 -30.614,-11.417 -7.3,0 -14.403,1.043 -21.262,3.116 l 0.615,-1.068 h -25.804 -21.126 -8.621 l -3.836,6.66 c -1.526,-1.683 -3.457,-3.306 -5.898,-4.673 h 1.136 l 4.304,-7.471 24.641,-42.774 c 7.188,-12.482 9.041,-22.757 5.665,-31.413 -2.288,-5.865 -8.829,-15.698 -26.948,-15.698 -4.43,0 -8.922,0.609 -13.399,1.814 h -9.909 -21.125 -8.619 l -4.304,7.47 -0.104,0.181 c -6.478,-6.573 -16.748,-9.523 -32.971,-9.523 -5.726,0 -11.753,0.457 -17.914,1.357 -5.924,0.864 -10.249,1.615 -13.218,2.294 l -6.351,1.451 -2.312,4.015 c -4.132,-4.818 -11.096,-9.06 -22.812,-9.06 -4.542,0 -9.067,0.609 -13.51,1.814 h -9.101 -21.124 -8.621 l -4.302,7.47 -0.42,0.727 c -6.444,-6.957 -16.829,-10.07 -33.493,-10.07 -5.194,0 -10.636,0.376 -16.201,1.118 l 20.11,-34.911 z"
   id="path1188"
    />
			<path
   d="m 175.143,57.299 h -25.802 -42.424 -8.621 l -4.304,7.472 -9.233,16.033 -12.873,22.357 h 19.948 l -28.436,49.363 c -1.952,3.388 -3.611,6.172 -4.931,8.277 -0.783,1.248 -1.704,2.377 -2.823,3.443 -0.589,0.561 -1.391,1.042 -2.399,1.431 -0.499,0.193 -1.991,0.642 -5.028,0.642 -1.46,0 -2.225,-0.091 -2.508,-0.135 -1.092,-0.401 -2.107,-0.828 -3.038,-1.272 l -3.051,-1.46 h -3.384 -2.108 -8.619 l -4.304,7.47 -10.15,17.619 -10.068,17.48 19.664,4.502 c 3.074,0.704 6.568,1.219 10.683,1.575 3.817,0.327 7.98,0.493 12.386,0.493 7.265,0 14.033,-0.867 20.118,-2.574 5.955,-1.673 11.674,-4.076 16.997,-7.141 1.179,-0.676 2.337,-1.39 3.475,-2.139 3.298,5.148 10.319,11.885 24.454,11.885 3.524,0 7.009,-0.307 10.355,-0.912 1.286,-0.232 2.585,-0.516 3.895,-0.844 h 9.463 9.063 l -1.007,1.749 -12.879,22.358 h 25.802 21.123 8.621 l 1.145,-1.987 h 8.842 l -28.436,49.362 c -1.952,3.389 -3.611,6.172 -4.931,8.277 -0.783,1.248 -1.705,2.378 -2.823,3.443 -0.59,0.562 -1.391,1.041 -2.399,1.432 -0.499,0.193 -1.991,0.641 -5.029,0.641 -1.459,0 -2.224,-0.09 -2.508,-0.135 -1.091,-0.4 -2.106,-0.826 -3.037,-1.271 l -3.051,-1.461 h -3.384 -2.108 -8.619 l -4.304,7.471 -10.15,17.617 -10.063,17.471 19.652,4.512 c 3.07,0.703 6.567,1.221 10.689,1.576 3.817,0.328 7.98,0.492 12.386,0.492 7.265,0 14.033,-0.865 20.118,-2.572 5.951,-1.67 11.672,-4.074 16.997,-7.143 5.146,-2.949 9.909,-6.625 14.133,-10.91 4.17,-4.232 7.713,-8.861 10.534,-13.764 l 5.586,-9.695 c 4.094,4.232 10.875,7.906 22.078,7.906 4.657,0 9.232,-0.609 13.654,-1.814 h 9.652 10.663 25.803 21.125 8.62 15.136 21.124 8.621 4.757 21.124 8.62 l 4.303,-7.471 0.897,-1.557 c 5.234,5.967 14.361,11.074 30.273,11.074 7.54,0 14.861,-1.104 21.904,-3.297 l -0.718,1.25 h 25.802 21.125 8.621 l 4.302,-7.471 22.188,-38.512 c 0.371,-0.07 0.731,-0.133 1.078,-0.186 1.761,-0.273 3.781,-0.41 5.999,-0.41 0.616,0 1.741,0.036 3.613,0.185 0.14,0.011 0.263,0.021 0.368,0.032 l 1.645,0.719 h 3.116 1.869 8.621 l 4.303,-7.469 11.563,-20.07 11.275,-19.578 -22.433,-2.678 c -1.035,-0.123 -2.174,-0.211 -3.478,-0.266 -1.186,-0.049 -2.195,-0.073 -3.117,-0.073 -1.331,0 -2.704,0.078 -4.127,0.234 h -17.554 -21.125 -8.621 l -4.304,7.47 -1.094,1.899 c -5.183,-6.122 -14.36,-11.417 -30.614,-11.417 -7.3,0 -14.403,1.043 -21.262,3.116 l 0.615,-1.068 H 432.646 411.521 402.9 l -3.836,6.66 c -1.527,-1.683 -3.458,-3.306 -5.899,-4.673 h 1.137 l 4.303,-7.471 24.642,-42.774 c 7.187,-12.482 9.04,-22.757 5.664,-31.413 -2.288,-5.865 -8.829,-15.698 -26.947,-15.698 -4.431,0 -8.922,0.609 -13.4,1.814 h -9.909 -21.125 -8.62 l -4.303,7.47 -0.105,0.181 c -6.477,-6.573 -16.748,-9.523 -32.971,-9.523 -5.726,0 -11.753,0.457 -17.913,1.357 -5.925,0.864 -10.25,1.615 -13.219,2.294 l -6.351,1.451 -2.312,4.015 c -4.131,-4.818 -11.096,-9.06 -22.812,-9.06 -4.541,0 -9.067,0.609 -13.51,1.814 h -9.1 -21.125 -8.621 l -4.302,7.47 -0.42,0.727 c -6.444,-6.957 -16.829,-10.07 -33.492,-10.07 -5.194,0 -10.637,0.376 -16.202,1.118 l 20.11,-34.911 z"
   id="path1190"
    />
			<path
   d="M 174.649,56.929 H 148.847 106.423 97.802 L 93.499,64.4 84.266,80.433 71.393,102.79 h 19.948 l -28.436,49.363 c -1.952,3.388 -3.611,6.172 -4.931,8.277 -0.783,1.248 -1.704,2.377 -2.823,3.443 -0.589,0.561 -1.391,1.042 -2.399,1.431 -0.499,0.193 -1.991,0.642 -5.028,0.642 -1.46,0 -2.225,-0.091 -2.508,-0.135 -1.092,-0.401 -2.107,-0.828 -3.038,-1.272 l -3.051,-1.46 h -3.384 -2.108 -8.619 l -4.304,7.47 -10.15,17.62 -10.068,17.48 19.664,4.502 c 3.074,0.704 6.568,1.219 10.683,1.575 3.817,0.327 7.98,0.493 12.386,0.493 7.265,0 14.033,-0.867 20.118,-2.574 5.955,-1.673 11.674,-4.076 16.997,-7.141 1.179,-0.676 2.337,-1.39 3.475,-2.139 3.298,5.148 10.319,11.885 24.454,11.885 3.524,0 7.009,-0.307 10.355,-0.912 1.286,-0.232 2.585,-0.516 3.895,-0.844 h 9.463 9.063 l -1.007,1.749 -12.879,22.358 h 25.802 21.123 8.621 l 1.145,-1.987 h 8.842 l -28.436,49.362 c -1.952,3.389 -3.611,6.172 -4.931,8.277 -0.783,1.248 -1.705,2.378 -2.823,3.443 -0.59,0.562 -1.391,1.041 -2.399,1.432 -0.499,0.193 -1.991,0.641 -5.029,0.641 -1.459,0 -2.224,-0.09 -2.508,-0.135 -1.091,-0.4 -2.106,-0.826 -3.037,-1.271 l -3.051,-1.461 h -3.384 -2.108 -8.619 l -4.304,7.471 -10.15,17.617 -10.063,17.471 19.652,4.512 c 3.07,0.703 6.567,1.221 10.689,1.576 3.817,0.328 7.98,0.492 12.386,0.492 7.265,0 14.033,-0.865 20.118,-2.572 5.951,-1.67 11.672,-4.074 16.997,-7.143 5.146,-2.949 9.909,-6.625 14.133,-10.91 4.17,-4.232 7.713,-8.861 10.534,-13.764 l 5.586,-9.695 c 4.094,4.232 10.875,7.906 22.078,7.906 4.657,0 9.232,-0.609 13.654,-1.814 h 9.652 10.663 25.803 21.125 8.62 15.136 21.122 8.621 4.757 21.124 8.62 l 4.303,-7.471 0.897,-1.557 c 5.234,5.967 14.361,11.074 30.273,11.074 7.54,0 14.861,-1.104 21.904,-3.297 l -0.718,1.25 h 25.802 21.125 8.621 l 4.302,-7.471 22.188,-38.512 c 0.371,-0.07 0.731,-0.133 1.078,-0.186 1.761,-0.273 3.781,-0.41 5.999,-0.41 0.616,0 1.741,0.036 3.613,0.185 0.14,0.011 0.263,0.021 0.368,0.032 l 1.645,0.719 h 3.116 1.869 8.621 l 4.303,-7.469 11.563,-20.07 11.275,-19.578 -22.433,-2.678 c -1.035,-0.123 -2.174,-0.211 -3.478,-0.266 -1.186,-0.049 -2.195,-0.073 -3.117,-0.073 -1.331,0 -2.704,0.078 -4.127,0.234 h -17.554 -21.124 -8.621 l -4.304,7.47 -1.094,1.899 c -5.183,-6.122 -14.36,-11.417 -30.614,-11.417 -7.3,0 -14.403,1.043 -21.262,3.116 l 0.615,-1.068 h -25.804 -21.125 -8.621 l -3.836,6.66 c -1.527,-1.683 -3.458,-3.306 -5.899,-4.673 h 1.137 l 4.303,-7.471 24.642,-42.775 c 7.187,-12.482 9.04,-22.757 5.664,-31.413 -2.288,-5.865 -8.829,-15.698 -26.947,-15.698 -4.431,0 -8.922,0.609 -13.4,1.814 h -9.909 -21.124 -8.62 l -4.303,7.47 -0.105,0.181 c -6.477,-6.573 -16.748,-9.523 -32.971,-9.523 -5.726,0 -11.753,0.457 -17.913,1.357 -5.925,0.864 -10.25,1.615 -13.219,2.294 l -6.351,1.451 -2.312,4.015 c -4.131,-4.818 -11.096,-9.06 -22.812,-9.06 -4.541,0 -9.067,0.609 -13.51,1.814 h -9.1 -21.125 -8.621 l -4.302,7.47 -0.42,0.727 c -6.444,-6.957 -16.829,-10.07 -33.492,-10.07 -5.194,0 -10.637,0.376 -16.202,1.118 l 20.11,-34.911 z"
   id="path1192"
    />
			<path
   d="m 572.144,208.242 c -1.035,-0.123 -2.174,-0.211 -3.478,-0.266 -1.186,-0.049 -2.195,-0.073 -3.117,-0.073 -1.331,0 -2.704,0.078 -4.127,0.234 h -17.554 -21.124 -8.621 l -4.304,7.47 -1.094,1.899 c -5.183,-6.122 -14.36,-11.417 -30.614,-11.417 -7.3,0 -14.403,1.043 -21.262,3.116 l 0.615,-1.068 h -25.804 -21.125 -8.621 l -3.836,6.66 c -1.527,-1.683 -3.458,-3.306 -5.899,-4.673 h 1.137 l 4.303,-7.471 24.642,-42.774 c 7.187,-12.482 9.04,-22.757 5.664,-31.413 -2.288,-5.865 -8.829,-15.698 -26.947,-15.698 -4.431,0 -8.922,0.609 -13.4,1.814 h -9.909 -21.124 -8.62 l -4.303,7.47 -0.105,0.181 c -6.477,-6.573 -16.748,-9.523 -32.971,-9.523 -5.726,0 -11.753,0.457 -17.913,1.357 -5.925,0.864 -10.25,1.615 -13.219,2.294 l -6.351,1.451 -2.312,4.015 c -4.131,-4.818 -11.096,-9.06 -22.812,-9.06 -4.541,0 -9.067,0.609 -13.51,1.814 h -9.1 -21.125 -8.621 l -4.302,7.47 -0.42,0.727 c -6.444,-6.957 -16.829,-10.07 -33.492,-10.07 -5.194,0 -10.637,0.376 -16.202,1.118 l 20.11,-34.911 12.878,-22.358 H 148.353 105.929 97.31 L 93.006,64.029 83.773,80.062 70.9,102.419 h 19.948 l -28.436,49.363 c -1.952,3.388 -3.611,6.172 -4.931,8.277 -0.783,1.248 -1.707,2.375 -2.823,3.443 -0.591,0.56 -1.391,1.042 -2.399,1.431 -0.499,0.193 -1.991,0.642 -5.028,0.642 -1.46,0 -2.225,-0.091 -2.508,-0.135 -1.092,-0.401 -2.107,-0.828 -3.038,-1.272 l -3.051,-1.46 H 35.25 33.142 24.523 l -4.304,7.47 -10.15,17.619 L 0,205.279 l 19.664,4.502 c 3.074,0.704 6.568,1.219 10.683,1.575 3.817,0.327 7.98,0.493 12.386,0.493 7.265,0 14.033,-0.867 20.118,-2.574 5.955,-1.673 11.674,-4.076 16.997,-7.141 1.179,-0.676 2.337,-1.39 3.475,-2.139 3.298,5.148 10.319,11.885 24.454,11.885 3.524,0 7.009,-0.307 10.355,-0.912 1.286,-0.232 2.585,-0.516 3.895,-0.844 h 9.463 9.063 l -1.007,1.749 -12.879,22.358 h 25.802 21.123 8.621 l 1.145,-1.987 h 8.842 l -28.436,49.362 c -1.952,3.389 -3.611,6.172 -4.931,8.277 -0.783,1.248 -1.707,2.375 -2.823,3.443 -0.591,0.561 -1.391,1.041 -2.399,1.432 -0.499,0.193 -1.991,0.641 -5.029,0.641 -1.459,0 -2.224,-0.09 -2.508,-0.135 -1.091,-0.4 -2.106,-0.826 -3.037,-1.271 l -3.051,-1.461 h -3.384 -2.108 -8.619 l -4.304,7.471 -10.15,17.617 -10.063,17.471 19.652,4.512 c 3.07,0.703 6.567,1.221 10.689,1.576 3.817,0.328 7.98,0.492 12.386,0.492 7.265,0 14.033,-0.865 20.118,-2.572 5.951,-1.67 11.672,-4.074 16.997,-7.143 5.146,-2.949 9.909,-6.625 14.133,-10.91 4.17,-4.232 7.713,-8.861 10.534,-13.764 l 5.586,-9.695 c 4.094,4.232 10.875,7.906 22.078,7.906 4.657,0 9.232,-0.609 13.654,-1.814 h 9.652 10.663 25.803 21.125 8.62 15.136 21.124 8.621 4.757 21.124 8.62 l 4.303,-7.471 0.897,-1.557 c 5.234,5.967 14.361,11.074 30.273,11.074 7.54,0 14.861,-1.104 21.904,-3.297 l -0.718,1.25 h 25.802 21.125 8.621 l 4.302,-7.471 22.188,-38.512 c 0.371,-0.07 0.731,-0.133 1.078,-0.186 1.761,-0.273 3.781,-0.41 5.999,-0.41 0.616,0 1.741,0.031 3.613,0.185 0.14,0.011 0.263,0.021 0.368,0.032 l 1.645,0.719 h 3.116 1.869 8.621 l 4.303,-7.469 11.563,-20.07 11.275,-19.578 z"
   id="path1194"
    />
		</g>
		<g
   id="g1202">
			<path
   d="m 144.083,334.215 c -4.193,0 -8.142,-0.156 -11.737,-0.465 -3.778,-0.326 -6.94,-0.789 -9.671,-1.416 l -9.824,-2.256 17.332,-30.088 h 8.11 l 1.524,0.73 c 1.244,0.594 2.599,1.156 4.025,1.67 0.224,0.08 1.465,0.469 4.737,0.469 3.153,0 5.748,-0.385 7.715,-1.143 1.936,-0.746 3.535,-1.736 4.891,-3.021 1.523,-1.457 2.864,-3.094 3.965,-4.848 1.37,-2.188 3.077,-5.053 5.073,-8.518 L 205.1,224.787 h -19.951 l 12.278,-21.323 c -1.695,-0.275 -3.219,-0.666 -4.594,-1.178 -0.227,-0.084 -0.453,-0.172 -0.677,-0.262 l -14.256,24.75 h -38.335 l 13.887,-24.107 h -32.387 c -1.442,0.389 -2.864,0.709 -4.264,0.961 -2.902,0.527 -5.941,0.795 -9.026,0.795 -11.497,0 -16.665,-5.35 -18.976,-9.838 -1.112,-2.158 -1.744,-4.455 -1.897,-6.879 -3.293,3.074 -6.913,5.749 -10.791,7.973 -4.777,2.751 -9.923,4.914 -15.28,6.416 -5.426,1.523 -11.517,2.296 -18.1,2.296 -4.193,0 -8.143,-0.156 -11.737,-0.464 -3.778,-0.328 -6.94,-0.791 -9.671,-1.418 l -9.824,-2.254 17.332,-30.089 h 8.109 l 1.525,0.73 c 1.244,0.595 2.599,1.156 4.025,1.669 0.224,0.081 1.465,0.468 4.738,0.468 3.152,0 5.747,-0.384 7.714,-1.143 1.936,-0.746 3.535,-1.734 4.891,-3.02 1.523,-1.457 2.864,-3.096 3.965,-4.849 1.369,-2.184 3.075,-5.049 5.073,-8.517 L 103.748,94.962 H 83.799 l 17.82,-30.948 h 59.637 l -34.489,59.875 1.133,-0.26 c 2.772,-0.634 6.907,-1.348 12.636,-2.185 5.804,-0.848 11.468,-1.278 16.835,-1.278 14.576,0 23.601,2.573 28.397,8.098 2.839,3.268 4.107,7.178 3.803,11.697 l 10.325,-17.923 h 35.567 c 4.102,-1.205 8.286,-1.814 12.477,-1.814 16.708,0 20.412,10.596 21.23,15.152 0.204,1.135 0.322,2.309 0.353,3.524 l 8.377,-14.545 3.176,-0.727 c 2.772,-0.634 6.906,-1.348 12.636,-2.185 5.803,-0.848 11.468,-1.278 16.834,-1.278 14.577,0 23.601,2.573 28.397,8.098 2.515,2.893 3.796,6.291 3.847,10.169 l 9.444,-16.396 h 36.367 c 4.152,-1.205 8.303,-1.814 12.377,-1.814 12.999,0 18.051,5.955 20,10.95 2.501,6.414 0.808,14.586 -5.177,24.98 l -26.795,46.512 H 350.67 l 25.216,-43.773 c 1.273,-2.212 2.448,-4.428 3.498,-6.599 -0.825,0.112 -1.72,0.297 -2.681,0.555 -1.404,0.375 -3.025,0.936 -4.843,1.67 l -27.735,48.147 h -69.884 c -1.441,0.389 -2.864,0.709 -4.264,0.961 -2.902,0.527 -5.94,0.795 -9.026,0.795 -1.538,0 -2.964,-0.096 -4.284,-0.273 l -6.592,11.444 h 33.759 l -25.216,43.772 c -1.463,2.541 -2.668,4.752 -3.593,6.586 0.769,-0.111 1.742,-0.301 2.96,-0.617 1.478,-0.381 3.029,-0.902 4.636,-1.557 l 27.758,-48.185 h 72.833 c 4.152,-1.204 8.303,-1.813 12.376,-1.813 13.002,0 18.053,5.955 20,10.951 0.882,2.262 1.243,4.74 1.078,7.459 l 9.56,-16.597 h 38.338 l -6.477,11.241 c 1.377,-0.996 2.787,-1.945 4.23,-2.85 11.071,-6.928 23.113,-10.439 35.794,-10.439 14.678,0 24.118,4.672 28.061,13.887 0.88,2.062 1.441,4.232 1.684,6.525 l 10.578,-18.364 h 38.335 l -0.632,1.097 c 3.511,-0.895 6.611,-1.331 9.412,-1.331 0.83,0 1.753,0.022 2.779,0.065 1.137,0.049 2.089,0.121 2.932,0.223 l 11.217,1.337 -19.353,33.595 h -7.735 l -1.154,-0.505 c -0.22,-0.044 -0.763,-0.136 -1.812,-0.222 -1.702,-0.14 -3.123,-0.21 -4.22,-0.21 -2.601,0 -5.002,0.167 -7.141,0.498 -1.433,0.222 -3.027,0.555 -4.766,0.995 l -25.972,45.086 h -38.336 l 6.862,-11.914 c -1.639,1.227 -3.328,2.389 -5.065,3.482 -11.047,6.953 -23.12,10.479 -35.884,10.479 -14.578,0 -23.998,-4.645 -27.997,-13.807 -0.809,-1.855 -1.358,-3.801 -1.647,-5.844 l -10.14,17.604 H 325.28 l 25.215,-43.773 c 1.274,-2.213 2.449,-4.429 3.497,-6.598 -0.823,0.111 -1.72,0.297 -2.683,0.555 -1.403,0.376 -3.023,0.936 -4.838,1.668 l -27.735,48.148 H 246.14 c -4.069,1.205 -8.298,1.814 -12.612,1.814 -13.314,0 -18.308,-6.084 -20.15,-11.188 -0.654,-1.805 -0.984,-3.744 -0.989,-5.83 l -12.987,22.545 c -2.503,4.348 -5.66,8.469 -9.379,12.246 -3.75,3.805 -7.976,7.064 -12.561,9.693 -4.777,2.75 -9.923,4.912 -15.28,6.416 -5.425,1.527 -11.516,2.301 -18.099,2.301 z m 302.453,-65.547 c 1.161,0 2.458,-0.215 3.854,-0.641 1.296,-0.396 2.666,-1.117 4.064,-2.139 1.89,-1.357 3.664,-3 5.319,-4.914 1.724,-1.99 3.689,-4.896 5.847,-8.642 2.415,-4.194 3.44,-6.763 3.873,-8.177 0.118,-0.383 0.208,-0.717 0.278,-1.008 -0.039,0 -0.078,0 -0.119,0 -1.319,0 -2.604,0.177 -3.817,0.527 -0.772,0.223 -2.134,0.793 -4.273,2.26 -1.575,1.11 -3.367,2.805 -5.252,4.987 -1.971,2.284 -4.021,5.265 -6.089,8.854 -1.797,3.121 -3.059,5.781 -3.747,7.908 -0.12,0.371 -0.213,0.695 -0.286,0.977 0.11,0.006 0.225,0.008 0.348,0.008 z M 241.613,193.84 c -0.662,-1.447 -1.115,-2.953 -1.358,-4.516 -1.859,1.51 -3.732,2.895 -5.613,4.141 -0.188,0.127 -0.377,0.252 -0.565,0.375 z m -33.089,-20.228 c 2.492,-0.517 4.817,-1.55 7.036,-3.12 3.69,-2.609 7.188,-6.757 10.399,-12.329 1.95,-3.387 2.91,-5.639 3.382,-7.048 -0.008,0 -0.016,0 -0.023,0 -1.374,0 -3.013,0.232 -4.87,0.69 -1.331,0.328 -2.705,0.759 -4.105,1.288 z M 109.02,154.701 c 0.282,-0.164 0.568,-0.325 0.854,-0.484 h -0.576 z"
   id="path1198"
   style="fill:#ffffff" />
			<path
   d="M 148.354,71.473 91.59,170.017 c -2.202,3.825 -4.948,7.402 -8.231,10.736 -3.289,3.337 -6.941,6.154 -10.956,8.456 -4.266,2.458 -8.794,4.361 -13.585,5.706 -4.796,1.346 -10.157,2.019 -16.086,2.019 -4.018,0 -7.716,-0.147 -11.1,-0.437 -3.382,-0.293 -6.264,-0.71 -8.64,-1.256 L 33.14,177.622 h 2.108 c 1.467,0.702 3.04,1.356 4.72,1.96 1.681,0.606 4.101,0.908 7.261,0.908 4.097,0 7.561,-0.548 10.396,-1.642 2.833,-1.092 5.28,-2.614 7.341,-4.568 1.999,-1.913 3.715,-4.011 5.149,-6.297 1.431,-2.283 3.171,-5.203 5.218,-8.756 L 116.649,87.505 H 96.697 l 9.233,-16.034 h 42.424 m 162.191,56.154 c 11.978,0 19.564,1.842 22.767,5.53 3.204,3.686 2.531,9.47 -2.006,17.349 l -25.753,44.707 h -20.889 l 4.013,-6.965 c -1.626,0.859 -3.628,1.894 -6,3.102 -2.376,1.209 -4.504,2.166 -6.391,2.867 -2.608,0.938 -5.152,1.629 -7.633,2.076 -2.482,0.45 -5.051,0.676 -7.702,0.676 -6.244,0 -10.356,-1.932 -12.346,-5.795 -1.988,-3.861 -1.254,-8.797 2.207,-14.803 2.764,-4.799 6.094,-8.72 9.995,-11.763 3.897,-3.042 8.323,-5.441 13.273,-7.197 4.91,-1.755 10.467,-3.003 16.669,-3.745 6.196,-0.739 12.502,-1.287 18.906,-1.638 l 0.203,-0.352 c 2.089,-3.628 2.05,-6.134 -0.117,-7.518 -2.167,-1.385 -6.138,-2.078 -11.911,-2.078 -3.472,0 -7.528,0.614 -12.179,1.844 -4.647,1.228 -8.021,2.174 -10.119,2.837 h -1.93 l 9.133,-15.858 c 2.56,-0.585 6.578,-1.277 12.052,-2.076 5.473,-0.8 10.727,-1.2 15.758,-1.2 m -8.116,36.747 c -2.984,0.234 -6.25,0.556 -9.799,0.963 -3.554,0.408 -6.345,0.884 -8.373,1.429 -2.487,0.662 -4.651,1.624 -6.491,2.887 -1.84,1.263 -3.353,2.926 -4.539,4.985 -0.783,1.364 -1.305,2.471 -1.566,3.327 -0.255,0.854 -0.144,1.672 0.346,2.448 0.449,0.779 1.192,1.352 2.228,1.722 1.036,0.37 2.879,0.554 5.532,0.554 2.105,0 4.488,-0.426 7.147,-1.282 2.656,-0.856 5.209,-1.983 7.653,-3.384 l 7.862,-13.649 M 157.37,127.625 c 11.978,0 19.564,1.842 22.766,5.53 3.203,3.686 2.532,9.47 -2.006,17.349 l -25.752,44.707 h -20.889 l 4.012,-6.965 c -1.626,0.859 -3.628,1.894 -5.999,3.102 -2.377,1.209 -4.503,2.166 -6.392,2.867 -2.608,0.938 -5.151,1.629 -7.632,2.076 -2.482,0.45 -5.052,0.676 -7.702,0.676 -6.244,0 -10.357,-1.932 -12.346,-5.795 -1.989,-3.861 -1.254,-8.797 2.207,-14.803 2.764,-4.799 6.094,-8.72 9.994,-11.763 3.898,-3.042 8.323,-5.441 13.274,-7.197 4.909,-1.755 10.467,-3.003 16.669,-3.745 6.196,-0.739 12.502,-1.287 18.906,-1.638 l 0.202,-0.352 c 2.09,-3.628 2.05,-6.134 -0.116,-7.518 -2.167,-1.385 -6.139,-2.078 -11.911,-2.078 -3.472,0 -7.529,0.614 -12.179,1.844 -4.647,1.228 -8.021,2.174 -10.119,2.837 h -1.931 l 9.134,-15.858 c 2.56,-0.585 6.578,-1.277 12.052,-2.076 5.472,-0.8 10.726,-1.2 15.758,-1.2 m -8.117,36.747 c -2.984,0.234 -6.249,0.556 -9.799,0.963 -3.553,0.408 -6.344,0.884 -8.374,1.429 -2.485,0.662 -4.65,1.624 -6.489,2.887 -1.841,1.263 -3.353,2.926 -4.539,4.985 -0.784,1.364 -1.306,2.471 -1.566,3.327 -0.255,0.854 -0.145,1.672 0.346,2.448 0.449,0.779 1.191,1.352 2.228,1.722 1.035,0.37 2.878,0.554 5.531,0.554 2.105,0 4.489,-0.426 7.147,-1.282 2.656,-0.856 5.208,-1.983 7.653,-3.384 l 7.862,-13.649 m 251.725,-36.689 c 7.089,0 11.439,2.069 13.053,6.203 1.612,4.135 0.046,10.319 -4.692,18.549 l -24.642,42.776 h -21.124 l 18.775,-32.594 c 1.527,-2.653 2.915,-5.296 4.157,-7.928 1.242,-2.634 1.894,-4.573 1.949,-5.823 0.049,-1.442 -0.482,-2.496 -1.603,-3.16 -1.12,-0.664 -3.025,-0.995 -5.719,-0.995 -1.91,0 -4.033,0.313 -6.359,0.936 -2.33,0.625 -5.039,1.62 -8.127,2.984 l -26.831,46.58 H 318.69 l 37.854,-65.714 h 21.124 l -4.18,7.256 c 5.425,-2.926 10.311,-5.169 14.656,-6.729 4.347,-1.56 8.626,-2.341 12.834,-2.341 m -153.039,0 c 8.181,0 12.813,3.005 13.89,9.012 1.079,6.007 -1.403,14.258 -7.449,24.752 -3.122,5.422 -6.791,10.357 -11.011,14.804 -4.216,4.448 -8.501,8.115 -12.852,11.002 -4.559,3.042 -9.061,5.344 -13.505,6.903 -4.441,1.561 -8.692,2.342 -12.744,2.342 -3.741,0 -6.685,-0.4 -8.834,-1.2 -2.15,-0.8 -4.174,-1.921 -6.069,-3.366 l -15.774,27.387 h -21.123 l 51.737,-89.821 h 21.125 l -3.945,6.846 c 4.718,-2.575 9.22,-4.66 13.514,-6.261 4.289,-1.6 8.637,-2.4 13.04,-2.4 m -43.317,53.775 c 5.566,0 10.647,-1.626 15.244,-4.878 4.601,-3.252 8.784,-8.149 12.556,-14.694 3.678,-6.388 5.256,-11.022 4.737,-13.904 -0.52,-2.881 -3.133,-4.324 -7.841,-4.324 -1.986,0 -4.206,0.303 -6.654,0.906 -2.45,0.604 -4.953,1.47 -7.512,2.599 l -19.014,33.011 c 1.086,0.545 2.384,0.896 3.891,1.052 1.504,0.156 3.039,0.232 4.593,0.232 m 45.083,19.839 -56.764,98.545 c -2.202,3.824 -4.948,7.402 -8.231,10.736 -3.289,3.336 -6.941,6.154 -10.956,8.455 -4.266,2.457 -8.795,4.361 -13.585,5.705 -4.796,1.348 -10.157,2.02 -16.086,2.02 -4.018,0 -7.716,-0.146 -11.101,-0.438 -3.381,-0.291 -6.263,-0.709 -8.639,-1.254 l 10.148,-17.619 h 2.108 c 1.467,0.703 3.04,1.355 4.72,1.961 1.681,0.605 4.101,0.908 7.26,0.908 4.098,0 7.561,-0.549 10.397,-1.643 2.833,-1.092 5.28,-2.613 7.341,-4.568 1.999,-1.912 3.715,-4.01 5.149,-6.297 1.431,-2.283 3.171,-5.203 5.218,-8.756 L 218,217.329 h -19.953 l 9.232,-16.033 h 42.426 m 228.406,19.708 c 11.47,0 18.535,3.122 21.204,9.362 2.664,6.241 0.885,14.768 -5.339,25.572 -6.226,10.804 -14.281,19.319 -24.164,25.542 -9.885,6.221 -20.521,9.332 -31.91,9.332 -11.392,0 -18.446,-3.111 -21.162,-9.332 -2.716,-6.223 -0.963,-14.738 5.262,-25.542 6.27,-10.884 14.358,-19.427 24.272,-25.63 9.914,-6.203 20.526,-9.304 31.837,-9.304 m -31.575,55.121 c 1.912,0 3.921,-0.322 6.027,-0.965 2.106,-0.645 4.204,-1.727 6.288,-3.248 2.332,-1.676 4.518,-3.695 6.561,-6.057 2.042,-2.359 4.266,-5.625 6.67,-9.801 2.225,-3.862 3.74,-7.1 4.541,-9.713 0.803,-2.614 1.031,-4.701 0.685,-6.262 -0.329,-1.6 -1.18,-2.729 -2.553,-3.395 -1.374,-0.662 -3.074,-0.995 -5.103,-0.995 -2.029,0 -3.991,0.274 -5.886,0.821 -1.896,0.545 -4.036,1.638 -6.423,3.275 -2.162,1.521 -4.387,3.609 -6.678,6.262 -2.289,2.653 -4.592,5.988 -6.906,10.006 -2.068,3.59 -3.527,6.699 -4.38,9.332 -0.855,2.635 -1.097,4.752 -0.731,6.35 0.371,1.521 1.225,2.633 2.556,3.336 1.332,0.702 3.108,1.054 5.332,1.054 m -70.948,-54.887 c 7.089,0 11.441,2.069 13.053,6.203 1.613,4.134 0.047,10.318 -4.693,18.548 l -24.641,42.776 h -21.124 l 18.775,-32.594 c 1.528,-2.654 2.916,-5.297 4.157,-7.93 1.242,-2.633 1.896,-4.572 1.951,-5.821 0.047,-1.442 -0.483,-2.496 -1.604,-3.161 -1.122,-0.662 -3.025,-0.994 -5.719,-0.994 -1.912,0 -4.033,0.314 -6.359,0.937 -2.331,0.625 -5.04,1.619 -8.126,2.984 l -26.832,46.579 h -21.125 l 37.853,-65.713 h 21.125 l -4.181,7.256 c 5.425,-2.926 10.311,-5.168 14.656,-6.729 4.348,-1.559 8.627,-2.341 12.834,-2.341 m 189.961,1.58 c 0.74,0 1.563,0.021 2.478,0.058 0.911,0.04 1.694,0.099 2.35,0.177 l -11.562,20.07 h -1.869 c -0.714,-0.312 -2.021,-0.547 -3.914,-0.702 -1.897,-0.155 -3.507,-0.234 -4.828,-0.234 -2.998,0 -5.76,0.196 -8.279,0.585 -2.521,0.39 -5.377,1.055 -8.559,1.988 l -25.35,44.006 h -21.125 l 37.854,-65.713 h 21.124 l -5.562,9.654 c 6.923,-3.979 12.474,-6.621 16.653,-7.93 4.177,-1.305 7.708,-1.959 10.589,-1.959 m -133.888,0.235 -37.853,65.713 h -21.124 l 37.852,-65.713 h 21.125 m -115.848,0 -37.853,65.713 h -21.125 l 4.181,-7.256 c -5.603,2.963 -10.466,5.217 -14.586,6.758 -4.121,1.539 -8.42,2.311 -12.901,2.311 -7.248,0 -11.629,-2.086 -13.137,-6.26 -1.511,-4.176 0.083,-10.338 4.779,-18.492 l 24.639,-42.773 h 21.122 l -18.775,32.592 c -1.908,3.314 -3.39,6.078 -4.446,8.281 -1.055,2.203 -1.61,4.027 -1.66,5.471 -0.091,1.443 0.426,2.496 1.546,3.158 1.119,0.666 3.025,0.996 5.716,0.996 1.796,0 3.976,-0.33 6.543,-0.996 2.565,-0.662 5.232,-1.639 8.002,-2.926 l 26.832,-46.576 h 21.123 M 174.156,56.559 H 148.354 105.93 97.308 l -4.303,7.472 -9.232,16.033 -12.875,22.357 h 19.949 l -28.436,49.363 c -1.952,3.388 -3.611,6.172 -4.931,8.277 -0.783,1.248 -1.707,2.375 -2.823,3.443 -0.591,0.56 -1.389,1.041 -2.396,1.429 -0.502,0.194 -1.997,0.644 -5.031,0.644 -1.458,0 -2.223,-0.091 -2.506,-0.135 -1.094,-0.403 -2.109,-0.829 -3.038,-1.273 l -3.054,-1.46 H 35.25 33.142 24.521 l -4.302,7.47 -10.149,17.62 -10.064,17.47 19.651,4.511 c 3.071,0.705 6.568,1.221 10.69,1.577 3.817,0.327 7.98,0.493 12.386,0.493 7.265,0 14.033,-0.867 20.118,-2.574 5.95,-1.67 11.67,-4.073 16.998,-7.143 1.178,-0.676 2.336,-1.388 3.472,-2.139 3.299,5.148 10.32,11.887 24.456,11.887 3.53,0 7.017,-0.307 10.363,-0.915 1.282,-0.23 2.578,-0.513 3.885,-0.841 h 9.465 9.063 l -1.008,1.749 -12.878,22.358 h 25.802 21.123 8.621 l 1.145,-1.987 h 8.842 l -28.436,49.362 c -1.95,3.385 -3.609,6.17 -4.931,8.277 -0.784,1.25 -1.707,2.375 -2.822,3.441 -0.592,0.563 -1.39,1.043 -2.397,1.432 -0.502,0.193 -1.997,0.643 -5.032,0.643 -1.457,0 -2.222,-0.09 -2.505,-0.135 -1.094,-0.402 -2.109,-0.828 -3.038,-1.271 l -3.054,-1.461 h -3.383 -2.108 -8.621 l -4.302,7.471 -10.149,17.617 -10.064,17.471 19.651,4.512 c 3.071,0.703 6.568,1.221 10.69,1.576 3.817,0.328 7.98,0.492 12.386,0.492 7.265,0 14.033,-0.865 20.118,-2.572 5.95,-1.67 11.67,-4.074 16.998,-7.143 5.146,-2.949 9.909,-6.625 14.132,-10.91 4.171,-4.234 7.714,-8.863 10.534,-13.762 l 5.587,-9.697 c 4.093,4.232 10.874,7.906 22.077,7.906 4.656,0 9.229,-0.609 13.65,-1.814 h 9.656 10.662 25.804 21.125 8.622 15.134 21.124 8.621 4.757 21.124 8.621 l 4.302,-7.471 0.897,-1.557 c 5.234,5.967 14.364,11.074 30.273,11.074 7.54,0 14.862,-1.104 21.905,-3.297 l -0.719,1.25 h 25.802 21.125 8.621 l 4.302,-7.469 22.188,-38.514 c 0.371,-0.07 0.729,-0.133 1.074,-0.186 1.764,-0.273 3.782,-0.41 6.003,-0.41 0.616,0 1.741,0.031 3.613,0.185 0.141,0.011 0.265,0.022 0.372,0.033 l 1.646,0.718 h 3.11 1.869 8.621 l 4.303,-7.469 11.561,-20.07 11.277,-19.577 -22.433,-2.679 c -1.028,-0.121 -2.163,-0.209 -3.468,-0.266 -1.219,-0.051 -2.227,-0.073 -3.127,-0.073 -1.332,0 -2.707,0.078 -4.133,0.234 h -17.548 -21.124 -8.621 l -4.304,7.47 -1.094,1.899 c -5.183,-6.122 -14.36,-11.417 -30.614,-11.417 -7.3,0 -14.404,1.043 -21.262,3.115 l 0.615,-1.067 h -25.804 -21.125 -8.621 l -3.836,6.66 c -1.527,-1.682 -3.459,-3.306 -5.899,-4.673 h 1.137 l 4.303,-7.469 24.642,-42.776 c 7.188,-12.482 9.04,-22.757 5.664,-31.414 -2.288,-5.864 -8.829,-15.697 -26.947,-15.697 -4.431,0 -8.922,0.609 -13.4,1.814 h -9.909 -21.124 -8.621 l -4.302,7.47 -0.105,0.181 c -6.477,-6.573 -16.748,-9.523 -32.971,-9.523 -5.726,0 -11.753,0.457 -17.913,1.357 -5.925,0.864 -10.25,1.615 -13.22,2.294 l -6.35,1.451 -2.312,4.015 c -4.131,-4.818 -11.095,-9.06 -22.812,-9.06 -4.54,0 -9.067,0.609 -13.51,1.814 h -9.1 -21.125 -8.621 l -4.303,7.47 -0.419,0.727 c -6.444,-6.957 -16.829,-10.07 -33.492,-10.07 -5.194,0 -10.637,0.375 -16.202,1.118 l 20.11,-34.91 z"
   id="path1200"
   style="fill:#181f62" />
		</g>
		<g
   id="g1208">
			<polygon
   points="427.898,192.289 447.001,173.586 445.653,192.426 465.541,195.127 442.964,210.182 436.344,225.741 426.392,218.354 399.505,228.06 416.114,206.787 410.474,194.222 "
   id="polygon1204"
   style="fill:#ffffff" />
			<path
   d="m 441.375,185.736 -0.138,1.908 -0.636,8.884 8.825,1.199 3.041,0.413 -10.958,7.307 -2.356,1.572 -1.111,2.607 -3.707,8.713 -3.069,-2.279 -4.09,-3.035 -4.791,1.729 -9.01,3.254 4.72,-6.047 3.521,-4.508 -2.344,-5.22 -1.802,-4.013 9.324,-1.035 3.255,-0.361 2.338,-2.29 8.988,-8.798 m 11.253,-24.298 -26.88,26.314 -22.271,2.471 7.138,15.898 -24.98,31.992 39.974,-14.432 12.743,9.461 8.425,-19.799 31.838,-21.229 -27.909,-3.793 z"
   id="path1206"
   style="fill:#e00d14" />
		</g>
	</g>
</g>
</svg>