<?xml version="1.0" encoding="utf-8"?><svg version="1.1" xmlns="http://www.w3.org/2000/svg" xmlns:xlink="http://www.w3.org/1999/xlink" x="0px" y="0px" width="255px"
	 height="165px"  >
<path fill="#D1D1D1" d="M19.473,77.678c-5.425-2.616-11.913-4.493-16.4-5.723c-0.752-0.21-0.631-0.36-0.383-0.674
	c3.689-4.245,37.646-39.354,87.955-54.05c-4.411-6.933-13.587-6.788-13.244-6.933c9.67-4.14,27.954-7.561,50.201-7.77
	c86.205-0.824,127.415,56.855,124.779,92.003c-0.451,5.991-1,8.875-1.399,9.935l-0.543-0.039c0.242-0.746,0.38-4.546,0.145-8.215
	c-0.19-3.427-0.89-6.619-1.25-7.24c-0.549,0.242-1.393,0.621-2.491,1.229c0.098,3.95-0.942,8.47-1.7,9.713
	c-0.327,0.523-0.805,0.568-0.563-0.053c0.346-0.85,0.104-5.814-0.569-7.842c-1.55,0.941-2.597,1.871-3.414,2.636
	c0.393,1.569,1.236,5.095,0.929,11.047c-0.425,8.313-6.605,13.989-11.229,15.572l-0.118-0.157c3.44-3.42,6.775-9.11,6.775-13.106
	c0-3.009,0.092-4.971-1.196-8.201c-3.879,5.33-7.822,12.91-9.046,22.551c0.419,2.282,0.622,4.5,0.491,7.515
	c-0.478,10.341-9.098,19.111-17.764,21.832l-0.314-0.046l0.065-0.288c8.379-7.109,10.04-11.969,10.484-18.698
	c0.778-12.021-14.369-24.114-37.47-24.827c-21.197-0.661-46.512,7.763-75.168,39.196l-0.281-0.072
	c2.057-4.801,1.387-11.335,0.468-15.154c-8.015,6.646-21.868,22.807-28.055,30.661l-0.455-0.065
	c-9.86-41.19-43.526-72.768-65.368-76.431c-0.769-0.137-0.621-0.346-0.379-0.667c2.244-2.845,4.277-5.075,6.671-7.587L19.473,77.678
	"/>
<path d="M219.804,139.059c0.465-1.714,1.491-3.872,1.491-7.665c0-12.963-15.906-24.572-38.183-25.979
	c-20.274-1.269-46.034,5.933-70.397,28.248l-0.274-0.072c0.621-4.035-0.268-6.232-1.302-8.143l0.147-0.569
	c24.621-19.556,51.198-25.37,72.126-23.101c23.297,2.519,39.857,15.057,38.706,29.778c-0.281,3.67-1.099,6.044-1.87,7.567
	l-0.445,0.49V139.059 M8.063,70.726c23.064,6.344,59.458,31.008,74.942,77.208l0.448,0.053
	c21.05-26.665,53.813-48.935,90.528-48.935c30.909,0,49.674,16.089,49.674,30.739c0,6.952-2.505,12.8-8.516,17.686l-0.046,0.313
	l0.32,0.007c5.638-4.121,10.504-11.008,10.504-18.411c0-8.725-4.637-14.631-4.637-14.631c2.675,2.675,4.146,6.22,4.146,6.22
	c2.158-15.586,10.262-23.813,10.262-23.813c-0.909-3.695-2.597-6.795-2.597-6.795c2.943,3.106,5.5,10.549,5.5,15.775
	c0,4.016-1.32,8.73-4.761,12.158l0.131,0.163c3.054-1.942,6.337-6.37,6.337-14.493c0-5.978-1.817-9.896-1.817-9.896
	c2.25-2.034,4.343-3.512,6.063-4.539c0.347,1.269,0.791,3.734,0.876,5.657c0.021,0.432,0.288,0.674,0.387,0.033
	c0.32-2.158-0.131-6.188-0.138-6.318c2.263-1.242,3.662-1.668,3.662-1.668c-6.004-42.133-55.043-75.174-111.215-75.174
	c-78.059,0-125.735,52.545-130.444,57.999C7.426,70.353,7.298,70.51,8.063,70.726 M93.941,14.105
	c2.453-0.726,18.731-5.311,42.126-5.311c68.778,0,115.195,44.645,115.195,85.306c0,1.739,0.014,3.296-0.02,3.78
	c-0.032,0.478,0.269,0.961,0.438,0.157c0.209-0.818,0.327-3.303,0.327-7.502c0-31.917-37.052-86.804-122.874-86.804
	c-22.267,0-40.511,4.578-43.86,5.468v0.288c3.202,0.805,5.497,1.569,8.149,4.499L93.941,14.105"/>
<path fill-rule="evenodd" clip-rule="evenodd" fill="#788AC4" d="M106.989,106.77l-0.029,0.124c0.53,0.876,2.247,3.669,3.188,5.226
	c0.53,0.876,1.167,1.053,1.589,0.948l0.065,0.138c-0.876,0.588-2.423,1.622-3.708,2.537l-0.102-0.078
	c0.085-0.17,0.416-0.87-0.196-1.851c-0.373-0.608-6.155-9.739-6.462-10.223c-0.53-0.863-1.24-1.132-1.688-1.033l-0.052-0.177
	c2.985-2.172,5.854-3.886,9.689-5.952l0.222,0.059c0.5,0.727,0.801,1.119,1.312,1.832l-0.095,0.176
	c-0.416-0.144-0.896-0.287-1.969,0.125c-0.782,0.313-2.986,1.393-4.742,2.852l-0.046,0.483c0.569,0.948,1.495,2.492,2.217,3.656
	l0.108,0.033l3.166-1.982l1.161-1.046l0.105-0.039c0.235,0.68,0.235,0.745,0.719,2.053l-0.101,0.053l-1.514,0.308
	C109.828,104.99,107.797,106.232,106.989,106.77 M147.604,82.707c3.479-0.641,7.686-0.941,9.504-1.007l0.124,0.104
	c0.216,0.87,0.34,1.242,0.608,2.139l-0.111,0.052c-0.497-0.517-1.269-0.765-2.204-0.745c-1.001,0.032-2.374,0.138-3.996,0.405
	l-0.072,0.104c0.085,0.622,0.386,2.512,0.576,3.761l0.091,0.06c1.688-0.256,2.087-0.321,2.846-0.432l1.327-0.465l0.118,0.026
	c-0.046,0.641-0.065,0.693-0.124,1.955l-0.099,0.007l-1.38-0.269c-1.622,0.21-1.635,0.203-2.512,0.341l-0.071,0.085
	c0.124,0.798,0.556,3.643,0.752,4.794l0.098,0.111c0.628,0.177,2.885-0.216,4.65-0.693c0.936-0.235,1.38-0.661,1.629-1.079
	l0.124,0.039c-0.216,0.851-0.405,1.609-0.563,2.303l-0.144,0.059c-1.76,0.216-5.351,0.856-8.634,1.582l-0.092-0.124l0.341-1.603
	c-0.55-2.963-1.328-7.142-1.852-9.986c-0.144-0.681-0.34-1.093-0.975-1.36L147.604,82.707z M202.236,98.019l-0.667,1.621v0.196
	c0.248,0.406,1.007,1.315,1.707,1.616c2.106,0.869,3.683-0.138,4.225-1.328c0.589-1.223,0.164-2.558-0.405-3.623
	c-0.713-1.334-1.628-2.354-1.072-3.159c0.432-0.681,1.406-0.432,1.857-0.138c1.007,0.667,1.092,1.563,1.079,2.093l0.138,0.026
	l0.765-1.262v-0.184c-0.17-0.354-0.719-1.164-1.642-1.7c-1.445-0.87-3.283-0.53-4.048,0.778c-0.72,1.262,0.098,2.701,0.719,3.741
	c0.602,1.105,1.224,2.367,0.759,3.211c-0.504,0.955-1.399,0.856-2.034,0.517c-0.883-0.504-1.275-1.406-1.249-2.361L202.236,98.019z
	 M177.108,83.368c-0.026,0.444-0.085,1.255-0.117,1.962l-0.15,0.026c-0.217-0.484-1.459-2.198-3.435-2.434
	c-1.817-0.216-4.29,1.19-4.761,4.474c-0.569,3.879,1.472,5.906,3.911,5.998c1.936,0.078,3.395-1.243,3.996-2.067l0.098,0.053
	c-0.183,0.68-0.674,2.335-0.699,2.394l-0.184,0.17c-0.569,0.36-2.655,1.275-5.245,0.543c-3.126-0.883-5.154-4.166-4.552-7.6
	c0.51-2.773,3.002-5.232,6.115-5.305c2.309-0.046,4.127,1.008,4.918,1.524L177.108,83.368z M130.649,86.899
	c1.239-0.438,2.292-0.771,4.078-1.295l0.095,0.124l-0.135,1.779c0.455,1.458,0.919,2.943,1.158,3.734l0.121,0.046
	c1.521-0.536,3.64-1.125,4.947-1.491l0.072-0.111l-0.987-3.637c-0.203-0.713-0.419-1.269-0.991-1.484l-0.013-0.131
	c1.69-0.438,2.763-0.674,4.116-0.935l0.053,0.071c-0.366,0.458-0.393,1.066-0.229,1.746c0.568,2.42,1.844,7.829,2.38,10.092
	c0.223,1.014,0.693,1.315,1.008,1.374v0.144c-1.59,0.444-1.956,0.536-3.688,1.072l-0.079-0.11l0.177-1.668
	c-0.366-1.348-1.19-4.389-1.399-5.232l-0.104-0.072c-1.302,0.34-3.365,0.981-4.925,1.498l-0.056,0.144
	c0.323,1.033,1.181,3.819,1.642,5.331c0.262,0.896,0.703,1.104,1.15,1.184v0.157c-1.356,0.432-2.736,0.994-3.891,1.458l-0.086-0.124
	c0.396-0.504,0.402-1.105,0.115-1.942c-0.402-1.21-3.067-9.111-3.47-10.367c-0.235-0.706-0.645-1.157-1.04-1.203L130.649,86.899z
	 M116.466,92.877c0.821-0.497,2.852-1.517,5.013-2.479c2.139-0.948,4.382-1.824,5.641-2.27l0.2,0.092l1.187,1.896l-0.095,0.15
	c-0.248-0.131-1.092-0.353-1.916-0.065c-1.452,0.504-1.995,0.766-2.763,1.053l-0.023,0.125c0.536,1.308,3.551,8.679,4.362,10.732
	c0.379,0.929,0.801,0.981,1.177,1.033l0.014,0.145c-1.227,0.568-2.302,1.138-3.757,1.916l-0.085-0.078
	c0.219-0.36,0.34-1.073,0.04-1.832c-0.242-0.543-3.516-8.26-4.542-10.647l-0.118-0.065c-0.068,0.033-1.409,0.654-2.292,1.158
	c-0.67,0.386-1.285,0.935-1.465,1.563l-0.216,0.014l-0.441-2.23L116.466,92.877z M86.822,114.304
	c0.389-2.093,1.681-4.205,3.395-5.468c1.723-1.282,3.846-2.106,5.961-1.786c2.283,0.348,4.382,1.714,5.922,3.872
	c1.573,2.224,1.913,4.599,1.426,6.888c-0.422,2.06-1.655,3.708-3.208,5.01c-1.622,1.341-4.16,2.151-6.331,1.739
	c-2.224-0.405-4.016-1.497-5.409-3.296C87.179,119.444,86.387,116.593,86.822,114.304 M95.168,122.303
	c1.318,0.457,3.061,0.229,4.245-0.674c1.239-0.936,2.018-2.257,2.031-3.774c0.02-1.405-0.53-3.015-1.949-5.029
	c-1.213-1.72-3.002-3.165-4.513-3.506c-1.681-0.379-2.937,0.072-3.826,0.759c-1.112,0.844-1.962,2.133-2.057,3.768
	c-0.091,1.583,0.504,3.14,1.992,5.167C92.447,120.87,93.706,121.779,95.168,122.303 M186.232,84.938
	c1.275,0.34,3.002,1.674,2.04,5.461c-1.065,4.258-3.061,4.48-4.474,4.141c-2.099-0.504-2.995-3.048-2.302-5.645
	C182.608,84.604,185.166,84.637,186.232,84.938 M186.521,83.767c3.485,0.975,4.938,4.454,4.067,7.443
	c-0.975,3.381-3.577,5.271-7.233,4.362c-3.067-0.752-5.376-4.206-4.068-7.907C180.522,84.12,183.963,83.034,186.521,83.767
	 M197.534,89.038c-0.085,1.38-0.288,3.918-0.334,4.565c-1.021-0.294-1.478-0.458-2.236-0.693l-0.02-0.092
	c0.471-0.72,2.204-3.335,2.544-3.793L197.534,89.038z M196.723,87.135c0.824,0.281,2.106,0.766,2.865,1.086l0.117,0.124
	c-0.065,1.164-0.379,7.313-0.51,9.543c-0.053,0.68,0.039,1,0.34,1.497l-0.052,0.104c-0.838-0.32-2.551-0.974-3.186-1.223
	l0.039-0.092l0.589-0.732c0.104-1.36,0.138-1.824,0.189-2.767l-0.052-0.098c-0.818-0.327-1.91-0.7-2.63-0.923l-0.065,0.033
	c-0.483,0.654-1.15,1.693-1.406,2.061l-0.326,1.327l-0.021,0.118c-0.451-0.138-1.517-0.451-2.314-0.622l0.006-0.11l0.975-0.693
	c1.282-1.825,3.794-5.402,5.33-7.698l0.021-0.831L196.723,87.135z M211.399,96.71l1.217-1.282h0.144
	c1.399,0.896,3.761,2.604,4.742,3.375l0.065,0.085l-0.465,1.518l-0.124-0.046l-0.497-0.975l-1.06-0.784l-0.085,0.006
	c-0.909,1.648-2.178,4.029-3.336,6.161c-0.478,0.877-0.425,1.275-0.262,1.524l-0.085,0.104l-2.25-1.7l0.065-0.086l0.818-0.503
	c1.184-2.224,2.505-4.638,3.524-6.547l-0.006-0.104l-0.817-0.563l-1.524-0.06L211.399,96.71z"/>
<path fill="#788AC4" d="M58.271,49.966l1.603,2.656c0,0-2.191,1.557-2.982,2.746c-0.736,1.086-0.608,2.819,0.127,4.114
	c0.664,1.184,2.345,2.773,2.345,2.773l21.19,22.034L67.816,44.505l6.596-3.486l27.273,32.78l-5.572-27.58
	c0,0-0.569-2.956-1.406-4.454c-1.2-2.211-3.129-3.074-4.522-3.035c-1.324,0.04-4.039,0.863-4.039,0.863l-0.984-3.303
	c0,0,8.525-2.733,10.998-3.446c2.583-0.778,11.371-3.368,11.371-3.368l0.951,3.303c0,0-2.786,0.765-3.977,1.426
	c-1.145,0.628-2.364,1.622-2.989,2.884c-0.494,0.962-0.441,2.604-0.582,3.983c-0.127,1.387,0.422,3.257,0.422,3.257l7.714,46.64
	l-4.827,2.263L80.426,65.304l10.622,35.684l-4.526,3.186c0,0-38.284-34.814-38.944-35.364c-0.651-0.568-2.325-2.21-4.529-2.335
	c-2.054-0.104-5.229,2.146-5.229,2.146l-1.877-2.289c0,0,9.987-7.665,11.701-8.934C49.418,56.101,58.271,49.966,58.271,49.966
	 M115.508,53.086l-11.662,4.29l0.51,1.394c0,0,0.85-0.556,1.619-0.478c0.863,0.085,1.514,0.732,1.75,1.479
	c0.232,0.752,8.169,21.877,8.169,21.877s0.435,1.053,0.435,2.002c0,0.765-0.239,1.281-0.742,1.732l-1.802,1.21l0.899,1.806
	c0,0,4.291-1.896,7.515-3.074c3.074-1.132,7.4-2.42,7.4-2.42l-0.432-1.942c0,0-1.976,0.333-2.878,0.078
	c-0.785-0.229-1.22-0.673-1.743-1.759C124.021,78.161,115.508,53.086,115.508,53.086 M125.306,60.398l1.713,0.183
	c0,0,0.55-4.127,2.855-6.639c1.573-1.727,3.938-2.845,6.629-3.191c2.299-0.294,3.613,0.196,3.613,0.196l-9.568,31.407
	c0,0,5.635-1.512,9.948-2.349c4.819-0.922,9.019-1.458,9.019-1.458l-0.104-10.157l-1.87,0.353c0,0-0.203,4.134-1.871,6.26
	c-1.72,2.151-5.565,2.367-5.565,2.367l8.502-30.668c0,0-6.147,0.111-12.9,1.093c-6.864,1.001-12.617,2.257-12.617,2.257
	L125.306,60.398 M162.713,46.186c-3.224-0.039-8.07,0.288-8.07,0.288l-1.981,6.22l0.954,1.073c0,0,1.714-1.733,2.989-2.303
	c2.354-1.053,5.402-1.014,7.207,0.033c1.505,0.869,2.512,2.675,1.145,4.506c-0.896,1.203-2.838,2.211-4.996,3.133
	c-2.172,0.922-4.553,2.165-5.887,3.434c-1.327,1.275-2.989,4.12-3.159,6.874c-0.156,2.773,0.576,4.415,1.066,5.245
	c0.523,0.916,1.053,1.74,2.518,2.721c1.165,0.766,2.858,1.158,4.226,1.139c1.145-0.007,2.544-0.17,4.219-1.086
	c1.157-0.608,2.825-2.106,2.825-2.106l0.556,1.374l1.008,1.583c0,0,2.158,0.11,3.342,0.117c1.157,0.026,4.506,0.274,4.506,0.274
	l0.275-1.778c0,0-1.609,0-2.179-0.693c-0.425-0.504-0.536-1.21-0.621-2.08c-0.039-0.883,0.15-6.324,0.269-7.927
	c0.15-1.59,0.759-7.849,0.817-8.85c0.065-1.02,0.366-3.4,0.065-4.644c-0.393-1.622-1.125-2.962-2.151-3.904
	c-1.04-0.948-2.054-1.648-3.506-2.015C166.689,46.447,164.819,46.199,162.713,46.186 M165.624,60.006c0,0-0.497,10.072-0.792,11.373
	c-0.359,1.537-1.923,2.551-4.016,2.531c-1.916-0.052-3.23-1.314-3.46-4.042c-0.202-2.675,1.197-4.467,2.623-5.925
	C161.333,62.543,165.624,60.006,165.624,60.006 M189.783,52.15c0,0-1.805-0.856-4.447-1.55c-2.609-0.68-6.063-1.341-6.167-1.308
	v2.511c0,0,1.89,0.308,1.942,1.433c0.039,0.798-1.877,21.112-1.877,21.112s-0.065,1.341-0.693,1.936
	c-0.772,0.707-2.237,0.668-2.237,0.668l-0.281,1.798c0,0,5.193,0.766,7.306,1.178c2.349,0.478,6.757,1.589,6.757,1.589l0.241-1.805
	c0,0-3.008-0.87-3.446-2.623c-0.288-1.223,0.059-3.31,0.059-3.31l1.583-11.688c0,0,1.949-1.458,3.989-1.354
	c2.034,0.111,3.885,1.125,3.885,1.125l4.304-4.297c0,0-3.728-3.368-5.657-2.846c-1.955,0.517-5.932,4.075-5.932,4.075L189.783,52.15
	 M211.223,84.009l9.955-28.248c0,0-1.897-1.975-3.598-3.531c-1.7-1.537-4.983-4.277-4.983-4.277l-0.667,1.426
	c0,0,1.778,1.517,1.916,2.518c0.111,0.987-0.209,1.772-0.209,1.772l-2.924,10.046c0,0-1.027-3.878-5.102-3.826
	c-3.683,0.059-6.253,2.519-7.888,5.075c-1.53,2.42-2.728,6.181-2.995,9.059c-0.314,3.316,0.791,10.687,6.703,11.086
	c2.191,0.138,3.604-1.458,3.663-1.426l-0.805,2.57c0,0,1.942,0.89,3.382,1.55c1.472,0.681,3.381,1.688,3.381,1.688l0.726-1.654
	c0,0-0.673-0.405-0.928-1.635C210.66,85.382,211.223,84.009,211.223,84.009 M209.686,68.488c-0.522,1.995-2.74,9.117-3.57,10.824
	c-0.831,1.694-1.629,2.734-3.382,2.708c-2.753-0.033-2.557-3.564-2.296-5.723c0.249-2.191,0.576-4.311,2.041-7.861
	c1.479-3.552,2.825-5.135,4.5-4.945C209.686,63.786,210.223,66.298,209.686,68.488 M230.373,79.535c0,0-3.577-7.228-8.829-6.266
	c-3.107,0.589-4.167,3.368-3.801,6.253c0.347,2.772,2.473,6.448,3.035,8.279c0.615,2.087-0.085,3.525-1.511,3.774
	c-1.537,0.281-2.917-1.302-3.421-2.577c-0.517-1.354-0.202-3.23-0.202-3.23l-1.06-0.766l-1.942,5.533c0,0,4.519,4.336,7.678,4.048
	c3.101-0.28,5.337-2.426,5.324-6.266c-0.02-3.25-3.035-8.744-3.035-10.556c0-1.825,2.048-1.76,3.009-1.138
	c1.053,0.713,1.518,1.681,1.426,2.995c-0.098,0.968-0.471,2.047-0.824,2.858l1.145,1.099L230.373,79.535"/>
<path d="M114.596,40.587l7.79-23.355l-12.999,22.996L99.151,19.279l5.353,23.479L80.419,30.626l22.201,17.914L68.156,63.125
	l36.348-9.326l-12.597,34.33l16.165-30.778l12.819,25.618l-9.67-28.771l24.169,11.563l-20.494-15.926l34.873-7.998l-30.151,2.642
	c14.687-8.652,27.633-14.068,48-13.787c50.243,0.661,69.229,37.699,73.441,49.229c0.334,0.896,0.576,0.687,0.327-0.065
	c-12.577-37.771-50.87-52.813-76.443-53.14C145.63,26.447,130.688,31.333,114.596,40.587"/>
<path fill="#FFFFFF" d="M114.622,39.822l7.878-23.336l-12.875,25.089l-9.428-22.113l5.164,23.343L80.782,30.463l22.604,16.357
	L68.725,62.642l35.894-11.243L92.293,86.684l16.034-33.807l12.384,28.935l-8.721-29.883l27.146,16.069l-24.265-18.954l34.925-7.861
	l-32.835,3.44c14.722-8.614,30.337-14.873,50.723-14.526c50.243,0.837,69.112,37.934,73.278,49.471
	c0.333,0.923,0.563,0.681,0.327-0.052c-12.434-37.816-50.707-52.971-76.273-53.408C145.722,25.786,130.751,30.626,114.622,39.822"/>
</svg>
