<?xml version="1.0" encoding="UTF-8" standalone="no"?>
<svg
   xmlns="http://www.w3.org/2000/svg"
   version="1.1"
   id="Layer_1"
   x="0px"
   y="0px"
   width="54.726002"
   height="49.998451"
   viewBox="0 0 54.726 49.998451"
>
<g
   id="g290"
   transform="rotate(-90,24.999226,24.999226)"><g
     transform="rotate(90,24.99932,24.99862)"
     id="g504"><g
       id="g135">
	<g
   id="layer1"
   transform="translate(613.3437,-45.544512)"
   label="Layer 1"
   groupmode="layer">
		
			<path
   style="fill:#808080"
   id="path3002"
   d="m -577.599,45.544 -0.716,0.987 -1.293,1.779 c -1.06,1.456 -2.647,4.634 -3.518,8.44 l -0.005,0.021 c -0.868,3.803 -0.988,8.268 1.466,11.817 1.647,2.383 1.688,4.645 0.827,6.385 -0.859,1.735 -2.657,2.983 -5.151,3.086 -0.005,0 -0.009,0 -0.014,0 h -0.003 l -0.038,0.003 h -0.033 l -0.035,-0.003 h -0.006 c -0.004,0 -0.009,0 -0.013,0 -2.494,-0.103 -4.29,-1.351 -5.149,-3.086 -0.862,-1.74 -0.82,-4.002 0.827,-6.385 2.458,-3.556 2.33,-8.032 1.458,-11.839 -0.871,-3.806 -2.455,-6.983 -3.515,-8.44 l -1.293,-1.779 -0.716,-0.984 -0.065,1.217 -0.119,2.196 c -0.235,4.402 -0.324,8.43 -2.693,12.028 -1.569,-1.856 -3.338,-3.034 -5.184,-3.716 -2.254,-0.832 -4.574,-0.962 -6.826,-0.977 l -2.531,-0.019 -1.406,-0.008 1.155,0.797 2.085,1.439 c 1.94,1.339 4.46,3.236 5.698,6.391 1.239,3.155 1.31,7.703 -2.207,14.687 0,10e-4 0,0.002 0,0.002 l -0.127,0.247 -0.073,0.141 0.038,0.153 0.062,0.273 c 0,10e-4 0,0.002 0,0.003 1.115,4.891 4.088,8.728 7.918,11.298 v 0.009 l 0.187,0.13 c 0.026,0.018 10e-4,-0.002 0.008,0.002 0.008,0.005 0.026,0.019 0.008,0.006 -0.005,-0.003 0.009,0.005 0.002,0 3.717,2.544 8.131,3.724 12.505,3.697 -0.004,0 0.025,0 0.051,0 10e-4,-0.001 10e-4,0 0.002,0 0.007,0 0.011,0 0.011,0 4.376,0.023 8.79,-1.155 12.507,-3.705 -0.007,0.005 -0.004,0.003 0.008,-0.006 3.922,-2.57 6.967,-6.462 8.1,-11.434 v -0.002 l 0.062,-0.276 0.032,-0.148 -0.067,-0.139 -0.125,-0.249 c -3.517,-6.98 -3.409,-11.521 -2.133,-14.678 1.273,-3.155 3.833,-5.059 5.779,-6.401 l 2.083,-1.439 1.157,-0.797 -1.406,0.008 -2.531,0.019 h -0.003 c -2.251,0.015 -4.607,0.145 -6.896,0.974 -1.877,0.681 -3.683,1.858 -5.268,3.722 -2.371,-3.6 -2.458,-7.628 -2.693,-12.031 l -0.119,-2.196 z" />
		<path
   id="path2989"
   d="m -593.491,49.025 c -0.261,4.882 -0.322,9.724 -3.888,13.978 -3.358,-4.946 -7.618,-5.466 -12.034,-5.494 3.948,2.726 11.119,8.256 3.883,22.622 1.061,4.659 3.901,8.286 7.61,10.708 3.495,2.397 7.669,3.517 11.828,3.491 0.022,0 0.044,0 0.067,0 4.164,0.025 8.344,-1.097 11.842,-3.501 3.702,-2.422 6.536,-6.045 7.596,-10.698 -7.237,-14.366 0.092,-19.896 4.04,-22.622 -4.416,0.028 -8.832,0.548 -12.189,5.494 -3.565,-4.254 -3.628,-9.096 -3.89,-13.978 -1.777,2.441 -6.383,12.591 -2.04,18.874 3.708,5.365 0.5,11.148 -5.287,11.375 l -0.106,0.005 -0.104,-0.005 c -5.787,-0.227 -8.996,-6.01 -5.288,-11.375 4.343,-6.283 -0.263,-16.433 -2.04,-18.874 z" />
	</g>
</g></g></g>
</svg>