<?xml version="1.0" encoding="UTF-8" standalone="no"?>
<!-- Generator: Adobe Illustrator 16.0.0, SVG Export Plug-In . SVG Version: 6.00 Build 0)  -->

<svg
   xmlns:dc="http://purl.org/dc/elements/1.1/"
   xmlns:cc="http://creativecommons.org/ns#"
   xmlns:rdf="http://www.w3.org/1999/02/22-rdf-syntax-ns#"
   xmlns:svg="http://www.w3.org/2000/svg"
   xmlns="http://www.w3.org/2000/svg"
   xmlns:sodipodi="http://sodipodi.sourceforge.net/DTD/sodipodi-0.dtd"
   xmlns:inkscape="http://www.inkscape.org/namespaces/inkscape"
   version="1.1"
   id="Layer_1"
   x="0px"
   y="0px"
   width="648.9px"
   height="634.622px"
   viewBox="0 0 648.9 634.622"
   enable-background="new 0 0 648.9 634.622"
   xml:space="preserve"
   sodipodi:docname="BBD_C.svg"
   inkscape:export-filename="C:\MTG\Pictures\Symbols\Expansion Symbols\G - Reprint and Starter Sets\Battlebond\BBD_C.png"
   inkscape:export-xdpi="44.322437"
   inkscape:export-ydpi="44.322437"
   inkscape:version="0.92.2 (5c3e80d, 2017-08-06)"><metadata
     id="metadata13"><rdf:RDF><cc:Work
         rdf:about=""><dc:format>image/svg+xml</dc:format><dc:type
           rdf:resource="http://purl.org/dc/dcmitype/StillImage" /></cc:Work></rdf:RDF></metadata><defs
     id="defs11" /><sodipodi:namedview
     pagecolor="#ffffff"
     bordercolor="#666666"
     borderopacity="1"
     objecttolerance="10"
     gridtolerance="10"
     guidetolerance="10"
     inkscape:pageopacity="0"
     inkscape:pageshadow="2"
     inkscape:window-width="690"
     inkscape:window-height="480"
     id="namedview9"
     showgrid="false"
     inkscape:zoom="0.37187491"
     inkscape:cx="324.45001"
     inkscape:cy="317.311"
     inkscape:window-x="0"
     inkscape:window-y="0"
     inkscape:window-maximized="0"
     inkscape:current-layer="Layer_1" /><polygon
     fill="#FFFFFF"
     points="326.95,595.604 74.95,347.604 324.22,49.544 579.95,344.604 "
     id="polygon2" /><g
     id="g6"><path
       d="M323.74,0.454c0.82-1.27,1.76,0.47,2.36,1.02c98.34,117.64,196.76,235.21,295.13,352.83c9.19,11.1,18.59,22.02,27.67,33.21   c-55.71,55.8-111.98,111.04-167.58,166.95c2.65,20.62,8.52,41.24,20.06,58.73c5.49,8.4,12.71,15.55,20.91,21.3   c-106.78,0.25-213.56,0.04-320.33,0.11c-22.03-0.08-44.07,0.15-66.1-0.11c14.32-9.18,24.22-23.82,30.71-39.28   c3.86-9.21,6.62-18.87,8.58-28.65c0.21-1.82,1.18-4.18-0.63-5.51c-25.72-25.29-51.14-50.87-76.76-76.26   c-32.63-32.39-65.26-64.77-97.76-97.28c104.12-124.79,208.54-249.33,312.77-374.03C316.46,9.164,319.98,4.704,323.74,0.454z    M324.22,49.544c-18.94,23.14-38.35,45.91-57.46,68.91c-63.31,75.68-126.64,151.35-189.93,227.04c-1.1,0.86-0.94,2.24,0.21,2.99   c27.9,27.77,55.88,55.47,83.8,83.23c6.18,5.84,11.78,12.33,18.33,17.75c0.2-53.8-0.08-107.61,0.14-161.41   c11.68-9.09,24.94-15.88,38.6-21.47c1.52-7.13,2.88-14.41,5.99-21.09c8.55-19.9,26.37-34.39,45.8-43.07c4.51-1.91,9.03-4,13.91-4.8   c5.96,16.72,7.78,34.54,10.15,52.03c23.6-1.85,47.3-1.61,70.92-0.12c2.44-17.48,4.06-35.39,10.29-52.02   c16.4,4.54,31.7,13.3,43.87,25.2c11.85,11.6,19.42,27.29,21.39,43.74c13.75,5.91,27.59,12.32,39.08,22.08   c-0.09,50.46-0.06,100.92-0.01,151.38c2.53-1.75,4.6-4.04,6.76-6.2c28.73-28.64,57.62-57.11,86.31-85.78   c1.27-0.92-0.19-2.18-0.74-3c-71.55-85.45-143.02-170.97-214.55-256.43C346.08,75.544,335.48,62.254,324.22,49.544z    M293.76,299.644c-0.05,40.21,0.19,80.42,0.52,120.63c0.87,20.77,4.09,41.44,9.17,61.6c5.5,21.12,13.41,41.88,25.67,60.05   c5.84-7.97,10.25-16.91,14.27-25.92c10.88-25.15,16.67-52.24,19.59-79.4c1.97-16.94,1.25-34,1.43-51   c0.11-28.62,0.1-57.23,0.25-85.84C341.47,294.254,316.98,294.474,293.76,299.644z"
       id="path4" /></g></svg>