<?xml version="1.0" encoding="UTF-8" standalone="no"?>
<svg

   xmlns="http://www.w3.org/2000/svg"
   xmlns:xlink="http://www.w3.org/1999/xlink"
   width="2178.4375"
   height="1955.2369"
   version="1.1">
    <linearGradient
       id="linearGradient3909">
<stop style="stop-color:#bf331c" offset="0" />
<stop style="stop-color:#d3641c" offset="0.30000299" />
<stop style="stop-color:#f6b91d" offset="0.5" />
<stop style="stop-color:#d3641c" offset="0.69999701" />
<stop style="stop-color:#bf331c" offset="1" />
    </linearGradient>
    <linearGradient
       xlink:href="#linearGradient3909"
       id="linearGradient3915"
       x1="-180.09343"
       y1="1332.2645"
       x2="1040.7083"
       y2="1332.2645"
       gradientUnits="userSpaceOnUse" />
    <linearGradient
       xlink:href="#linearGradient3909"
       id="linearGradient3010"
       x1="67.281418"
       y1="819.82458"
       x2="864.98242"
       y2="819.82458"
       gradientUnits="userSpaceOnUse" />
    <linearGradient
       xlink:href="#linearGradient3909"
       id="linearGradient3018"
       x1="631.44415"
       y1="848.41565"
       x2="1805.8259"
       y2="848.41565"
       gradientUnits="userSpaceOnUse" />
    <linearGradient
       xlink:href="#linearGradient3909"
       id="linearGradient3026"
       x1="1060.3162"
       y1="439.34351"
       x2="1718.361"
       y2="439.34351"
       gradientUnits="userSpaceOnUse" />
  <g
     transform="translate(279.0625,110.5326)">
    <path d="M 443.34375,-110.53125 C 389.59321,-110.22869 354.33101,-88.944821 307.6875,-59.3125 261.04399,-29.680179 210.68367,11.894332 164.46875,65.03125 72.038905,171.30509 -4.5814739,329.34755 29.28125,514.3125 c 25.126861,137.24797 106.56684,291.35316 214.625,450.3125 -62.28614,64.7711 -119.23016,121.6058 -163.59375,163.125 -22.212575,20.7884 -40.292107,36.6362 -54.8125,48.6875 -10.203668,-10.7449 -23.085644,-26.1478 -37.1875,-45.0937 -36.122985,-48.5316 -80.562136,-119.1028 -128.5,-197.06255 l -138.875,-225.875 0,265.15625 0,355.5937 0,26.25 16.375,20.5 c 0,0 92.27603,115.9422 217.34375,231.5313 125.067715,115.5891 277.98453,242.6037 447.8125,237.0937 72.5894,-2.355 137.99867,-37.4243 213.8125,-86.9687 60.72336,-39.6828 126.12598,-90.9733 193.875,-150.5 67.74902,59.5267 133.15165,110.8172 193.87495,150.5 75.8139,49.5444 141.2232,84.6137 213.8126,86.9687 169.8279,5.51 322.7447,-121.5046 447.8124,-237.0937 C 1790.724,1491.8484 1883,1375.9062 1883,1375.9062 l 16.375,-20.5 0,-26.25 0,-355.5937 0,-265.15625 -138.875,225.875 c -47.9379,77.95975 -92.377,148.53095 -128.5,197.06255 -14.1019,18.9459 -26.9838,34.3488 -37.1875,45.0937 -14.5204,-12.0513 -32.5999,-27.8991 -54.8125,-48.6875 -44.3636,-41.5192 -101.3076,-98.3539 -163.5938,-163.125 108.0582,-158.95932 189.4982,-313.06448 214.625,-450.3125 33.8628,-184.96495 -42.7576,-343.00741 -135.1874,-449.28125 -46.215,-53.13692 -96.5753,-94.711428 -143.2188,-124.34375 -46.6435,-29.632322 -81.9057,-50.91619 -135.6562,-51.21875 -22.2403,-0.12519 -61.7362,8.39007 -82.5938,44.59375 -23.2232,40.309744 -13.8843,85.254844 -1.0312,113.46875 12.853,28.213906 29.9827,49.924601 47.6562,70.71875 35.347,41.5883 76.4235,81.48078 87.5938,96.6875 54.1847,73.76473 59.6441,164.00562 40.0624,272.625 2.1667,-12.0179 -0.9992,1.98565 -10.3124,17.75 -9.3133,15.76435 -23.764,37.51782 -41.9688,62.9375 -24.4948,34.20251 -56.2656,75.62103 -92.375,120.96875 C 1029.02,580.50653 938.47135,470.51832 870.71875,377.78125 l -60.5625,-82.875 -60.5625,82.875 C 681.84114,470.51832 591.29247,580.50653 496.3125,689.21875 460.2031,643.87102 428.43231,602.45251 403.9375,568.25 385.73268,542.83032 371.282,521.07684 361.96875,505.3125 c -9.31325,-15.76434 -12.4791,-29.76796 -10.3125,-17.75 -19.58163,-108.61942 -14.12221,-198.86029 40.0625,-272.625 11.17029,-15.2068 52.24672,-55.09919 87.59375,-96.6875 17.67351,-20.794153 34.80323,-42.504842 47.65625,-70.71875 12.85302,-28.213908 22.19199,-73.159014 -1.03125,-113.46875 -20.8578,-36.20402 -60.35345,-44.71894 -82.59375,-44.59375 z M 810.15625,875.0625 896.25,960.25 c -28.35795,32.33595 -57.20799,64.746 -86.09375,96.8125 C 781.27049,1024.996 752.42045,992.58595 724.0625,960.25 z M 448.125,1233.3438 c 30.61771,36.4673 61.92058,72.3936 93.625,107.4062 -46.04896,45.5866 -87.44028,84.4311 -120.59375,112.7188 -18.73944,15.9891 -34.75942,28.4054 -46.46875,36.5312 -7.29267,-5.0378 -15.7269,-11.1349 -26.15625,-19.3438 -20.07399,-15.8 -45.66733,-37.8034 -74.90625,-64.5624 z m 724.0625,0 174.5,172.75 c -29.2389,26.759 -54.8323,48.7624 -74.9063,64.5624 -10.4293,8.2089 -18.8635,14.306 -26.1562,19.3438 -11.7093,-8.1258 -27.7293,-20.5421 -46.4688,-36.5312 -33.1534,-28.2877 -74.5447,-67.1322 -120.5937,-112.7188 31.7044,-35.0126 63.0073,-70.9389 93.625,-107.4062 z M 361.875,1496.9375 c 0.1906,0 0.5479,0.031 0.75,0.031 -6.09809,1.8747 -9.55309,0.044 -0.75,-0.031 z"/>
    <path
       style="fill:url(#linearGradient3026)"
       d="m 1176.5312,-35.53125 c -8.4597,-0.04762 -14.402,2.250636 -17.1562,7.03125 -29.3782,50.993213 89.5891,144.48519 129.6562,199.03125 70.3525,95.77483 74.8542,211.54572 53.4376,330.34375 -5.7837,32.08139 -72.2532,125.91617 -168.0313,245.5 50.1362,56.26309 100.6187,111.33294 148.9375,162.65625 C 1423.5417,758.92766 1496.4054,614.67 1517.25,500.8125 1575.1376,184.61888 1258.3093,-35.070921 1176.5312,-35.53125 z"/>
    <path
       id="path3883"
       d="m -204.0625,973.5625 0,355.5937 c 0,0 357.60077,448.4036 604.09375,440.4063 141.45956,-4.5895 457.68618,-277.1563 718.68755,-589.0937 L 949.65625,1013.125 C 703.9794,1292.9971 424.4627,1579.1828 371.4375,1572.75 c -21.06868,-2.556 -95.13344,-57.365 -205.71875,-165.4062 l 234,-231.5938 c -39.57032,-48.5657 -77.612,-97.7384 -113.3125,-147 C 151.82098,1168.065 44.852822,1266.8534 26.375,1265.0312 -24.613328,1260.0035 -107.7844,1130.1363 -204.0625,973.5625 z"
       style="fill:url(#linearGradient3915)"/>
    <path
       style="fill:url(#linearGradient3010)"
       d="M 443.78125,-35.53125 C 362.00335,-35.070921 45.1749,184.61888 103.0625,500.8125 141.53376,710.95024 357.16927,1024.6156 594.6875,1287.5 646.65487,1234.3664 702.67573,1174.9573 759.46875,1112.9375 522.93155,850.7721 288.9343,562.3935 277.84375,500.875 256.42715,382.07697 260.92875,266.30608 331.28125,170.53125 371.34855,115.98519 490.3157,22.493213 460.9375,-28.5 c -2.7542,-4.780614 -8.69655,-7.07887 -17.15625,-7.03125 z"/>
    <path
       style="fill:url(#linearGradient3018)"
       d="m 810.15625,422.03125 c -71.93091,98.45617 -166.94784,213.55345 -266,326.5 40.19682,49.06997 84.36146,101.49719 130.5625,155.03125 l 135.4375,-134.03125 644.43755,637.81255 c -110.5855,108.0412 -184.6501,162.8502 -205.7188,165.4062 -26.8698,3.2597 -111.9341,-68.687 -221.25,-176.8125 -53.73346,57.0459 -107.99956,111.0887 -161.40625,160.625 145.39665,126.7674 276.20415,210.4739 354.06245,213 246.4931,7.9973 604.0938,-440.4063 604.0938,-440.4063 l 0,-355.5937 c -96.2781,156.5738 -179.4491,286.4409 -230.4375,291.4687 -42.0626,4.1478 -542.671,-512.97777 -783.78125,-842.99995 z"/>
  </g>
</svg>