<?xml version="1.0" encoding="UTF-8" standalone="no"?>
<svg
   xmlns="http://www.w3.org/2000/svg"
   xmlns:xlink="http://www.w3.org/1999/xlink"   version="1.1"
   width="600"
   height="604.02698"
   viewBox="0 0 599.99998 604.02697"
   >
<linearGradient
   id="linearGradient3813">
      <stop style="stop-color:#612c75" offset="0" />
      <stop style="stop-color:#7b5190" offset="0.30000299" />
      <stop style="stop-color:#bf99c3" offset="0.5" />
      <stop style="stop-color:#7b5190" offset="0.69999701" />
      <stop style="stop-color:#612c75" offset="1" />
	  </linearGradient>
	  <linearGradient
   x1="404.58633"
   y1="5788.354"
   x2="5756.2402"
   y2="474.98499"
   id="linearGradient3114"
   xlink:href="#linearGradient3813"
   gradientUnits="userSpaceOnUse"
   gradientTransform="matrix(0.09990414,0,0,0.09990414,-8.2725254,-9.1027793)" />
<path
   d="m 300.00006,603.52092 c 89.86777,-0.3541 194.22584,-13.5869 240.58136,-79.124 62.51232,-70.378 34.75685,-156.3434 17.97295,-177.1234 -1.54172,-1.7427 -1.95063,-6.4679 0.82131,-7.9052 13.7573,-5.9546 39.33586,1.7817 40.08514,-37.9302 1.22203,-64.7708 -25.79345,-156.6497 -81.73977,-199.8083 -3.90505,-3.123999 -3.90505,-6.716399 -2.4992,-12.652099 14.83866,-63.7286 -8.87528,-91.5319003 -66.82478,-54.9816 -3.7487,2.0307 -6.87271,2.9678 -11.24621,0.781 -33.69267,-16.6809 -87.41533,-34.27760028 -137.1509,-34.27760028 -49.73548,0 -103.45824,17.59670028 -137.15091,34.27760028 -4.3735,2.1868 -7.4975,1.2496 -11.24621,-0.781 -57.949511,-36.5502003 -81.663461,-8.747 -66.824701,54.9817 1.40575,5.9356 1.40575,9.5281 -2.4992,12.652099 -55.94632,43.1586 -82.96179455,135.0374 -81.73976755,199.8083 0.74928115,39.7119 26.32773755,31.9756 40.08493755,37.9302 2.77204,1.4373 2.36293,6.1625 0.82141,7.9052 -16.78389,20.7801 -44.5392614,106.7454 17.97296,177.1234 46.355741,65.537 150.713801,79.4781 240.581581,79.1239 z"
   id="path8-7"
   style="fill:#ffffff;stroke:#ffffff;stroke-width:0.99904144" /><g
   transform="translate(-82.804581,-5533.1539)"
   id="Layer_1"
   style="display:none">
</g>
<path
   d="m 299.95435,570.34162 c 138.04924,0 244.77784,-50.8607 244.28751,-157.122 -0.22848,-49.4916 -100.81247,-132.6001 -106.26175,-182.5522 -4.12654,-37.8256 35.01001,-127.1615 49.15714,-167.359299 1.60766,-4.5676 -0.82601,-7.1092 -3.21801,-8.7039 -2.11228,-1.4082 -7.44516,-0.6894 -9.4925,2.6818 -25.3185,41.6952 -85.72844,146.508999 -84.58234,190.637599 1.81646,69.9329 74.15755,117.4057 74.47404,160.7547 0.49033,67.208 -74.45066,76.2905 -164.36419,76.2905 -89.91353,0 -164.85452,-9.0825 -164.36409,-76.2905 0.31639,-43.3491 72.65748,-90.8218 74.47394,-160.7547 1.1463,-44.1286 -59.26394,-148.942499 -84.58244,-190.637599 -2.04704,-3.3712 -7.38022,-4.09 -9.4924,-2.6818 -2.392,1.5946 -4.82567,4.1362 -3.21811,8.7039 14.14723,40.197799 53.28368,129.533799 49.15724,167.359299 -5.44928,49.9521 -106.033291,133.0606 -106.261671,182.5522 -0.49023,106.2613 106.238391,157.122 244.287631,157.122 z"
   id="path11"
   style="fill:url(#linearGradient3114);stroke:url(#linearGradient3092)"/><path
   d="m 299.95445,443.74452 c 0,0 18.67588,0.018 22.44656,0.018 0.63479,0 1.58908,-0.7037 1.58598,-1.9786 -0.0332,-13.7432 -0.0286,-102.7097 -0.0286,-131.7441 0,-1.6984 1.06088,-2.5773 2.66414,-2.5921 4.41666,-0.041 13.11552,-0.1053 16.90638,-0.1239 3.45898,-0.017 10.66197,0.8844 13.18475,-4.1952 2.34715,-4.726 -0.37524,-10.0474 -2.99653,-11.3868 -6.74732,-3.4479 -16.53793,-2.0492 -16.78049,-15.5819 -0.15855,-8.8445 8.11211,-13.841 12.83048,-13.841 3.39675,0 5.05715,-1.799 5.14876,-6.1941 0.19552,-9.3747 0.50722,-31.1701 4.50338,-43.9578 13.18745,-47.0549 53.24901,-122.782199 65.26938,-137.977999 1.36079,-1.7203 -0.43149,-3.2865 -0.43149,-3.2865 0,0 -40.99916,-29.8692 -124.30263,-29.8692 -83.30347,0 -124.30263,29.8693 -124.30263,29.8693 0,0 -1.79238,1.5662 -0.43169,3.2865 12.02057,15.1958 52.08213,90.923099 65.26948,137.977999 3.99616,12.7877 4.30786,34.5831 4.50338,43.9578 0.0916,4.3951 1.75201,6.1941 5.14875,6.1941 4.71838,0 12.98894,4.9965 12.83049,13.841 -0.24256,13.5327 -10.03317,12.134 -16.78059,15.5819 -2.62119,1.3394 -5.34358,6.6608 -2.99643,11.3868 2.52268,5.0795 9.72577,4.1781 13.18475,4.1952 3.79076,0.019 12.48972,0.083 16.90638,0.1239 1.60326,0.015 2.66414,0.8937 2.66414,2.5921 0,29.0344 0.005,118.0009 -0.0286,131.7441 -0.003,1.2749 0.95119,1.9786 1.58588,1.9786 3.77068,0 22.44656,-0.018 22.44656,-0.018 z"
   id="path14"
   style="fill:url(#linearGradient3114);stroke:url(#linearGradient3079)"/><path
   d="m 33.608489,294.63762 c 0.314,-81.7548 49.45774,-147.0918 64.47374,-162.475 0.65547,-0.7517 1.52134,-0.3521 2.008991,0.7081 7.25564,16.8553 19.72627,55.8185 25.09802,76.4923 0.35606,1.5382 0.023,2.7037 -1.2524,3.6632 -22.49552,14.597 -62.163781,48.543 -62.331711,81.3615 -0.0319,1.2488 -0.75618,2.3228 -2.2964,2.2977 -7.7134,0.031 -16.54243,-0.075 -23.85941,-0.1583 -0.91182,-0.017 -1.81825,-0.8649 -1.84083,-1.8895 z"
   id="path19"
   style="fill:url(#linearGradient3114);stroke:url(#linearGradient3114);stroke-width:0.99904144" /><path
   d="m 566.30019,294.63762 c -0.314,-81.7548 -49.45784,-147.0918 -64.47364,-162.475 -0.65567,-0.7517 -1.52144,-0.3521 -2.00897,0.7081 -7.25574,16.8553 -19.72637,55.8185 -25.09822,76.4923 -0.35596,1.5382 -0.023,2.7037 1.2525,3.6632 22.49542,14.597 62.16355,48.543 62.33159,81.3615 0.0318,1.2488 0.75608,2.3228 2.2964,2.2977 7.7133,0.031 16.54233,-0.075 23.85931,-0.1583 0.81661,-0.032 1.84693,-0.9917 1.84103,-1.8895 z"
   id="path21"
   style="fill:url(#linearGradient3114);stroke:url(#linearGradient3109);stroke-width:0.99904144" />
</svg>