<?xml version="1.0" encoding="UTF-8" ?>

<svg width="164pt" height="300pt" viewBox="0 0 164 300" version="1.1" xmlns="http://www.w3.org/2000/svg">
<g>
<path  stroke="#000000" stroke-width="0.09375"  d=" M 68.27 8.20 C 69.98 5.05 73.61 4.32 76.88 4.13 C 82.98 3.83 89.32 3.48 95.10 5.82 C 95.27 6.43 95.59 7.65 95.75 8.26 C 99.41 8.25 103.08 8.24 106.75 8.26 C 106.75 13.83 106.75 19.41 106.75 24.99 C 104.92 25.00 103.09 25.00 101.26 24.99 C 107.51 40.32 105.93 57.48 102.38 73.26 C 116.74 73.25 131.09 73.22 145.45 73.28 C 151.58 79.56 157.93 85.63 164.00 91.96 L 164.00 126.86 C 158.33 120.72 152.49 114.74 146.66 108.75 C 138.25 108.75 129.83 108.73 121.42 108.77 C 118.45 149.20 115.40 189.62 112.45 230.04 C 112.29 232.04 111.68 233.96 110.82 235.76 C 101.28 255.88 92.04 276.16 82.50 296.29 C 72.87 275.90 63.48 255.39 53.85 235.00 C 52.14 231.25 52.43 227.01 52.02 223.01 C 49.09 184.92 46.13 146.84 43.16 108.75 C 34.72 108.74 26.29 108.75 17.85 108.75 C 12.05 115.18 6.31 121.67 0.48 128.09 C 0.53 116.16 0.46 104.23 0.53 92.31 C 6.90 85.99 13.24 79.64 19.57 73.28 C 33.79 73.22 48.01 73.27 62.24 73.25 C 58.87 57.44 57.54 40.29 63.72 24.99 C 61.81 25.00 59.91 25.00 58.00 25.00 C 58.00 19.41 58.00 13.83 58.01 8.24 C 61.43 8.27 64.85 8.27 68.27 8.20 M 66.50 18.74 C 68.87 18.76 71.24 18.76 73.62 18.71 C 76.06 16.10 79.76 16.81 82.97 16.70 C 85.89 16.72 89.19 16.33 91.37 18.71 C 93.74 18.76 96.12 18.76 98.50 18.74 C 98.50 17.08 98.49 15.41 98.49 13.75 C 87.83 13.75 77.17 13.75 66.51 13.75 C 66.50 15.41 66.50 17.08 66.50 18.74 M 76.33 28.43 C 72.05 29.63 72.97 36.25 77.12 36.87 C 80.70 37.14 84.32 37.14 87.90 36.87 C 92.04 36.22 92.94 29.63 88.67 28.43 C 84.64 27.71 80.36 27.71 76.33 28.43 M 76.23 45.24 C 73.44 46.23 72.40 50.38 74.70 52.37 C 76.81 54.62 80.26 53.48 82.98 53.80 C 85.41 53.54 88.50 54.47 90.32 52.36 C 92.86 50.14 91.23 45.39 87.92 45.03 C 84.06 44.57 80.05 44.42 76.23 45.24 M 76.16 63.25 C 73.31 64.22 72.49 68.33 74.71 70.35 C 76.60 72.32 79.59 71.61 82.02 71.80 C 84.95 71.56 88.87 72.61 90.82 69.71 C 92.64 67.27 91.00 63.42 87.99 62.99 C 84.08 62.61 80.02 62.39 76.16 63.25 M 11.74 96.09 C 11.74 99.50 11.76 102.90 11.76 106.30 C 16.07 102.37 20.33 98.38 24.51 94.32 C 38.17 94.16 51.84 94.30 65.50 94.25 C 65.50 96.49 65.50 98.74 65.50 100.99 C 76.58 101.01 87.67 101.00 98.75 100.99 C 98.75 98.74 98.75 96.50 98.75 94.25 C 112.71 94.25 126.67 94.25 140.63 94.25 C 144.84 98.45 149.02 102.67 153.24 106.85 C 153.25 103.53 153.25 100.21 153.25 96.89 C 148.94 92.57 144.66 88.22 140.29 83.96 C 124.13 84.07 107.97 83.93 91.82 84.03 C 90.63 85.02 89.68 86.67 87.95 86.66 C 84.32 86.86 80.66 86.86 77.03 86.66 C 75.31 86.66 74.37 85.00 73.18 84.04 C 57.02 83.95 40.85 84.04 24.69 83.99 C 20.34 87.99 16.05 92.05 11.74 96.09 M 64.25 114.01 C 64.26 118.76 64.21 123.51 64.31 128.27 C 70.45 133.42 76.43 138.75 82.51 143.97 C 88.58 138.73 94.59 133.41 100.71 128.22 C 100.78 123.48 100.74 118.74 100.75 114.01 C 88.58 114.00 76.41 113.99 64.25 114.01 M 63.95 149.91 C 65.26 173.29 67.02 196.64 68.41 220.01 C 68.44 221.85 68.92 223.64 69.74 225.28 C 74.08 234.39 78.14 243.64 82.51 252.75 C 86.86 243.64 90.93 234.40 95.26 225.28 C 96.08 223.64 96.56 221.85 96.59 220.02 C 97.98 196.64 99.73 173.29 101.06 149.91 C 94.84 155.51 88.69 161.18 82.51 166.82 C 76.32 161.18 70.17 155.51 63.95 149.91 Z" />
</g>
</svg>
