<?xml version="1.0" encoding="utf-8"?><svg version="1.1" id="Layer_1" xmlns="http://www.w3.org/2000/svg" xmlns:xlink="http://www.w3.org/1999/xlink" x="0px" y="0px"
	 width="49.971px" height="50px"  >
<linearGradient id="SVGID_1_" gradientUnits="userSpaceOnUse" x1="0" y1="25" x2="50" y2="25">
	<stop  offset="0" style="stop-color:#536e78"/>
	<stop  offset="0.4675" style="stop-color:#d9eaf3"/>
	<stop  offset="1" style="stop-color:#536e78"/>
</linearGradient>
<path fill="url(#SVGID_1_)" d="M25,50c-7.598,0-14.83-3.516-19.563-9.456l-0.053,0.029l-0.084,0.032
	c-0.436,0.159-0.891,0.239-1.351,0.239c-1.224,0-2.354-0.562-3.108-1.548C0.301,38.582,0,37.683,0,36.76
	c0-0.901,0.273-1.743,0.816-2.505c0.2-0.276,0.432-0.51,0.692-0.708C0.508,30.808,0,27.935,0,24.998C0,11.213,11.213,0,25,0
	c13.784,0,25,11.213,25,24.998c0,2.69-0.425,5.33-1.262,7.854c0.072,0.071,0.145,0.146,0.219,0.222l0.057,0.059l0.047,0.063
	l0.31,0.42l0.038,0.054l0.034,0.059C49.809,34.36,50,35.073,50,35.784c0,0.884-0.285,1.716-0.832,2.417
	c-0.769,0.977-1.949,1.538-3.24,1.538c-0.235,0-0.469-0.02-0.703-0.056C40.51,46.157,33.013,50,25,50"/>
<path d="M47.287,34.673l-0.014-0.015c-0.408-0.427-0.843-0.779-1.263-1.091c1.079-2.644,1.679-5.535,1.679-8.567
	C47.689,12.468,37.53,2.31,25,2.31C12.469,2.31,2.31,12.468,2.31,25c0,3.376,0.742,6.577,2.065,9.453
	c-0.363,0.313-0.767,0.588-1.245,0.806c0.005-0.002-0.04,0.02-0.04,0.02c-0.162,0.073-0.289,0.178-0.395,0.322l-0.031,0.042
	c-0.232,0.325-0.355,0.713-0.355,1.118c0,0.415,0.133,0.82,0.373,1.135c0.438,0.576,1.152,0.786,1.819,0.542
	c0.099-0.037,0.217-0.1,0.302-0.164l0.002-0.002c0.391-0.303,0.813-0.557,1.264-0.767C10.129,43.643,17.09,47.688,25,47.688
	c8.145,0,15.283-4.292,19.286-10.737c0.292,0.095,0.585,0.203,0.872,0.334c0.045,0.017,0.088,0.032,0.135,0.046
	c0.799,0.237,1.605,0.015,2.059-0.559c0.223-0.288,0.339-0.625,0.339-0.986c0-0.308-0.085-0.62-0.249-0.906
	C47.397,34.81,47.344,34.734,47.287,34.673 M44.348,25c0,2.017-0.31,3.962-0.885,5.791c-1.407-5.374-3.965-10.994-5.948-14.565
	c-0.157-0.693-0.208-1.443-0.25-2.17c0-0.015-0.046-0.691-0.052-0.789c0.005-0.081,0.019-0.344,0.019-0.344c0-0.017,0-0.037,0-0.054
	v-0.002c0-0.728-0.228-1.272-0.677-1.616c-0.505-0.386-1.166-0.43-1.97-0.134c-0.342,0.125-0.763,0.063-1.296-0.015
	c0.012,0.002,0.021,0.002,0.031,0.005c-1.167-0.208-1.975-0.264-2.83-0.325c-1.611-0.139-1.611-0.139-1.656-0.139
	c-0.835,0-1.437,0.696-1.642,1.345c-0.017,0.051-0.029,0.1-0.036,0.151L27.114,12.4c-0.009,0.054-0.014,0.11-0.014,0.166v0.012
	c0.009,0.52,0.251,0.981,0.668,1.265l0.684,0.454c0,0,0.815,0.554,1.146,0.779c0.335,0.437,0.412,0.742,0.422,0.999
	c-0.08,0.125-0.166,0.254-0.166,0.254c-0.48,0.75-0.934,1.453-1.463,1.99c-0.012,0.01-0.026,0.027-0.035,0.037l-0.17,0.188
	c-0.182,0.188-0.471,0.498-0.558,1.04c-0.01,0.054-0.013,0.107-0.013,0.164c0,0.103,0.022,0.203,0.039,0.305
	c-0.121-0.056-0.241-0.1-0.361-0.127c-0.604-0.142-1.186,0.046-1.556,0.505c-0.071,0.09-0.14,0.203-0.179,0.315l-0.012,0.034
	c-0.058,0.159-0.106,0.273-0.156,0.388c-0.225-0.388-1.207-2.09-1.207-2.09c-3.088-5.459-4.501-7.678-6.057-7.627
	c-0.027,0.002-0.056,0.002-0.085,0.007c-2.163,0.251-3.751,0.132-6.11-0.093c-0.02-0.002-0.038-0.002-0.059-0.005h-0.036
	c-0.051-0.002-0.094,0-0.146,0.007c-0.204,0.022-0.41,0.103-0.608,0.21C14.604,7.927,19.539,5.649,25,5.649
	C35.669,5.649,44.348,14.331,44.348,25 M9.721,13.147c-0.048,0.142-0.08,0.283-0.08,0.408v0.112c0,0.515,0.38,0.952,0.889,1.023
	l0.115,0.015c1.613,0.22,1.632,0.732,1.632,1.233c-0.002,0.034-0.006,0.132-0.011,0.229c-0.441,1.67-0.91,2.583-1.35,3.311
	l-0.02,0.032c-0.096,0.161-0.146,0.344-0.146,0.532v0.034c0,0.396,0.178,0.732,0.431,1.021c-0.438,0.093-0.799,0.344-1.003,0.725
	c-0.02,0.034-0.036,0.071-0.05,0.107l-0.016,0.034c-0.007,0.024-0.017,0.049-0.024,0.071c-0.93,2.91-1.996,5.857-3.351,9.27
	c-0.005,0.007-0.014,0.02-0.019,0.027C6.03,29.346,5.649,27.217,5.649,25C5.649,20.537,7.173,16.426,9.721,13.147 M25,44.348
	c-6.238,0-11.792-2.969-15.333-7.563c0.54-0.002,1.106,0.027,1.705,0.098c0.02,0.002,0.039,0.005,0.06,0.005l0.035,0.002
	c0.052,0.002,0.105,0.002,0.156-0.002c0.79-0.073,1.369-0.71,1.441-1.58c0-0.017,0.002-0.037,0.002-0.051l0.002-0.09
	c0-0.012,0-0.042,0-0.042c0-0.872-0.512-1.584-1.273-1.78c-0.051-0.012-0.104-0.02-0.155-0.027c-0.114-0.01-0.166-0.022-0.2-0.044
	c-0.045-0.327-0.08-0.654-0.08-0.972c0-2.185,0.959-4.89,2.928-8.267c0.061-0.105,0.063-0.068,0.086-0.186l0.111-0.613
	c0.008-0.042,0.012-0.059,0.012-0.068c0-0.024-0.014-0.022-0.025-0.098l-0.018-0.105c-0.012-0.081-0.034-0.159-0.066-0.234
	c-0.081-0.195-0.219-0.378-0.381-0.552c0.43-0.076,0.804-0.276,1.076-0.596c0.023-0.029,0.046-0.059,0.066-0.09
	c0,0,0.037-0.056,0.059-0.088c0.104-0.09,0.191-0.193,0.252-0.32c0,0,0.088-0.186,0.122-0.254c0.039-0.068,0.14-0.229,0.14-0.229
	c0.01-0.017,0.02-0.032,0.029-0.051l0.16-0.295c0.02-0.037,0.046-0.095,0.059-0.132c0,0,0.016-0.037,0.02-0.046
	c3.326,1.667,6.668,13.054,7.058,17.422c-0.003-0.032-0.004-0.063-0.004-0.093c0,0.837,0.442,1.56,1.128,1.841
	c0.291,0.12,0.604,0.142,0.928,0.068c0.115-0.029,0.227-0.076,0.327-0.144l0.286-0.186c0.17-0.112,0.361-0.286,1.068-0.938
	l2.879-2.642c-0.031,0.027-0.053,0.039-0.086,0.066c0.855-0.615,1.032-1.421,1.127-1.853c0.002-0.002,0.01-0.051,0.01-0.051
	c0.016-0.071,0.023-0.142,0.023-0.217c0-0.085-0.008-0.168-0.029-0.249l-0.005-0.024c-0.01-0.046-0.029-0.112-0.048-0.156
	c-0.44-1.121-0.941-2.334-1.608-3.584c-0.3-0.603-0.453-1.187-0.453-1.763c0-0.676,0.198-1.323,0.427-2.075
	c0.244-0.793,0.518-1.692,0.604-2.769c0.002-0.024,0.005-0.054,0.005-0.081c0-0.085-0.011-0.176-0.025-0.249V22.4
	c-0.011-0.054-0.037-0.107-0.052-0.164c0.028,0.01,0.052,0.022,0.08,0.032c0.183,0.056,0.688,0.183,1.14,0.054
	c0.091-0.024,0.173-0.071,0.258-0.11c-0.004,0.002-0.005,0.005-0.009,0.007c0.005-0.005,0.012-0.007,0.02-0.012
	c0.105-0.049,0.207-0.1,0.308-0.171c0.084,0.056,0.182,0.154,0.293,0.339c1.54,2.483,2.809,5.332,3.779,8.484
	c0.163,0.784,0.238,1.328,0.238,1.738c0,0.527-0.118,0.691-0.173,0.75c-0.07,0.063-0.254,0.225-0.254,0.225
	c-0.508,0.452-1.023,0.911-1.445,1.155l-0.046,0.027c-0.239,0.139-0.413,0.371-0.481,0.637l-0.011,0.044
	c-0.044,0.166-0.104,0.422-0.104,0.715c0,0.52,0.198,0.867,0.362,1.064c0.246,0.295,0.715,0.635,1.566,0.571
	c-0.002,0,0.039-0.002,0.039-0.002c0.21-0.015,0.408-0.09,0.568-0.22l0.037-0.032c0.455-0.361,1.083-0.654,1.899-0.896
	c1.112-0.2,2.099-0.249,3.013-0.239C37.101,41.211,31.411,44.348,25,44.348"/>
</svg>
