<?xml version="1.0" encoding="utf-8"?><svg version="1.1" id="Layer_1" xmlns="http://www.w3.org/2000/svg" xmlns:xlink="http://www.w3.org/1999/xlink" x="0px" y="0px"
	 width="53.771px" height="50px"  >
<g>
	
		<radialGradient id="SVGID_2_" cx="39.5088" cy="9.292" r="32.262" gradientTransform="matrix(-0.891 -0.454 0.3553 -0.6973 71.4098 33.7083)" gradientUnits="userSpaceOnUse">
		<stop  offset="0" style="stop-color:#bf99c3"/>
		<stop  offset="1" style="stop-color:#612c75"/>
	</radialGradient>
	<path fill="url(#SVGID_2_)" d="M42.999,37.535c-0.121,0-0.244-0.026-0.361-0.081L14.661,24.341
		c-0.296-0.139-0.486-0.435-0.491-0.761c-0.072-5.441,1.389-10.545,4.115-14.369c3.228-4.525,8.086-7.078,14.05-7.381
		c0.295-0.015,0.6-0.022,0.905-0.022c1.146,0,4.724,0.13,7.14,1.64c0.191-0.516,0.336-1.152,0.409-1.833
		c0.037-0.339,0.271-0.622,0.596-0.723c0.084-0.026,0.169-0.038,0.253-0.038c0.245,0,0.482,0.105,0.647,0.297
		c0.969,1.126,1.983,3.461,2.126,6.202c1.5,2.106,3.071,4.669,3.328,8.368c0.239,3.43,2.655,6.986,4.419,9.583
		c0.287,0.423,0.558,0.821,0.802,1.193c0.08,0.122,0.128,0.263,0.138,0.408c0.05,0.704-0.205,1.378-0.735,1.947
		c-0.74,0.793-1.935,1.286-3.117,1.286c-0.336,0-0.659-0.041-0.963-0.121c-0.142-0.037-0.271-0.11-0.376-0.212
		c-0.158-0.153-0.33-0.325-0.518-0.511c-0.895-0.891-2.133-2.123-3.771-3.258c2.515,3.413,2.451,6.662,0.138,11.043
		C43.603,37.368,43.307,37.535,42.999,37.535z"/>
	<path fill="#ffffff" d="M41.638,1.707c0.925,1.074,1.851,3.354,1.931,5.936c1.437,1.996,3.067,4.511,3.319,8.137
		c0.295,4.23,3.564,8.452,5.358,11.186c0.094,1.326-1.523,2.32-3.001,2.32c-0.256,0-0.507-0.029-0.745-0.092
		c-1.517-1.47-4.36-4.652-8.991-6.168c5.489,4.658,6.463,8.031,3.491,13.656L15.023,23.568C14.893,13.819,19.92,3.314,32.379,2.683
		c0.278-0.015,0.566-0.022,0.861-0.022c2.639,0,5.815,0.584,7.437,2.076C41.246,3.931,41.53,2.698,41.638,1.707 M41.638,0
		c-0.169,0-0.339,0.025-0.506,0.076c-0.649,0.202-1.117,0.77-1.19,1.445c-0.025,0.232-0.061,0.461-0.103,0.677
		c-2.499-1.135-5.537-1.243-6.599-1.243c-0.32,0-0.64,0.008-0.948,0.023C26.058,1.295,20.974,3.971,17.59,8.717
		c-2.831,3.97-4.349,9.252-4.273,14.875c0.009,0.652,0.391,1.244,0.982,1.521l27.977,13.113c0.233,0.109,0.48,0.161,0.724,0.161
		c0.614,0,1.205-0.332,1.511-0.909c1.701-3.221,2.204-5.771,1.616-8.23c0.238,0.231,0.459,0.451,0.661,0.651
		c0.189,0.188,0.365,0.363,0.525,0.519c0.21,0.203,0.469,0.35,0.751,0.424c0.375,0.1,0.772,0.15,1.182,0.15
		c1.412,0,2.846-0.598,3.741-1.559c0.687-0.735,1.028-1.654,0.963-2.588c-0.021-0.291-0.115-0.572-0.275-0.816
		c-0.249-0.38-0.521-0.78-0.81-1.205c-1.709-2.516-4.05-5.962-4.273-9.163c-0.253-3.635-1.725-6.294-3.343-8.603
		c-0.18-2.518-1.064-5.01-2.315-6.465C42.603,0.211,42.127,0,41.638,0L41.638,0z"/>
	
		<radialGradient id="SVGID_3_" cx="31.4756" cy="23.5615" r="29.2032" gradientTransform="matrix(-0.9823 -0.1872 0.1398 -0.7336 59.1012 46.7383)" gradientUnits="userSpaceOnUse">
		<stop  offset="0" style="stop-color:#bf99c3"/>
		<stop  offset="1" style="stop-color:#612c75"/>
	</radialGradient>
	<path fill="url(#SVGID_3_)" d="M31.335,49.146c-0.328,0-0.633-0.189-0.774-0.494c-0.161-0.348-0.07-0.76,0.221-1.008
		c1.917-1.633,2.562-2.896,2.156-4.221c-0.854-2.794-4.971-4.186-13.348-4.516c-8.719-0.343-13.918-3.377-15.075-8.783
		c-2.043-1.161-3.521-3.719-3.652-6.396c-0.11-2.273,0.82-4.402,2.31-5.41c0.065-4.594,4.727-9.115,10.114-9.66
		c0.029-0.002,0.058-0.004,0.086-0.004c0.261,0,0.509,0.119,0.672,0.326c0.181,0.23,0.23,0.537,0.133,0.813
		c-0.92,2.592,0.068,6.068,2.351,8.269c3.628,3.496,9.47,6.518,17.362,8.979c8.784,2.741,10.628,8.018,10.628,11.963
		c0,5.081-4.755,8.774-13.044,10.132C31.427,49.143,31.381,49.146,31.335,49.146z"/>
	<path fill="#ffffff" d="M13.372,9.508c-1.099,3.096,0.197,6.888,2.563,9.168c4.24,4.086,10.764,7.016,17.701,9.181
		c7.12,2.222,10.028,6.266,10.028,11.147c0,4.818-4.9,8.073-12.329,9.29c1.929-1.644,2.989-3.253,2.419-5.119
		c-1.044-3.413-5.69-4.787-14.131-5.119c-7.729-0.304-13.372-2.796-14.349-8.499c-1.884-0.869-3.433-3.271-3.56-5.869
		c-0.105-2.179,0.886-4.209,2.322-4.885C3.757,14.529,8.188,10.031,13.372,9.508 M13.372,7.801c-0.057,0-0.114,0.004-0.172,0.009
		c-2.846,0.288-5.672,1.649-7.753,3.734c-1.854,1.858-2.954,4.119-3.11,6.337c-1.519,1.25-2.442,3.508-2.327,5.891
		c0.137,2.811,1.64,5.515,3.754,6.893c0.713,2.869,2.503,5.107,5.331,6.662c2.63,1.446,6.149,2.266,10.462,2.435
		c7.851,0.309,11.843,1.552,12.564,3.912c0.205,0.671,0.14,1.59-1.894,3.322c-0.583,0.497-0.764,1.321-0.441,2.016
		C30.069,49.621,30.679,50,31.334,50c0.092,0,0.185-0.008,0.277-0.022c4.055-0.664,7.312-1.875,9.679-3.599
		c2.67-1.944,4.081-4.494,4.081-7.375c0-4.23-1.948-9.882-11.227-12.776c-7.765-2.423-13.493-5.377-17.024-8.78
		c-2.053-1.979-2.952-5.078-2.139-7.369c0.195-0.551,0.095-1.164-0.267-1.624C14.39,8.039,13.894,7.801,13.372,7.801L13.372,7.801z"
		/>
	<path fill="#ffffff" d="M45.214,28.896c-0.293,0-0.574-0.159-0.719-0.436c-1.184-2.275-3.789-3.801-6.309-5.275
		c-3.128-1.83-6.362-3.725-6.49-7.107c-0.113-2.982,2.556-4.168,2.669-4.217c0.41-0.178,0.887,0.012,1.064,0.422
		c0.176,0.409-0.012,0.884-0.419,1.063c-0.078,0.035-1.768,0.814-1.697,2.672c0.095,2.496,2.688,4.014,5.69,5.771
		c2.718,1.59,5.527,3.235,6.927,5.924c0.206,0.396,0.053,0.885-0.344,1.092C45.467,28.867,45.339,28.896,45.214,28.896z"/>
</g>
</svg>
