<?xml version="1.0" encoding="UTF-8" standalone="no"?>
<svg
   xmlns="http://www.w3.org/2000/svg"
   version="1.1"
   id="Layer_1"
   x="0px"
   y="0px"
   width="61.889977"
   height="50.000565"
   viewBox="0 0 61.889978 50.000565"
>
<g
   id="g412"
   transform="rotate(-90,25.000283,25.000283)"><g
     transform="rotate(90,25.000283,25.000283)"
     id="g381"><g
       id="g255"
       transform="rotate(90,30.944988,30.944988)"><g
         transform="rotate(90,25.000283,25.000283)"
         id="g154"><g
           id="g209"
           transform="rotate(90,30.944988,30.944988)"><g
             id="g186"><g
               id="g163"><g
                 transform="rotate(90,25.00038,25.000186)"
                 id="g430"><g
                   id="g318">
	
		<path
   style="fill:#ffffff"
   id="path8226"
   d="M 26.701,49.645 C 20.237,48.462 13.63,45.094 6.567,39.383 2.754,36.3 1.168,34.403 0.436,32.051 -1.008,27.412 1.212,22.728 5.975,20.366 7.271,19.723 7.754,19.615 9.67,19.535 c 3.144,-0.133 5.52,0.626 8.078,2.578 l 1.069,0.816 V 20.893 18.858 L 16.638,16.679 14.459,14.5 V 7.25 0 h 5.963 5.962 V 1.381 2.762 L 30.913,2.7 35.442,2.637 35.511,1.319 35.58,0 h 5.934 5.934 l 0.004,7.172 0.003,7.171 -2.165,2.244 -2.165,2.243 v 1.963 1.963 l 0.63,-0.417 c 3.627,-2.401 5.253,-2.942 8.4,-2.794 2.021,0.095 2.524,0.206 3.897,0.861 1.951,0.931 4.138,3.041 5.042,4.864 0.481,0.972 0.678,1.764 0.767,3.096 0.228,3.418 -0.86,5.812 -3.991,8.783 -10.074,9.564 -21.708,14.228 -31.169,12.496 z" />
	<path
   id="path8228"
   d="M 28.554,48.36 C 23.19,47.801 17.276,45.303 12.108,41.414 c -0.977,-0.735 -1.777,-1.369 -1.777,-1.407 0,-0.039 0.554,-0.324 1.231,-0.634 1.528,-0.7 3.005,-2.012 3.646,-3.238 0.369,-0.706 0.49,-1.357 0.497,-2.675 0.007,-1.494 -0.089,-1.935 -0.681,-3.096 -1.555,-3.051 -5.393,-4.156 -7.696,-2.218 -0.667,0.562 -1.684,2.33 -1.465,2.549 0.05,0.051 0.409,-0.175 0.796,-0.501 1.234,-1.039 2.877,-1.312 4.307,-0.715 1.732,0.724 2.641,2.063 2.641,3.888 0,1.341 -0.452,2.343 -1.427,3.163 -2.157,1.815 -5.333,1.209 -8.153,-1.558 -4.207,-4.126 -2.965,-10.503 2.575,-13.23 1.39,-0.685 1.697,-0.747 3.599,-0.731 2.418,0.02 3.663,0.393 5.791,1.736 1.47,0.928 3.971,3.453 3.971,4.009 0,0.168 0.078,0.305 0.172,0.305 0.095,0.001 0.143,-2.044 0.106,-4.543 L 20.175,17.975 18.12,15.93 16.065,13.884 V 7.625 1.366 l 4.415,0.063 4.415,0.063 0.068,1.433 0.068,1.434 h 5.941 5.94 L 36.98,2.925 37.048,1.492 41.462,1.429 45.877,1.366 v 6.259 6.259 l -2.055,2.046 -2.055,2.045 -0.066,4.56 c -0.059,4.037 -0.028,4.498 0.263,4.026 0.647,-1.047 3.364,-3.548 4.646,-4.279 3.794,-2.161 8.302,-1.661 11.249,1.25 1.621,1.602 2.333,3.221 2.431,5.532 0.073,1.713 0.017,2.025 -0.613,3.371 -0.805,1.721 -2.229,3.238 -3.971,4.233 -2.335,1.334 -4.404,1.237 -6.043,-0.282 -1.834,-1.7 -1.914,-3.994 -0.205,-5.886 1.457,-1.612 3.634,-1.806 5.503,-0.488 0.869,0.613 1.005,0.652 1.005,0.289 0,-0.607 -0.924,-1.888 -1.777,-2.463 -1.07,-0.721 -2.176,-0.86 -3.581,-0.452 -2.564,0.746 -4.136,2.654 -4.419,5.366 -0.301,2.878 1.153,5.291 3.908,6.484 0.702,0.304 1.278,0.664 1.28,0.802 0.004,0.255 -2.541,2.154 -4.812,3.591 -5.564,3.52 -12.399,5.316 -18.011,4.731 z m 4.833,-6.936 c 1.375,-0.64 2.901,-2.289 3.276,-3.54 1.222,-4.081 -1.511,-7.843 -5.693,-7.835 -3.535,0.007 -5.962,2.435 -5.955,5.956 0.003,1.833 0.521,3.063 1.82,4.323 1.717,1.666 4.374,2.11 6.552,1.096 z m 0.138,-20.062 c 1.022,-0.395 2.307,-1.693 2.869,-2.899 1.354,-2.906 0.125,-6.43 -2.786,-7.985 -1.304,-0.697 -3.977,-0.692 -5.305,0.011 -2.208,1.169 -3.282,2.931 -3.29,5.4 -0.007,2.216 0.77,3.648 2.826,5.21 1.041,0.791 3.97,0.926 5.686,0.263 z" />
</g></g></g></g></g></g></g></g></g>
</svg>