<?xml version="1.0" encoding="UTF-8" standalone="no"?>
<svg
   xmlns="http://www.w3.org/2000/svg"
   version="1.1"
   id="Layer_1"
   x="0px"
   y="0px"
   width="53.071072"
   height="50.001621"
   viewBox="0 0 53.071072 50.001622"
>
<g
   id="g446"
   transform="rotate(-90,25.00081,25.00081)"><g
     transform="rotate(90,25.000127,25.001393)"
     id="g466"><g
       id="layer1"
       transform="translate(765.5981,-1198.7241)"
       label="Layer 1"
       groupmode="layer">
	
		<path
   style="fill:#808080"
   id="path2984"
   d="m -756.042,1198.724 -0.249,3.627 -0.003,0.053 -0.003,0.021 c -0.331,4.107 -1.02,7.574 -2.004,10.035 l -2.668,-3.767 v 0 l -0.057,-0.078 -2.625,-3.7 -0.844,4.455 -0.016,0.088 -0.003,0.01 c -2.823,14.624 0.09,25.056 6.086,31.461 5.088,5.435 12.224,7.841 19.351,7.796 0.009,0 0.018,0 0.026,0 7.128,0.045 14.264,-2.36 19.353,-7.796 5.996,-6.405 8.907,-16.837 6.084,-31.461 v -0.01 l -0.017,-0.088 -0.844,-4.455 -2.625,3.7 -0.057,0.078 v 0 l -2.668,3.767 c -0.983,-2.461 -1.673,-5.928 -2.004,-10.035 l -0.003,-0.021 -0.002,-0.053 -0.25,-3.627 -2.863,2.242 -0.029,0.024 -0.029,0.021 v 0 c -3.877,2.921 -5.68,6.106 -6.108,9.17 -0.43,3.069 0.386,5.809 0.973,8.136 0.587,2.327 0.913,4.163 0.399,5.645 -0.376,1.082 -1.241,2.25 -3.276,3.496 v -19.722 l 3.699,-5.996 0.008,-0.011 0.006,-0.011 0.037,-0.064 1.755,-2.92 h -3.407 -0.003 -16.28 -0.002 -3.408 l 1.752,2.92 0.04,0.064 0.006,0.011 0.005,0.011 3.703,6.001 v 19.717 c -2.036,-1.246 -2.901,-2.415 -3.276,-3.496 -0.515,-1.481 -0.188,-3.318 0.398,-5.645 0.587,-2.327 1.402,-5.066 0.973,-8.136 -0.429,-3.064 -2.231,-6.249 -6.107,-9.17 v 0 l -0.029,-0.021 -0.03,-0.024 z" />
	<path
   id="path8-1-7"
   d="m -747.205,1200.666 0.039,0.064 3.988,6.463 v 23.42 c -4.328,-1.886 -6.293,-3.895 -7.029,-6.017 -0.739,-2.131 -0.243,-4.386 0.353,-6.749 0.596,-2.363 1.291,-4.834 0.933,-7.396 -0.358,-2.562 -1.776,-5.209 -5.387,-7.921 l -0.059,-0.046 -0.005,0.074 c -0.476,5.912 -1.554,10.728 -3.719,13.539 l -4.451,-6.289 -0.057,-0.08 -0.019,0.095 c -2.747,14.225 0.096,23.909 5.598,29.786 4.673,4.992 11.26,7.234 17.956,7.186 6.697,0.049 13.285,-2.193 17.959,-7.186 5.502,-5.876 8.345,-15.561 5.597,-29.786 l -0.018,-0.095 -0.057,0.08 -4.451,6.289 c -2.166,-2.811 -3.243,-7.626 -3.719,-13.539 l -0.005,-0.074 -0.06,0.046 c -3.609,2.712 -5.027,5.359 -5.386,7.921 -0.359,2.562 0.337,5.033 0.933,7.396 0.596,2.363 1.092,4.617 0.352,6.749 -0.735,2.122 -2.7,4.13 -7.028,6.017 v -23.42 l 3.988,-6.463 0.039,-0.064 h -0.003 -16.28 z" />
</g></g></g>
</svg>