<?xml version="1.0" encoding="UTF-8" ?>

<svg width="171pt" height="300pt" viewBox="0 0 171 300" version="1.1" xmlns="http://www.w3.org/2000/svg">
<g>
<path  stroke="#000000" stroke-width="0.09375"  d=" M 86.21 0.00 L 86.42 0.00 C 92.39 12.98 101.83 24.48 113.98 32.11 C 128.92 41.60 146.93 45.75 164.53 45.15 C 167.66 60.16 169.72 75.37 171.00 90.64 L 171.00 131.50 C 168.01 173.60 154.78 215.15 131.34 250.36 C 118.88 269.01 104.01 286.31 86.16 300.00 L 85.61 300.00 C 70.79 288.76 58.17 274.81 47.10 259.91 C 21.18 224.82 5.74 182.40 1.65 139.05 C -1.29 107.67 1.09 75.91 7.64 45.12 C 25.45 45.77 43.70 41.48 58.78 31.81 C 70.81 24.18 80.08 12.78 86.21 0.00 M 85.71 29.64 C 81.29 38.96 74.68 47.32 66.21 53.27 C 53.63 62.12 37.94 65.91 22.70 65.40 C 19.14 82.69 16.86 100.31 17.00 117.98 C 16.50 153.47 25.17 189.19 42.79 220.07 C 53.92 239.44 68.23 257.26 85.92 271.02 C 118.61 244.94 140.62 206.70 149.75 166.12 C 157.19 133.04 156.04 98.42 149.02 65.38 C 128.96 66.21 107.87 58.90 94.78 43.21 C 91.09 39.14 88.71 34.18 85.71 29.64 Z" />
<path  stroke="#000000" stroke-width="0.09375"  d=" M 65.00 71.84 C 71.95 66.34 78.92 60.86 85.89 55.37 C 92.17 60.34 98.45 65.32 104.78 70.22 C 105.58 70.99 106.99 71.59 106.73 72.95 C 106.82 77.63 106.70 82.31 106.75 86.99 C 92.84 87.01 78.92 87.00 65.00 87.00 C 64.99 81.95 65.00 76.89 65.00 71.84 Z" />
<path  stroke="#000000" stroke-width="0.09375"  d=" M 40.46 167.05 C 36.16 145.18 37.13 122.50 41.68 100.75 C 71.15 100.75 100.62 100.74 130.09 100.76 C 136.14 129.56 135.74 160.24 125.45 188.04 C 117.42 209.64 104.07 229.58 85.88 243.90 C 62.02 224.97 46.27 196.77 40.46 167.05 Z" />
</g>
</svg>
