<?xml version="1.0" encoding="utf-8"?><svg version="1.1" id="Layer_1" xmlns="http://www.w3.org/2000/svg" xmlns:xlink="http://www.w3.org/1999/xlink" x="0px" y="0px"
	 width="36.159px" height="50px"  >
<g>
	<path id="path3755_3_"   fill="#FFFFFF" d="
		M16.697,0L15.12,0.269L15,0.29V0.283C7.805,1.42,2.459,6.866,0.672,13.344c-1.76,6.384,0.034,13.872,6.7,19.089
		c3.111,6.175,5.898,11.38,8.987,17.567l0.338-21.904v-0.085v-0.707c0.356,0.042,0.716,0.063,1.083,0.063
		c1.386,0,2.709-0.303,3.898-0.849c-5.765,5.565-5.614,12.396-2.568,16.676c1.59,2.233,3.879,3.482,6.318,3.934
		c3.804,0.705,8.074-1.237,10.73-7.409c-1.952,1.297-6.585,4.949-8.877,3.518c-4.438-2.772-3.474-8.047,0.602-10.584
		c7.273-4.529,8.69-12.826,7.025-19.23C33.245,7.018,27.965,1.648,20.547,0.29h-0.015l-0.021-0.007l-0.135-0.021l-1.571-0.248v1.592
		v0.135v5.851v0.078v0.92c-0.338-0.037-0.678-0.057-1.025-0.057c-0.366,0-0.727,0.022-1.083,0.064V0z"/>
	<path d="M17.78,25.363c-4.092,0-7.42-3.329-7.42-7.42c0-4.087,3.328-7.413,7.42-7.413s7.42,3.326,7.42,7.413
		C25.2,22.034,21.872,25.363,17.78,25.363z M26.962,46.624c-0.384,0-0.772-0.03-1.156-0.09c-2.289-0.358-4.459-1.768-5.953-3.867
		c-2.942-4.134-3.086-10.748,3.227-16.201c0.085-0.073,0.171-0.146,0.257-0.221c1.755-1.51,3.744-3.222,4.348-6.004
		c0.935-4.31-1.054-9.731-7.601-12.125L20,8.082L19.721,7.97V1.087l0.658,0.104c3.391,0.621,6.463,2.155,8.887,4.438
		c2.315,2.182,3.961,4.955,4.757,8.021c0.814,3.13,0.695,6.411-0.343,9.487c-1.137,3.366-3.279,6.327-6.367,8.801
		c-4.396,3.521-4.393,7.236-2.925,9.54c1.013,1.589,2.785,2.577,4.624,2.577c1.079,0,2.129-0.32,3.119-0.951l0.014-0.009l0,0
		l2.88-1.924l-2.158,2.755l-0.033,0.034l0,0c-0.018,0.018-0.036,0.034-0.056,0.049C31.092,45.72,29.082,46.624,26.962,46.624z
		 M15.755,47.105l-1.053-2.106L8.096,31.851c-3.114-2.386-5.252-5.307-6.354-8.683c-1.004-3.076-1.069-6.389-0.188-9.581
		c0.855-3.105,2.54-5.906,4.87-8.1c2.438-2.296,5.454-3.782,8.719-4.298l0.641-0.107v6.934l-0.396,0.107
		c-5.688,1.84-7.604,6.396-7.501,10.048c0.129,4.54,3.065,8.226,7.48,9.39l0.416,0.104v0.431l-0.028,16.656V47.105z"/>
	<linearGradient id="SVGID_2_" gradientUnits="userSpaceOnUse" x1="4.0703" y1="28.5405" x2="34.8818" y2="20.2846">
		<stop  offset="0" style="stop-color:#bf331c"/>
		<stop  offset="0.4" style="stop-color:#d3641c"/>
		<stop  offset="0.5" style="stop-color:#f6b91d"/>
		<stop  offset="0.6" style="stop-color:#d3641c"/>
		<stop  offset="1" style="stop-color:#bf331c"/>
	</linearGradient>
	<path fill="url(#SVGID_2_)" d="M8.753,31.237l0.046,0.035l6.07,12.083l0.026-15.005c-2.342-0.672-4.313-2.007-5.719-3.875
		c-1.339-1.78-2.112-4.011-2.177-6.28c-0.066-2.339,0.587-4.573,1.891-6.46c1.383-2.001,3.455-3.514,6.005-4.384v-5.22
		C8.951,3.23,4.075,7.779,2.409,13.823C0.611,20.342,2.965,26.837,8.706,31.2L8.753,31.237z M20.608,7.363
		c3.196,1.218,5.596,3.222,6.95,5.806c1.171,2.233,1.523,4.812,0.992,7.259c-0.666,3.072-2.867,4.967-4.636,6.489
		c-0.086,0.074-0.171,0.147-0.255,0.22c-5.891,5.089-5.794,11.208-3.085,15.015c1.357,1.906,3.313,3.184,5.368,3.505
		c0.338,0.053,0.681,0.08,1.019,0.08c1.178,0,2.321-0.32,3.384-0.938c-0.438,0.095-0.883,0.143-1.334,0.143
		c-2.14,0-4.198-1.145-5.372-2.987c-0.944-1.481-1.24-3.27-0.833-5.036c0.464-2.013,1.83-3.974,3.95-5.673
		c5.661-4.534,8.056-11.028,6.407-17.372C31.607,7.884,26.815,3.419,20.608,2.14V7.363z M17.78,11.417
		c-3.603,0-6.532,2.927-6.532,6.525c0,3.602,2.93,6.533,6.532,6.533c3.602,0,6.532-2.931,6.532-6.533
		C24.313,14.345,21.382,11.417,17.78,11.417z"/>
</g>
</svg>
