<?xml version="1.0" encoding="utf-8"?><svg version="1.1" id="Layer_1" xmlns="http://www.w3.org/2000/svg" xmlns:xlink="http://www.w3.org/1999/xlink" x="0px" y="0px"
	 width="36.507px" height="50px"  >
<g>
	<path id="path3755_1_"   d="M17.134,0
		l-1.623,0.276l-0.124,0.022V0.291C7.989,1.46,2.491,7.061,0.653,13.723c-1.81,6.565,0.035,14.265,6.891,19.63
		c3.199,6.351,5.844,10.285,9.02,16.647l0.57-21.107v-0.087v-0.728c0.366,0.042,0.736,0.065,1.113,0.065
		c1.426,0,2.786-0.312,4.009-0.873c-5.928,5.723-5.773,12.748-2.641,17.149c1.635,2.297,3.946,4.054,6.497,4.045
		c3.644-0.013,6.965-0.9,9.677-6.022c-2.008,1.333-5.413,3.493-7.77,2.021c-4.564-2.851-3.572-8.275,0.618-10.885
		c7.48-4.658,8.937-13.19,7.225-19.776C34.15,7.217,28.72,1.694,21.092,0.298h-0.015l-0.022-0.007l-0.138-0.022l-1.615-0.254v1.637
		V1.79v6.017v0.08v0.946c-0.348-0.038-0.698-0.058-1.055-0.058c-0.377,0-0.747,0.023-1.113,0.065V0z"/>
	
		<linearGradient id="path3765_3_" gradientUnits="userSpaceOnUse" x1="11.124" y1="649.3359" x2="44.7996" y2="658.3593" gradientTransform="matrix(1 0 0 -1 -8.3599 679.0547)">
		<stop  offset="0" style="stop-color:#536e78"/>
		<stop  offset="0.4" style="stop-color:#99aebc"/>
		<stop  offset="0.5" style="stop-color:#d9eaf3"/>
		<stop  offset="0.6" style="stop-color:#99aebc"/>
		<stop  offset="1" style="stop-color:#536e78"/>
	</linearGradient>
	<path id="path3765_1_"  fill="url(#path3765_3_)" d="M15.737,1.652l-0.131,0.021
		C8.782,2.752,3.7,7.926,2,14.094c-1.697,6.154-0.016,13.299,6.643,18.357c0.003,0.002,0.004,0.005,0.007,0.007l6.839,13.613
		l0.218,0.437v-0.487l0.029-17.127v-0.087l-0.087-0.022c-5.109-1.347-7.907-5.657-8.033-10.084s2.417-8.968,8.04-10.783l0.08-0.021
		V7.807V1.79V1.652z M20.699,1.652V1.79v6.017v0.08l0.073,0.029c7.242,2.649,9.061,8.588,8.105,12.995
		c-0.685,3.157-3.019,5.041-4.882,6.65c-6.343,5.48-6.126,12.002-3.245,16.051c1.44,2.024,3.541,3.434,5.821,3.791
		c2.271,0.355,4.714-0.351,6.818-2.51c0.001-0.001,0.006,0.001,0.007,0c0.007-0.007,0.014-0.014,0.021-0.021l0.691-0.713
		l-0.837,0.539c-0.007,0.005-0.014,0.01-0.021,0.015c-3.275,2.085-6.9,0.844-8.593-1.812c-1.696-2.662-1.463-6.751,3.107-10.412
		c6.496-5.204,8.325-12.258,6.745-18.335c-1.58-6.077-6.566-11.178-13.672-12.479L20.699,1.652L20.699,1.652z M18.247,11.285
		c-3.962,0-7.174,3.205-7.174,7.167c0,3.962,3.212,7.174,7.174,7.174c3.962,0,7.174-3.212,7.174-7.174
		C25.421,14.49,22.209,11.285,18.247,11.285z"/>
</g>
</svg>
