<?xml version="1.0" encoding="utf-8"?>
<svg version="1.1" id="Layer_1" xmlns="http://www.w3.org/2000/svg" xmlns:xlink="http://www.w3.org/1999/xlink" x="0px" y="0px"
	 width="49.35px" height="50.002px"  >
<g>
	<path d="M38.302,50.002l-0.854-0.931c-2.598-2.819-3.249-5.022-4.001-7.569l-0.118-0.396c-0.346-1.165-1.259-1.577-2.979-2.26
		c-0.569-0.228-1.154-0.462-1.739-0.758c-1.221-0.619-2.768-0.999-2.783-1.004l-0.821-0.2l-0.362-0.768
		c-0.027-0.059-0.684-1.458-1.036-2.609c-0.05-0.156-0.072-0.205-0.079-0.218c-0.018,0-0.57-0.387-3.592-0.532
		c-4.197-0.203-6.837-2.332-8.959-4.042c-0.104-0.081-0.209-0.167-0.311-0.251c0.052,0.385,0.064,0.762,0.013,1.107
		c-0.119,0.831-0.563,1.487-1.249,1.846c-0.399,0.209-0.828,0.315-1.282,0.315c-1.535,0-2.756-1.204-3.871-2.439
		c-1.105-1.212-3.212-4.323-3.27-7.395c-0.071-3.797,0.58-5.901,2.115-6.816c0.399-0.239,0.851-0.357,1.344-0.357
		c0.73,0,1.495,0.288,2.184,0.671c0.2-0.286,0.412-0.519,0.622-0.708c-0.045-0.834-0.055-1.572-0.055-2.166
		c-0.345-0.208-0.69-0.516-1.006-0.968c-0.008-0.012-0.018-0.024-0.025-0.037c-0.066,0.025-0.147,0.057-0.241,0.099
		c-0.604,0.255-1.266,0.391-1.907,0.391c-2.145,0-3.795-1.404-4.015-3.407c-0.209-1.907,1.017-3.262,2.478-3.76
		C4.534,3.013,6.742,2.428,8.064,2.24C8.649,1.251,9.771,0.05,12.261,0c1.641,0,2.462,0.688,2.877,1.271
		c0.387,0.538,0.532,1.123,0.564,1.644c1.315,0.918,2.29,2.063,3.016,3.278c0.105-0.189,0.222-0.372,0.35-0.545
		c0.604-0.804,1.755-1.796,3.805-1.941c1.949-0.136,4.229-0.422,6.868-0.75c1.162-0.146,2.408-0.299,3.758-0.461
		c2.053-0.242,3.896-0.415,5.521-0.57c1.882-0.178,3.508-0.331,4.778-0.53c1.434-0.232,2.095-0.306,2.61-0.306
		c0.858,0,1.354,0.241,1.767,0.503l1.175,0.752l-0.457,1.317c-0.131,0.383-0.854,2.356-1.976,3.481
		c-1.068,1.068-2.117,2.445-2.552,3.355c-0.747,1.564-2.245,2.867-3.637,3.175c-1.213,0.27-3.535,0.733-4.709,0.965
		c-1.301,1.851-2.815,3.587-4.054,4.904c0.472,0.287,0.81,0.609,1.065,0.859c0.102,0.096,0.234,0.227,0.286,0.259
		c0.082,0.002,0.228,0.005,0.365,0.005l0.232-0.003l0.259-0.002c1.162,0,2.46,0.231,4.065,1.907c2.47,2.575,1.624,6.382,1.587,6.545
		l-0.116,0.506c2.248,0.612,2.764,2.302,2.788,3.656c0.024,1.231-0.316,2.216-1.009,2.924c-0.425,0.434-1.183,0.947-2.386,0.986
		c0.049,0.228,0.086,0.447,0.113,0.646c1.44,1.034,2.04,2.662,2.215,4.021v0.003l1.183,0.483l-0.082,1.272
		c-0.296,4.54-2.79,5.759-3.076,5.882L38.302,50.002z"/>
		<path style="fill:url(#SVGID_4_)" id="SVGID_37_" d="M12.295,1.77c-2.244,0.042-2.672,1.248-3.104,2.156c0,0-3.147-0.094-5.8,2.501
			c0,0-1.789,0.331-1.608,1.977c0.178,1.644,1.983,2.211,3.474,1.584C6.742,9.36,7.048,9.656,7.66,10.542
			c0.619,0.889,1.359,0.575,1.359,0.575s-0.114,1.949,0.083,4.493c0,0-1.344,0.322-1.604,2.575c0,0-2.435-2.206-3.471-1.586
			c-1.036,0.619-1.296,2.871-1.251,5.267c0.042,2.396,1.739,5.063,2.81,6.239c1.068,1.18,2.137,2.211,3.027,1.745
			c0.891-0.467-0.207-3.144-0.97-3.879c-0.762-0.737-1.396-2.672-1.416-3.718c0,0,1.986,2.208,4.416,3.962
			c2.428,1.754,4.875,4.555,9.373,4.771c4.497,0.22,4.961,0.957,5.279,2.001c0.321,1.044,0.947,2.378,0.947,2.378
			s1.737,0.422,3.163,1.143c2.154,1.091,4.816,1.411,5.613,4.093c0.799,2.682,1.285,4.621,3.728,7.273c0,0,1.786-0.782,2.018-4.382
			l-1.056-0.429c0,0,0.242-3.151-2.171-4.155c0,0-0.032-1.646-0.648-2.684c-0.62-1.039-1.076-1.479-1.986-2.063
			c-0.908-0.583-1.683-1.915-1.557-3.267c0.126-1.353,1.179-1.071,1.423-4.071c0,0,0.768,0.886-0.244,3
			c-1.009,2.117,1.56,3.267,1.56,3.267s0.18,1.796,1.986,2.213c1.806,0.417,2.688-0.351,2.659-1.996
			c-0.029-1.647-1.086-1.929-1.836-2.064c0,0-1.361-0.871-1.688-2.216l0.894-0.315c0,0,0.695-3.008-1.138-4.922
			c-1.324-1.379-2.153-1.367-3.02-1.354c-0.335,0.002-0.674,0.007-1.051-0.066c-1.353-0.279-1.238-2.078-4.524-1.72
			c0,0,3.977-3.666,6.602-7.611c0,0,3.726-0.728,5.378-1.093c0.73-0.16,1.844-1.002,2.421-2.211
			c0.574-1.209,1.806-2.753,2.896-3.844c0.893-0.893,1.557-2.81,1.557-2.81c-0.457-0.289-0.706-0.331-3.146,0.057
			c-2.433,0.388-5.89,0.582-10.374,1.117C29.22,4.784,25.843,5.271,23,5.47c-2.845,0.2-3.548,2.61-3.059,4.851
			c0.49,2.237,0.522,4.034-0.045,5.842c0,0-0.77-1.187-0.957-3.276c-0.188-2.097-1.023-6.873-5.107-9.044
			c0,0,0.696-2.072-1.473-2.072C12.337,1.77,12.317,1.77,12.295,1.77"/>
		<linearGradient id="SVGID_4_" gradientUnits="userSpaceOnUse" x1="-29.3613" y1="523.4609" x2="-28.0979" y2="523.4609" gradientTransform="matrix(36.5975 13.3204 13.3204 -36.5975 -5899.1904 19564.0313)">
      <stop style="stop-color:#bf331c" offset="0" />
      <stop style="stop-color:#d3641c" offset="0.30000299" />
      <stop style="stop-color:#f6b91d" offset="0.5" />
      <stop style="stop-color:#d3641c" offset="0.69999701" />
      <stop style="stop-color:#bf331c" offset="1" />
	</linearGradient>
</g>
</svg>
