<?xml version="1.0" encoding="UTF-8" standalone="no"?>
<svg
   xmlns="http://www.w3.org/2000/svg"
   width="612pt"
   height="424pt"
   viewBox="0 0 612 424"
   version="1.1"
>
  <g>
    <path
       d="m 13.4,0 h 584.2 c 10.58,2.31 15.62576,12.502125 14.77201,22.98025 C 611.51366,80.246803 612,134.46344 612,192.92 c -49.3,-0.39 -97.52,16 -138.88,42.2 -46.88,32.29 -83.03,80.12 -99.15,134.87 -5.41,17.48 -9.32,35.63 -9.04,54.01 H 250.12 C 249.67,397.5 240.59,372.3 231.06,347.9 193.92,257.12 97.41,196.33 0,196.92 1.1594895,136.24336 0.34521794,68.29476 0,13.44 1.45,6.64 6.9,2.01 13.4,0 m 1.69,15.05 c -0.24,19.62 -0.08,39.26 -0.03,58.89 193.28,0.11 386.57,0.08 579.85,0.01 0.24,-19.62 0.07,-39.26 0.03,-58.89 C 401.66,14.95 208.37,14.98 15.09,15.05 m 0,78 c -0.21,29.6 -0.08,59.22 -0.04,88.82 65.35,3.52 129.39,32.03 175.2,78.88 40.85,38.43 65.38,92.24 73.93,147.16 13.58,0.2 27.17,0.12 40.76,0.03 0.1,-104.96 0.1,-209.92 0,-314.88 C 208.33,92.95 111.71,92.97 15.09,93.05 m 310,0 c -0.15,29.56 -0.21,59.15 0.06,88.72 31.62,25.13 64.1,49.27 95.7,74.44 -1.01,3.95 -5,8.53 -7.79,10.69 -29.51,-22.28 -58.83,-45.14 -88.01,-67.97 -0.09,69.67 -0.09,139.34 0.01,209.01 8.22,0.14 16.45,0.19 24.68,-0.07 4.73,-33.62 15.69,-66.38 31.84,-96.26 20.24,-34.16 47.56,-63.98 79.8,-87.18 39.76,-26.98 86.55,-43.56 134.56,-46.6 0.12,-28.26 0.08,-56.52 0.02,-84.78 -90.29,-0.09 -180.58,-0.08 -270.87,0 z"
       style="fill:#ffffff"
       />
    <path
       d=" M 15.09 15.05 C 208.37 14.98 401.66 14.95 594.94 15.06 C 594.98 34.69 595.15 54.33 594.91 73.95 C 401.63 74.02 208.34 74.05 15.06 73.94 C 15.01 54.31 14.85 34.67 15.09 15.05 Z"
       />
    <path
       d=" M 15.09 93.05 C 111.71 92.97 208.33 92.95 304.94 93.06 C 305.04 198.02 305.04 302.98 304.94 407.94 C 291.35 408.03 277.76 408.11 264.18 407.91 C 255.63 352.99 231.10 299.18 190.25 260.75 C 144.44 213.90 80.40 185.39 15.05 181.87 C 15.01 152.27 14.88 122.65 15.09 93.05 Z"
       />
    <path
       d=" M 325.09 93.05 C 415.38 92.97 505.67 92.96 595.96 93.05 C 596.02 121.31 596.06 149.57 595.94 177.83 C 547.93 180.87 501.14 197.45 461.38 224.43 C 429.14 247.63 401.82 277.45 381.58 311.61 C 365.43 341.49 354.47 374.25 349.74 407.87 C 341.51 408.13 333.28 408.08 325.06 407.94 C 324.96 338.27 324.96 268.60 325.05 198.93 C 354.23 221.76 383.55 244.62 413.06 266.90 C 415.85 264.74 419.84 260.16 420.85 256.21 C 389.25 231.04 356.77 206.90 325.15 181.77 C 324.88 152.20 324.94 122.61 325.09 93.05 Z"
       />
  </g>
</svg>
