<?xml version="1.0" encoding="UTF-8" standalone="no"?>
<svg
   xmlns="http://www.w3.org/2000/svg"
   version="1.1"
   id="Layer_1"
   x="0px"
   y="0px"
   width="49.347317"
   height="50.001999"
   viewBox="0 0 49.347318 50.002"
>
<path
    style="fill:#808080"
    d="M 38.302,50.002 37.448,49.071 C 34.85,46.252 34.199,44.049 33.447,41.502 L 33.328,41.106 C 32.983,39.941 32.07,39.529 30.35,38.846 29.781,38.618 29.196,38.384 28.611,38.088 27.39,37.469 25.843,37.089 25.828,37.084 l -0.821,-0.2 -0.362,-0.768 c -0.027,-0.059 -0.684,-1.458 -1.036,-2.609 -0.05,-0.156 -0.072,-0.205 -0.079,-0.218 -0.018,0 -0.57,-0.387 -3.592,-0.532 -4.197,-0.203 -6.837,-2.332 -8.959,-4.042 -0.104,-0.081 -0.209,-0.167 -0.311,-0.251 0.052,0.385 0.064,0.762 0.013,1.107 -0.119,0.831 -0.563,1.487 -1.249,1.846 -0.399,0.209 -0.828,0.315 -1.282,0.315 -1.535,0 -2.756,-1.204 -3.871,-2.439 -1.105,-1.212 -3.212,-4.323 -3.27,-7.395 -0.071,-3.797 0.58,-5.901 2.114,-6.816 0.4,-0.239 0.852,-0.357 1.345,-0.357 0.73,0 1.495,0.288 2.184,0.671 0.2,-0.286 0.412,-0.519 0.622,-0.708 C 7.229,13.854 7.219,13.116 7.219,12.522 6.874,12.314 6.529,12.006 6.213,11.554 6.205,11.542 6.195,11.53 6.188,11.517 6.122,11.542 6.041,11.574 5.947,11.616 5.343,11.871 4.681,12.007 4.04,12.007 1.895,12.007 0.245,10.603 0.025,8.6 -0.184,6.693 1.042,5.338 2.503,4.84 4.534,3.013 6.742,2.428 8.064,2.24 8.649,1.251 9.771,0.05 12.261,0 c 1.641,0 2.462,0.688 2.877,1.271 0.387,0.538 0.532,1.123 0.564,1.644 1.315,0.918 2.29,2.063 3.016,3.278 0.105,-0.189 0.222,-0.372 0.35,-0.545 0.604,-0.804 1.754,-1.796 3.805,-1.941 1.949,-0.136 4.229,-0.422 6.868,-0.75 1.162,-0.146 2.408,-0.299 3.758,-0.461 2.053,-0.242 3.896,-0.415 5.521,-0.57 1.882,-0.178 3.508,-0.331 4.778,-0.53 1.434,-0.232 2.095,-0.306 2.61,-0.306 0.858,0 1.354,0.241 1.767,0.503 l 1.174,0.752 -0.456,1.317 c -0.131,0.383 -0.854,2.356 -1.976,3.481 -1.068,1.068 -2.117,2.445 -2.552,3.355 -0.747,1.564 -2.245,2.867 -3.637,3.175 -1.214,0.27 -3.535,0.733 -4.709,0.965 -1.301,1.851 -2.815,3.587 -4.054,4.904 0.471,0.287 0.81,0.609 1.065,0.859 0.102,0.096 0.234,0.227 0.286,0.259 0.082,0.002 0.228,0.005 0.365,0.005 l 0.232,-0.003 0.259,-0.002 c 1.162,0 2.46,0.231 4.065,1.907 2.47,2.575 1.624,6.382 1.587,6.545 l -0.116,0.506 c 2.248,0.612 2.764,2.302 2.788,3.656 0.024,1.231 -0.316,2.216 -1.009,2.924 -0.425,0.434 -1.183,0.947 -2.386,0.986 0.049,0.228 0.086,0.447 0.113,0.646 1.44,1.034 2.04,2.662 2.215,4.021 v 0.003 l 1.183,0.483 -0.082,1.272 c -0.296,4.54 -2.79,5.759 -3.076,5.882 z"
    id="path191" />
<path
    d="m 28.368,20.65 c 0,0 3.975,-3.666 6.603,-7.608 0,0 3.726,-0.73 5.378,-1.096 0.73,-0.163 1.844,-1.002 2.421,-2.211 0.577,-1.209 1.806,-2.753 2.896,-3.844 0.893,-0.893 1.557,-2.81 1.557,-2.81 C 46.769,2.792 46.517,2.75 44.077,3.138 41.644,3.526 38.187,3.72 33.705,4.253 29.22,4.784 25.843,5.271 23,5.47 c -2.845,0.202 -3.548,2.61 -3.059,4.851 0.49,2.237 0.522,4.034 -0.045,5.842 0,0 -0.77,-1.187 -0.957,-3.278 -0.188,-2.095 -1.024,-6.871 -5.107,-9.042 0,0 0.711,-2.112 -1.537,-2.072 -2.245,0.041 -2.672,1.247 -3.104,2.155 0,0 -3.147,-0.094 -5.798,2.501 0,0 -1.791,0.331 -1.61,1.977 0.18,1.644 1.985,2.211 3.474,1.584 1.485,-0.627 1.791,-0.331 2.405,0.555 0.617,0.889 1.359,0.575 1.359,0.575 0,0 -0.116,1.949 0.081,4.493 0,0 -1.342,0.322 -1.604,2.575 0,0 -2.435,-2.203 -3.474,-1.586 -1.033,0.619 -1.293,2.869 -1.248,5.267 0.042,2.396 1.739,5.063 2.81,6.239 1.068,1.18 2.137,2.208 3.027,1.742 C 9.504,29.384 8.406,26.707 7.643,25.972 6.881,25.237 6.245,23.3 6.227,22.254 c 0,0 1.986,2.208 4.416,3.962 2.428,1.754 4.875,4.557 9.373,4.774 4.497,0.217 4.961,0.954 5.279,1.998 0.318,1.044 0.947,2.378 0.947,2.378 0,0 1.737,0.422 3.163,1.143 2.154,1.091 4.816,1.411 5.615,4.093 0.8,2.682 1.283,4.621 3.728,7.273 0,0 1.784,-0.782 2.016,-4.382 l -1.056,-0.429 c 0,0 0.242,-3.151 -2.171,-4.155 0,0 -0.032,-1.647 -0.649,-2.684 -0.619,-1.039 -1.075,-1.479 -1.985,-2.063 -0.908,-0.583 -1.683,-1.915 -1.557,-3.267 0.126,-1.353 1.179,-1.071 1.423,-4.071 0,0 0.768,0.886 -0.244,3 -1.009,2.117 1.56,3.27 1.56,3.27 0,0 0.18,1.793 1.986,2.21 1.806,0.417 2.688,-0.351 2.659,-1.996 -0.029,-1.647 -1.083,-1.929 -1.836,-2.064 0,0 -1.361,-0.873 -1.688,-2.216 L 38.1,28.713 c 0,0 0.695,-3.008 -1.138,-4.922 -1.833,-1.915 -2.719,-1.152 -4.07,-1.424 -1.351,-0.276 -1.235,-2.075 -4.524,-1.717"
    id="path193" />
</svg>