<?xml version="1.0" encoding="UTF-8" standalone="no"?>
<svg
	xmlns="http://www.w3.org/2000/svg" xmlns:xlink="http://www.w3.org/1999/xlink" version="1.1"
	width="600" height="510.31689">
	<style>g { display: none; }g.default { display: inline; }g.def { display: inline; }g:target { display: inline; }</style>
	<radialGradient id="uncommon_grad" xlink:href="#grad">
		<stop style="stop-color:#d9eaf3" offset="0" />
		<stop style="stop-color:#99aebc" offset="0.69101" />
		<stop style="stop-color:#536e78" offset="1" />
	</radialGradient>
	<radialGradient id="rare_grad" xlink:href="#grad">
		<stop style="stop-color:#ebd491" offset="0" />
		<stop style="stop-color:#d2bb7b" offset="0.69101" />
		<stop style="stop-color:#8b723c" offset="1" />
	</radialGradient>
	<radialGradient id="mythic_grad" xlink:href="#grad">
		<stop style="stop-color:#f6b91d" offset="0" />
		<stop style="stop-color:#d3641c" offset="0.69101" />
		<stop style="stop-color:#bf331c" offset="1" />
	</radialGradient>
	<radialGradient id="time_grad" xlink:href="#grad">
		<stop style="stop-color:#bf99c3" offset="0" />
		<stop style="stop-color:#7b5190" offset="0.69101" />
		<stop style="stop-color:#612c75" offset="1" />
	</radialGradient>
	<radialGradient id="grad"
		cx="0" cy="0" r="1" fx="0" fy="0"
		gradientUnits="userSpaceOnUse"
		gradientTransform="matrix(224.16862,0,0,224.16843,300.0699,255.74044)"/>
	<path id="path1d" d="M 419.35319,0 179.60068,0 178.4525,0.15309 C 162.25043,1.90087 139.82267,13.56126 132.34675,38.08126 112.02398,43.70734 35.42769,65.08898 35.42769,65.08898 L 34.4326,65.43292 C 21.26682,70.52318 0,87.56726 0,118.75945 c 0,5.57505 0.6889,11.60937 2.23257,18.14123 l 91.44606,341.41736 2.53875,3.38075 c 10.32086,13.80366 35.49149,34.93015 64.29802,26.76533 0,0 128.91497,-35.47873 139.52925,-38.42572 10.6653,2.94699 139.78439,38.47675 139.78439,38.47675 28.55138,8.11379 53.72202,-13.0127 64.0939,-26.81636 l 2.48772,-3.34248 91.29298,-340.805 C 599.29833,130.81533 600,124.64068 600,118.96357 600,87.51623 578.82247,70.52318 565.65669,65.43292 l -0.94406,-0.34394 c 0,0 -76.64732,-21.38164 -96.97008,-27.00772 -7.47592,-24.52 -29.90368,-36.18039 -46.05473,-37.92817 L 420.53964,0 419.35319,0 z"/>
	<path id="path2d" d="m 180.7361,21.72609 c 0,0 -29.39337,3.18939 -29.39337,33.59061 L 42.25298,85.71793 c 0,0 -27.26287,10.51221 -18.88117,46.19506 l 90.24686,336.73534 c 0,0 18.88117,25.20891 40.91344,18.88117 l 145.56357,-40.02041 145.51253,40.02041 c 21.98125,6.32774 40.91344,-18.88117 40.91344,-18.88117 L 576.73024,131.91299 C 585.09918,96.23014 557.83632,85.71793 557.83632,85.71793 L 448.74657,55.3167 c 0,-30.40122 -29.39338,-33.59061 -29.39338,-33.59061 l -238.61709,0 z"/>
	<path id="path3d" d="m 181.69292,34.3433 c -1.3523,0.24291 -5.5878,1.18645 -9.51713,3.84002 -5.63883,3.7252 -8.22861,9.15992 -8.22861,17.13338 l 0,9.56816 c 0,0 -115.81298,32.3021 -117.4587,32.74861 -3.03629,1.39057 -12.10691,6.87632 -12.10691,21.36889 0,2.94699 0.34395,6.23844 1.23748,9.9764 0.1531,0.54806 87.96326,328.45569 89.40487,333.73732 3.89105,4.38859 15.30905,15.79384 26.01263,12.75754 l 149.0081,-41.0155 149.0081,41.0155 c 10.75461,3.0363 22.12158,-8.36895 26.01263,-12.75754 1.39057,-5.28163 89.25177,-333.18875 89.45589,-333.73732 0.842,-3.73796 1.23748,-7.02941 1.23748,-9.9764 0,-14.49257 -9.12164,-19.97832 -12.15794,-21.36889 -1.64572,-0.446 -117.4587,-32.74861 -117.4587,-32.74861 l 0,-9.56816 c 0,-7.97346 -2.58978,-13.40818 -8.17758,-17.13338 -3.98035,-2.65357 -8.16483,-3.59762 -9.56816,-3.84002 l -236.70345,0 z"/>
	<path id="path4d" d="m 438.68087,81.53345 0,323.82471 c 0,0 -2.79391,20.97341 -19.58283,20.97341 l -90.8975,0 121.69421,33.59061 c 0,0 6.97837,3.49556 10.46118,-4.18448 l 89.55795,-332.24469 c 0,0 3.48281,-10.46118 -4.93717,-13.25509 L 438.68087,81.53345 z M 55.11258,110.93959 c -8.41998,2.78114 -4.88614,13.25509 -4.88614,13.25509 l 89.50692,332.24469 c 3.48281,7.66728 10.51222,4.18447 10.51222,4.18447 l 121.6942,-33.53958 -90.94852,0 c -16.78893,0 -19.58283,-21.03719 -19.58283,-21.03719 l 0,-323.81195 -106.29585,28.70447 z m 127.97091,-60.85348 234.31779,0 c 4.88614,0 5.58781,6.27671 5.58781,6.27671 l 0,348.29368 c 0,5.5878 -5.58781,6.97838 -5.58781,6.97838 l -234.31779,0 c -4.88614,0 -4.88614,-6.97838 -4.88614,-6.97838 l 0,-348.29368 c 0,-4.18447 4.88614,-6.27671 4.88614,-6.27671"/>
	<path id="path5d" d="m 184.43579,55.176041 c -0.65063,0.446514 -1.14818,0.944058 -1.14818,1.186451 v 0 348.242648 c 0,0.80373 0.29342,1.95191 -0.15309,1.95191 v 0 h 233.37373 c 0.65064,-0.30618 1.39058,-0.80373 1.39058,-1.90088 v 0 -347.694073 c -0.0893,-0.688907 -0.44652,-1.645723 -0.49755,-1.786056 v 0 z M 443.77112,406.04675 c -1.1992,8.77719 -7.88416,25.42578 -24.67308,25.42578 v 0 h -53.32653 l 86.31753,23.86936 c 0.20412,0.051 0.80373,0.2424 1.4416,0.2424 v 0 c 0.44652,0 1.30127,0 1.90088,-1.18646 v 0 l 89.59622,-332.49984 c 0.20412,-0.54857 1.74779,-5.72814 -1.33954,-6.72322 v 0 L 443.82215,88.20532 Z M 56.70727,115.77437 c -3.393507,1.13542 -1.849844,6.27671 -1.543663,7.11871 v 0 l 89.200743,331.40269 c 0.89303,1.99018 1.79881,1.99018 2.24533,1.99018 v 0 c 0.5996,0 1.23748,-0.20412 2.23257,-0.5996 v 0 l 85.4245,-23.52491 h -53.2755 c -16.78892,0 -23.47388,-16.63584 -24.67308,-26.11469 v 0 -317.139765 z"/>
	<path id="path6d" d="m 408.02721,324.24146 c -0.5965,2.59203 -2.63937,5.08517 -6.12866,7.47944 -3.48967,2.39426 -7.62564,3.5914 -12.40791,3.5914 -2.79297,0 -5.33632,-0.3499 -7.63001,-1.04959 -2.29404,-0.69968 -5.63446,-2.54486 -10.02125,-5.53542 -4.38711,-2.99054 -7.92527,-7.52504 -10.61448,-13.60351 -2.68952,-6.07844 -5.531,-8.81952 -8.52445,-8.22326 -6.77831,6.18192 -14.2045,12.36229 -22.27856,18.54112 -8.0743,6.17886 -16.79648,9.86761 -26.16658,11.06626 -9.37029,1.19866 -19.63794,2.59507 -30.803,4.18921 -7.17983,0 -13.90932,-1.3462 -20.18852,-4.03862 -6.27929,-2.6924 -12.70913,-7.22842 -19.28954,-13.60807 -6.58044,-6.37963 -11.36593,-15.9506 -14.35647,-28.71297 -2.99056,-12.76228 -4.48583,-33.09832 -4.48583,-61.0082 v -19.7413 -13.45293 c 0,-13.95779 -0.10003,-22.38184 -0.30121,-25.27216 -0.20077,-2.88999 -0.89902,-6.97728 -2.0946,-12.26187 -1.19562,-5.28425 -4.93305,-9.621 -11.2123,-13.01028 -6.27923,-3.3889 -9.41885,-7.17652 -9.41887,-11.36288 9.7657,1.9e-4 18.03916,-0.59762 24.82038,-1.79343 6.78121,-1.19541 13.36012,-2.49293 19.73674,-3.89258 1.59412,2e-4 3.23846,0.39878 4.93303,1.19561 1.69452,0.79726 2.5418,4.18636 2.54183,10.16727 -3e-5,5.9813 -0.099,12.06279 -0.29661,18.24451 -0.19781,6.18207 -0.39705,12.06278 -0.59782,17.64213 -3e-5,6.18205 -0.05,12.26354 -0.15055,18.24451 -0.10003,5.98124 -0.15066,11.96234 -0.15055,17.94332 -4e-5,32.89922 2.94184,57.42447 8.82563,73.57583 5.88371,16.15145 14.35794,24.87516 25.42275,26.17115 11.06467,1.29602 17.99343,1.94403 20.78632,1.94401 9.7656,2e-5 19.23466,-1.84512 28.40722,-5.53541 9.17232,-3.69026 16.14977,-9.82195 20.93234,-18.3951 2.39718,-5.78028 4.19364,-12.25878 5.38939,-19.43556 1.19547,-7.17664 1.79328,-16.25021 1.79343,-27.22072 -1.5e-4,-9.16931 -0.4489,-18.43911 -1.34621,-27.80942 -0.8976,-9.37007 -1.49542,-17.19631 -1.79343,-23.47874 -0.29824,-6.28214 -0.44737,-11.71411 -0.44716,-16.29593 v -6.27924 c -1.4e-4,-3.58972 -0.10105,-6.38252 -0.30121,-8.37842 -0.20097,-1.99556 -0.7501,-4.63777 -1.64739,-7.92664 -0.8976,-3.28851 -3.48962,-6.97574 -7.77605,-11.0617 -4.28668,-4.08558 -6.42996,-6.72779 -6.42985,-7.92664 -1.1e-4,-0.99762 0.64794,-1.79474 1.94402,-2.39123 1.29588,-0.59608 6.37952,-1.54222 15.25091,-2.83844 8.87111,-1.2958 15.60062,-1.9438 20.18852,-1.94401 1.99557,2.1e-4 3.64143,0.44747 4.93761,1.34164 1.29584,0.89464 1.94384,7.82188 1.94401,20.78177 v 15.85327 90.62017 c -1.7e-4,20.33459 1.69438,35.23715 5.08363,44.7077 3.38892,9.47062 11.36271,16.1986 23.92139,20.18395 z"/>
	<path id="path7d" d="m 408.02721,324.24146 c -0.5965,2.59203 -2.63937,5.08517 -6.12866,7.47944 -3.48967,2.39426 -7.62564,3.5914 -12.40791,3.5914 -2.79297,0 -5.33632,-0.3499 -7.63001,-1.04959 -2.29404,-0.69968 -5.63446,-2.54486 -10.02125,-5.53542 -4.38711,-2.99054 -7.92527,-7.52504 -10.61448,-13.60351 -2.68952,-6.07844 -5.531,-8.81952 -8.52445,-8.22326 -6.77831,6.18192 -14.2045,12.36229 -22.27856,18.54112 -8.0743,6.17886 -16.79648,9.86761 -26.16658,11.06626 -9.37029,1.19866 -19.63794,2.59507 -30.803,4.18921 -7.17983,0 -13.90932,-1.3462 -20.18852,-4.03862 -6.27929,-2.6924 -12.70913,-7.22842 -19.28954,-13.60807 -6.58044,-6.37963 -11.36593,-15.9506 -14.35647,-28.71297 -2.99056,-12.76228 -4.48583,-33.09832 -4.48583,-61.0082 v -19.7413 -13.45293 c 0,-13.95779 -0.10003,-22.38184 -0.30121,-25.27216 -0.20077,-2.88999 -0.89902,-6.97728 -2.0946,-12.26187 -1.19562,-5.28425 -4.93305,-9.621 -11.2123,-13.01028 -6.27923,-3.3889 -9.41885,-7.17652 -9.41887,-11.36288 9.7657,1.9e-4 18.03916,-0.59762 24.82038,-1.79343 6.78121,-1.19541 13.36012,-2.49293 19.73674,-3.89258 1.59412,2e-4 3.23846,0.39878 4.93303,1.19561 1.69452,0.79726 2.5418,4.18636 2.54183,10.16727 -3e-5,5.9813 -0.099,12.06279 -0.29661,18.24451 -0.19781,6.18207 -0.39705,12.06278 -0.59782,17.64213 -3e-5,6.18205 -0.05,12.26354 -0.15055,18.24451 -0.10003,5.98124 -0.15066,11.96234 -0.15055,17.94332 -4e-5,32.89922 2.94184,57.42447 8.82563,73.57583 5.88371,16.15145 14.35794,24.87516 25.42275,26.17115 11.06467,1.29602 17.99343,1.94403 20.78632,1.94401 9.7656,2e-5 19.23466,-1.84512 28.40722,-5.53541 9.17232,-3.69026 16.14977,-9.82195 20.93234,-18.3951 2.39718,-5.78028 4.19364,-12.25878 5.38939,-19.43556 1.19547,-7.17664 1.79328,-16.25021 1.79343,-27.22072 -1.5e-4,-9.16931 -0.4489,-18.43911 -1.34621,-27.80942 -0.8976,-9.37007 -1.49542,-17.19631 -1.79343,-23.47874 -0.29824,-6.28214 -0.44737,-11.71411 -0.44716,-16.29593 v -6.27924 c -1.4e-4,-3.58972 -0.10105,-6.38252 -0.30121,-8.37842 -0.20097,-1.99556 -0.7501,-4.63777 -1.64739,-7.92664 -0.8976,-3.28851 -3.48962,-6.97574 -7.77605,-11.0617 -4.28668,-4.08558 -6.42996,-6.72779 -6.42985,-7.92664 -1.1e-4,-0.99762 0.64794,-1.79474 1.94402,-2.39123 1.29588,-0.59608 6.37952,-1.54222 15.25091,-2.83844 8.87111,-1.2958 15.60062,-1.9438 20.18852,-1.94401 1.99557,2.1e-4 3.64143,0.44747 4.93761,1.34164 1.29584,0.89464 1.94384,7.82188 1.94401,20.78177 v 15.85327 90.62017 c -1.7e-4,20.33459 1.69438,35.23715 5.08363,44.7077 3.38892,9.47062 11.36271,16.1986 23.92139,20.18395 z"/>
	<g id="C" class="default">
		<use xlink:href="#path1d" style="fill:#ffffff"/>
		<use xlink:href="#path2d" />
		<use xlink:href="#path3d" style="fill:#ffffff"/>
		<use xlink:href="#path4d" />
		<use xlink:href="#path5d" />
		<use xlink:href="#path6d" style="fill:#ffffff;stroke:#000000"/>
		<use xlink:href="#path7d" style="fill:#ffffff"/></g>
	<g id="80">
		<use xlink:href="#path1d" style="fill:#808080"/>
		<use xlink:href="#path2d" />
		<use xlink:href="#path3d" style="fill:#808080"/>
		<use xlink:href="#path4d" />
		<use xlink:href="#path5d" />
		<use xlink:href="#path6d" style="fill:#808080;stroke:#000000"/>
		<use xlink:href="#path7d" style="fill:#808080"/></g>
	<g id="U">
		<use xlink:href="#path1d" />
		<use xlink:href="#path2d" style="fill:#536e78"/>
		<use xlink:href="#path3d" />
		<use xlink:href="#path4d" style="fill:#536e78"/>
		<use xlink:href="#path5d" style="fill:url(#uncommon_grad)"/>
		<use xlink:href="#path6d" style="fill:#ffffff;stroke:#536e78;stroke-width:12.75862789;stroke-opacity:0.37391304"/>
		<use xlink:href="#path7d" /></g>
	<g id="R">
		<use xlink:href="#path1d" />
		<use xlink:href="#path2d" style="fill:#8b723c"/>
		<use xlink:href="#path3d" />
		<use xlink:href="#path4d" style="fill:#8b723c"/>
		<use xlink:href="#path5d" style="fill:url(#rare_grad)"/>
		<use xlink:href="#path6d" style="fill:#ffffff;stroke:#8b723c;stroke-width:12.75862789;stroke-opacity:0.37391304"/>
		<use xlink:href="#path7d" /></g>
	<g id="M">
		<use xlink:href="#path1d" />
		<use xlink:href="#path2d" style="fill:#bf331c"/>
		<use xlink:href="#path3d" />
		<use xlink:href="#path4d" style="fill:#bf331c"/>
		<use xlink:href="#path5d" style="fill:url(#mythic_grad)"/>
		<use xlink:href="#path6d" style="fill:#ffffff;stroke:#bf331c;stroke-width:12.75862789;stroke-opacity:0.37391304"/>
		<use xlink:href="#path7d" /></g>
	<g id="T">
		<use xlink:href="#path1d" style="fill:#ffffff"/>
		<use xlink:href="#path2d" style="fill:#612c75"/>
		<use xlink:href="#path3d" style="fill:#ffffff"/>
		<use xlink:href="#path4d" style="fill:#612c75"/>
		<use xlink:href="#path5d" style="fill:url(#time_grad)"/>
		<use xlink:href="#path6d" style="fill:#ffffff;stroke:#612c75;stroke-width:12.75862789;stroke-opacity:0.37391304"/>
		<use xlink:href="#path7d" /></g>
</svg>
