<?xml version="1.0" encoding="UTF-8" standalone="no"?>
<svg
	xmlns="http://www.w3.org/2000/svg" xmlns:xlink="http://www.w3.org/1999/xlink" version="1.1"
	width="600" height="431.49213">
	<style>g { display: none; }g.default { display: inline; }g.def { display: inline; }g:target { display: inline; }</style>
	<radialGradient id="uncommon_grad" xlink:href="#grad">
		<stop style="stop-color:#d9eaf3" offset="0" />
		<stop style="stop-color:#99aebc" offset="0.69101" />
		<stop style="stop-color:#536e78" offset="1" />
	</radialGradient>
	<radialGradient id="rare_grad" xlink:href="#grad">
		<stop style="stop-color:#ebd491" offset="0" />
		<stop style="stop-color:#d2bb7b" offset="0.69101" />
		<stop style="stop-color:#8b723c" offset="1" />
	</radialGradient>
	<radialGradient id="mythic_grad" xlink:href="#grad">
		<stop style="stop-color:#f6b91d" offset="0" />
		<stop style="stop-color:#d3641c" offset="0.69101" />
		<stop style="stop-color:#bf331c" offset="1" />
	</radialGradient>
	<radialGradient id="time_grad" xlink:href="#grad">
		<stop style="stop-color:#bf99c3" offset="0" />
		<stop style="stop-color:#7b5190" offset="0.69101" />
		<stop style="stop-color:#612c75" offset="1" />
	</radialGradient>
	<radialGradient id="grad"
		cx="0" cy="0" r="1" fx="0" fy="0"
		gradientUnits="userSpaceOnUse"
		gradientTransform="matrix(228.10361,0,0,228.10361,299.97967,215.77058)"/>
	<path id="path1d" d="m 398.20211,206.94385 0,98.17515 -44.67018,0 c 12.30831,-27.04374 22.96615,-50.56004 44.67018,-98.17515 M 279.75764,126.37356 C 269.21846,148.6709 264.83881,157.89403 252.23926,184.57101 240.233,157.80773 236.01517,148.4983 226.02614,126.37356 l 53.7315,0 z M 0,4.3e-4 l 0,126.41628 62.07008,0 c 10.45288,22.41599 59.83711,128.22855 82.87877,177.61277 l -123.75183,0 0,127.46265 578.80297,0 0,-126.32998 c 0,0 -39.94534,-0.0777 -52.76064,-0.11909 l 0,-178.62678 52.76064,0 L 600,0 0,0 z"/>
	<path id="path2d" d="m 322.69106,99.157223 -138.75694,0 67.71184,150.385647 71.0451,-150.385647 z m -11.4561,233.188907 114.18349,0 0,-233.145758 -8.09047,0 L 311.23496,332.34613 z M 79.38368,99.200372 l -52.16735,0 0,-71.972812 545.56733,0 0,71.972812 -52.76065,0 0,232.973158 52.76065,0.1726 0,71.92966 -524.3703,0 0,-73.02997 139.26395,0 L 79.38368,99.200372 z"/>
	<path id="path3d" d="m 33.667405,33.710519 v 59.038855 h 45.716548 4.131533 l 1.769116,3.753978 108.293638,232.002308 4.30413,9.23393 H 187.67759 54.907585 v 60.08522 H 566.29 v -59.02807 l -46.30985,-0.12945 h -6.4508 V 332.17334 99.200175 92.749374 H 520.0233 566.29 V 33.710519 Z M 245.74559,252.19635 178.03375,101.8107 173.90221,92.663076 h 10.03219 138.75695 10.19399 l -4.33649,9.233924 -71.04511,150.38565 -5.98695,12.72901 z m 59.589,77.45277 106.10382,-233.102619 1.72596,-3.797127 h 4.1639 8.09047 6.49395 v 6.450801 233.145765 6.48316 h -6.49395 -114.1835 -10.07533 z" />
	<g id="C" class="default">
		<use xlink:href="#path1d" style="fill:#ffffff"/>
		<use xlink:href="#path2d" />
		<use xlink:href="#path3d" /></g>
	<g id="80">
		<use xlink:href="#path1d" style="fill:#808080"/>
		<use xlink:href="#path2d" />
		<use xlink:href="#path3d" /></g>
	<g id="U">
		<use xlink:href="#path1d" />
		<use xlink:href="#path2d" style="fill:#536e78"/>
		<use xlink:href="#path3d" style="fill:url(#uncommon_grad)"/></g>
	<g id="R">
		<use xlink:href="#path1d" />
		<use xlink:href="#path2d" style="fill:#8b723c"/>
		<use xlink:href="#path3d" style="fill:url(#rare_grad)"/></g>
	<g id="M">
		<use xlink:href="#path1d" />
		<use xlink:href="#path2d" style="fill:#bf331c"/>
		<use xlink:href="#path3d" style="fill:url(#mythic_grad)"/></g>
	<g id="T">
		<use xlink:href="#path1d" style="fill:#ffffff"/>
		<use xlink:href="#path2d" style="fill:#612c75"/>
		<use xlink:href="#path3d" style="fill:url(#time_grad)"/></g>
</svg>
