<?xml version="1.0" encoding="UTF-8" standalone="no"?>
<svg
	xmlns="http://www.w3.org/2000/svg" xmlns:xlink="http://www.w3.org/1999/xlink" version="1.1"
	width="600" height="829.26495">
	<style>g { display: none; }g.default { display: inline; }g.def { display: inline; }g:target { display: inline; }</style>
	<radialGradient id="uncommon_grad" xlink:href="#grad">
		<stop style="stop-color:#d9eaf3" offset="0" />
		<stop style="stop-color:#99aebc" offset="0.69101" />
		<stop style="stop-color:#536e78" offset="1" />
	</radialGradient>
	<radialGradient id="rare_grad" xlink:href="#grad">
		<stop style="stop-color:#ebd491" offset="0" />
		<stop style="stop-color:#d2bb7b" offset="0.69101" />
		<stop style="stop-color:#8b723c" offset="1" />
	</radialGradient>
	<radialGradient id="mythic_grad" xlink:href="#grad">
		<stop style="stop-color:#f6b91d" offset="0" />
		<stop style="stop-color:#d3641c" offset="0.69101" />
		<stop style="stop-color:#bf331c" offset="1" />
	</radialGradient>
	<radialGradient id="time_grad" xlink:href="#grad">
		<stop style="stop-color:#bf99c3" offset="0" />
		<stop style="stop-color:#7b5190" offset="0.69101" />
		<stop style="stop-color:#612c75" offset="1" />
	</radialGradient>
	<radialGradient id="grad"
		cx="0" cy="0" r="1" fx="0" fy="0"
		gradientUnits="userSpaceOnUse"
		gradientTransform="matrix(312.73479,0,0,312.73479,299.95117,415.42569)"/>
	<path id="path1d" d="m 131.22605,829.26411 c -10.36581,0 -20.08895,-2.98535 -28.34013,-8.58289 -12.065814,-8.25119 -19.280414,-22.01699 -19.612124,-37.64863 -0.3118,-17.91213 8.18899,-35.80352 21.706014,-45.83762 5.34876,-3.98047 10.19996,-7.38046 14.98897,-10.78045 4.12559,-2.98535 8.41704,-5.99144 13.12311,-9.47435 l 2.01097,-1.36829 c 5.92925,-18.63773 18.2231,-55.47782 34.66328,-97.18985 14.98896,-37.98033 30.2889,-74.98628 45.52664,-111.66053 11.81702,-28.5889 23.32308,-56.20343 34.41449,-83.90088 -4.37437,1.05814 -8.91459,1.7 -13.45482,1.7 -8.49997,0 -16.44018,-2.11463 -23.55112,-6.07437 -33.93767,-19.52919 -25.18893,-58.96074 -22.2865,-71.918 0.97522,-4.37438 1.55404,-9.14265 2.19755,-13.84873 0.97356,-6.79997 1.94877,-13.59994 3.23414,-19.67431 5.65973,-25.52063 22.09991,-52.72052 51.49735,-52.72052 17.58042,0 29.72915,7.85729 36.44619,13.35117 5.09998,0.82926 10.28289,1.22399 15.7975,1.22399 1.53414,0 2.98536,-0.0829 4.54023,-0.0829 8.41704,-26.16331 15.38286,-49.79737 21.62308,-72.95459 -62.04975,9.86825 -156.37863,38.78887 -205.38819,55.14612 -1.20244,1.86585 -2.4256,3.71096 -3.71096,5.57681 -11.89996,17.24871 -34.269384,36.11449 -60.266834,36.11449 -18.05725,0 -34.64255,-9.05972 -45.58885,-24.94015 -25.41697,-37.48277 0.72478,-72.78873 10.53167,-86.0777 1.53414,-2.0317 3.00609,-3.95974 4.29145,-5.90851 13.28897,-20.17187 26.88891,-37.98034 40.01203,-55.14612 17.08286,-22.51455 33.27426,-43.6608 47.703474,-68.43509 5.90851,-10.11704 6.07436,-19.52919 6.07436,-19.67431 0.0663,-11.17435 5.09998,-22.20357 13.7658,-29.39745 C 140.20284,3.31706 148.86866,0 157.86618,0 c 2.0317,0 4.1256,0.16585 6.24022,0.49756 0.39308,0.0829 39.03765,7.11095 81.2265,9.3085 35.55474,1.86585 221.39302,2.4256 277.51352,2.59145 l 11.50606,0 11.42312,0 c 34.08279,0 50.04614,20.98041 53.28027,38.95472 6.40608,35.14011 -21.45723,56.76319 -33.27425,65.98876 -1.53414,1.224 -3.08902,2.36341 -4.37438,3.48292 -11.50605,9.80605 -20.9804,20.33772 -29.00354,32.3206 -14.1597,20.73162 -24.77429,44.3864 -36.03156,69.40947 -4.62315,10.44874 -9.3085,20.81455 -14.24263,31.01451 l -1.94877,4.20852 c 30.12305,7.94022 36.52912,31.09744 37.73156,39.18277 2.34267,15.23775 0.72643,52.32662 -64.78633,72.80947 -9.72313,3.00608 -18.9487,5.59753 -27.36574,7.77436 -0.33171,0.97521 -0.72644,1.94877 -1.05814,2.92315 -12.14873,33.35717 -22.01699,70.9436 -32.54865,110.78978 l -8.49997,31.90597 c -16.29506,60.2461 -10.78045,171.76151 -10.69752,172.88101 0.80936,15.32067 -7.77436,29.64623 -21.70601,36.21815 l -175.80417,82.9265 -4.62315,2.17682 c -10.69752,5.34876 -23.96576,11.89995 -39.5974,11.89995"/>
	<path id="path2d" d="m 561.80115,58.15136 c -1.28537,-7.13168 -11.25728,-7.85729 -16.02555,-7.94021 l -22.99137,0 C 444.06625,50.04529 277.7157,49.40344 243.38413,47.61969 198.04407,45.35995 157.2235,37.81363 157.2235,37.81363 c 0,0 0.80937,18.88651 -11.17434,39.45228 -27.1377,46.48031 -59.209524,80.5009 -88.835014,125.36413 -9.32923,13.99385 -27.63525,31.32549 -15.07189,49.71444 13.12312,19.19748 34.49742,1.38985 43.57787,-11.65117 3.06828,-4.4573 5.99144,-9.41216 8.25119,-14.74019 0,0 203.916254,-70.54971 275.336694,-65.0351 0,0 3.56584,10.61459 -6.55119,48.9059 -9.16338,34.58035 -19.44626,67.70948 -30.45476,100.17521 -21.78893,3.08901 -41.6291,4.29144 -63.97779,-0.72478 C 262.66454,307.98899 259.0987,298.1 247.26094,298.1 c -7.19387,0 -13.10238,16.93774 -14.40848,23.01211 -2.25974,10.36581 -3.1512,23.15722 -5.43168,33.4401 -2.4256,11.0085 -5.74266,25.33405 4.0634,30.93159 9.22557,5.34876 30.20597,-9.80606 32.88035,-11.09142 14.49141,-7.29753 34.72547,-11.89995 49.32054,-12.56337 l 0.22887,0 c -33.77181,91.19842 -72.39483,177.77368 -108.92395,270.40257 -22.74259,57.8205 -37.64862,106.97518 -37.64862,106.97518 l -11.81703,8.35485 c -10.13776,7.35972 -17.97432,12.62556 -28.11208,20.08894 -5.49388,4.04267 -9.3085,17.55969 -3.06828,21.76821 8.58289,5.90851 23.15722,-2.90243 34.97425,-8.49997 11.75483,-5.57681 175.8249,-82.92649 175.8249,-82.92649 0,0 -6.07437,-117.7349 11.98287,-184.71877 14.09751,-52.38882 25.99746,-101.70935 41.94008,-145.68113 2.75731,-7.62923 5.7634,-14.98896 8.74875,-22.28649 14.0975,-3.23413 28.50598,-6.79997 44.0547,-11.7341 8.66582,-2.75731 41.29739,-13.84872 38.62302,-30.6828 -2.4256,-15.96335 -42.99739,-8.35485 -55.0632,-7.13168 -2.01097,0.16585 -4.04266,0.55892 -6.07436,0.97521 8.74874,-18.63773 18.22309,-37.81448 28.67183,-59.52049 16.99993,-35.38888 30.84866,-72.72653 52.9693,-105.29592 10.11703,-14.96823 22.09991,-28.17427 35.78278,-39.82545 9.80606,-8.43777 27.78038,-18.80358 25.02307,-33.93766"/>
	<path id="path3d" d="m 155.9178,83.008608 c -15.94262,27.365742 -33.85474,50.771742 -51.16565,73.452142 v 0 c -12.646289,16.60603 -25.686481,33.68889 -38.06326,52.38882 v 0 c -1.699994,2.59145 -3.731693,5.34875 -5.763392,8.10606 v 0 c -10.282885,13.93165 -14.657258,21.29138 -9.391425,28.98281 v 0 c 2.342673,3.48291 4.042666,3.48291 4.789005,3.48291 v 0 c 5.245101,0 14.159699,-6.8829 20.068212,-15.21701 v 0 c 2.923159,-4.37437 5.348759,-8.58289 7.048752,-12.62556 v 0 l 1.948772,-4.789 4.851201,-1.61707 c 7.774359,-2.67438 191.767525,-65.92656 270.568425,-65.92656 v 0 c 3.31706,0 6.489,0.0829 9.39143,0.24878 v 0 l 7.46338,0.64268 2.4256,7.13167 c 1.11951,3.23414 3.87681,16.77189 -6.32315,55.47783 v 0 c -8.25118,31.42914 -18.30602,64.37169 -30.59987,100.98374 v 0 l -2.28048,6.63412 -7.04875,0.97439 c -13.59995,1.86584 -24.13161,2.7573 -34.08279,2.7573 v 0 c -11.83776,0 -22.84625,-1.22316 -33.93767,-3.73169 v 0 c -5.09998,-1.11951 -8.49997,-4.29145 -11.25727,-6.79997 v 0 c -2.17682,-2.01097 -3.56584,-3.15121 -5.01706,-3.71096 v 0 c -1.94877,2.90242 -4.54022,9.14264 -5.59754,13.68287 v 0 c -1.03658,4.8512 -1.78291,10.36581 -2.50852,15.85969 v 0 c -0.89146,6.07437 -1.69999,12.14873 -2.90243,17.8292 v 0 c -2.50853,11.25727 -3.00608,17.47676 -2.28048,17.97432 v 0 c 2.36341,0 7.69143,-1.53414 19.75724,-9.16338 v 0 c 1.61707,-0.95366 2.75731,-1.61707 3.33779,-1.92804 v 0 c 16.99993,-8.49997 39.2657,-12.95727 53.7571,-13.62068 v 0 l 17.49749,-0.80853 -5.99144,16.1292 C 304.60501,419.73164 282.5051,473.2607 261.04786,525.00683 v 0 c -15.15481,36.52912 -30.45475,73.53507 -45.44372,111.43248 v 0 C 193.25545,693.1403 178.34942,742.0462 178.18356,742.54376 v 0 l -1.1195,3.71096 -3.17194,2.28048 -11.65118,8.16826 c -5.01705,3.73169 -9.47435,6.8829 -14.01457,10.05484 v 0 c -4.4573,3.23413 -8.9768,6.38534 -13.84873,9.95118 v 0 c -0.55975,0.55975 -1.14024,1.86584 -1.45121,3.06828 v 0 c 4.29144,-0.72561 10.84264,-3.95974 16.1914,-6.63412 v 0 l 5.26583,-2.59145 c 10.36581,-4.8512 137.76164,-64.86926 169.0042,-79.60944 v 0 c -0.95366,-27.5316 -3.15121,-121.88122 12.72922,-180.6761 v 0 l 8.58289,-32.29987 c 10.75971,-40.65472 20.89747,-79.04969 33.68889,-114.27271 v 0 c 2.67438,-7.35973 5.49388,-14.57434 8.49996,-21.70602 v 0 l 2.59146,-6.46826 5.82558,-1.38902 c 12.14873,-2.73658 26.80599,-6.30241 43.08032,-11.40239 v 0 c 22.92917,-7.29754 31.26329,-15.71458 31.74011,-16.52311 v 0 c -0.0622,0 -2.65365,-1.94877 -13.18531,-1.94877 v 0 c -8.18899,0 -17.41456,1.22316 -24.04868,2.11462 v 0 l -6.24022,0.72561 c -1.05732,0.0829 -2.0317,0.22805 -3.08901,0.3939 v 0 l -2.59146,0.41463 -21.12552,3.23414 9.14264,-19.36334 c 5.51462,-11.48532 11.17435,-23.24015 17.24871,-35.69986 v 0 l 11.50606,-23.82063 c 4.76827,-9.86825 9.22557,-19.92309 13.76579,-29.87427 v 0 c 11.58898,-25.91453 23.65479,-52.63759 40.09497,-76.85213 v 0 c 10.51093,-15.54872 22.82551,-29.314518 37.73155,-42.10593 v 0 c 1.86585,-1.554872 3.95974,-3.254865 6.15729,-4.954858 v 0 c 6.38534,-5.017053 14.1597,-11.008492 15.13409,-16.357251 v 0 c -1.03658,-0.228048 -2.67438,-0.476828 -4.8512,-0.476828 v 0 H 534.18701 522.70169 C 466.33241,61.46845 279.49901,60.991623 242.74184,59.125777 v 0 C 211.72733,57.50871 183.13842,53.528238 167.50678,51.019712 v 0 c -1.45122,8.499966 -4.62315,20.088943 -11.58898,31.988896" />
	<g id="C" class="default">
		<use xlink:href="#path1d" style="fill:#ffffff"/>
		<use xlink:href="#path2d" />
		<use xlink:href="#path3d" /></g>
	<g id="80">
		<use xlink:href="#path1d" style="fill:#808080"/>
		<use xlink:href="#path2d" />
		<use xlink:href="#path3d" /></g>
	<g id="U">
		<use xlink:href="#path1d" />
		<use xlink:href="#path2d" style="fill:#536e78"/>
		<use xlink:href="#path3d" style="fill:url(#uncommon_grad)"/></g>
	<g id="R">
		<use xlink:href="#path1d" />
		<use xlink:href="#path2d" style="fill:#8b723c"/>
		<use xlink:href="#path3d" style="fill:url(#rare_grad)"/></g>
	<g id="M">
		<use xlink:href="#path1d" />
		<use xlink:href="#path2d" style="fill:#bf331c"/>
		<use xlink:href="#path3d" style="fill:url(#mythic_grad)"/></g>
	<g id="T">
		<use xlink:href="#path1d" style="fill:#ffffff"/>
		<use xlink:href="#path2d" style="fill:#612c75"/>
		<use xlink:href="#path3d" style="fill:url(#time_grad)"/></g>
</svg>
