<?xml version="1.0" encoding="UTF-8" standalone="no"?>
<svg
	xmlns="http://www.w3.org/2000/svg" xmlns:xlink="http://www.w3.org/1999/xlink" version="1.1"
	width="305.05707" height="302.07361" viewBox="0 0 285.991 283.19401">
	<style>g { display: none; }g.default { display: inline; }g.def { display: inline; }g:target { display: inline; }</style>
	<linearGradient id="uncommon_grad" xlink:href="#grad">
		<stop style="stop-color:#536e78" offset="0.2" />
		<stop style="stop-color:#d9eaf3" offset="0.5" />
		<stop style="stop-color:#536e78" offset="0.9" />
	</linearGradient>
	<linearGradient id="rare_grad" xlink:href="#grad">
		<stop style="stop-color:#8b723c" offset="0.2" />
		<stop style="stop-color:#ebd491" offset="0.5" />
		<stop style="stop-color:#8b723c" offset="0.9" />
	</linearGradient>
	<linearGradient id="mythic_grad" xlink:href="#grad">
		<stop style="stop-color:#bf331c" offset="0.2" />
		<stop style="stop-color:#f6b91d" offset="0.5" />
		<stop style="stop-color:#bf331c" offset="0.9" />
	</linearGradient>
	<linearGradient id="time_grad" xlink:href="#grad">
		<stop style="stop-color:#612c75" offset="0.2" />
		<stop style="stop-color:#bf99c3" offset="0.5" />
		<stop style="stop-color:#612c75" offset="0.9" />
	</linearGradient>
		<linearGradient id="uncommon_grad2" xlink:href="#grad2">
		<stop style="stop-color:#536e78" offset="0.2" />
		<stop style="stop-color:#d9eaf3" offset="0.5" />
		<stop style="stop-color:#536e78" offset="0.9" />
	</linearGradient>
	<linearGradient id="rare_grad2" xlink:href="#grad2">
		<stop style="stop-color:#8b723c" offset="0.2" />
		<stop style="stop-color:#ebd491" offset="0.5" />
		<stop style="stop-color:#8b723c" offset="0.9" />
	</linearGradient>
	<linearGradient id="mythic_grad2" xlink:href="#grad2">
		<stop style="stop-color:#bf331c" offset="0.2" />
		<stop style="stop-color:#f6b91d" offset="0.5" />
		<stop style="stop-color:#bf331c" offset="0.9" />
	</linearGradient>
	<linearGradient id="time_grad2" xlink:href="#grad2">
		<stop style="stop-color:#612c75" offset="0.2" />
		<stop style="stop-color:#bf99c3" offset="0.5" />
		<stop style="stop-color:#612c75" offset="0.9" />
	</linearGradient>
	<linearGradient id="grad"
		x1="225.3154" y1="137.5195" x2="94.080399" y2="61.750999"
		gradientUnits="userSpaceOnUse"
		gradientTransform="translate(-7.546,-8.211)"/>
	<linearGradient id="grad2"
		x1="254.9277" y1="253.6582" x2="53.703701" y2="137.48151"
		gradientUnits="userSpaceOnUse"
		gradientTransform="translate(-7.546,-8.211)"/>
	<path id="path1d" d="M 142.412,198.529 C 138.706,196.341 48.876,142.612 44.112,139.817 40.475,144.03 0,195.833 0,195.833 l 141.686,87.361 144.305,-87.854 c 0,0 -46.435,-54.341 -46.495,-54.343 -2.331,1.286 -95.183,56.501 -97.084,57.532 z"/>
	<path id="path2d" d="m 45.43,111.925 c 5.919,3.785 96.454,59.431 96.454,59.431 0,0 93.148,-58.132 96.57,-60.378 C 237.316,109.448 142.565,0 142.565,0 c 0,0 -96.05,110.711 -97.135,111.925 z"/>
	<path id="path3d" d="m 54.204,109.539 c 5.381,3.44 87.686,54.027 87.686,54.027 0,0 84.68,-52.847 87.791,-54.889 -1.035,-1.391 -87.172,-100.888 -87.172,-100.888 0,0 -87.319,100.646 -88.305,101.75 z"/>
	<path id="path4d" d="M 142.466,205.209 C 139.097,203.22 50.16,149.83 45.829,147.289 42.523,151.119 8.454,194.576 8.454,194.576 l 134.26,82.146 134.822,-83.504 c 0,0 -38.672,-44.332 -39.414,-44.824 -0.029,-0.02 -0.071,-0.031 -0.127,-0.033 -2.118,1.169 -93.801,55.91 -95.529,56.848 z"/>
	<path id="path5d" d="m 257.487,191.457 c 0,0 -107.03,65.795 -108.033,66.395 0,-1.124 0,-8.95 0.002,-19.813 l 0.002,-19.75 85.811,-51.5 z"/>
	<path id="path6d" d="m 208.155,108.182 c -0.953,0.627 -56.973,36.071 -58.701,37.107 0,-1.313 0,-25.351 0,-55.723 0,-46.067 0,-53.714 0,-55.215 0.213,-0.016 57.867,72.745 58.701,73.831 z"/>
<polygon fill="#ffffff" points="0,0 305.05707,0 305.05707,302.07361 0,302.07361" />
	<g id="C" transform="scale(-1, 1) translate(-286, 0)" class="default">
		<use xlink:href="#path1d" style="fill:#ffffff"/>
		<use xlink:href="#path2d" style="fill:#ffffff"/>
		<use xlink:href="#path3d" />
		<use xlink:href="#path4d" />
		<use xlink:href="#path5d" style="fill:#ffffff"/>
		<use xlink:href="#path6d" style="fill:#ffffff"/></g>
	<g id="80" transform="scale(-1, 1) translate(-286, 0)">
		<use xlink:href="#path1d" style="fill:#808080"/>
		<use xlink:href="#path2d" style="fill:#808080"/>
		<use xlink:href="#path3d" />
		<use xlink:href="#path4d" />
		<use xlink:href="#path5d" style="fill:#808080"/>
		<use xlink:href="#path6d" style="fill:#808080"/></g>
	<g id="U">
		<use xlink:href="#path1d" />
		<use xlink:href="#path2d" />
		<use xlink:href="#path3d" style="fill:url(#uncommon_grad)"/>
		<use xlink:href="#path4d" style="fill:url(#uncommon_grad2)"/>
		<use xlink:href="#path5d" />
		<use xlink:href="#path6d" /></g>
	<g id="R">
		<use xlink:href="#path1d" />
		<use xlink:href="#path2d" />
		<use xlink:href="#path3d" style="fill:url(#rare_grad)"/>
		<use xlink:href="#path4d" style="fill:url(#rare_grad2)"/>
		<use xlink:href="#path5d" />
		<use xlink:href="#path6d" /></g>
	<g id="M">
		<use xlink:href="#path1d" />
		<use xlink:href="#path2d" />
		<use xlink:href="#path3d" style="fill:url(#mythic_grad)"/>
		<use xlink:href="#path4d" style="fill:url(#mythic_grad2)"/>
		<use xlink:href="#path5d" />
		<use xlink:href="#path6d" /></g>
	<g id="T">
		<use xlink:href="#path1d" style="fill:#ffffff"/>
		<use xlink:href="#path2d" style="fill:#ffffff"/>
		<use xlink:href="#path3d" style="fill:url(#time_grad)"/>
		<use xlink:href="#path4d" style="fill:url(#time_grad)"/>
		<use xlink:href="#path5d" style="fill:#ffffff"/>
		<use xlink:href="#path6d" style="fill:#ffffff"/></g>
</svg>
