<?xml version="1.0" encoding="UTF-8" standalone="no"?>
<svg
	xmlns="http://www.w3.org/2000/svg" xmlns:xlink="http://www.w3.org/1999/xlink" version="1.1"
	width="600" height="744.02838">
	<style>g { display: none; }g.default { display: inline; }g.def { display: inline; }g:target { display: inline; }</style>
	<radialGradient id="uncommon_grad" xlink:href="#grad">
		<stop style="stop-color:#d9eaf3" offset="0" />
		<stop style="stop-color:#99aebc" offset="0.69101" />
		<stop style="stop-color:#536e78" offset="1" />
	</radialGradient>
	<radialGradient id="rare_grad" xlink:href="#grad">
		<stop style="stop-color:#ebd491" offset="0" />
		<stop style="stop-color:#d2bb7b" offset="0.69101" />
		<stop style="stop-color:#8b723c" offset="1" />
	</radialGradient>
	<radialGradient id="mythic_grad" xlink:href="#grad">
		<stop style="stop-color:#f6b91d" offset="0" />
		<stop style="stop-color:#d3641c" offset="0.69101" />
		<stop style="stop-color:#bf331c" offset="1" />
	</radialGradient>
	<radialGradient id="time_grad" xlink:href="#grad">
		<stop style="stop-color:#bf99c3" offset="0" />
		<stop style="stop-color:#7b5190" offset="0.69101" />
		<stop style="stop-color:#612c75" offset="1" />
	</radialGradient>
	<radialGradient id="grad"
		cx="0" cy="0" r="1" fx="0" fy="0"
		gradientUnits="userSpaceOnUse"
		gradientTransform="matrix(291.72237,0,0,291.72237,299.99927,367.28414)"/>
	<path id="path1d" d="M 297.82306,0.0744 C 275.14967,0.5952 201.1217,14.601 130.64634,72.07497 71.051966,120.69534 0,213.5465 0,380.22102 0,543.32434 54.702574,632.7717 100.55155,679.04848 c 51.22438,51.65217 102.59755,63.14697 108.34495,64.30017 14.15459,2.84579 28.55099,-3.4782 36.17698,-15.7542 3.4038,-5.59859 5.1522,-11.92259 5.1522,-18.17219 0,-7.47719 -2.4738,-15.04739 -7.3284,-21.29699 -5.37539,-6.90059 -12.42479,-16.40519 -20.27399,-27.75118 4.929,-6.0264 7.8492,-13.6524 7.8492,-21.72479 0,-0.87346 -0.0744,-1.8042 -0.1488,-2.6784 -0.372,-5.1708 -0.65026,-12.7968 -0.65026,-21.87359 0,-21.07379 1.7298,-50.05258 8.4258,-74.17677 l 56.52537,0 10.6764,0 56.59977,0 c 6.696,24.12419 8.5002,53.10298 8.5002,74.17677 0,9.07679 -0.35415,16.77719 -0.72466,21.87359 -0.0744,0.87494 -0.1488,1.8042 -0.1488,2.6784 0,8.07239 2.9202,15.69839 7.7748,21.72479 -7.7748,11.34599 -14.8242,20.85059 -20.19959,27.82558 -4.8546,6.1752 -7.254,13.7454 -7.254,21.29699 0,6.2496 1.674,12.4992 5.0778,18.09779 7.62599,12.3504 22.02239,18.59999 36.17698,15.7542 5.673,-1.1532 57.12057,-12.648 108.34495,-64.30017 C 545.35323,632.7717 600,543.32434 600,380.29542 600,212.3003 527.92503,119.24455 467.54946,70.62417 395.8279,13.02 321.00013,0 300.42854,0 l -1.7298,0 c -0.2976,0 -0.5952,0 -0.87494,0.0744"/>
	<path id="path2d" d="m 294.62386,505.32456 -80.64956,0 c -24.62639,51.01978 -18.09779,133.32474 -18.09779,133.32474 0,0 -57.60418,-77.37597 -57.60418,-167.90212 0,-90.52616 64.22577,-181.05232 64.22577,-181.05232 14.8242,-6.54719 64.15137,-8.22119 64.15137,-8.22119 0,0 -37.85098,-80.64956 -106.94995,-59.20377 -69.173363,21.35279 -90.526153,98.72875 -90.526153,98.72875 29.648386,-18.09779 93.799753,-21.42719 93.799753,-21.42719 0,0 -59.29677,69.17337 -59.29677,167.90212 0,98.74735 111.97195,241.94868 111.97195,241.94868 0,0 -181.070917,-36.17698 -181.070917,-329.20124 0,-290.42026 226.399087,-344.67643 264.045477,-345.62503 l 1.8042,0 c 34.59598,0 264.99407,52.67517 264.99407,345.69943 0,292.94986 -181.07091,329.20124 -181.07091,329.20124 0,0 111.97194,-143.20133 111.97194,-242.02308 0,-98.72875 -59.29677,-167.90212 -59.29677,-167.90212 0,0 64.15137,3.3294 93.79976,21.42719 0,0 -21.35279,-77.37596 -90.52616,-98.72875 -69.09897,-21.44579 -106.94995,59.20377 -106.94995,59.20377 0,0 49.32718,1.674 64.15137,8.22119 0,0 64.22577,90.60056 64.22577,181.12672 0,90.52615 -57.60417,167.82772 -57.60417,167.82772 0,0 6.52859,-82.30496 -18.0978,-133.32474 l -80.64956,0 -10.75079,0 z"/>
	<path id="path3d" d="m 43.877392,380.29595 c 0,215.1275 97.519748,287.57446 146.419128,310.37805 v 0 C 158.17434,644.89942 94.450767,544.49667 94.450767,467.47411 v 0 c 0,-72.94917 30.745783,-129.75354 48.750573,-156.72353 v 0 c -20.55299,2.3994 -51.875371,7.6446 -69.229163,18.17219 v 0 l -20.05079,12.276 6.230997,-22.67339 c 0.9486,-3.3294 23.621989,-82.52816 96.794356,-105.20155 v 0 c 8.63039,-2.6226 17.27939,-3.999 25.70518,-3.999 v 0 c 59.72458,0 91.12136,65.47197 92.42336,68.15037 v 0 l 5.952,12.87119 -14.0802,0.4278 c -17.14919,0.5766 -46.72317,2.9016 -58.42257,6.6216 v 0 c -9.67199,14.45219 -60.95217,94.72975 -60.95217,173.42632 v 0 c 0,54.27477 21.92939,104.25295 38.27878,134.05013 v 0 c 0.5952,-29.42518 4.4454,-71.85176 19.77179,-103.54615 v 0 l 2.5296,-5.2266 h 5.8962 80.64956 10.602 80.64956 5.89619 l 2.4552,5.2266 c 15.40079,31.69439 19.25099,74.12097 19.92059,103.62055 v 0 c 16.34939,-29.79718 38.20438,-79.84976 38.20438,-134.12453 v 0 c 0,-78.69657 -51.28017,-158.97413 -60.95217,-173.42632 v 0 c -11.69939,-3.72 -41.27338,-6.045 -58.42257,-6.6216 v 0 l -14.08019,-0.4278 5.952,-12.87119 c 1.302,-2.6784 32.69878,-68.15037 92.42335,-68.15037 v 0 c 8.4258,0 17.07479,1.3764 25.70519,3.999 v 0 c 73.17236,22.67339 95.84575,101.87215 96.71995,105.20155 v 0 l 6.3054,22.67339 -20.05079,-12.276 c -17.35379,-10.52759 -48.67618,-15.77279 -69.30357,-18.17219 v 0 c 18.07919,26.96999 48.82498,83.77436 48.82498,156.72353 v 0 c 0,77.02256 -63.72357,177.42531 -95.90156,223.19989 v 0 c 48.95518,-22.80359 146.47493,-95.25055 146.47493,-310.37805 v 0 c 0,-277.92107 -213.69529,-336.399438 -257.27507,-336.399438 v 0 C 248.27269,45.124112 43.877392,109.07088 43.877392,380.29595" />
	<g id="C" class="default">
		<use xlink:href="#path1d" style="fill:#ffffff"/>
		<use xlink:href="#path2d" />
		<use xlink:href="#path3d" /></g>
	<g id="80">
		<use xlink:href="#path1d" style="fill:#808080"/>
		<use xlink:href="#path2d" />
		<use xlink:href="#path3d" /></g>
	<g id="U">
		<use xlink:href="#path1d" style="fill:#ffffff"/>
		<use xlink:href="#path2d" style="fill:#536e78"/>
		<use xlink:href="#path3d" style="fill:url(#uncommon_grad)"/></g>
	<g id="R">
		<use xlink:href="#path1d" style="fill:#ffffff"/>
		<use xlink:href="#path2d" style="fill:#8b723c"/>
		<use xlink:href="#path3d" style="fill:url(#rare_grad)"/></g>
	<g id="M">
		<use xlink:href="#path1d" style="fill:#ffffff"/>
		<use xlink:href="#path2d" style="fill:#bf331c"/>
		<use xlink:href="#path3d" style="fill:url(#mythic_grad)"/></g>
	<g id="T">
		<use xlink:href="#path1d" style="fill:#ffffff"/>
		<use xlink:href="#path2d" style="fill:#612c75"/>
		<use xlink:href="#path3d" style="fill:url(#time_grad)"/></g>
</svg>
