<?xml version="1.0" encoding="UTF-8" standalone="no"?>
<svg
   xmlns="http://www.w3.org/2000/svg"
   version="1.1"
   id="Layer_1"
   x="0px"
   y="0px"
   width="37.506916"
   height="49.999001"
   viewBox="0 0 37.506916 49.999"
>
<g
   id="g446"
   transform="rotate(-90,24.9995,24.9995)"><g
     transform="rotate(90,24.999484,24.999516)"
     id="g402"><g
       id="g390">
	<path
   style="fill:#ffffff"
   id="path3755"
   d="M 17.602,0 15.935,0.284 15.808,0.306 V 0.299 C 8.207,1.501 2.558,7.254 0.671,14.098 c -1.86,6.745 0.036,14.655 7.079,20.167 3.287,6.524 5.646,9.199 8.91,15.734 l 0.942,-20.317 v -0.089 -0.748 c 0.376,0.044 0.756,0.067 1.144,0.067 1.464,0 2.862,-0.32 4.119,-0.897 -6.09,5.879 -5.932,13.097 -2.713,17.618 1.679,2.36 4.054,4.165 6.675,4.156 3.743,-0.013 6.739,-0.687 9.822,-5.831 -2.063,1.37 -5.442,3.232 -7.863,1.719 -4.689,-2.929 -3.669,-8.501 0.635,-11.183 7.684,-4.785 9.182,-13.551 7.422,-20.317 C 35.083,7.415 29.505,1.741 21.668,0.307 H 21.653 L 21.63,0.299 21.488,0.277 19.829,0.015 v 1.682 0.142 6.182 0.082 0.972 c -0.357,-0.039 -0.717,-0.06 -1.084,-0.06 -0.387,0 -0.768,0.023 -1.144,0.067 V 0 Z" />
	<path
   id="path3765"
   d="M 16.167,1.697 16.032,1.72 C 9.021,2.828 3.801,8.143 2.054,14.479 0.31,20.802 2.037,28.143 8.878,33.338 c 0.003,0.002 0.004,0.005 0.007,0.008 l 7.026,13.985 0.224,0.449 v -0.501 l 0.03,-17.596 v -0.089 l -0.09,-0.022 C 10.826,28.188 7.952,23.76 7.823,19.212 7.694,14.664 10.306,9.998 16.083,8.134 L 16.166,8.112 V 8.022 1.839 1.697 Z m 5.097,0 v 0.142 6.182 0.082 l 0.075,0.03 c 7.44,2.721 9.309,8.823 8.327,13.351 -0.703,3.243 -3.102,5.178 -5.016,6.832 -6.517,5.63 -6.293,12.331 -3.334,16.49 1.48,2.079 3.637,3.528 5.98,3.895 2.333,0.365 4.843,-0.36 7.004,-2.579 0.001,-10e-4 0.006,10e-4 0.007,0 0.007,-0.008 0.015,-0.014 0.022,-0.022 l 0.71,-0.733 -0.859,0.553 c -0.008,0.005 -0.015,0.01 -0.022,0.015 -3.365,2.142 -7.089,0.867 -8.828,-1.861 C 23.587,41.34 23.827,37.138 28.522,33.377 35.196,28.031 37.074,20.783 35.451,14.54 33.828,8.297 28.707,3.056 21.406,1.72 Z m -2.519,9.897 c -4.07,0 -7.37,3.292 -7.37,7.363 0,4.071 3.3,7.371 7.37,7.371 4.07,0 7.37,-3.3 7.37,-7.371 0,-4.071 -3.3,-7.363 -7.37,-7.363 z" />
</g></g></g>
</svg>