<?xml version="1.0" encoding="utf-8"?><svg version="1.1" id="Layer_1" xmlns="http://www.w3.org/2000/svg" xmlns:xlink="http://www.w3.org/1999/xlink" x="0px" y="0px"
	 width="47.792px" height="50px"  >
<g>
	<path id="path4186_3_" d="M10.221,0L6.313,5.308l-0.31,4.188l2.268,4.023l-6.414,5.851L0,29.679l10.193-5.116l7.883-13.618
		l-7.304-3.149L10.221,0z M37.571,0L37.02,7.795l-7.304,3.149l7.883,13.618l10.193,5.116l-1.857-10.309l-6.414-5.851l2.268-4.023
		l-0.31-4.188L37.571,0z M23.896,5.478l-9.959,17.206l9.959-5l9.959,5L23.896,5.478z M23.896,20.254l-10.212,5.127l10.212,23.251
		l10.212-23.251L23.896,20.254z M11.627,26.415L1.06,31.719L21.986,50L11.627,26.415z M36.165,26.415L25.806,50l20.926-18.28
		L36.165,26.415z"/>
	
		<linearGradient id="rect3355_4_" gradientUnits="userSpaceOnUse" x1="32.2563" y1="75.0532" x2="32.2563" y2="25.0541" gradientTransform="matrix(1 0 0 -1 -8.3599 75.0537)">
		<stop  offset="0.1" style="stop-color:#bf331c"/>
		<stop  offset="0.5" style="stop-color:#f6b91d"/>
		<stop  offset="0.9" style="stop-color:#bf331c"/>
	</linearGradient>
	<path id="rect3355_3_" fill="url(#rect3355_4_)" d="M9.164,3.65l-1.57,2.132L7.341,9.198l2.586,4.588L3.07,20.041L1.757,27.33
		l7.497-3.764l6.947-12L9.52,8.684L9.164,3.65z M38.628,3.65l-0.356,5.034l-6.681,2.882l6.947,12l7.497,3.764l-1.313-7.289
		l-6.857-6.255l2.586-4.588l-0.252-3.416L38.628,3.65z M23.896,8.098l-6.624,11.442l6.624-3.325l6.624,3.325L23.896,8.098z
		 M23.896,21.723l-8.509,4.271l8.509,19.374l8.509-19.374L23.896,21.723z M10.981,28.208l-7.587,3.809l15.025,13.125L10.981,28.208z
		 M36.811,28.208l-7.438,16.934l15.025-13.125L36.811,28.208z"/>
</g>
</svg>
