<?xml version="1.0" encoding="utf-8"?>
<!-- Generator: Adobe Illustrator 16.0.0, SVG Export Plug-In . SVG Version: 6.00 Build 0)  -->
<!DOCTYPE svg PUBLIC "-//W3C//DTD SVG 1.1//EN" "http://www.w3.org/Graphics/SVG/1.1/DTD/svg11.dtd">
<svg version="1.1" id="Layer_1" xmlns="http://www.w3.org/2000/svg" xmlns:xlink="http://www.w3.org/1999/xlink" x="0px" y="0px"
	 width="194.756px" height="194.755px" viewBox="0 0 194.756 194.755" enable-background="new 0 0 194.756 194.755"
	 xml:space="preserve">
<g>
	<path fill="#FFFFFF" d="M123.986,0c0.387,5.925,0.777,11.85,1.17,17.774c2.643,0.905,5.199,2.05,7.667,3.355
		c18.94-5.317,37.87-10.678,56.808-16.005c-5.328,18.939-10.695,37.869-16.005,56.814c1.308,2.463,2.447,5.016,3.353,7.655
		c5.925,0.399,11.853,0.785,17.777,1.175c-0.08,13.846-0.186,27.69-0.252,41.535c-5.871,0.45-11.743,0.832-17.613,1.26
		c-1.373,5.748-3.567,11.305-6.572,16.396c3.8,4.47,7.68,8.875,11.436,13.382c-8.358,8.027-16.711,16.068-25.014,24.152
		c3.038,2.226,6.766,3.443,10.523,3.541c0.225,0.006,0.449,0.01,0.674,0.01c3.879,0,7.74-0.973,11.229-2.65
		c1.527-0.747,3.002-1.64,4.245-2.808c-2.11,6.192-6.098,11.743-11.293,15.723c-5.668,4.332-12.795,6.583-19.911,6.583
		c-2.162,0-4.322-0.208-6.441-0.628c-9.425-1.798-17.883-7.452-23.697-15.013c-0.442,4.423-0.893,8.843-1.335,13.266
		c-13.34-0.343-26.681-0.698-40.021-1.051c-0.422-5.877-0.837-11.757-1.265-17.635c-4.603-1.353-9.12-3.018-13.44-5.107
		c-11.012,11.008-22.02,22.022-33.032,33.03c0.005-10.985-0.027-21.973-0.018-32.958c-9.54,0-19.084-0.019-28.626-0.019
		c-1.443,0-2.887,0.001-4.332,0.001c11.008-11.012,22.023-22.02,33.028-33.032c-2.093-4.319-3.753-8.84-5.108-13.442
		c-5.877-0.425-11.757-0.84-17.634-1.263c-0.351-13.34-0.708-26.68-1.05-40.02c4.417-0.445,8.837-0.893,13.257-1.338
		c-6.322-4.882-11.303-11.58-13.798-19.192c-2.112-6.343-2.39-13.311-0.604-19.765c1.702-6.44,5.495-12.293,10.667-16.487
		c3.109-2.533,6.643-4.578,10.453-5.848c-1.735,1.875-2.897,4.202-3.8,6.572c-1.583,4.279-2.181,9.02-1.13,13.497
		c0.545,2.362,1.582,4.601,3.006,6.561C35.323,29.678,43.4,21.369,51.411,13c4.507,3.752,8.912,7.635,13.385,11.438
		c5.089-3.006,10.646-5.205,16.392-6.572c0.426-5.868,0.823-11.738,1.25-17.605C96.287,0.175,110.136,0.085,123.986,0"/>
	<path d="M82.438,0.26c13.85-0.085,27.698-0.175,41.549-0.26c0.387,5.925,0.777,11.85,1.17,17.774
		c2.643,0.905,5.199,2.05,7.667,3.355c18.94-5.317,37.87-10.678,56.808-16.005c-5.328,18.939-10.695,37.869-16.005,56.814
		c1.308,2.463,2.447,5.016,3.353,7.655c5.925,0.399,11.853,0.785,17.777,1.175c-0.08,13.846-0.186,27.69-0.252,41.535
		c-5.871,0.45-11.743,0.832-17.613,1.26c-1.373,5.748-3.567,11.305-6.572,16.396c3.8,4.47,7.68,8.875,11.436,13.382
		c-8.358,8.027-16.711,16.068-25.014,24.152c3.038,2.226,6.766,3.443,10.523,3.541c4.104,0.119,8.212-0.865,11.902-2.641
		c1.527-0.747,3.002-1.64,4.245-2.808c-2.11,6.192-6.098,11.743-11.293,15.723c-7.39,5.647-17.257,7.758-26.353,5.955
		c-9.425-1.798-17.883-7.452-23.697-15.013c-0.442,4.423-0.893,8.843-1.335,13.266c-13.34-0.343-26.681-0.698-40.021-1.051
		c-0.422-5.877-0.837-11.757-1.265-17.635c-4.603-1.353-9.12-3.018-13.44-5.107c-11.012,11.008-22.02,22.022-33.032,33.03
		c0.005-10.985-0.027-21.973-0.018-32.958c-10.984,0-21.972-0.024-32.958-0.018c11.008-11.012,22.023-22.02,33.028-33.032
		c-2.093-4.319-3.753-8.84-5.108-13.442c-5.877-0.425-11.757-0.84-17.634-1.263c-0.351-13.34-0.708-26.68-1.05-40.02
		c4.417-0.445,8.837-0.893,13.257-1.338c-6.322-4.882-11.303-11.58-13.798-19.192c-2.112-6.343-2.39-13.311-0.604-19.765
		c1.702-6.44,5.495-12.293,10.667-16.487c3.109-2.533,6.643-4.578,10.453-5.848c-1.735,1.875-2.897,4.202-3.8,6.572
		c-1.583,4.279-2.181,9.02-1.13,13.497c0.545,2.362,1.582,4.601,3.006,6.561C35.323,29.678,43.4,21.369,51.411,13
		c4.507,3.752,8.912,7.635,13.385,11.438c5.089-3.006,10.646-5.205,16.392-6.572C81.613,11.997,82.011,6.127,82.438,0.26z
		 M87.508,5.675c-0.393,5.58-0.805,11.157-1.172,16.74c-7.87,1.212-15.473,4.229-22.005,8.795c-4.175-3.585-8.351-7.17-12.528-10.75
		c-6.918,7.173-13.842,14.337-20.757,21.51c2.582,2.147,5.643,3.742,8.933,4.462c5.137,1.166,10.449,0.306,15.512-0.824
		c7.008-1.6,14.027-3.54,21.266-3.62c6.063-0.115,12.228,1.202,17.48,4.303c4.113,2.375,7.566,5.75,10.475,9.478
		c3.098,4.002,5.439,8.657,6.383,13.649c11.18-11.173,22.352-22.353,33.535-33.524c-7.23-6.107-15.342-11.658-24.648-13.947
		c-0.369-5.493-0.725-10.985-1.09-16.48C108.431,5.55,97.969,5.59,87.508,5.675z M125.291,83.689
		c6.598,1.221,12.525,4.863,17.305,9.478c3.422,3.226,6.205,7.16,7.93,11.545c1.863,4.675,2.482,9.775,2.244,14.78
		c-0.264,6.107-1.759,12.064-3.156,17.99c-1.183,5.07-2.29,10.305-1.572,15.527c0.508,3.93,2.22,7.657,4.746,10.695
		c7.171-6.91,14.328-13.836,21.504-20.743c-3.563-4.197-7.17-8.357-10.748-12.542c4.543-6.521,7.613-14.105,8.76-21.973
		c5.591-0.43,11.186-0.793,16.778-1.2c0.082-10.462,0.125-20.923,0.206-31.382c-5.491-0.368-10.984-0.723-16.477-1.091
		c-2.295-9.308-7.837-17.42-13.949-24.647C147.666,61.31,136.48,72.502,125.291,83.689z M48.979,74.467
		c-2.683,1.518-4.623,4.24-5.221,7.261c-4.789-0.78-9.457-2.272-13.819-4.4c-5.048,0.485-10.09,1.101-15.136,1.635
		c0.266,10,0.528,20.003,0.791,30.003c5.521,0.397,11.045,0.79,16.567,1.185c1.72,6.698,3.987,13.317,7.422,19.345
		c3.463,0.373,6.928,0.713,10.393,1.053c5.798-5.822,11.62-11.619,17.431-17.43c-4.107-6.025-6.369-13.2-6.953-20.439
		c3.313-2.273,5.16-6.471,4.518-10.448c-0.492-3.563-2.925-6.77-6.21-8.228C55.674,72.587,51.916,72.762,48.979,74.467z
		 M99.123,73.42c-3.813,0.572-7.438,2.313-10.262,4.93c-2.926,2.678-5.003,6.263-5.846,10.138c-0.88,3.955-0.495,8.18,1.103,11.905
		c1.882,4.444,5.485,8.127,9.886,10.112c3.795,1.732,8.154,2.188,12.229,1.298c3.905-0.833,7.521-2.918,10.215-5.86
		c5.226-5.527,6.635-14.213,3.489-21.128c-1.77-4.018-4.944-7.393-8.837-9.415C107.451,73.487,103.191,72.797,99.123,73.42z
		 M64.203,144.779c0.357,3.465,0.668,6.938,1.065,10.402c6.03,3.421,12.643,5.695,19.337,7.41c0.393,5.523,0.785,11.048,1.186,16.57
		c10,0.26,20.002,0.527,30.002,0.787c0.513-4.654,1.021-9.31,1.538-13.962c0.04-0.57,0.252-1.19-0.112-1.7
		c-2.035-4.168-3.352-8.655-4.16-13.213c1.135-0.302,2.268-0.654,3.282-1.26c2.905-1.645,4.955-4.705,5.33-8.027
		c0.415-3.225-0.733-6.605-3.042-8.893c-2.342-2.4-5.848-3.567-9.16-3.075c-2.945,0.393-5.648,2.103-7.346,4.528
		c-7.262-0.588-14.457-2.857-20.494-6.988C75.813,133.16,70.014,138.975,64.203,144.779z"/>
	<g>
		<linearGradient id="SVGID_1_" gradientUnits="userSpaceOnUse" x1="-3.1348" y1="37.4409" x2="218.477" y2="37.4409">
			<stop  offset="0.2" style="stop-color:#6D7984"/>
			<stop  offset="0.5" style="stop-color:#B4CDDD"/>
			<stop  offset="0.8" style="stop-color:#6D7984"/>
		</linearGradient>
		<path fill="url(#SVGID_1_)" d="M55.49,45.607c7.008-1.6,14.027-3.54,21.266-3.62c6.063-0.115,12.228,1.202,17.48,4.303
			c4.113,2.375,7.566,5.75,10.475,9.478c3.098,4.002,5.439,8.657,6.383,13.649c11.18-11.173,22.352-22.353,33.535-33.524
			c-7.23-6.107-15.342-11.658-24.648-13.947c-0.369-5.493-0.725-10.985-1.09-16.48c-10.46,0.085-20.922,0.125-31.383,0.21
			c-0.393,5.58-0.805,11.157-1.172,16.74c-7.87,1.212-15.473,4.229-22.005,8.795c-4.175-3.585-8.351-7.17-12.528-10.75
			c-6.918,7.173-13.842,14.337-20.757,21.51c2.582,2.147,5.643,3.742,8.933,4.462C45.115,47.598,50.428,46.737,55.49,45.607z"/>
		<linearGradient id="SVGID_2_" gradientUnits="userSpaceOnUse" x1="-3.4111" y1="106.916" x2="217.2013" y2="106.916">
			<stop  offset="0.2" style="stop-color:#6D7984"/>
			<stop  offset="0.5" style="stop-color:#B4CDDD"/>
			<stop  offset="0.8" style="stop-color:#6D7984"/>
		</linearGradient>
		<path fill="url(#SVGID_2_)" d="M189.081,107.247c0.082-10.462,0.125-20.923,0.206-31.382c-5.491-0.368-10.984-0.723-16.477-1.091
			c-2.295-9.308-7.837-17.42-13.949-24.647c-11.195,11.183-22.381,22.375-33.57,33.563c6.598,1.221,12.525,4.863,17.305,9.478
			c3.422,3.226,6.205,7.16,7.93,11.545c1.863,4.675,2.482,9.775,2.244,14.78c-0.264,6.107-1.759,12.064-3.156,17.99
			c-1.183,5.07-2.29,10.305-1.572,15.527c0.508,3.93,2.22,7.657,4.746,10.695c7.171-6.91,14.328-13.836,21.504-20.743
			c-3.563-4.197-7.17-8.357-10.748-12.542c4.543-6.521,7.613-14.105,8.76-21.973C177.894,108.018,183.488,107.654,189.081,107.247z"
			/>
		<linearGradient id="SVGID_3_" gradientUnits="userSpaceOnUse" x1="-3.5615" y1="101.7998" x2="215.2239" y2="101.7998">
			<stop  offset="0.2" style="stop-color:#6D7984"/>
			<stop  offset="0.5" style="stop-color:#B4CDDD"/>
			<stop  offset="0.8" style="stop-color:#6D7984"/>
		</linearGradient>
		<path fill="url(#SVGID_3_)" d="M60.453,92.678c3.313-2.273,5.16-6.471,4.518-10.448c-0.492-3.563-2.925-6.77-6.21-8.228
			c-3.087-1.415-6.845-1.24-9.782,0.465c-2.683,1.518-4.623,4.24-5.221,7.261c-4.789-0.78-9.457-2.272-13.819-4.4
			c-5.048,0.485-10.09,1.101-15.136,1.635c0.266,10,0.528,20.003,0.791,30.003c5.521,0.397,11.045,0.79,16.567,1.185
			c1.72,6.698,3.987,13.317,7.422,19.345c3.463,0.373,6.928,0.713,10.393,1.053c5.798-5.822,11.62-11.619,17.431-17.43
			C63.299,107.092,61.037,99.917,60.453,92.678z"/>
		<linearGradient id="SVGID_4_" gradientUnits="userSpaceOnUse" x1="-4.0137" y1="92.7217" x2="217.3428" y2="92.7217">
			<stop  offset="0.2" style="stop-color:#6D7984"/>
			<stop  offset="0.5" style="stop-color:#B4CDDD"/>
			<stop  offset="0.8" style="stop-color:#6D7984"/>
		</linearGradient>
		<path fill="url(#SVGID_4_)" d="M111.101,75.399c-3.649-1.912-7.909-2.603-11.978-1.979c-3.813,0.572-7.438,2.313-10.262,4.93
			c-2.926,2.678-5.003,6.263-5.846,10.138c-0.88,3.955-0.495,8.18,1.103,11.905c1.882,4.444,5.485,8.127,9.886,10.112
			c3.795,1.732,8.154,2.188,12.229,1.298c3.905-0.833,7.521-2.918,10.215-5.86c5.226-5.527,6.635-14.213,3.489-21.128
			C118.168,80.797,114.993,77.422,111.101,75.399z"/>
		<linearGradient id="SVGID_5_" gradientUnits="userSpaceOnUse" x1="-5.082" y1="153.6543" x2="216.6131" y2="153.6543">
			<stop  offset="0.2" style="stop-color:#6D7984"/>
			<stop  offset="0.5" style="stop-color:#B4CDDD"/>
			<stop  offset="0.8" style="stop-color:#6D7984"/>
		</linearGradient>
		<path fill="url(#SVGID_5_)" d="M109.469,129.819c-2.945,0.393-5.648,2.103-7.346,4.528c-7.262-0.588-14.457-2.857-20.494-6.988
			c-5.815,5.801-11.615,11.615-17.426,17.42c0.357,3.465,0.668,6.938,1.065,10.402c6.03,3.421,12.643,5.695,19.337,7.41
			c0.393,5.523,0.785,11.048,1.186,16.57c10,0.26,20.002,0.527,30.002,0.787c0.513-4.654,1.021-9.31,1.538-13.962
			c0.04-0.57,0.252-1.19-0.112-1.7c-2.035-4.168-3.352-8.655-4.16-13.213c1.135-0.302,2.268-0.654,3.282-1.26
			c2.905-1.645,4.955-4.705,5.33-8.027c0.415-3.225-0.733-6.605-3.042-8.893C116.287,130.494,112.781,129.327,109.469,129.819z"/>
	</g>
</g>
</svg>
